<?xml version="1.0" standalone="no"?><!DOCTYPE svg PUBLIC "-//W3C//DTD SVG 1.1//EN" "http://www.w3.org/Graphics/SVG/1.1/DTD/svg11.dtd" ><svg xmlns="http://www.w3.org/2000/svg"><metadata></metadata><defs><font id="1.002;KLIM;DomaineText-LightItalic" horiz-adv-x="1328"><font-face font-family="Domaine Text Light" font-weight="300" font-stretch="normal" units-per-em="1000" panose-1="2 10 3 6 8 5 5 13 2 4" ascent="1030" descent="-280" x-height="4" bbox="-214 -246 1280 976" underline-thickness="36" underline-position="-75" unicode-range="U+0009-fb04" /><missing-glyph horiz-adv-x="500"  /><glyph glyph-name="" unicode=" " d="" /><glyph glyph-name="" unicode="!" d="M188 700 l-83 -512 l10 0 l173 512 l-100 0 ZM140 50 q-1 26 -17 42 q-17 17 -42 17 q-25 0 -41 -17 q-17 -16 -18 -42 q1 -26 18 -42 q16 -16 41 -17 q25 1 42 17 q16 16 17 42 l0 0 Z" /><glyph glyph-name="" unicode="&quot;" d="M155 425 l101 249 q-4 14 -16 24 q-12 11 -31 11 q-22 0 -36 -16 l-30 -265 l12 -3 ZM312 425 l101 249 q-4 14 -16 24 q-12 11 -31 11 q-22 0 -36 -16 l-30 -265 l12 -3 Z" /><glyph glyph-name="" unicode="#" d="M379 241 l-147 0 l85 216 l147 0 l-85 -216 ZM285 0 l35 0 l81 207 l166 0 l16 34 l-169 0 l85 216 l149 0 l15 34 l-151 0 l82 209 l-35 0 l-82 -209 l-147 0 l82 209 l-35 0 l-82 -209 l-168 0 l-15 -34 l170 0 l-85 -216 l-150 0 l-16 -34 l153 0 l-81 -207 l35 0 l81 207 l147 0 l-81 -207 Z" /><glyph glyph-name="" unicode="$" d="M221 517 q2 75 54 113 q51 39 122 40 l-66 -267 q-54 21 -82 48 q-28 26 -28 66 l0 0 ZM367 314 q51 -20 74 -47 q22 -26 22 -62 q-1 -74 -52 -121 q-51 -46 -136 -52 l72 290 l20 -8 ZM239 -114 l26 104 q118 5 192 69 q75 64 77 159 q-1 58 -37 95 q-37 38 -98 62 l-35 14 l70 279 q49 -9 73 -35 q24 -27 24 -60 q0 -24 -7 -39 q-7 -15 -17 -26 q5 -2 10 -4 q6 -1 11 -1 q31 0 55 20 q24 20 25 61 q-2 45 -45 79 q-43 35 -119 45 l25 102 l-37 0 l-25 -100 l-4 0 q-103 -1 -176 -58 q-74 -57 -77 -156 q1 -56 41 -93 q40 -36 106 -62 l17 -6 l-76 -303 q-59 7 -93 41 q-35 34 -36 75 q1 28 8 43 q8 16 15 24 q-4 2 -10 3 q-6 2 -16 2 q-25 1 -51 -19 q-26 -19 -28 -64 q1 -56 53 -97 q53 -41 148 -49 l-26 -105 l37 0 Z" /><glyph glyph-name="" unicode="%" d="M429 639 q21 -5 49 -8 q29 -3 58 -3 q31 0 77 8 q45 8 69 24 l-466 -660 l34 0 l501 710 l-19 9 q-40 -38 -92 -53 q-53 -16 -104 -15 q-87 4 -131 30 q-45 25 -102 29 q-87 -2 -144 -62 q-57 -59 -59 -148 q1 -68 43 -108 q42 -40 113 -41 q88 2 144 62 q57 59 59 148 q0 19 -7 40 q-7 22 -23 38 l0 0 ZM393 561 q-2 -73 -41 -125 q-39 -51 -96 -53 q-38 0 -64 29 q-25 29 -26 88 q2 73 41 125 q39 51 96 53 q38 0 64 -29 q25 -29 26 -88 l0 0 ZM863 200 q-1 68 -43 108 q-42 40 -113 41 q-87 -2 -144 -62 q-57 -59 -59 -148 q1 -68 43 -108 q42 -40 113 -41 q88 2 144 62 q57 59 59 148 l0 0 ZM797 200 q-2 -73 -41 -125 q-39 -51 -96 -53 q-38 0 -64 29 q-25 29 -26 88 q2 73 41 125 q39 51 96 53 q38 0 64 -29 q25 -29 26 -88 l0 0 Z" /><glyph glyph-name="" unicode="&amp;" d="M614 -10 q58 1 98 26 q39 26 62 64 l-8 9 q-24 -20 -49 -32 q-25 -11 -55 -11 q-40 -1 -87 24 q-47 24 -104 84 q63 80 120 145 q56 65 113 69 q23 -1 33 -12 q9 -11 9 -27 q0 -11 -2 -21 q-3 -10 -8 -16 q35 2 55 22 q19 19 19 47 q0 27 -20 45 q-19 17 -57 18 q-75 -5 -145 -80 q-71 -76 -140 -164 q-25 31 -54 70 q-22 31 -41 61 q-19 30 -34 61 q90 23 168 80 q79 57 84 137 q0 52 -37 86 q-38 34 -118 35 q-82 -1 -140 -57 q-57 -55 -60 -156 q0 -25 6 -55 q6 -29 21 -66 q-90 -25 -147 -82 q-56 -58 -58 -140 q3 -82 55 -123 q53 -41 123 -41 q61 1 112 32 q52 32 97 80 q54 -61 99 -87 q44 -26 90 -25 l0 0 ZM279 523 q1 68 39 108 q37 40 92 41 q46 -1 69 -26 q22 -26 22 -63 q-3 -71 -59 -117 q-56 -45 -134 -71 q-14 31 -21 63 q-8 32 -8 65 l0 0 ZM244 33 q-59 1 -96 34 q-36 34 -37 94 q0 71 36 118 q35 46 106 75 q14 -29 35 -63 q21 -35 49 -75 q36 -49 65 -87 q-38 -42 -78 -69 q-39 -26 -80 -27 l0 0 Z" /><glyph glyph-name="" unicode="&#x2019;" d="M251 637 q-5 -46 -44 -80 q-40 -33 -96 -46 l-4 -27 q78 9 133 56 q55 47 58 117 q0 31 -17 52 q-17 20 -47 21 q-26 0 -43 -15 q-16 -15 -17 -41 q0 -18 12 -32 q11 -13 35 -14 q8 0 15 2 q7 3 15 7 l0 0 Z" /><glyph glyph-name="" unicode="(" d="M77 139 q0 -95 33 -170 q32 -75 92 -124 l18 0 q-41 46 -63 118 q-21 71 -21 175 q4 175 89 345 q86 170 212 266 l-21 0 q-158 -102 -248 -269 q-89 -166 -91 -341 l0 0 Z" /><glyph glyph-name="" unicode=")" d="M301 455 q0 95 -32 170 q-33 75 -93 124 l-18 0 q41 -46 63 -118 q21 -71 21 -175 q-4 -175 -89 -345 q-86 -170 -212 -266 l21 0 q158 102 248 269 q89 166 91 341 l0 0 Z" /><glyph glyph-name="" unicode="*" d="M307 515 l68 -150 l22 9 l-45 156 l163 20 l-2 23 l-163 6 l33 160 l-23 6 l-56 -153 l-142 80 l-14 -18 l129 -102 l-120 -110 l14 -19 l136 92 Z" /><glyph glyph-name="" unicode="+" d="M546 319 l10 43 l-207 0 l52 207 l-42 0 l-52 -207 l-207 0 l-10 -43 l207 0 l-52 -206 l42 0 l52 206 l207 0 Z" /><glyph glyph-name="" unicode="," d="M95 12 q-1 -49 -37 -83 q-36 -34 -91 -46 l-3 -26 q76 7 127 56 q52 48 54 119 q0 31 -17 52 q-17 20 -47 21 q-26 0 -43 -15 q-16 -15 -17 -41 q0 -18 12 -32 q11 -13 35 -14 q8 0 14 2 q5 3 13 7 l0 0 Z" /><glyph glyph-name="" unicode="-" d="M52 249 l249 0 l10 43 l-249 0 l-10 -43 Z" /><glyph glyph-name="" unicode="." d="M141 50 q-1 26 -17 42 q-17 17 -42 17 q-25 0 -41 -17 q-17 -16 -18 -42 q1 -26 18 -42 q16 -16 41 -17 q25 1 42 17 q16 16 17 42 l0 0 Z" /><glyph glyph-name="" unicode="/" d="M-77 -153 l42 0 l517 902 l-43 0 l-516 -902 Z" /><glyph glyph-name="" unicode="0" d="M288 -10 q150 6 247 142 q97 136 100 332 q0 108 -56 176 q-56 68 -164 70 q-151 -6 -248 -142 q-97 -136 -100 -332 q0 -108 56 -176 q56 -68 165 -70 l0 0 ZM287 34 q-73 0 -108 49 q-35 49 -35 146 q1 151 70 289 q70 138 200 148 q74 0 109 -49 q35 -48 35 -146 q-1 -151 -70 -289 q-70 -138 -201 -148 l0 0 Z" /><glyph glyph-name="" unicode="1" d="M261 0 l0 11 q-55 18 -74 32 q-19 13 -9 49 l152 608 l-182 0 l0 -10 q62 -21 82 -35 q20 -13 10 -47 l-129 -516 q-8 -36 -33 -49 q-25 -14 -92 -32 l0 -11 l275 0 Z" /><glyph glyph-name="" unicode="2" d="M546 560 q-1 63 -48 105 q-48 43 -142 45 q-99 -3 -166 -57 q-67 -55 -70 -129 q1 -33 18 -52 q18 -20 47 -20 q5 0 13 1 q8 1 12 3 q-7 8 -12 24 q-6 15 -6 35 q0 55 41 103 q41 49 123 52 q57 -1 86 -31 q29 -30 30 -77 q0 -92 -92 -188 q-93 -96 -275 -245 l-147 -123 l0 -6 l468 0 l62 160 l-10 0 q-54 -67 -93 -84 q-39 -17 -111 -15 l-200 0 q256 188 365 291 q110 103 107 208 l0 0 Z" /><glyph glyph-name="" unicode="3" d="M244 -10 q112 1 192 63 q80 61 84 169 q-2 64 -48 104 q-46 40 -110 48 l0 3 q85 8 145 57 q59 49 62 133 q-1 63 -49 103 q-49 39 -139 40 q-90 0 -159 -43 q-69 -42 -73 -122 q0 -30 16 -46 q15 -17 44 -17 q5 0 14 1 q9 1 14 3 q-6 8 -10 21 q-5 13 -5 29 q1 59 42 96 q41 37 117 38 q56 -1 86 -28 q29 -27 29 -75 q-4 -93 -68 -134 q-65 -41 -146 -41 l-7 -29 q81 -2 124 -36 q42 -34 42 -97 q-2 -96 -56 -148 q-54 -51 -140 -52 q-62 1 -99 31 q-37 31 -38 78 q0 32 10 54 q10 21 30 38 q-12 6 -31 6 q-44 -1 -66 -28 q-23 -27 -23 -68 q2 -67 62 -108 q60 -42 154 -43 l0 0 Z" /><glyph glyph-name="" unicode="4" d="M384 232 l-279 0 l375 387 l-96 -387 ZM484 194 q47 1 61 -11 q15 -11 25 -43 l6 0 l36 146 l-6 0 q-26 -32 -45 -43 q-20 -12 -67 -11 l-44 0 l117 468 l-58 0 l-489 -502 l-1 -4 l355 0 l-21 -87 q-11 -47 -29 -65 q-17 -18 -54 -36 l0 -6 l182 0 l0 6 q-20 13 -30 25 q-10 12 -10 32 q0 8 2 19 q1 11 5 25 l21 87 l44 0 Z" /><glyph glyph-name="" unicode="5" d="M240 27 q-64 1 -96 30 q-32 29 -32 75 q0 28 9 53 q9 25 31 45 q-6 2 -14 3 q-8 2 -16 2 q-45 -1 -70 -31 q-25 -29 -25 -73 q0 -60 55 -100 q55 -39 159 -41 q126 3 205 82 q79 78 81 194 q-2 89 -56 134 q-53 44 -134 44 q-45 -1 -83 -12 q-38 -11 -64 -27 l74 223 q29 -6 77 -13 q47 -7 102 -8 q77 0 116 29 q39 30 47 93 l-5 0 q-37 -28 -71 -38 q-34 -9 -85 -8 q-46 0 -95 6 q-49 6 -102 14 l-123 -372 l5 0 q28 27 77 47 q48 20 103 21 q67 -1 102 -35 q35 -35 35 -98 q-1 -98 -55 -167 q-55 -69 -152 -72 l0 0 Z" /><glyph glyph-name="" unicode="6" d="M440 669 q53 -1 75 -22 q23 -21 22 -55 q0 -24 -11 -45 q-10 -21 -29 -33 q6 -4 15 -6 q9 -2 18 -2 q36 1 57 25 q21 24 21 59 q0 50 -42 84 q-43 35 -126 36 q-161 -9 -267 -153 q-106 -144 -110 -321 q0 -105 51 -174 q51 -69 156 -71 q120 4 194 81 q74 77 76 179 q-1 89 -55 138 q-54 50 -143 51 q-62 0 -116 -31 q-54 -31 -83 -86 q35 163 116 254 q81 91 181 92 l0 0 ZM269 33 q-59 1 -95 37 q-36 37 -37 97 q2 88 55 157 q53 68 139 72 q65 -1 98 -37 q32 -36 32 -97 q-1 -92 -54 -159 q-52 -67 -138 -70 l0 0 Z" /><glyph glyph-name="" unicode="7" d="M95 541 l10 0 q30 49 64 73 q34 23 85 23 l263 0 l-35 -36 q-134 -137 -230 -283 q-95 -146 -158 -328 l89 16 q48 167 131 314 q82 146 195 264 l108 112 l0 4 l-482 0 l-40 -159 Z" /><glyph glyph-name="" unicode="8" d="M394 367 q78 15 133 63 q56 48 58 127 q-3 75 -59 114 q-55 39 -133 39 q-88 -1 -157 -54 q-69 -53 -71 -143 q1 -53 25 -87 q23 -34 63 -58 q-85 -14 -149 -63 q-65 -49 -68 -132 q4 -99 76 -142 q73 -42 166 -41 q91 0 170 53 q79 52 84 154 q0 55 -33 95 q-34 40 -105 75 l0 0 ZM393 670 q58 -1 88 -32 q30 -30 31 -78 q-2 -68 -43 -115 q-42 -47 -97 -67 l-58 34 q-32 17 -53 43 q-22 25 -24 68 q0 66 45 106 q46 40 111 41 l0 0 ZM361 308 q47 -24 72 -55 q26 -30 26 -71 q-3 -74 -58 -113 q-55 -39 -123 -39 q-72 0 -117 36 q-46 36 -47 104 q2 74 49 121 q47 46 109 65 l89 -48 Z" /><glyph glyph-name="" unicode="9" d="M374 667 q59 -1 95 -37 q36 -37 37 -97 q-2 -88 -55 -157 q-53 -68 -139 -72 q-65 1 -98 37 q-32 36 -32 97 q2 92 54 159 q53 67 138 70 l0 0 ZM203 31 q-53 1 -75 22 q-23 21 -22 55 q0 24 11 45 q10 21 29 33 q-6 4 -15 6 q-9 2 -18 2 q-36 -1 -57 -25 q-21 -24 -21 -59 q0 -50 42 -84 q43 -35 126 -36 q161 9 267 153 q106 144 110 321 q0 105 -51 174 q-51 69 -156 71 q-120 -4 -194 -81 q-74 -77 -76 -179 q1 -89 55 -138 q54 -50 143 -51 q62 0 116 31 q54 31 83 86 q-35 -163 -116 -254 q-81 -91 -181 -92 l0 0 Z" /><glyph glyph-name="" unicode=":" d="M217 375 q-1 26 -17 42 q-17 17 -42 17 q-25 0 -41 -17 q-17 -16 -18 -42 q1 -26 18 -42 q16 -16 41 -17 q25 1 42 17 q16 16 17 42 l0 0 ZM144 50 q-1 26 -17 42 q-17 17 -42 17 q-25 0 -41 -17 q-17 -16 -18 -42 q1 -26 18 -42 q16 -16 41 -17 q25 1 42 17 q16 16 17 42 l0 0 Z" /><glyph glyph-name="" unicode=";" d="M215 375 q-1 26 -17 42 q-17 17 -42 17 q-25 0 -41 -17 q-17 -16 -18 -42 q1 -26 18 -42 q16 -16 41 -17 q25 1 42 17 q16 16 17 42 l0 0 ZM96 12 q-1 -49 -37 -83 q-36 -34 -91 -46 l-3 -26 q76 7 127 56 q52 48 54 119 q0 31 -17 52 q-17 20 -47 21 q-26 0 -43 -15 q-16 -15 -17 -41 q0 -18 12 -32 q11 -13 35 -14 q8 0 14 2 q5 3 13 7 l0 0 Z" /><glyph glyph-name="" unicode="&lt;" d="M87 315 l298 -198 l12 48 l-263 170 l348 171 l14 55 l-397 -197 l-12 -49 Z" /><glyph glyph-name="" unicode="=" d="M121 383 l456 0 l11 43 l-456 0 l-11 -43 ZM88 253 l456 0 l11 43 l-456 0 l-11 -43 Z" /><glyph glyph-name="" unicode="&gt;" d="M434 363 l-298 198 l-12 -48 l263 -170 l-348 -171 l-14 -55 l397 197 l12 49 Z" /><glyph glyph-name="" unicode="?" d="M326 672 q60 0 93 -31 q33 -30 34 -88 q-2 -81 -62 -124 q-59 -43 -150 -50 l-46 -188 l37 0 l31 124 q107 17 177 77 q69 59 71 155 q-1 72 -49 117 q-48 45 -136 46 q-82 -1 -138 -44 q-56 -44 -58 -114 q0 -27 15 -45 q15 -17 40 -18 q6 0 15 1 q8 2 14 4 q-6 5 -11 17 q-6 13 -6 41 q0 51 33 85 q32 34 96 35 l0 0 ZM245 50 q-1 26 -17 42 q-17 17 -42 17 q-25 0 -41 -17 q-17 -16 -18 -42 q1 -26 18 -42 q16 -16 41 -17 q25 1 42 17 q16 16 17 42 l0 0 Z" /><glyph glyph-name="" unicode="@" d="M702 428 l-9 0 q-14 -12 -34 -36 q-20 -23 -31 -42 q-9 31 -37 54 q-27 23 -76 24 q-94 -3 -161 -78 q-66 -75 -69 -185 q1 -69 39 -107 q37 -38 96 -39 q51 1 90 31 q39 31 60 76 q1 -55 32 -81 q30 -26 82 -26 q77 -1 148 73 q70 73 75 230 q-4 153 -104 237 q-101 84 -255 85 q-193 -4 -336 -135 q-144 -132 -151 -342 q2 -171 108 -267 q105 -96 287 -98 q96 -1 185 27 q88 28 158 91 l-12 21 q-76 -56 -155 -79 q-79 -24 -172 -23 q-156 2 -247 89 q-91 86 -93 238 q7 190 133 313 q126 123 291 127 q139 -1 226 -74 q87 -73 90 -210 q-3 -133 -57 -198 q-54 -65 -117 -65 q-30 0 -47 15 q-17 14 -17 45 q0 15 5 35 l75 274 ZM575 206 q-17 -66 -54 -106 q-38 -39 -88 -40 q-35 1 -57 29 q-21 28 -22 77 q2 92 50 156 q47 63 114 66 q33 0 55 -19 q21 -19 22 -61 q0 -22 -7 -51 l-13 -51 Z" /><glyph glyph-name="" unicode="a" d="M442 588 l52 -307 l-266 0 l214 307 ZM142 7 q-30 15 -45 27 q-15 11 -15 24 q0 8 5 19 q5 10 15 24 l99 142 l299 0 l24 -142 q3 -17 3 -29 q1 -21 -15 -34 q-16 -13 -56 -31 l0 -7 l189 0 l0 7 q-27 21 -37 42 q-10 21 -16 63 l-106 598 l-5 0 l-421 -598 q-28 -41 -49 -62 q-21 -21 -58 -43 l0 -7 l189 0 l0 7 Z" /><glyph glyph-name="" unicode="b" d="M160 700 l0 -7 q23 -13 34 -25 q11 -12 11 -34 q0 -9 -2 -20 q-2 -11 -5 -24 l-120 -480 q-11 -47 -30 -67 q-19 -19 -58 -36 l0 -7 l280 0 q120 -1 208 52 q88 53 92 170 q-1 66 -46 100 q-45 34 -124 37 l0 2 q96 8 159 56 q63 49 65 143 q-1 72 -57 106 q-55 34 -153 34 l-254 0 ZM283 663 l125 0 q70 0 107 -25 q37 -25 37 -79 q-3 -96 -65 -139 q-62 -44 -152 -43 l-123 0 l71 286 ZM335 341 q80 1 121 -27 q42 -27 42 -92 q-2 -91 -62 -138 q-61 -47 -157 -47 l-152 0 l76 304 l132 0 Z" /><glyph glyph-name="" unicode="c" d="M650 505 l7 0 l34 201 l-8 0 l-57 -54 q-25 23 -68 40 q-42 17 -107 18 q-156 -3 -265 -122 q-110 -119 -115 -314 q1 -121 73 -201 q72 -80 202 -83 q103 1 177 55 q74 55 113 148 l-16 6 q-54 -86 -117 -124 q-63 -39 -143 -38 q-97 1 -155 65 q-58 63 -59 172 q2 173 85 282 q83 109 220 112 q85 -1 130 -44 q44 -43 69 -119 l0 0 Z" /><glyph glyph-name="" unicode="d" d="M160 700 l0 -7 q23 -13 34 -25 q11 -12 11 -34 q0 -9 -2 -20 q-2 -11 -5 -24 l-120 -480 q-11 -47 -30 -67 q-19 -19 -58 -36 l0 -7 l279 0 q200 2 321 117 q121 114 124 314 q-1 119 -79 193 q-78 74 -227 76 l-248 0 ZM127 37 l156 626 l116 0 q123 -1 182 -63 q59 -61 59 -169 q-1 -174 -96 -282 q-94 -109 -270 -112 l-147 0 Z" /><glyph glyph-name="" unicode="e" d="M-10 0 l516 0 l71 158 l-8 0 q-63 -70 -113 -96 q-50 -26 -130 -25 l-199 0 l76 306 l148 0 q59 2 78 -16 q20 -18 25 -80 l8 0 l57 229 l-8 0 q-37 -57 -65 -77 q-28 -20 -86 -19 l-148 0 l71 283 l178 0 q82 1 117 -21 q34 -22 62 -82 l7 0 l3 146 q-12 -2 -26 -4 q-14 -2 -36 -2 l-428 0 l0 -7 q23 -13 34 -25 q11 -12 11 -34 q0 -9 -2 -20 q-2 -11 -5 -24 l-120 -480 q-11 -47 -30 -67 q-19 -19 -58 -36 l0 -7 Z" /><glyph glyph-name="" unicode="f" d="M208 0 l0 7 q-34 14 -51 28 q-17 13 -17 39 q0 15 5 36 l58 233 l148 0 q59 2 78 -16 q20 -18 25 -80 l8 0 l57 229 l-8 0 q-37 -57 -65 -77 q-28 -20 -86 -19 l-148 0 l71 283 l178 0 q82 1 116 -23 q34 -24 62 -84 l7 0 l4 150 q-12 -2 -26 -4 q-14 -2 -36 -2 l-428 0 l0 -7 q23 -13 34 -25 q11 -12 11 -34 q0 -9 -2 -20 q-2 -11 -5 -24 l-120 -480 q-11 -47 -30 -67 q-19 -19 -58 -36 l0 -7 l218 0 Z" /><glyph glyph-name="" unicode="g" d="M671 505 l7 0 l34 201 l-7 0 l-58 -54 q-26 23 -72 40 q-47 17 -112 18 q-162 -3 -274 -122 q-113 -119 -118 -314 q1 -121 71 -201 q70 -80 200 -83 q65 1 119 29 q53 28 91 74 l15 -103 l21 0 l63 232 q12 47 29 67 q17 19 55 36 l0 7 l-183 0 l0 -7 q21 -12 32 -24 q10 -11 10 -30 q0 -10 -2 -21 q-2 -12 -7 -28 l-25 -85 q-47 -50 -97 -76 q-50 -26 -113 -26 q-91 1 -147 66 q-55 64 -57 173 q3 173 90 282 q86 109 227 112 q86 -1 134 -43 q49 -43 74 -120 l0 0 Z" /><glyph glyph-name="" unicode="h" d="M-10 0 l193 0 l0 7 q-22 13 -34 25 q-11 12 -11 34 q0 9 2 20 q2 11 5 24 l58 230 l427 0 l-58 -230 q-11 -47 -30 -67 q-19 -19 -58 -36 l0 -7 l193 0 l0 7 q-22 13 -34 25 q-11 12 -11 34 q0 9 2 20 q2 11 5 24 l120 480 q11 47 30 67 q19 19 58 36 l0 7 l-193 0 l0 -7 q23 -13 34 -25 q11 -12 11 -34 q0 -9 -2 -20 q-2 -11 -5 -24 l-53 -211 l-427 0 l53 211 q11 47 30 67 q19 19 58 36 l0 7 l-193 0 l0 -7 q23 -13 34 -25 q11 -12 11 -34 q0 -9 -2 -20 q-2 -11 -5 -24 l-120 -480 q-11 -47 -30 -67 q-19 -19 -58 -36 l0 -7 Z" /><glyph glyph-name="" unicode="i" d="M78 110 q-11 -47 -30 -67 q-19 -19 -58 -36 l0 -7 l193 0 l0 7 q-22 13 -34 25 q-11 12 -11 34 q0 9 2 20 q2 11 5 24 l120 480 q11 47 30 67 q19 19 58 36 l0 7 l-193 0 l0 -7 q23 -13 34 -25 q11 -12 11 -34 q0 -9 -2 -20 q-2 -11 -5 -24 l-120 -480 Z" /><glyph glyph-name="" unicode="j" d="M361 199 q-20 -84 -58 -128 q-39 -44 -111 -44 q-50 0 -80 27 q-31 26 -32 74 q0 34 16 57 q16 23 52 37 q-6 6 -18 11 q-11 4 -27 4 q-42 -1 -68 -28 q-25 -28 -26 -74 q1 -62 51 -103 q49 -41 132 -42 q99 1 155 54 q57 54 79 149 l99 397 q11 47 30 67 q19 19 58 36 l0 7 l-193 0 l0 -7 q23 -13 34 -25 q11 -12 11 -34 q0 -9 -2 -20 q-2 -11 -5 -24 l-97 -391 Z" /><glyph glyph-name="" unicode="k" d="M183 0 l0 7 q-22 13 -34 25 q-11 12 -11 34 q0 9 2 20 q2 11 5 24 l39 155 l109 86 l181 -272 q7 -10 10 -18 q4 -7 4 -13 q0 -9 -11 -19 q-11 -9 -33 -22 l0 -7 l200 0 l0 7 q-32 14 -57 37 q-25 23 -55 68 l-188 278 l252 198 q44 31 87 57 q43 26 97 48 l0 7 l-213 0 l0 -7 q18 -12 28 -20 q9 -8 9 -17 q0 -8 -7 -16 q-7 -9 -21 -20 l-378 -298 l67 268 q11 47 30 67 q19 19 58 36 l0 7 l-193 0 l0 -7 q23 -13 34 -25 q11 -12 11 -34 q0 -9 -2 -20 q-2 -11 -5 -24 l-120 -480 q-11 -47 -30 -67 q-19 -19 -58 -36 l0 -7 l193 0 Z" /><glyph glyph-name="" unicode="l" d="M265 590 q11 47 30 67 q19 19 58 36 l0 7 l-193 0 l0 -7 q23 -13 34 -25 q11 -12 11 -34 q0 -9 -2 -20 q-2 -11 -5 -24 l-120 -480 q-11 -47 -30 -67 q-19 -19 -58 -36 l0 -7 l494 0 l80 180 l-8 0 q-68 -82 -120 -113 q-52 -31 -132 -30 l-177 0 l138 553 Z" /><glyph glyph-name="" unicode="m" d="M813 700 l-390 -584 l-108 584 l-155 0 l0 -7 q22 -13 33 -25 q11 -12 11 -34 q0 -17 -6 -44 l-120 -480 q-12 -47 -35 -67 q-24 -19 -63 -36 l0 -7 l191 0 l0 7 q-24 14 -39 28 q-15 13 -15 39 q0 15 6 36 l132 532 l122 -653 l4 0 l435 652 l-133 -531 q-11 -47 -30 -67 q-19 -19 -58 -36 l0 -7 l193 0 l0 7 q-22 13 -34 25 q-11 12 -11 34 q0 9 2 20 q1 11 5 24 l120 480 q11 47 30 67 q19 19 58 36 l0 7 l-145 0 Z" /><glyph glyph-name="" unicode="n" d="M588 -9 l149 599 q12 47 35 67 q24 19 63 36 l0 7 l-191 0 l0 -7 q24 -14 39 -27 q14 -14 14 -40 q0 -15 -5 -36 l-112 -450 l-287 560 l-133 0 l0 -7 q23 -13 34 -25 q11 -12 11 -34 q0 -9 -2 -20 q-2 -11 -5 -24 l-120 -480 q-12 -47 -35 -67 q-24 -19 -63 -36 l0 -7 l191 0 l0 7 q-24 14 -38 28 q-15 13 -15 39 q0 15 5 36 l130 521 l331 -640 l4 0 Z" /><glyph glyph-name="" unicode="o" d="M730 420 q-1 125 -77 206 q-75 81 -208 84 q-164 -5 -267 -129 q-103 -123 -106 -301 q1 -125 77 -206 q75 -81 208 -84 q164 5 267 129 q103 123 106 301 l0 0 ZM146 280 q2 157 85 269 q82 112 214 117 q102 -1 157 -67 q54 -66 54 -179 q-2 -157 -85 -269 q-82 -112 -214 -117 q-102 1 -156 67 q-55 66 -55 179 l0 0 Z" /><glyph glyph-name="" unicode="p" d="M192 300 l154 0 q131 0 220 59 q89 60 93 185 q-1 78 -58 117 q-57 39 -158 39 l-283 0 l0 -7 q23 -13 34 -25 q11 -12 11 -34 q0 -9 -2 -20 q-2 -11 -5 -24 l-120 -480 q-11 -47 -30 -67 q-19 -19 -58 -36 l0 -7 l221 0 l0 7 q-35 14 -53 28 q-19 14 -19 41 q0 15 5 34 l48 190 ZM202 337 l81 326 l149 0 q79 1 116 -27 q38 -28 38 -92 q-2 -103 -64 -155 q-63 -52 -168 -52 l-152 0 Z" /><glyph glyph-name="" unicode="q" d="M606 -144 q40 0 73 24 q32 25 49 77 l-11 0 q-15 -28 -37 -40 q-23 -12 -47 -12 q-39 2 -66 38 q-26 37 -49 88 q97 55 154 159 q57 103 58 230 q-1 125 -77 206 q-75 81 -208 84 q-164 -5 -267 -129 q-103 -123 -106 -301 q1 -125 77 -206 q75 -81 208 -84 q54 1 102 16 q24 -59 58 -103 q34 -45 89 -47 l0 0 ZM359 203 q-51 -1 -84 -34 q-34 -33 -52 -90 q-38 32 -57 83 q-20 51 -20 118 q2 157 85 269 q82 112 214 117 q102 -1 157 -67 q54 -66 54 -179 q-1 -108 -44 -199 q-42 -92 -116 -143 q-23 51 -55 87 q-32 36 -82 38 l0 0 ZM357 34 q-66 0 -113 29 q14 45 36 71 q22 25 58 25 q35 -1 59 -32 q23 -32 43 -78 q-39 -15 -83 -15 l0 0 Z" /><glyph glyph-name="" unicode="r" d="M282 663 l153 0 q72 0 110 -27 q37 -28 37 -89 q-1 -98 -62 -143 q-60 -45 -161 -44 l-152 0 l75 303 ZM198 321 l149 0 q61 0 85 -30 q24 -31 31 -93 l12 -90 q4 -32 9 -55 q5 -24 14 -53 l131 0 l0 7 q-41 16 -63 41 q-22 25 -28 77 l-10 83 q-5 50 -31 82 q-26 31 -78 42 l0 3 q103 4 169 58 q66 55 68 154 q-2 77 -60 115 q-59 38 -152 38 l-284 0 l0 -7 q23 -13 34 -25 q11 -12 11 -34 q0 -9 -2 -20 q-2 -11 -5 -24 l-120 -480 q-11 -47 -30 -67 q-19 -19 -58 -36 l0 -7 l193 0 l0 7 q-22 13 -34 25 q-11 12 -11 34 q0 17 7 44 l53 211 Z" /><glyph glyph-name="" unicode="s" d="M561 511 l7 0 l40 197 l-11 0 l-51 -50 q-24 18 -68 34 q-43 17 -112 18 q-98 -1 -161 -53 q-63 -52 -65 -143 q1 -61 39 -102 q38 -41 101 -67 l86 -36 q47 -19 72 -48 q25 -29 25 -74 q-1 -70 -49 -113 q-48 -43 -129 -44 q-83 0 -134 46 q-51 45 -78 139 l-10 0 l-50 -219 l11 0 l58 64 q32 -29 83 -49 q50 -20 120 -21 q101 1 172 57 q71 56 74 161 q-1 60 -36 98 q-35 39 -99 65 l-81 35 q-49 20 -78 47 q-28 28 -29 81 q1 61 44 98 q42 37 114 38 q81 0 126 -40 q45 -40 69 -119 l0 0 Z" /><glyph glyph-name="" unicode="t" d="M235 700 q-22 0 -35 2 q-13 2 -23 4 l-78 -177 l10 0 q71 80 114 109 q43 30 107 28 l98 0 l-139 -556 q-11 -47 -32 -67 q-21 -19 -67 -36 l0 -7 l213 0 l0 7 q-28 13 -41 25 q-13 13 -13 35 q0 16 7 43 l139 556 l110 0 q65 0 92 -34 q26 -34 49 -103 l8 0 l11 177 q-12 -2 -26 -4 q-14 -2 -36 -2 l-468 0 Z" /><glyph glyph-name="" unicode="u" d="M249 590 q11 47 30 67 q19 19 58 36 l0 7 l-193 0 l0 -7 q22 -13 33 -25 q11 -12 11 -33 q0 -9 -2 -20 q-1 -11 -5 -25 l-78 -314 q-9 -37 -9 -72 q1 -96 66 -154 q64 -58 179 -60 q123 1 198 75 q74 74 107 211 l78 314 q12 47 35 67 q24 19 63 36 l0 7 l-193 0 l0 -7 q24 -14 39 -27 q14 -14 14 -40 q0 -15 -5 -36 l-75 -302 q-31 -129 -94 -191 q-62 -62 -167 -62 q-80 0 -128 44 q-48 43 -49 126 q0 35 10 77 l77 308 Z" /><glyph glyph-name="" unicode="v" d="M323 113 l-76 486 q-3 18 -3 29 q-1 22 15 34 q15 13 56 31 l0 7 l-189 0 l0 -7 q27 -21 37 -42 q10 -20 16 -63 l101 -598 l5 0 l416 598 q29 43 50 63 q20 21 57 42 l0 7 l-183 0 l0 -7 q28 -15 40 -27 q13 -12 13 -24 q0 -8 -5 -18 q-5 -11 -15 -25 l-335 -486 Z" /><glyph glyph-name="" unicode="w" d="M582 -10 l9 0 l362 598 q25 42 47 63 q22 21 59 42 l0 7 l-185 0 l0 -7 q28 -17 42 -27 q14 -11 14 -24 q0 -8 -5 -19 q-4 -11 -14 -26 l-277 -457 l-17 457 q-1 9 -1 16 q-1 36 14 52 q15 16 58 28 l0 7 l-191 0 l0 -7 q22 -16 33 -31 q12 -15 16 -38 l-274 -478 l-27 451 q-1 10 -1 19 q-1 35 14 49 q15 15 58 28 l0 7 l-190 0 l0 -7 q28 -21 40 -41 q12 -20 14 -64 l36 -598 l9 0 l328 569 l29 -569 Z" /><glyph glyph-name="" unicode="x" d="M130 7 q-14 13 -21 24 q-6 11 -6 21 q0 12 8 23 q9 12 23 26 l241 232 l120 -232 q11 -21 11 -37 q0 -17 -11 -31 q-11 -13 -31 -26 l0 -7 l178 0 l0 7 q-30 22 -47 47 q-17 24 -34 58 l-136 263 l219 213 q34 33 63 58 q29 25 70 47 l0 7 l-171 0 l0 -7 q14 -13 21 -25 q6 -11 6 -20 q0 -13 -9 -24 q-10 -12 -25 -25 l-192 -188 l-97 188 q-6 11 -8 21 q-3 10 -3 19 q0 17 10 30 q10 14 31 24 l0 7 l-178 0 l0 -7 q30 -22 48 -47 q17 -25 33 -58 l113 -219 l-270 -257 q-33 -33 -62 -58 q-30 -25 -71 -47 l0 -7 l177 0 l0 7 Z" /><glyph glyph-name="" unicode="y" d="M357 333 l-102 270 q-6 14 -6 26 q0 20 13 37 q12 16 35 27 l0 7 l-171 0 l0 -7 q25 -21 38 -43 q14 -22 28 -60 l113 -299 l-45 -181 q-11 -47 -32 -67 q-21 -19 -67 -36 l0 -7 l213 0 l0 7 q-28 13 -41 26 q-13 12 -13 34 q0 16 7 43 l45 181 l263 299 q33 38 57 60 q25 22 59 43 l0 7 l-171 0 l0 -7 q19 -14 28 -25 q9 -12 9 -23 q0 -9 -6 -19 q-5 -10 -16 -23 l-238 -270 Z" /><glyph glyph-name="" unicode="z" d="M544 0 l71 158 l-9 0 q-63 -70 -113 -96 q-50 -26 -130 -25 l-253 0 l625 659 l0 4 l-459 0 q-22 0 -35 2 q-13 2 -23 4 l-63 -167 l9 0 q52 64 96 94 q44 30 126 30 l236 0 l-627 -659 l0 -4 l549 0 Z" /><glyph glyph-name="" unicode="[" d="M22 -154 l184 0 l3 14 l-128 30 l203 816 l143 29 l3 14 l-184 0 l-224 -903 Z" /><glyph glyph-name="" unicode="\" d="M199 749 l-37 0 l83 -902 l37 0 l-83 902 Z" /><glyph glyph-name="" unicode="]" d="M340 749 l-184 0 l-3 -14 l128 -30 l-203 -816 l-143 -29 l-3 -14 l184 0 l224 903 Z" /><glyph glyph-name="" unicode="^" d="M370 710 l-293 -358 l49 0 l228 278 l88 -278 l45 0 l-113 358 l-4 0 Z" /><glyph glyph-name="" unicode="_" d="M-39 -113 l380 0 l10 41 l-380 0 l-10 -41 Z" /><glyph glyph-name="" unicode="&#x2018;" d="M180 577 q5 46 45 80 q39 33 95 46 l4 27 q-78 -9 -133 -56 q-55 -47 -58 -117 q0 -31 17 -51 q17 -21 47 -22 q26 0 43 15 q16 15 17 41 q0 18 -11 32 q-12 13 -36 14 q-8 0 -15 -2 q-7 -2 -15 -7 l0 0 Z" /><glyph glyph-name="" unicode="a" d="M526 494 l-12 0 q-17 -14 -38 -42 q-21 -29 -33 -52 q-8 38 -43 65 q-35 28 -96 29 q-114 -4 -187 -98 q-73 -95 -76 -225 q1 -83 43 -132 q41 -48 112 -49 q61 2 104 39 q43 36 70 89 q-6 -17 -9 -32 q-4 -14 -4 -27 q0 -32 16 -50 q16 -19 48 -19 q28 1 55 15 q28 14 51 35 l0 10 q-20 -7 -36 -10 q-16 -3 -28 -3 q-41 0 -40 36 q0 5 1 10 q1 6 3 13 l99 398 ZM400 242 q-22 -89 -73 -147 q-51 -58 -115 -60 q-46 1 -72 37 q-27 37 -27 99 q1 118 55 198 q53 80 144 83 q44 1 74 -25 q31 -25 32 -84 q0 -26 -8 -59 l-10 -42 Z" /><glyph glyph-name="" unicode="b" d="M35 -5 l12 0 q17 14 38 43 q21 28 33 51 q9 -38 48 -68 q38 -29 96 -31 q127 4 199 99 q72 94 73 224 q-1 84 -41 132 q-40 48 -113 49 q-65 -2 -112 -38 q-47 -37 -76 -90 l95 383 l-143 0 l0 -6 q25 -14 41 -30 q15 -16 16 -42 q0 -10 -3 -23 l-163 -653 ZM462 313 q-1 -106 -54 -191 q-53 -86 -149 -91 q-46 0 -79 30 q-33 30 -34 91 q0 24 6 53 l11 47 q21 83 76 139 q55 56 119 58 q52 -1 78 -37 q26 -36 26 -99 l0 0 Z" /><glyph glyph-name="" unicode="c" d="M385 389 q0 -23 -5 -33 q-4 -11 -10 -17 q10 -6 25 -6 q27 0 42 16 q16 16 16 45 q-1 46 -39 73 q-39 26 -103 27 q-117 -4 -192 -95 q-75 -91 -77 -215 q1 -88 47 -140 q46 -53 130 -54 q67 1 118 36 q50 35 78 96 l-17 10 q-35 -49 -74 -73 q-39 -23 -83 -23 q-61 1 -94 40 q-33 39 -33 108 q1 102 52 184 q51 82 145 87 q39 -1 57 -19 q17 -18 17 -47 l0 0 Z" /><glyph glyph-name="" unicode="d" d="M371 59 q0 -32 17 -50 q16 -19 48 -19 q28 1 55 15 q28 14 51 35 l0 10 q-20 -7 -36 -10 q-16 -3 -28 -3 q-40 0 -40 34 q0 5 1 11 q1 7 3 14 l160 653 l-143 0 l0 -6 q25 -14 41 -30 q16 -16 16 -42 q0 -11 -3 -23 l-61 -253 q-8 38 -44 68 q-35 29 -97 31 q-117 -4 -192 -98 q-75 -95 -78 -225 q1 -84 44 -132 q42 -48 115 -49 q64 2 110 39 q45 36 73 89 q-12 -33 -12 -59 l0 0 ZM412 232 q-21 -83 -76 -139 q-55 -56 -119 -58 q-52 1 -78 37 q-26 36 -26 99 q1 106 54 191 q53 86 149 91 q46 0 79 -30 q33 -30 34 -91 q0 -24 -6 -53 l-11 -47 Z" /><glyph glyph-name="" unicode="e" d="M221 -10 q69 1 121 36 q53 35 81 96 l-17 9 q-36 -49 -77 -73 q-40 -23 -86 -23 q-62 1 -95 38 q-34 38 -34 107 q0 23 3 44 q166 8 253 46 q86 38 87 115 q-1 51 -38 80 q-37 29 -104 29 q-120 -5 -195 -100 q-76 -95 -78 -214 q1 -88 47 -138 q46 -51 132 -52 l0 0 ZM315 455 q33 0 51 -16 q19 -17 19 -47 q-3 -80 -76 -106 q-74 -25 -186 -28 q17 81 66 138 q49 56 126 59 l0 0 Z" /><glyph glyph-name="" unicode="f" d="M209 446 l131 0 l16 38 l-136 0 l25 119 q10 52 36 84 q26 32 71 33 q28 0 40 -12 q12 -12 12 -33 q0 -14 -6 -29 q-7 -14 -16 -26 q9 -2 21 -2 q27 0 46 16 q20 15 21 46 q0 31 -27 51 q-28 20 -81 21 q-67 0 -115 -43 q-48 -42 -70 -124 l-24 -95 l-76 -18 l-7 -26 l73 0 l-114 -458 q-18 -72 -38 -125 q-21 -53 -51 -88 l6 0 q54 0 83 38 q28 37 45 107 l135 526 Z" /><glyph glyph-name="" unicode="g" d="M412 232 q-21 -83 -76 -139 q-55 -56 -119 -58 q-52 1 -78 37 q-26 36 -26 99 q1 106 54 191 q53 86 149 91 q46 0 79 -30 q33 -30 34 -91 q0 -24 -6 -53 l-11 -47 ZM353 -1 q-21 -87 -65 -137 q-44 -50 -126 -51 q-54 1 -82 28 q-29 26 -29 66 q0 17 6 29 q5 13 12 20 q-6 2 -12 4 q-7 1 -13 1 q-25 0 -42 -16 q-17 -16 -18 -48 q2 -53 51 -86 q50 -33 127 -34 q102 0 165 56 q62 55 89 165 l124 498 l-12 0 q-17 -14 -38 -43 q-22 -30 -34 -53 q-9 38 -46 66 q-37 29 -99 30 q-117 -4 -192 -98 q-75 -95 -78 -225 q1 -84 44 -132 q42 -48 115 -49 q64 2 109 38 q45 36 73 88 l-29 -117 Z" /><glyph glyph-name="" unicode="h" d="M286 749 l-143 0 l0 -6 q25 -14 41 -30 q15 -16 16 -42 q0 -10 -3 -23 l-161 -648 l64 0 l45 181 q32 119 94 189 q62 70 127 72 q34 0 50 -19 q16 -18 16 -50 q0 -19 -6 -42 l-59 -234 q-2 -10 -4 -20 q-1 -9 -1 -18 q0 -32 17 -50 q16 -19 48 -19 q28 1 55 15 q28 14 51 35 l0 10 q-20 -7 -36 -10 q-16 -3 -28 -3 q-20 0 -31 9 q-10 8 -10 25 q0 5 1 11 q1 7 3 14 l59 238 q7 29 7 53 q0 47 -24 77 q-25 29 -75 30 q-65 -1 -121 -44 q-57 -43 -95 -115 l103 414 Z" /><glyph glyph-name="" unicode="i" d="M273 657 q-1 23 -16 38 q-15 15 -38 16 q-23 -1 -38 -16 q-15 -15 -16 -38 q1 -23 16 -38 q15 -15 38 -16 q23 1 38 16 q15 15 16 38 l0 0 ZM220 484 l-143 0 l0 -6 q25 -14 41 -30 q15 -16 16 -42 q0 -10 -3 -23 l-71 -286 q-2 -9 -4 -19 q-1 -11 -1 -20 q0 -30 16 -49 q16 -18 47 -19 q28 1 55 15 q28 14 51 35 l0 10 q-20 -7 -36 -10 q-16 -3 -28 -3 q-20 0 -30 8 q-11 9 -11 26 q0 5 1 12 q1 7 3 13 l97 388 Z" /><glyph glyph-name="" unicode="j" d="M225 603 q23 1 38 16 q15 15 16 38 q-1 23 -16 38 q-15 15 -38 16 q-23 -1 -38 -16 q-15 -15 -16 -38 q1 -23 16 -38 q15 -15 38 -16 l0 0 ZM28 -55 q-14 -64 -32 -101 q-18 -37 -58 -38 q-23 0 -34 13 q-10 13 -10 32 q0 17 4 29 q4 12 12 22 q-4 2 -10 2 q-5 1 -10 1 q-25 0 -44 -13 q-19 -13 -20 -44 q1 -33 29 -53 q28 -19 75 -20 q73 1 110 52 q37 52 57 141 l129 516 l-143 0 l0 -6 q25 -14 41 -30 q15 -16 16 -42 q0 -10 -3 -23 l-109 -438 Z" /><glyph glyph-name="" unicode="k" d="M286 749 l-143 0 l0 -6 q25 -14 41 -30 q15 -16 16 -42 q0 -10 -3 -23 l-161 -648 l64 0 l63 252 q33 61 100 124 q67 64 131 69 q35 0 51 -16 q15 -16 15 -45 q0 -53 -45 -97 q-46 -44 -139 -58 l-46 10 l97 -187 q14 -29 32 -45 q17 -17 48 -17 q26 0 50 10 q23 10 52 32 l0 7 q-15 -2 -27 -3 q-13 -1 -23 -1 q-33 0 -49 12 q-16 12 -28 37 l-66 123 q95 18 152 70 q58 52 59 121 q0 43 -25 69 q-26 26 -79 27 q-69 -2 -131 -50 q-63 -48 -112 -120 l106 425 Z" /><glyph glyph-name="" unicode="l" d="M281 749 l-143 0 l0 -6 q25 -14 41 -30 q15 -16 16 -42 q0 -10 -3 -23 l-135 -551 q-2 -10 -4 -20 q-2 -10 -2 -19 q0 -31 17 -49 q16 -19 48 -19 q28 1 55 15 q28 14 51 35 l0 10 q-20 -7 -36 -10 q-16 -3 -28 -3 q-41 0 -41 34 q0 5 1 12 q1 7 3 13 l160 653 Z" /><glyph glyph-name="" unicode="m" d="M485 391 q0 46 -23 74 q-23 28 -72 29 q-61 -1 -115 -44 q-54 -43 -92 -115 l32 149 l-138 0 l0 -6 q25 -14 41 -30 q15 -16 16 -42 q0 -10 -3 -23 l-95 -383 l64 0 l45 180 q33 123 93 192 q60 69 121 70 q33 0 47 -16 q14 -16 14 -44 q0 -22 -7 -51 l-83 -331 l65 0 l45 180 q33 123 93 192 q60 69 121 70 q33 0 47 -16 q14 -16 14 -44 q0 -22 -7 -51 l-59 -234 q-2 -10 -4 -20 q-1 -9 -1 -18 q0 -32 17 -50 q16 -19 48 -19 q28 1 55 15 q28 14 51 35 l0 10 q-20 -7 -36 -10 q-16 -3 -28 -3 q-20 0 -31 9 q-10 8 -10 25 q0 5 1 11 q1 7 3 14 l59 238 q8 32 8 60 q0 44 -22 72 q-23 27 -74 28 q-61 -1 -115 -44 q-54 -43 -92 -115 q7 29 7 56 l0 0 Z" /><glyph glyph-name="" unicode="n" d="M100 0 l45 181 q32 119 94 189 q62 70 127 72 q34 0 50 -19 q16 -18 16 -50 q0 -19 -6 -42 l-59 -234 q-2 -10 -4 -20 q-1 -9 -1 -18 q0 -32 17 -50 q16 -19 48 -19 q28 1 55 15 q28 14 51 35 l0 10 q-20 -7 -36 -10 q-16 -3 -28 -3 q-20 0 -31 9 q-10 8 -10 25 q0 5 1 11 q1 7 3 14 l59 238 q4 15 5 28 q2 13 2 25 q0 47 -24 77 q-25 29 -75 30 q-65 -1 -121 -44 q-57 -43 -95 -115 l32 149 l-138 0 l0 -6 q25 -14 41 -30 q15 -16 16 -42 q0 -10 -3 -23 l-95 -383 l64 0 Z" /><glyph glyph-name="" unicode="o" d="M493 289 q-2 99 -55 152 q-53 52 -136 53 q-119 -5 -188 -94 q-69 -89 -71 -205 q2 -99 55 -152 q53 -52 136 -53 q119 5 188 94 q69 89 71 205 l0 0 ZM115 184 q2 108 54 187 q52 78 133 82 q63 -1 91 -41 q29 -41 28 -112 q-2 -108 -54 -187 q-52 -78 -133 -82 q-63 1 -91 41 q-29 41 -28 112 l0 0 Z" /><glyph glyph-name="" unicode="p" d="M170 252 q21 83 76 139 q55 56 119 58 q52 -1 78 -37 q26 -36 26 -99 q-1 -106 -54 -191 q-53 -86 -149 -91 q-46 0 -79 30 q-33 30 -34 91 q0 24 6 53 l11 47 ZM130 89 q9 -38 45 -68 q36 -29 94 -31 q127 4 199 99 q72 94 73 224 q-1 84 -41 132 q-40 48 -113 49 q-65 -2 -112 -38 q-47 -37 -76 -90 l24 118 l-138 0 l0 -6 q25 -14 41 -30 q15 -16 16 -42 q0 -10 -3 -23 l-148 -598 l64 0 l75 304 Z" /><glyph glyph-name="" unicode="q" d="M300 -215 l64 0 l176 709 l-12 0 q-17 -14 -38 -43 q-22 -30 -34 -53 q-9 38 -46 66 q-37 29 -99 30 q-117 -4 -192 -98 q-75 -95 -78 -225 q1 -84 44 -132 q42 -48 115 -49 q64 2 109 38 q45 36 73 88 l-82 -331 ZM412 232 q-21 -83 -76 -139 q-55 -56 -119 -58 q-52 1 -78 37 q-26 36 -26 99 q1 106 54 191 q53 86 149 91 q46 0 79 -30 q33 -30 34 -91 q0 -24 -6 -53 l-11 -47 Z" /><glyph glyph-name="" unicode="r" d="M220 484 l-143 0 l0 -6 q25 -14 41 -30 q15 -16 16 -42 q0 -10 -3 -23 l-95 -383 l64 0 l48 192 q24 88 80 162 q55 73 107 78 q19 0 28 -9 q9 -9 9 -22 q0 -6 -2 -12 q-2 -7 -6 -13 q25 0 46 16 q21 16 22 49 q0 20 -14 36 q-14 16 -47 17 q-64 -3 -111 -57 q-48 -54 -82 -121 l42 168 Z" /><glyph glyph-name="" unicode="s" d="M355 381 q0 -14 -4 -25 q-4 -11 -9 -17 q9 -2 20 -2 q24 0 43 13 q18 12 19 40 q-1 45 -42 74 q-42 29 -115 30 q-73 -1 -120 -40 q-46 -38 -48 -99 q1 -45 34 -78 q33 -33 86 -60 q53 -29 75 -54 q21 -25 20 -51 q-1 -41 -35 -63 q-35 -21 -84 -21 q-52 1 -80 27 q-28 26 -28 64 q0 13 4 23 q4 10 10 17 q-12 4 -26 4 q-24 0 -41 -14 q-16 -14 -17 -41 q1 -49 50 -83 q49 -34 128 -35 q78 1 129 40 q51 39 53 104 q1 39 -25 71 q-26 31 -91 68 q-54 31 -77 53 q-24 23 -23 49 q1 37 29 58 q28 22 77 22 q42 0 65 -20 q23 -20 23 -54 l0 0 Z" /><glyph glyph-name="" unicode="t" d="M216 446 l138 0 l15 38 l-143 0 l42 164 l-26 0 q-28 -74 -64 -118 q-37 -43 -100 -58 l-7 -26 l80 0 l-81 -329 q-5 -20 -5 -38 q0 -41 24 -65 q24 -23 66 -24 q33 1 71 17 q38 16 75 42 l0 12 q-64 -19 -105 -19 q-32 0 -48 12 q-16 13 -16 39 q0 12 4 28 l80 325 Z" /><glyph glyph-name="" unicode="u" d="M366 97 q-5 -20 -5 -38 q0 -32 17 -50 q16 -19 48 -19 q28 1 55 15 q28 14 51 35 l0 10 q-20 -7 -36 -10 q-16 -3 -28 -3 q-20 0 -31 9 q-11 10 -11 27 q0 5 1 10 q1 6 2 13 l97 388 l-64 0 l-45 -180 q-32 -123 -95 -193 q-63 -71 -128 -72 q-33 0 -48 19 q-16 18 -16 50 q0 21 6 45 l83 331 l-144 0 l0 -6 q25 -14 41 -30 q15 -16 16 -42 q0 -10 -3 -23 l-58 -233 q-7 -29 -7 -53 q0 -47 24 -77 q25 -29 75 -30 q65 1 122 44 q56 43 94 115 l-13 -52 Z" /><glyph glyph-name="" unicode="v" d="M74 202 q-10 -40 -10 -76 q0 -61 32 -98 q32 -37 101 -38 q127 8 210 129 q83 120 86 254 q0 54 -25 87 q-25 33 -73 34 q-27 0 -48 -16 q-21 -16 -30 -55 q14 6 26 9 q11 2 25 2 q35 0 54 -23 q18 -22 18 -65 q-2 -100 -62 -200 q-60 -100 -159 -108 q-47 0 -70 24 q-22 23 -22 68 q0 31 11 73 l70 281 l-143 0 l0 -6 q25 -14 41 -30 q15 -16 16 -42 q0 -10 -3 -23 l-45 -181 Z" /><glyph glyph-name="" unicode="w" d="M362 219 q-17 -71 -58 -126 q-41 -55 -103 -58 q-38 0 -57 22 q-19 22 -19 64 q0 33 11 76 l72 287 l-143 0 l0 -6 q25 -14 41 -30 q15 -16 16 -42 q0 -10 -3 -23 l-46 -187 q-5 -21 -8 -41 q-3 -20 -3 -37 q0 -59 29 -93 q29 -34 89 -35 q55 1 100 35 q45 33 71 94 q0 -61 30 -94 q29 -34 84 -35 q124 8 199 129 q76 122 78 260 q0 49 -21 82 q-21 32 -67 33 q-25 0 -47 -17 q-21 -17 -30 -56 q13 6 24 9 q11 2 24 2 q34 0 49 -20 q15 -20 15 -57 q-1 -109 -57 -211 q-55 -102 -148 -109 q-37 0 -56 23 q-18 23 -18 66 q0 17 3 37 q2 20 8 42 l70 281 l-143 0 l0 -6 q25 -14 41 -30 q16 -16 16 -42 q0 -11 -3 -23 l-40 -164 Z" /><glyph glyph-name="" unicode="x" d="M380 -10 q27 0 54 12 q26 12 51 30 l0 7 q-13 -1 -24 -2 q-11 0 -20 0 q-40 0 -59 13 q-19 14 -29 48 l-50 165 l57 86 q27 44 47 65 q19 22 43 22 q12 0 19 -9 q6 -9 6 -21 q0 -5 -1 -11 q-2 -6 -4 -11 q2 0 4 0 q2 -1 4 -1 q23 0 41 16 q18 15 19 42 q0 24 -16 39 q-17 14 -46 14 q-41 0 -71 -31 q-30 -30 -66 -87 l-48 -72 l-39 128 q-8 29 -24 46 q-16 16 -47 16 q-27 -1 -53 -13 q-27 -13 -51 -29 l0 -7 q20 1 36 1 q39 1 58 -12 q19 -13 29 -48 l43 -142 l-73 -109 q-27 -43 -46 -65 q-20 -22 -44 -22 q-12 0 -18 9 q-7 9 -7 21 q0 5 1 11 q2 6 4 11 q-2 0 -4 1 q-2 0 -4 0 q-23 0 -41 -16 q-18 -15 -19 -42 q0 -24 17 -38 q16 -15 43 -15 q43 1 75 34 q31 33 64 84 l64 95 l46 -151 q9 -30 28 -46 q20 -16 51 -16 l0 0 Z" /><glyph glyph-name="" unicode="y" d="M354 48 q-25 -107 -73 -172 q-49 -64 -136 -66 q-45 0 -68 22 q-23 21 -23 57 q0 18 6 30 q5 12 12 19 q-12 4 -24 4 q-26 0 -44 -16 q-19 -16 -20 -46 q1 -50 45 -77 q43 -28 116 -28 q111 2 176 74 q66 72 95 194 l110 441 l-64 0 l-45 -180 q-32 -123 -95 -193 q-63 -71 -128 -72 q-33 0 -48 19 q-16 18 -16 50 q0 21 6 45 l83 331 l-144 0 l0 -6 q25 -14 41 -30 q15 -16 16 -42 q0 -10 -3 -23 l-58 -233 q-7 -29 -7 -53 q0 -47 24 -77 q25 -29 75 -30 q65 1 122 44 q56 43 94 115 l-25 -101 Z" /><glyph glyph-name="" unicode="z" d="M407 426 l-441 -426 l65 0 q25 34 42 47 q17 12 34 11 q33 -4 93 -34 q60 -30 125 -34 q42 0 76 33 q34 32 64 94 l-13 0 q-29 -32 -55 -45 q-26 -13 -51 -12 q-41 0 -83 12 q-41 12 -128 39 l382 369 l0 4 l-288 0 q-27 0 -44 2 q-17 2 -27 8 l-68 -163 l11 -1 q47 62 73 80 q25 18 63 16 l170 0 Z" /><glyph glyph-name="" unicode="{" d="M55 288 q43 -1 67 -21 q25 -20 25 -72 q-4 -58 -30 -118 q-27 -61 -31 -117 q1 -51 36 -83 q36 -33 97 -34 q11 0 23 1 q12 1 25 3 l2 7 q-53 0 -89 26 q-36 27 -37 80 q4 56 30 117 q25 61 29 118 q-2 52 -30 75 q-28 24 -54 26 q33 3 80 35 q48 33 70 107 q8 36 11 82 q4 46 7 68 q17 74 74 112 q57 38 121 38 l1 7 q-11 2 -23 3 q-12 1 -23 1 q-72 -1 -129 -42 q-57 -40 -74 -108 q-8 -40 -10 -81 q-3 -41 -10 -74 q-21 -79 -62 -109 q-42 -31 -92 -31 l-4 -16 Z" /><glyph glyph-name="" unicode="|" d="M-9 -153 l39 0 l225 902 l-39 0 l-225 -902 Z" /><glyph glyph-name="" unicode="}" d="M359 304 q-42 1 -67 21 q-24 20 -25 72 q4 58 31 118 q26 61 30 117 q-1 51 -36 83 q-36 33 -97 34 q-11 0 -23 -1 q-12 -1 -25 -3 l-2 -7 q53 0 89 -26 q36 -27 37 -80 q-4 -56 -29 -117 q-26 -61 -30 -118 q2 -52 30 -75 q28 -24 54 -26 q-33 -3 -80 -35 q-48 -33 -70 -107 q-8 -36 -11 -82 q-4 -46 -7 -68 q-17 -74 -74 -112 q-57 -38 -121 -38 l-1 -7 q11 -2 23 -3 q12 -1 23 -1 q73 1 129 42 q57 40 74 108 q8 40 10 81 q3 41 10 74 q21 79 62 109 q42 31 92 31 l4 16 Z" /><glyph glyph-name="" unicode="~" d="M78 247 q16 28 37 42 q21 15 53 15 q43 -3 82 -26 q39 -24 83 -27 q38 0 70 26 q31 26 50 84 l-13 0 q-16 -28 -37 -42 q-21 -15 -53 -15 q-43 3 -82 27 q-39 23 -83 26 q-38 0 -70 -26 q-31 -26 -50 -84 l13 0 Z" /><glyph glyph-name="" unicode="¡" d="M134 501 q1 -26 18 -42 q16 -16 41 -17 q25 1 42 17 q16 16 17 42 q-1 26 -17 42 q-17 17 -42 17 q-25 0 -41 -17 q-17 -16 -18 -42 l0 0 ZM86 -149 l83 512 l-10 0 l-173 -512 l100 0 Z" /><glyph glyph-name="" unicode="¢" d="M130 194 q1 102 50 185 q48 84 139 98 l-107 -430 q-40 15 -61 53 q-21 37 -21 94 l0 0 ZM240 -10 q70 1 124 38 q53 37 82 101 l-18 10 q-37 -52 -78 -76 q-41 -25 -87 -25 q-12 0 -22 1 l109 438 q34 -3 49 -22 q15 -18 15 -46 q0 -23 -5 -35 q-5 -11 -11 -17 q6 -4 12 -5 q7 -2 15 -2 q28 0 44 17 q17 17 17 47 q-1 43 -34 71 q-34 27 -91 33 l24 98 l-31 0 l-24 -97 q-121 -8 -197 -102 q-77 -95 -79 -223 q0 -81 38 -134 q38 -52 107 -66 l-27 -108 l31 0 l26 104 q6 0 11 0 l0 0 Z" /><glyph glyph-name="" unicode="£" d="M435 -39 q75 3 115 47 q41 43 41 92 q1 11 -2 19 q-4 8 -9 13 q-24 -53 -61 -77 q-36 -23 -79 -23 q-63 2 -116 26 q-53 25 -99 54 q24 40 46 93 q23 54 43 123 l170 0 l9 36 l-169 0 q1 4 2 8 q1 4 2 8 l30 118 q18 79 60 126 q41 46 110 47 q37 -1 56 -20 q20 -19 20 -47 q-1 -35 -17 -59 q-16 -24 -31 -35 q6 -3 14 -4 q7 -2 13 -2 q42 1 69 29 q27 27 28 71 q0 47 -39 76 q-40 29 -113 30 q-97 -1 -160 -62 q-63 -61 -89 -165 q-7 -28 -13 -58 q-7 -30 -13 -61 l-120 0 l-9 -36 l122 0 q-5 -24 -10 -46 q-5 -23 -9 -41 q-8 -32 -18 -59 q-10 -27 -22 -49 q-25 14 -50 23 q-26 9 -51 9 q-44 0 -76 -24 q-32 -24 -33 -71 q1 -38 26 -59 q25 -21 59 -21 q35 0 71 21 q35 21 68 66 q48 -39 104 -76 q55 -37 130 -40 l0 0 ZM63 27 q-17 0 -30 11 q-13 10 -14 31 q1 27 20 42 q19 15 47 15 q22 0 42 -7 q21 -7 40 -19 q-26 -37 -53 -55 q-27 -18 -52 -18 l0 0 Z" /><glyph glyph-name="" unicode="&#x2044;" d="M-165 -10 l614 720 l-48 0 l-615 -720 l49 0 Z" /><glyph glyph-name="" unicode="¥" d="M374 7 q-28 13 -41 26 q-13 12 -13 34 q0 16 7 43 l27 109 l204 0 l9 34 l-204 0 l9 38 l52 59 l166 0 l8 34 l-144 0 l181 206 q33 38 57 60 q25 22 59 43 l0 7 l-154 0 l0 -7 q25 -15 25 -36 q0 -12 -7 -25 q-7 -14 -20 -29 l-238 -270 l-102 270 q-6 14 -6 26 q0 20 13 37 q12 16 35 27 l0 7 l-171 0 l0 -7 q25 -21 38 -43 q14 -22 28 -60 l78 -206 l-151 0 l-8 -34 l172 0 l22 -59 l-9 -38 l-208 0 l-9 -34 l208 0 l-27 -109 q-11 -47 -32 -67 q-21 -19 -67 -36 l0 -7 l213 0 l0 7 Z" /><glyph glyph-name="" unicode="&#x192;" d="M31 -180 q66 0 113 42 q47 42 71 125 l93 382 l120 0 l12 33 l-124 0 l39 163 q14 51 38 82 q23 30 64 31 q28 0 40 -12 q13 -12 12 -33 q0 -14 -6 -29 q-7 -14 -16 -26 q9 -2 21 -2 q27 0 46 16 q20 15 21 46 q0 31 -27 51 q-28 20 -81 21 q-66 0 -114 -42 q-47 -42 -71 -125 l-34 -141 l-108 0 l-12 -33 l112 0 l-97 -404 q-14 -51 -37 -82 q-24 -30 -65 -31 q-28 0 -40 12 q-13 12 -12 33 q0 14 7 29 q6 14 15 26 q-9 2 -21 2 q-26 0 -46 -16 q-20 -15 -21 -46 q0 -31 27 -51 q28 -20 81 -21 l0 0 Z" /><glyph glyph-name="" unicode="¤§" d="M172 259 q-19 22 -27 43 q-9 21 -9 43 q1 32 14 62 q14 29 33 48 q8 -20 22 -39 q13 -19 28 -36 l136 -152 q19 -22 27 -43 q9 -21 9 -43 q-1 -32 -14 -62 q-14 -29 -33 -48 q-8 20 -22 39 q-13 19 -28 36 l-136 152 ZM284 425 q-23 24 -37 48 q-15 23 -15 53 q0 60 37 101 q36 41 106 43 q47 -1 72 -23 q24 -22 24 -59 q-1 -29 -17 -49 q-16 -19 -34 -28 q8 -4 19 -7 q11 -3 25 -3 q30 0 53 24 q23 23 24 63 q-1 52 -46 86 q-45 35 -119 36 q-91 -3 -147 -61 q-55 -58 -57 -140 q0 -19 5 -36 q-41 -28 -66 -69 q-24 -41 -25 -96 q0 -26 10 -52 q9 -27 30 -50 l131 -144 q23 -24 37 -47 q15 -24 15 -54 q0 -60 -37 -101 q-36 -41 -106 -43 q-47 1 -72 23 q-24 22 -24 59 q1 29 17 49 q16 19 34 28 q-8 4 -19 7 q-11 3 -25 3 q-30 0 -53 -24 q-23 -23 -24 -63 q1 -52 46 -86 q45 -35 119 -36 q91 3 147 61 q55 58 57 140 q0 20 -5 36 q41 28 66 69 q24 41 25 96 q0 26 -9 53 q-10 26 -31 49 l-131 144 Z" /><glyph glyph-name="" unicode="&#39;" d="M155 425 l101 249 q-4 14 -16 24 q-12 11 -31 11 q-22 0 -36 -16 l-30 -265 l12 -3 Z" /><glyph glyph-name="" unicode="&#x201c;" d="M377 577 q5 46 45 80 q39 33 95 46 l4 27 q-78 -9 -133 -56 q-55 -47 -58 -117 q0 -31 17 -51 q17 -21 47 -22 q26 0 43 15 q16 15 17 41 q0 18 -11 32 q-12 13 -36 14 q-8 0 -15 -2 q-7 -2 -15 -7 l0 0 ZM180 577 q5 46 45 80 q39 33 95 46 l4 27 q-78 -9 -133 -56 q-55 -47 -58 -117 q0 -31 17 -51 q17 -21 47 -22 q26 0 43 15 q16 15 17 41 q0 18 -11 32 q-12 13 -36 14 q-8 0 -15 -2 q-7 -2 -15 -7 l0 0 Z" /><glyph glyph-name="" unicode="«" d="M312 240 q60 -41 107 -94 q47 -54 88 -112 l13 12 q-21 61 -47 109 q-26 47 -53 83 q44 36 96 86 q51 50 103 112 l-7 18 q-70 -58 -145 -112 q-74 -53 -155 -94 l0 -8 ZM79 240 q60 -41 107 -94 q47 -54 88 -112 l13 12 q-21 61 -47 109 q-26 47 -53 83 q44 36 96 86 q51 50 103 112 l-7 18 q-70 -58 -145 -112 q-74 -53 -155 -94 l0 -8 Z" /><glyph glyph-name="" unicode="&#x2039;" d="M79 240 q60 -41 107 -94 q47 -54 88 -112 l13 12 q-21 61 -47 109 q-26 47 -53 83 q44 36 96 86 q51 50 103 112 l-7 18 q-70 -58 -145 -112 q-74 -53 -155 -94 l0 -8 Z" /><glyph glyph-name="" unicode="&#x203a;" d="M309 248 q-60 41 -107 94 q-47 54 -88 112 l-13 -12 q21 -61 47 -109 q26 -47 53 -83 q-44 -36 -96 -86 q-51 -50 -103 -112 l7 -18 q70 58 145 112 q74 53 155 94 l0 8 Z" /><glyph glyph-name="" unicode="&#xfb01;" d="M209 446 l240 0 l-87 -349 q-2 -9 -4 -19 q-1 -11 -1 -20 q0 -30 16 -49 q16 -18 47 -19 q28 1 55 15 q28 14 51 35 l0 10 q-20 -7 -36 -10 q-16 -3 -28 -3 q-20 0 -30 8 q-11 9 -11 26 q0 5 1 12 q1 7 3 13 l97 388 l-302 0 l8 38 q19 94 65 145 q46 50 122 51 q35 -1 51 -16 q16 -16 16 -39 q0 -18 -7 -36 q-6 -17 -22 -31 q6 -2 13 -4 q7 -1 17 -1 q34 0 58 18 q23 17 24 53 q0 35 -38 62 q-38 27 -112 28 q-95 -1 -161 -61 q-65 -60 -91 -161 l-10 -40 l-76 -18 l-7 -26 l73 0 l-114 -458 q-18 -72 -38 -125 q-21 -53 -51 -88 l6 0 q54 0 83 38 q28 37 45 107 l135 526 Z" /><glyph glyph-name="" unicode="&#xfb02;" d="M361 97 q-2 -10 -4 -20 q-2 -10 -2 -19 q0 -31 17 -49 q16 -19 48 -19 q28 1 55 15 q28 14 51 35 l0 10 q-20 -7 -36 -10 q-16 -3 -28 -3 q-41 0 -41 34 q0 5 1 12 q1 7 3 13 l160 653 l-85 -55 q-16 25 -44 41 q-29 16 -75 17 q-76 0 -131 -49 q-55 -50 -80 -146 l-17 -67 l-76 -18 l-7 -26 l73 0 l-114 -458 q-18 -72 -38 -125 q-21 -53 -51 -88 l6 0 q54 0 83 38 q28 37 45 107 l135 526 l131 0 l16 38 l-136 0 l15 73 q15 76 50 118 q35 41 95 42 q53 -1 79 -31 q25 -29 25 -70 q0 -8 -1 -15 q-1 -8 -3 -16 l-119 -488 Z" /><glyph glyph-name="" unicode="&#x2013;" d="M52 252 l420 0 l10 37 l-420 0 l-10 -37 Z" /><glyph glyph-name="" unicode="&#x2020;" d="M331 749 l-36 -143 l-145 0 l-9 -36 l145 0 l-71 -285 l36 0 l71 285 l145 0 l9 36 l-145 0 l36 143 l-36 0 Z" /><glyph glyph-name="" unicode="&#x2021;" d="M257 454 l-145 0 l-9 -36 l145 0 l-33 -133 l36 0 l33 133 l145 0 l9 36 l-145 0 l32 126 l145 0 l9 36 l-145 0 l33 133 l-36 0 l-33 -133 l-145 0 l-9 -36 l145 0 l-32 -126 Z" /><glyph glyph-name="" unicode="·" d="M176 270 q-1 26 -17 42 q-17 17 -42 17 q-25 0 -41 -17 q-17 -16 -18 -42 q1 -26 18 -42 q16 -16 41 -17 q25 1 42 17 q16 16 17 42 l0 0 Z" /><glyph glyph-name="" unicode="¦¶" d="M210 -214 l45 0 l219 881 l99 0 l-219 -881 l44 0 l200 804 q11 47 28 67 q17 19 56 36 l2 7 l-246 0 q-144 -1 -246 -61 q-101 -61 -106 -166 q3 -88 73 -134 q70 -47 177 -47 l-126 -506 Z" /><glyph glyph-name="" unicode="&#x2022;" d="M60 270 q1 -49 34 -81 q32 -33 81 -34 q49 1 81 34 q33 32 34 81 q-1 49 -34 81 q-32 33 -81 34 q-49 -1 -81 -34 q-33 -32 -34 -81 l0 0 Z" /><glyph glyph-name="" unicode="&#x201a;" d="M94 -2 q-5 -46 -44 -80 q-40 -33 -96 -46 l-4 -27 q78 9 133 56 q55 47 58 117 q0 31 -17 52 q-17 20 -47 21 q-26 0 -43 -15 q-16 -15 -17 -41 q0 -18 12 -32 q11 -13 35 -14 q8 0 15 2 q7 3 15 7 l0 0 Z" /><glyph glyph-name="" unicode="&#x201e;" d="M291 -2 q-5 -46 -44 -80 q-40 -33 -96 -46 l-4 -27 q78 9 133 56 q55 47 58 117 q0 31 -17 52 q-17 20 -47 21 q-26 0 -43 -15 q-16 -15 -17 -41 q0 -18 12 -32 q11 -13 35 -14 q8 0 15 2 q7 3 15 7 l0 0 ZM94 -2 q-5 -46 -44 -80 q-40 -33 -96 -46 l-4 -27 q78 9 133 56 q55 47 58 117 q0 31 -17 52 q-17 20 -47 21 q-26 0 -43 -15 q-16 -15 -17 -41 q0 -18 12 -32 q11 -13 35 -14 q8 0 15 2 q7 3 15 7 l0 0 Z" /><glyph glyph-name="" unicode="&#x201d;" d="M448 637 q-5 -46 -44 -80 q-40 -33 -96 -46 l-4 -27 q78 9 133 56 q55 47 58 117 q0 31 -17 52 q-17 20 -47 21 q-26 0 -43 -15 q-16 -15 -17 -41 q0 -18 12 -32 q11 -13 35 -14 q8 0 15 2 q7 3 15 7 l0 0 ZM251 637 q-5 -46 -44 -80 q-40 -33 -96 -46 l-4 -27 q78 9 133 56 q55 47 58 117 q0 31 -17 52 q-17 20 -47 21 q-26 0 -43 -15 q-16 -15 -17 -41 q0 -18 12 -32 q11 -13 35 -14 q8 0 15 2 q7 3 15 7 l0 0 Z" /><glyph glyph-name="" unicode="»" d="M542 248 q-60 41 -107 94 q-47 54 -88 112 l-13 -12 q21 -61 47 -109 q26 -47 53 -83 q-44 -36 -96 -86 q-51 -50 -103 -112 l7 -18 q70 58 145 112 q74 53 155 94 l0 8 ZM309 248 q-60 41 -107 94 q-47 54 -88 112 l-13 -12 q21 -61 47 -109 q26 -47 53 -83 q-44 -36 -96 -86 q-51 -50 -103 -112 l7 -18 q70 58 145 112 q74 53 155 94 l0 8 Z" /><glyph glyph-name="" unicode="&#x2026;" d="M422 50 q1 -26 17 -42 q17 -16 41 -16 q25 0 42 16 q17 16 18 42 q-1 26 -18 42 q-17 17 -42 17 q-24 0 -41 -17 q-16 -16 -17 -42 l0 0 ZM223 50 q1 -26 17 -42 q16 -16 41 -16 q24 0 41 16 q17 16 18 42 q-1 26 -18 42 q-17 17 -41 17 q-25 0 -41 -17 q-16 -16 -17 -42 l0 0 ZM23 50 q1 -26 17 -42 q17 -16 41 -16 q25 0 42 16 q16 16 17 42 q-1 26 -17 42 q-17 17 -42 17 q-24 0 -41 -17 q-16 -16 -17 -42 l0 0 Z" /><glyph glyph-name="" unicode="&#x2030;" d="M429 639 q21 -5 49 -8 q29 -3 58 -3 q31 0 77 8 q45 8 69 24 l-466 -660 l34 0 l501 710 l-19 9 q-40 -38 -92 -53 q-53 -16 -104 -15 q-87 4 -131 30 q-45 25 -102 29 q-87 -2 -144 -62 q-57 -59 -59 -148 q1 -68 43 -108 q42 -40 113 -41 q88 2 144 62 q57 59 59 148 q0 19 -7 40 q-7 22 -23 38 l0 0 ZM303 678 q38 0 64 -29 q25 -29 26 -88 q-2 -73 -41 -125 q-39 -51 -96 -53 q-38 0 -64 29 q-25 29 -26 88 q2 73 41 125 q39 51 96 53 l0 0 ZM863 200 q-1 68 -43 108 q-42 40 -113 41 q-87 -2 -144 -62 q-57 -59 -59 -148 q1 -68 43 -108 q42 -40 113 -41 q88 2 144 62 q57 59 59 148 l0 0 ZM1077 -10 q88 2 144 62 q57 59 59 148 q-1 68 -43 108 q-42 40 -113 41 q-87 -2 -144 -62 q-57 -59 -59 -148 q1 -68 43 -108 q42 -40 113 -41 l0 0 ZM797 200 q-2 -73 -41 -125 q-39 -51 -96 -53 q-38 0 -64 29 q-25 29 -26 88 q2 73 41 125 q39 51 96 53 q38 0 64 -29 q25 -29 26 -88 l0 0 ZM1124 317 q38 0 64 -29 q25 -29 26 -88 q-2 -73 -41 -125 q-39 -51 -96 -53 q-38 0 -64 29 q-25 29 -26 88 q2 73 41 125 q39 51 96 53 l0 0 Z" /><glyph glyph-name="" unicode="¿" d="M261 501 q1 -26 18 -42 q16 -16 41 -17 q25 1 42 17 q16 16 17 42 q-1 26 -17 42 q-17 17 -42 17 q-25 0 -41 -17 q-17 -16 -18 -42 l0 0 ZM180 -121 q-60 0 -93 31 q-33 30 -34 88 q2 81 62 124 q59 43 150 50 l46 188 l-37 0 l-31 -124 q-107 -17 -176 -77 q-70 -59 -72 -155 q1 -72 49 -117 q48 -45 136 -46 q82 1 138 45 q56 43 58 113 q0 27 -15 45 q-15 17 -40 18 q-6 0 -14 -1 q-9 -2 -15 -4 q6 -5 12 -17 q5 -13 5 -41 q0 -51 -33 -85 q-32 -34 -96 -35 l0 0 Z" /><glyph glyph-name="" unicode="`" d="M296 749 l96 -188 l16 0 l-19 188 l-93 0 Z" /><glyph glyph-name="" unicode="´" d="M359 749 l-114 -188 l19 0 l197 188 l-102 0 Z" /><glyph glyph-name="" unicode="&#x2c6;" d="M391 749 l-16 0 q-35 -45 -90 -101 q-55 -57 -107 -96 l25 0 q44 23 84 50 q39 27 75 56 q19 -29 39 -56 q20 -27 50 -50 l25 0 q-29 39 -52 96 q-23 56 -33 101 l0 0 Z" /><glyph glyph-name="" unicode="&#x2dc;" d="M197 580 q16 31 34 51 q18 20 49 21 q30 -4 62 -34 q32 -30 69 -34 q35 0 64 33 q30 33 54 95 l-24 0 q-16 -31 -34 -51 q-18 -20 -49 -21 q-30 4 -62 34 q-32 30 -69 34 q-35 0 -64 -33 q-30 -33 -54 -95 l24 0 Z" /><glyph glyph-name="" unicode="¯" d="M469 592 l15 47 l-268 0 l-15 -47 l268 0 Z" /><glyph glyph-name="" unicode="&#x2d8;" d="M256 706 q0 14 3 30 l-25 0 q-8 -31 -8 -57 q1 -53 29 -82 q28 -29 72 -29 q63 1 112 45 q50 44 73 123 l-25 0 q-19 -55 -59 -83 q-40 -27 -85 -27 q-38 0 -62 20 q-24 20 -25 60 l0 0 Z" /><glyph glyph-name="" unicode="&#x2d9;" d="M352 603 q23 1 38 16 q15 15 16 38 q-1 23 -16 38 q-15 15 -38 16 q-23 -1 -38 -16 q-15 -15 -16 -38 q1 -23 16 -38 q15 -15 38 -16 l0 0 Z" /><glyph glyph-name="" unicode="¨¬" d="M264 586 q22 1 37 16 q15 15 16 37 q-1 22 -16 37 q-15 15 -37 16 q-23 -1 -38 -16 q-14 -15 -15 -37 q1 -22 15 -37 q15 -15 38 -16 l0 0 ZM434 586 q23 1 38 16 q15 15 15 37 q0 22 -15 37 q-15 15 -38 16 q-22 -1 -37 -16 q-15 -15 -16 -37 q1 -22 16 -37 q15 -15 37 -16 l0 0 Z" /><glyph glyph-name="" unicode="&#x2da;" d="M248 648 q1 -40 27 -65 q25 -26 66 -27 q47 1 82 32 q35 31 37 83 q-1 40 -27 66 q-25 25 -66 26 q-47 -1 -82 -32 q-35 -31 -37 -83 l0 0 ZM418 667 q-1 -31 -20 -52 q-20 -20 -52 -21 q-27 0 -42 16 q-15 16 -14 42 q1 31 20 52 q20 20 52 21 q27 0 42 -16 q15 -16 14 -42 l0 0 Z" /><glyph glyph-name="" unicode="¸" d="M37 -172 q8 -19 33 -33 q25 -15 66 -16 q47 1 87 26 q39 25 41 67 q0 33 -26 51 q-26 17 -72 19 l56 78 l-36 0 l-72 -101 q41 -1 63 -13 q21 -11 21 -35 q-1 -27 -22 -42 q-20 -16 -44 -16 q-27 0 -45 9 q-18 8 -29 26 l-21 -20 Z" /><glyph glyph-name="" unicode="&#x2dd;" d="M289 749 l-120 -188 l19 0 l197 188 l-96 0 ZM439 749 l-120 -188 l19 0 l197 188 l-96 0 Z" /><glyph glyph-name="" unicode="&#x2db;" d="M37 -173 q1 -29 20 -46 q18 -16 49 -16 q50 1 92 27 q41 25 66 59 l-10 12 q-26 -24 -55 -39 q-28 -16 -56 -16 q-18 0 -30 9 q-12 8 -12 27 q0 43 38 80 q38 37 112 79 l-4 16 q-81 -38 -144 -84 q-63 -46 -66 -108 l0 0 Z" /><glyph glyph-name="" unicode="&#x2c7;" d="M328 552 q35 45 90 102 q56 56 107 95 l-25 0 q-44 -23 -84 -50 q-39 -27 -75 -56 q-19 29 -39 56 q-20 27 -50 50 l-25 0 q29 -39 52 -95 q23 -57 33 -102 l16 0 Z" /><glyph glyph-name="" unicode="&#x2014;" d="M52 252 l720 0 l10 37 l-720 0 l-10 -37 Z" /><glyph glyph-name="" unicode="æ" d="M655 663 l-91 -363 l-255 0 l346 363 ZM145 7 q-26 17 -39 28 q-13 11 -13 23 q0 8 7 19 q7 10 20 24 l153 161 l282 0 l-38 -152 q-11 -47 -30 -67 q-19 -19 -58 -36 l0 -7 l516 0 l71 158 l-8 0 q-63 -70 -113 -96 q-50 -26 -130 -25 l-199 0 l76 306 l148 0 q59 2 78 -16 q20 -18 25 -80 l8 0 l57 229 l-8 0 q-37 -57 -65 -77 q-28 -20 -86 -19 l-148 0 l71 283 l178 0 q82 1 117 -21 q34 -22 62 -82 l7 0 l3 146 q-12 -2 -26 -4 q-14 -2 -36 -2 l-514 0 l0 -7 q23 -13 40 -24 q16 -11 17 -23 q0 -7 -3 -13 q-3 -7 -10 -14 l-482 -507 q-33 -36 -59 -59 q-26 -24 -63 -46 l0 -7 l192 0 l0 7 Z" /><glyph glyph-name="" unicode="ª" d="M458 631 l-8 0 q-14 -7 -33 -26 q-19 -19 -31 -40 q-6 28 -31 47 q-24 19 -67 20 q-83 -3 -134 -70 q-52 -67 -54 -157 q1 -59 30 -93 q29 -34 79 -35 q43 1 74 27 q30 25 49 62 q-8 -22 -8 -40 q0 -23 13 -36 q14 -13 37 -13 q21 0 42 9 q20 8 40 21 l0 6 q-15 -1 -27 -1 q-22 0 -33 5 q-11 5 -11 19 q0 8 3 18 l70 277 ZM352 451 q-14 -58 -47 -97 q-34 -38 -75 -40 q-30 0 -47 24 q-17 24 -17 66 q1 78 37 135 q37 57 96 60 q28 0 47 -18 q18 -18 19 -56 q0 -9 -1 -19 q-1 -11 -4 -22 l-8 -33 ZM68 156 l296 0 l9 35 l-296 0 l-9 -35 Z" /><glyph glyph-name="" unicode="&#x141;" d="M3 0 l494 0 l80 180 l-8 0 q-68 -82 -120 -113 q-52 -31 -132 -30 l-177 0 l74 297 l188 76 l11 42 l-188 -76 l53 214 q11 47 30 67 q19 19 58 36 l0 7 l-193 0 l0 -7 q23 -13 34 -25 q11 -12 11 -34 q0 -9 -2 -20 q-2 -11 -5 -24 l-60 -240 l-82 -33 l-10 -42 l81 33 l-49 -198 q-11 -47 -30 -67 q-19 -19 -58 -36 l0 -7 Z" /><glyph glyph-name="" unicode="ø" d="M151 280 q2 157 85 269 q82 112 214 117 q55 0 96 -20 q41 -20 68 -56 l-433 -451 q-30 59 -30 141 l0 0 ZM362 34 q-54 0 -95 20 q-41 19 -68 55 l433 450 q14 -29 22 -63 q7 -35 7 -76 q-2 -157 -85 -269 q-82 -112 -214 -117 l0 0 ZM362 -10 q164 5 267 129 q103 123 106 301 q0 53 -15 100 q-15 47 -44 85 l88 91 l-27 22 l-84 -87 q-37 37 -88 58 q-51 21 -115 21 q-164 -5 -267 -129 q-103 -123 -106 -301 q0 -54 15 -101 q16 -47 45 -85 l-96 -100 l26 -22 l92 96 q38 -37 89 -57 q51 -21 114 -21 l0 0 Z" /><glyph glyph-name="" unicode="&#x152;" d="M481 37 l-86 0 q-124 1 -187 63 q-64 61 -64 169 q1 174 96 283 q94 108 270 111 l127 0 l-156 -626 ZM386 0 l541 0 l71 158 l-8 0 q-63 -70 -113 -96 q-50 -26 -130 -25 l-199 0 l76 306 l148 0 q59 2 78 -16 q20 -18 25 -80 l8 0 l57 229 l-8 0 q-37 -57 -65 -77 q-28 -20 -86 -19 l-148 0 l71 283 l178 0 q82 1 117 -21 q34 -22 62 -82 l7 0 l3 146 q-12 -2 -26 -4 q-14 -2 -36 -2 l-494 0 q-200 -2 -321 -116 q-121 -115 -124 -315 q1 -119 84 -193 q82 -74 232 -76 l0 0 Z" /><glyph glyph-name="" unicode="º" d="M433 488 q-1 69 -40 106 q-39 38 -100 38 q-84 -3 -136 -65 q-52 -61 -54 -146 q1 -69 40 -106 q39 -38 100 -38 q83 3 136 65 q52 61 54 146 l0 0 ZM169 402 q1 74 36 135 q35 61 89 65 q39 0 56 -25 q17 -25 17 -70 q-1 -74 -36 -135 q-35 -62 -89 -66 q-39 0 -56 26 q-17 25 -17 70 l0 0 ZM51 156 l296 0 l9 35 l-296 0 l-9 -35 Z" /><glyph glyph-name="" unicode="æ" d="M534 -10 q69 1 121 36 q53 35 81 96 l-17 9 q-36 -49 -77 -73 q-40 -23 -86 -23 q-62 1 -95 38 q-34 38 -34 107 q0 23 3 44 q166 8 253 46 q86 38 87 115 q-1 51 -38 80 q-37 29 -104 29 q-56 -1 -103 -25 q-48 -24 -84 -65 q-15 46 -51 68 q-36 22 -86 22 q-114 -4 -187 -98 q-73 -95 -76 -225 q1 -83 43 -132 q41 -48 112 -49 q51 1 95 31 q43 31 75 84 q17 -54 60 -84 q42 -31 108 -31 l0 0 ZM628 455 q33 0 51 -16 q19 -17 19 -47 q-3 -80 -76 -106 q-74 -25 -186 -28 q17 81 66 138 q49 56 126 59 l0 0 ZM212 35 q-46 1 -72 37 q-27 37 -27 99 q1 118 55 198 q53 80 144 83 q45 0 70 -22 q25 -21 34 -59 q-29 -42 -45 -91 q-16 -49 -16 -100 q0 -23 3 -44 q-34 -48 -70 -74 q-37 -27 -76 -27 l0 0 Z" /><glyph glyph-name="" unicode="&#x131;" d="M220 484 l-143 0 l0 -6 q25 -14 41 -30 q15 -16 16 -42 q0 -10 -3 -23 l-71 -286 q-2 -9 -4 -19 q-1 -11 -1 -20 q0 -30 16 -49 q16 -18 47 -19 q28 1 55 15 q28 14 51 35 l0 10 q-20 -7 -36 -10 q-16 -3 -28 -3 q-20 0 -30 8 q-11 9 -11 26 q0 5 1 12 q1 7 3 13 l97 388 Z" /><glyph glyph-name="" unicode="&#x142;" d="M141 -10 q28 1 55 15 q28 14 51 35 l0 10 q-20 -7 -36 -10 q-16 -3 -28 -3 q-41 0 -41 34 q0 5 1 12 q1 7 3 13 l74 302 l107 52 l11 44 l-107 -52 l75 307 l-143 0 l0 -6 q25 -14 41 -30 q15 -16 16 -42 q0 -10 -3 -23 l-58 -236 l-101 -50 l-11 -44 l101 50 l-66 -271 q-2 -10 -4 -20 q-2 -10 -2 -19 q0 -31 17 -49 q16 -19 48 -19 l0 0 Z" /><glyph glyph-name="" unicode="ø" d="M120 184 q2 108 54 187 q52 78 133 82 q60 0 88 -38 l-263 -312 q-7 17 -9 37 q-3 21 -3 44 l0 0 ZM239 31 q-31 0 -54 10 q-22 10 -36 30 l264 313 q7 -17 10 -39 q3 -21 3 -45 q-2 -108 -54 -187 q-52 -78 -133 -82 l0 0 ZM239 -10 q119 5 188 94 q69 89 71 205 q0 44 -12 80 q-12 35 -33 61 l57 68 l-28 20 l-54 -64 q-25 20 -55 30 q-31 10 -66 10 q-119 -5 -188 -94 q-69 -89 -71 -205 q0 -44 12 -78 q11 -35 32 -61 l-69 -82 l27 -20 l66 78 q25 -21 56 -31 q31 -11 67 -11 l0 0 Z" /><glyph glyph-name="" unicode="&#x153;" d="M781 122 l-17 9 q-36 -49 -77 -73 q-40 -23 -86 -23 q-62 1 -95 38 q-34 38 -34 107 q0 23 3 44 q166 8 253 46 q86 38 87 115 q-1 51 -38 80 q-37 29 -104 29 q-61 -1 -114 -33 q-52 -32 -89 -82 q-21 54 -65 84 q-44 30 -103 31 q-119 -5 -188 -94 q-69 -89 -71 -205 q2 -99 55 -152 q53 -52 136 -53 q58 1 106 30 q48 29 82 71 q20 -44 60 -72 q40 -28 97 -29 q69 1 121 36 q53 35 81 96 l0 0 ZM673 455 q33 0 51 -16 q19 -17 19 -47 q-3 -79 -77 -106 q-75 -27 -185 -28 q17 81 66 138 q49 56 126 59 l0 0 ZM115 184 q2 108 54 187 q52 78 133 82 q63 -1 91 -41 q29 -41 28 -112 q-2 -108 -54 -187 q-52 -78 -133 -82 q-63 1 -91 41 q-29 41 -28 112 l0 0 Z" /><glyph glyph-name="" unicode="ß" d="M450 275 q-44 35 -61 61 q-17 26 -16 49 q0 31 19 55 q18 23 50 41 q41 22 72 57 q31 35 33 93 q-1 55 -43 88 q-42 32 -114 33 q-74 -1 -132 -47 q-59 -47 -84 -130 l-24 -85 l-73 -18 l-7 -26 l70 0 l-111 -458 q-18 -72 -38 -125 q-21 -53 -51 -88 l6 0 q54 0 83 38 q28 37 45 107 l167 652 q16 66 53 105 q37 38 95 39 q45 0 71 -23 q25 -23 25 -62 q0 -39 -19 -72 q-20 -34 -61 -61 q-41 -25 -66 -56 q-25 -31 -26 -79 q0 -27 18 -59 q18 -33 60 -66 q35 -25 57 -53 q23 -28 24 -64 q-1 -48 -32 -72 q-31 -24 -78 -24 q-47 1 -72 26 q-25 25 -25 63 q0 13 3 23 q3 9 9 16 q-30 10 -54 -4 q-24 -14 -25 -49 q1 -48 45 -79 q44 -30 119 -31 q79 2 128 45 q48 43 49 109 q-1 40 -26 71 q-25 31 -63 60 l0 0 Z" /><glyph glyph-name="" unicode="¹" d="M244 302 l3 11 q-31 11 -47 19 q-17 8 -12 28 l85 340 l-135 0 l-3 -10 q34 -14 50 -22 q17 -9 11 -29 l-69 -279 q-5 -20 -25 -28 q-21 -8 -58 -19 l-3 -11 l203 0 Z" /><glyph glyph-name="" unicode="&#x2122;" d="M202 700 q-10 0 -15 1 q-6 1 -10 2 l-40 -105 l9 0 q23 30 45 54 q22 23 53 24 l38 0 l-57 -228 q-5 -21 -17 -30 q-13 -9 -32 -17 l0 -4 l125 0 l0 4 q-15 8 -23 17 q-7 9 -2 30 l57 228 l38 0 q30 -1 41 -24 q11 -24 19 -54 l9 0 l12 105 q-6 -1 -12 -2 q-6 -1 -16 -1 l-222 0 ZM636 485 l-39 215 l-96 0 l-1 -3 q13 -9 20 -17 q7 -9 2 -30 l-51 -203 q-5 -21 -16 -29 q-11 -8 -29 -17 l0 -4 l94 0 l0 4 q-13 9 -19 17 q-7 8 -2 29 l54 215 l48 -270 l1 0 l185 270 l-54 -215 q-5 -21 -16 -29 q-11 -8 -29 -17 l0 -4 l117 0 l0 4 q-13 9 -19 17 q-7 8 -2 29 l51 203 q5 21 16 30 q10 8 28 17 l1 3 l-98 0 l-146 -215 Z" /><glyph glyph-name="" unicode="ð" d="M284 0 q200 2 321 117 q121 114 124 314 q-1 119 -79 193 q-78 74 -227 76 l-248 0 l0 -7 q23 -13 34 -25 q11 -12 11 -34 q0 -9 -2 -20 q-2 -11 -5 -24 l-53 -211 l-74 0 l-9 -39 l74 0 l-58 -230 q-11 -47 -30 -67 q-19 -19 -58 -36 l0 -7 l279 0 ZM142 37 l76 303 l163 0 l9 39 l-163 0 l71 284 l116 0 q123 -1 182 -63 q59 -61 59 -169 q-1 -174 -96 -282 q-94 -109 -270 -112 l-147 0 Z" /><glyph glyph-name="" unicode="½" d="M135 -10 l614 720 l-48 0 l-615 -720 l49 0 ZM244 302 l3 11 q-31 11 -47 19 q-17 8 -12 28 l85 340 l-135 0 l-3 -10 q34 -14 50 -22 q17 -9 11 -29 l-69 -279 q-5 -20 -25 -28 q-21 -8 -58 -19 l-3 -11 l203 0 ZM802 310 q-1 43 -32 68 q-32 25 -87 26 q-53 -1 -94 -30 q-41 -29 -43 -75 q0 -21 12 -33 q12 -12 33 -12 q6 0 13 1 q7 2 11 4 q-5 5 -9 15 q-4 9 -4 23 q0 32 21 55 q20 23 60 24 q28 -1 41 -17 q14 -16 14 -38 q-1 -53 -49 -107 q-49 -54 -133 -124 l-103 -87 l0 -3 l281 0 l38 105 l-11 0 q-28 -35 -48 -44 q-21 -9 -61 -8 l-108 -1 q126 83 192 139 q66 55 66 119 l0 0 Z" /><glyph glyph-name="" unicode="±" d="M569 381 l10 42 l-210 0 l45 180 l-42 0 l-45 -180 l-211 0 l-10 -42 l211 0 l-46 -184 l42 0 l46 184 l210 0 ZM37 105 l463 0 l11 43 l-463 0 l-11 -43 Z" /><glyph glyph-name="" unicode="þ" d="M265 590 q11 47 30 67 q19 19 58 36 l0 7 l-193 0 l0 -7 q23 -13 34 -25 q11 -12 11 -34 q0 -9 -2 -20 q-2 -11 -5 -24 l-120 -480 q-11 -47 -30 -67 q-19 -19 -58 -36 l0 -7 l221 0 l0 7 q-35 14 -53 28 q-19 14 -19 41 q0 15 5 34 l13 51 l154 0 q131 0 220 59 q89 60 93 185 q-1 78 -58 117 q-57 39 -158 39 l-150 0 l7 29 ZM167 198 l82 326 l148 0 q79 1 116 -27 q38 -28 38 -92 q-2 -103 -64 -155 q-63 -52 -168 -52 l-152 0 Z" /><glyph glyph-name="" unicode="¼" d="M135 -10 l614 720 l-48 0 l-615 -720 l49 0 ZM244 302 l3 11 q-31 11 -47 19 q-17 8 -12 28 l85 340 l-135 0 l-3 -10 q34 -14 50 -22 q17 -9 11 -29 l-69 -279 q-5 -20 -25 -28 q-21 -8 -58 -19 l-3 -11 l203 0 ZM625 133 l-149 0 l201 210 l-52 -210 ZM704 109 q26 0 34 -6 q8 -7 14 -25 l7 0 l21 85 l-7 0 q-15 -18 -26 -24 q-11 -6 -37 -6 l-25 0 l66 265 l-52 0 l-279 -287 l1 -2 l198 0 l-11 -43 q-7 -27 -16 -38 q-10 -10 -31 -21 l-2 -7 l124 0 l2 7 q-11 8 -16 14 q-6 7 -6 17 q0 10 5 28 l11 43 l25 0 Z" /><glyph glyph-name="" unicode="÷" d="M334 522 q0 -18 13 -30 q12 -13 30 -13 q19 0 31 13 q13 12 13 30 q0 19 -13 31 q-12 13 -31 13 q-18 0 -30 -13 q-13 -12 -13 -31 l0 0 ZM546 319 l10 43 l-456 0 l-10 -43 l456 0 ZM214 158 q0 -18 13 -30 q12 -13 30 -13 q19 0 31 13 q13 12 13 30 q0 19 -13 31 q-12 13 -31 13 q-18 0 -30 -13 q-13 -12 -13 -31 l0 0 Z" /><glyph glyph-name="" unicode="°" d="M271 710 q-59 -2 -98 -42 q-40 -39 -41 -96 q1 -48 33 -79 q31 -32 81 -33 q59 2 98 42 q40 39 41 96 q-1 48 -33 79 q-31 32 -81 33 l0 0 ZM271 675 q33 -1 55 -23 q22 -22 23 -54 q-1 -43 -30 -72 q-28 -30 -73 -31 q-33 1 -55 23 q-21 22 -23 54 q1 43 30 73 q29 29 73 30 l0 0 Z" /><glyph glyph-name="" unicode="þ" d="M164 252 q21 83 76 139 q55 56 119 58 q52 -1 78 -37 q26 -36 26 -99 q-1 -106 -54 -191 q-53 -86 -149 -91 q-46 0 -79 30 q-33 31 -35 92 q0 11 2 25 q1 13 5 27 l11 47 ZM124 89 q9 -38 45 -68 q36 -29 94 -31 q127 4 199 99 q72 94 73 224 q-1 84 -41 132 q-40 48 -113 49 q-65 -2 -112 -38 q-47 -37 -76 -90 l93 383 l-143 0 l0 -6 q25 -14 41 -30 q15 -16 16 -42 q0 -10 -3 -23 l-212 -863 l64 0 l75 304 Z" /><glyph glyph-name="" unicode="¾" d="M208 -10 l614 720 l-48 0 l-615 -720 l49 0 ZM209 296 q64 0 115 33 q50 33 53 98 q-1 38 -28 61 q-28 23 -65 27 l0 2 q50 3 85 29 q34 26 36 74 q-1 40 -33 63 q-32 23 -88 23 q-51 0 -91 -24 q-41 -24 -43 -72 q0 -20 11 -31 q11 -12 31 -12 q6 0 14 1 q7 2 12 4 q-5 6 -9 15 q-4 8 -4 20 q0 33 21 52 q21 18 58 18 q27 0 42 -12 q15 -13 15 -37 q-1 -51 -33 -76 q-31 -26 -77 -27 l-3 -15 q39 -2 60 -20 q20 -18 20 -51 q-1 -53 -28 -84 q-27 -30 -71 -31 q-30 0 -48 15 q-18 14 -18 40 q0 42 31 64 q-9 7 -27 7 q-28 0 -47 -17 q-18 -18 -19 -48 q2 -40 39 -64 q36 -24 89 -25 l0 0 ZM698 133 l-149 0 l201 210 l-52 -210 ZM777 109 q26 0 34 -6 q8 -7 14 -25 l7 0 l21 85 l-7 0 q-15 -18 -26 -24 q-11 -6 -37 -6 l-25 0 l66 265 l-52 0 l-279 -287 l1 -2 l198 0 l-11 -43 q-7 -27 -16 -38 q-10 -10 -31 -21 l-2 -7 l124 0 l2 7 q-11 8 -16 14 q-6 7 -6 17 q0 10 5 28 l11 43 l25 0 Z" /><glyph glyph-name="" unicode="²" d="M387 612 q-1 43 -32 68 q-32 25 -87 26 q-53 -1 -94 -30 q-41 -29 -43 -75 q0 -21 12 -33 q12 -12 33 -12 q6 0 13 1 q7 2 11 4 q-5 5 -9 15 q-4 9 -4 23 q0 32 21 55 q20 23 60 24 q28 -1 41 -17 q14 -16 14 -38 q-1 -53 -49 -107 q-49 -54 -133 -124 l-103 -87 l0 -3 l281 0 l38 105 l-11 0 q-28 -35 -48 -44 q-21 -9 -61 -8 l-108 -1 q126 83 192 139 q66 55 66 119 l0 0 Z" /><glyph glyph-name="" unicode="®" d="M549 503 q-1 95 -56 150 q-54 56 -145 57 q-93 -2 -160 -66 q-68 -63 -71 -159 q1 -95 56 -150 q54 -56 145 -57 q93 2 160 66 q68 63 71 159 l0 0 ZM525 503 q-3 -86 -63 -143 q-60 -57 -142 -59 q-81 1 -129 50 q-49 49 -50 134 q3 86 63 143 q60 57 142 59 q81 -1 129 -50 q49 -49 50 -134 l0 0 ZM348 595 q23 0 36 -9 q14 -8 14 -27 q-1 -30 -23 -43 q-21 -13 -50 -13 l-31 0 l23 92 l31 0 ZM313 481 q23 0 32 -8 q8 -8 10 -27 l4 -32 q1 -12 3 -20 q2 -8 5 -17 l63 0 l0 5 q-14 5 -21 12 q-7 7 -10 25 l-4 28 q-3 19 -12 29 q-10 10 -31 12 l0 2 q34 0 60 19 q26 19 27 50 q-1 28 -20 42 q-20 13 -53 13 l-108 0 l0 -5 q11 -6 16 -11 q5 -6 1 -22 l-41 -161 q-4 -16 -11 -22 q-7 -5 -21 -11 l0 -5 l86 0 l0 5 q-11 6 -16 11 q-5 6 -1 22 l17 66 l25 0 Z" /><glyph glyph-name="" unicode="&#x2212;" d="M90 319 l456 0 l10 43 l-456 0 l-10 -43 Z" /><glyph glyph-name="" unicode="ð" d="M234 -10 q119 3 189 97 q70 93 72 236 q0 109 -28 189 q-29 81 -88 137 l88 48 l-16 30 l-100 -55 q-72 56 -184 87 l-10 -27 q50 -16 88 -37 q39 -20 67 -44 l-107 -58 l16 -30 l117 64 q38 -41 57 -87 q20 -47 30 -97 q-24 27 -56 39 q-32 12 -67 12 q-119 -5 -188 -94 q-69 -89 -71 -205 q2 -99 55 -152 q53 -52 136 -53 l0 0 ZM302 453 q63 -1 91 -41 q29 -41 28 -112 q-2 -108 -54 -187 q-52 -78 -133 -82 q-63 1 -91 41 q-29 41 -28 112 q2 108 54 187 q52 78 133 82 l0 0 Z" /><glyph glyph-name="" unicode="×" d="M257 338 l-187 -150 l24 -33 l187 154 l109 -151 l35 28 l-113 151 l187 150 l-24 33 l-187 -154 l-108 150 l-35 -28 l112 -150 Z" /><glyph glyph-name="" unicode="³" d="M209 296 q64 0 115 33 q50 33 53 98 q-1 38 -28 61 q-28 23 -65 27 l0 2 q50 3 85 29 q34 26 36 74 q-1 40 -33 63 q-32 23 -88 23 q-51 0 -91 -24 q-41 -24 -43 -72 q0 -20 11 -31 q11 -12 31 -12 q6 0 14 1 q7 2 12 4 q-5 6 -9 15 q-4 8 -4 20 q0 33 21 52 q21 18 58 18 q27 0 42 -12 q15 -13 15 -37 q-1 -51 -33 -76 q-31 -26 -77 -27 l-3 -15 q39 -2 60 -20 q20 -18 20 -51 q-1 -53 -28 -84 q-27 -30 -71 -31 q-30 0 -48 15 q-18 14 -18 40 q0 42 31 64 q-9 7 -27 7 q-28 0 -47 -17 q-18 -18 -19 -48 q2 -40 39 -64 q36 -24 89 -25 l0 0 Z" /><glyph glyph-name="" unicode="©" d="M458 710 q-161 -3 -271 -109 q-110 -107 -115 -282 q3 -147 97 -237 q94 -90 239 -92 q161 3 271 109 q110 107 115 282 q-3 147 -97 237 q-94 90 -239 92 l0 0 ZM458 681 q131 -2 217 -84 q86 -82 89 -216 q-4 -157 -105 -258 q-101 -101 -251 -104 q-131 2 -217 84 q-86 82 -89 216 q4 157 105 258 q101 101 251 104 l0 0 ZM474 537 q50 -1 77 -30 q26 -29 41 -74 l6 0 l21 131 l-6 0 l-34 -34 q-16 14 -42 25 q-27 10 -64 11 q-98 -2 -165 -75 q-66 -74 -69 -190 q1 -76 46 -124 q45 -48 123 -50 q63 1 108 34 q45 33 70 91 l-12 7 q-33 -52 -69 -73 q-36 -22 -80 -21 q-57 1 -90 37 q-33 36 -34 101 q1 101 47 167 q46 65 126 67 l0 0 Z" /><glyph glyph-name="" unicode="á" d="M578 929 l-100 -158 l20 0 l186 158 l-106 0 ZM442 588 l52 -307 l-266 0 l214 307 ZM142 7 q-30 15 -45 27 q-15 11 -15 24 q0 8 5 19 q5 10 15 24 l99 142 l299 0 l24 -142 q3 -17 3 -29 q1 -21 -15 -34 q-16 -13 -56 -31 l0 -7 l189 0 l0 7 q-27 21 -37 42 q-10 21 -16 63 l-106 598 l-5 0 l-421 -598 q-28 -41 -49 -62 q-21 -21 -58 -43 l0 -7 l189 0 l0 7 Z" /><glyph glyph-name="" unicode="â" d="M550 946 l-16 0 q-35 -44 -89 -91 q-54 -48 -105 -86 l25 0 q43 19 82 41 q38 23 74 51 q19 -28 40 -49 q22 -21 52 -43 l25 0 q-29 38 -54 86 q-24 47 -34 91 l0 0 ZM442 588 l52 -307 l-266 0 l214 307 ZM142 7 q-30 15 -45 27 q-15 11 -15 24 q0 8 5 19 q5 10 15 24 l99 142 l299 0 l24 -142 q3 -17 3 -29 q1 -21 -15 -34 q-16 -13 -56 -31 l0 -7 l189 0 l0 7 q-27 21 -37 42 q-10 21 -16 63 l-106 598 l-5 0 l-421 -598 q-28 -41 -49 -62 q-21 -21 -58 -43 l0 -7 l189 0 l0 7 Z" /><glyph glyph-name="" unicode="ä" d="M599 786 q23 1 38 16 q15 15 15 37 q0 22 -15 37 q-15 15 -38 16 q-22 -1 -37 -16 q-15 -15 -16 -37 q1 -22 16 -37 q15 -15 37 -16 l0 0 ZM429 786 q22 1 37 16 q15 15 16 37 q-1 22 -16 37 q-15 15 -37 16 q-23 -1 -38 -16 q-14 -15 -15 -37 q1 -22 15 -37 q15 -15 38 -16 l0 0 ZM442 588 l52 -307 l-266 0 l214 307 ZM142 7 q-30 15 -45 27 q-15 11 -15 24 q0 8 5 19 q5 10 15 24 l99 142 l299 0 l24 -142 q3 -17 3 -29 q1 -21 -15 -34 q-16 -13 -56 -31 l0 -7 l189 0 l0 7 q-27 21 -37 42 q-10 21 -16 63 l-106 598 l-5 0 l-421 -598 q-28 -41 -49 -62 q-21 -21 -58 -43 l0 -7 l189 0 l0 7 Z" /><glyph glyph-name="" unicode="à" d="M387 929 l106 -158 l16 0 l-26 158 l-96 0 ZM442 588 l52 -307 l-266 0 l214 307 ZM142 7 q-30 15 -45 27 q-15 11 -15 24 q0 8 5 19 q5 10 15 24 l99 142 l299 0 l24 -142 q3 -17 3 -29 q1 -21 -15 -34 q-16 -13 -56 -31 l0 -7 l189 0 l0 7 q-27 21 -37 42 q-10 21 -16 63 l-106 598 l-5 0 l-421 -598 q-28 -41 -49 -62 q-21 -21 -58 -43 l0 -7 l189 0 l0 7 Z" /><glyph glyph-name="" unicode="å" d="M409 835 q1 -40 27 -65 q25 -26 66 -27 q47 1 82 32 q35 31 37 83 q-1 40 -27 66 q-25 25 -66 26 q-47 -1 -82 -32 q-35 -31 -37 -83 l0 0 ZM579 854 q-1 -31 -20 -52 q-20 -20 -52 -21 q-27 0 -42 16 q-15 16 -14 42 q1 31 20 52 q20 20 52 21 q27 0 42 -16 q15 -16 14 -42 l0 0 ZM442 588 l52 -307 l-266 0 l214 307 ZM142 7 q-30 15 -45 27 q-15 11 -15 24 q0 8 5 19 q5 10 15 24 l99 142 l299 0 l24 -142 q3 -17 3 -29 q1 -21 -15 -34 q-16 -13 -56 -31 l0 -7 l189 0 l0 7 q-27 21 -37 42 q-10 21 -16 63 l-106 598 l-5 0 l-421 -598 q-28 -41 -49 -62 q-21 -21 -58 -43 l0 -7 l189 0 l0 7 Z" /><glyph glyph-name="" unicode="ã" d="M364 791 q16 31 34 51 q18 20 49 21 q30 -4 62 -34 q32 -30 69 -34 q35 0 64 33 q30 33 54 95 l-24 0 q-16 -31 -34 -51 q-18 -20 -49 -21 q-30 4 -62 34 q-32 30 -69 34 q-35 0 -64 -33 q-30 -33 -54 -95 l24 0 ZM442 588 l52 -307 l-266 0 l214 307 ZM142 7 q-30 15 -45 27 q-15 11 -15 24 q0 8 5 19 q5 10 15 24 l99 142 l299 0 l24 -142 q3 -17 3 -29 q1 -21 -15 -34 q-16 -13 -56 -31 l0 -7 l189 0 l0 7 q-27 21 -37 42 q-10 21 -16 63 l-106 598 l-5 0 l-421 -598 q-28 -41 -49 -62 q-21 -21 -58 -43 l0 -7 l189 0 l0 7 Z" /><glyph glyph-name="" unicode="ç" d="M232 -221 q47 1 87 26 q39 25 41 67 q0 33 -26 51 q-26 17 -72 19 l37 51 q23 -3 47 -3 q103 1 177 55 q74 55 113 148 l-16 6 q-54 -86 -117 -124 q-63 -39 -143 -38 q-97 1 -155 65 q-58 63 -59 172 q2 173 85 282 q83 109 220 112 q85 -1 130 -44 q44 -43 69 -119 l7 0 l34 201 l-8 0 l-57 -54 q-25 23 -68 40 q-42 17 -107 18 q-156 -3 -265 -122 q-110 -119 -115 -314 q1 -101 52 -174 q50 -74 144 -100 l-57 -81 q41 -1 63 -13 q21 -11 21 -35 q-1 -27 -22 -42 q-20 -16 -44 -16 q-27 0 -45 9 q-18 8 -29 26 l-21 -20 q8 -19 33 -33 q25 -15 66 -16 l0 0 Z" /><glyph glyph-name="" unicode="é" d="M514 929 l-100 -158 l20 0 l186 158 l-106 0 ZM-10 0 l516 0 l71 158 l-8 0 q-63 -70 -113 -96 q-50 -26 -130 -25 l-199 0 l76 306 l148 0 q59 2 78 -16 q20 -18 25 -80 l8 0 l57 229 l-8 0 q-37 -57 -65 -77 q-28 -20 -86 -19 l-148 0 l71 283 l178 0 q82 1 117 -21 q34 -22 62 -82 l7 0 l3 146 q-12 -2 -26 -4 q-14 -2 -36 -2 l-428 0 l0 -7 q23 -13 34 -25 q11 -12 11 -34 q0 -9 -2 -20 q-2 -11 -5 -24 l-120 -480 q-11 -47 -30 -67 q-19 -19 -58 -36 l0 -7 Z" /><glyph glyph-name="" unicode="ê" d="M486 946 l-16 0 q-35 -44 -89 -91 q-54 -48 -105 -86 l25 0 q43 19 82 41 q38 23 74 51 q19 -28 40 -49 q22 -21 52 -43 l25 0 q-29 38 -54 86 q-24 47 -34 91 l0 0 ZM-10 0 l516 0 l71 158 l-8 0 q-63 -70 -113 -96 q-50 -26 -130 -25 l-199 0 l76 306 l148 0 q59 2 78 -16 q20 -18 25 -80 l8 0 l57 229 l-8 0 q-37 -57 -65 -77 q-28 -20 -86 -19 l-148 0 l71 283 l178 0 q82 1 117 -21 q34 -22 62 -82 l7 0 l3 146 q-12 -2 -26 -4 q-14 -2 -36 -2 l-428 0 l0 -7 q23 -13 34 -25 q11 -12 11 -34 q0 -9 -2 -20 q-2 -11 -5 -24 l-120 -480 q-11 -47 -30 -67 q-19 -19 -58 -36 l0 -7 Z" /><glyph glyph-name="" unicode="ë" d="M535 786 q23 1 38 16 q15 15 15 37 q0 22 -15 37 q-15 15 -38 16 q-22 -1 -37 -16 q-15 -15 -16 -37 q1 -22 16 -37 q15 -15 37 -16 l0 0 ZM365 786 q22 1 37 16 q15 15 16 37 q-1 22 -16 37 q-15 15 -37 16 q-23 -1 -38 -16 q-14 -15 -15 -37 q1 -22 15 -37 q15 -15 38 -16 l0 0 ZM-10 0 l516 0 l71 158 l-8 0 q-63 -70 -113 -96 q-50 -26 -130 -25 l-199 0 l76 306 l148 0 q59 2 78 -16 q20 -18 25 -80 l8 0 l57 229 l-8 0 q-37 -57 -65 -77 q-28 -20 -86 -19 l-148 0 l71 283 l178 0 q82 1 117 -21 q34 -22 62 -82 l7 0 l3 146 q-12 -2 -26 -4 q-14 -2 -36 -2 l-428 0 l0 -7 q23 -13 34 -25 q11 -12 11 -34 q0 -9 -2 -20 q-2 -11 -5 -24 l-120 -480 q-11 -47 -30 -67 q-19 -19 -58 -36 l0 -7 Z" /><glyph glyph-name="" unicode="è" d="M323 929 l106 -158 l16 0 l-26 158 l-96 0 ZM-10 0 l516 0 l71 158 l-8 0 q-63 -70 -113 -96 q-50 -26 -130 -25 l-199 0 l76 306 l148 0 q59 2 78 -16 q20 -18 25 -80 l8 0 l57 229 l-8 0 q-37 -57 -65 -77 q-28 -20 -86 -19 l-148 0 l71 283 l178 0 q82 1 117 -21 q34 -22 62 -82 l7 0 l3 146 q-12 -2 -26 -4 q-14 -2 -36 -2 l-428 0 l0 -7 q23 -13 34 -25 q11 -12 11 -34 q0 -9 -2 -20 q-2 -11 -5 -24 l-120 -480 q-11 -47 -30 -67 q-19 -19 -58 -36 l0 -7 Z" /><glyph glyph-name="" unicode="í" d="M357 929 l-100 -158 l20 0 l186 158 l-106 0 ZM78 110 q-11 -47 -30 -67 q-19 -19 -58 -36 l0 -7 l193 0 l0 7 q-22 13 -34 25 q-11 12 -11 34 q0 9 2 20 q2 11 5 24 l120 480 q11 47 30 67 q19 19 58 36 l0 7 l-193 0 l0 -7 q23 -13 34 -25 q11 -12 11 -34 q0 -9 -2 -20 q-2 -11 -5 -24 l-120 -480 Z" /><glyph glyph-name="" unicode="î" d="M330 946 l-16 0 q-35 -44 -89 -91 q-54 -48 -105 -86 l25 0 q43 19 82 41 q38 23 74 51 q19 -28 40 -49 q22 -21 52 -43 l25 0 q-29 38 -54 86 q-24 47 -34 91 l0 0 ZM78 110 q-11 -47 -30 -67 q-19 -19 -58 -36 l0 -7 l193 0 l0 7 q-22 13 -34 25 q-11 12 -11 34 q0 9 2 20 q2 11 5 24 l120 480 q11 47 30 67 q19 19 58 36 l0 7 l-193 0 l0 -7 q23 -13 34 -25 q11 -12 11 -34 q0 -9 -2 -20 q-2 -11 -5 -24 l-120 -480 Z" /><glyph glyph-name="" unicode="ï" d="M378 786 q23 1 38 16 q15 15 15 37 q0 22 -15 37 q-15 15 -38 16 q-22 -1 -37 -16 q-15 -15 -16 -37 q1 -22 16 -37 q15 -15 37 -16 l0 0 ZM208 786 q22 1 37 16 q15 15 16 37 q-1 22 -16 37 q-15 15 -37 16 q-23 -1 -38 -16 q-14 -15 -15 -37 q1 -22 15 -37 q15 -15 38 -16 l0 0 ZM78 110 q-11 -47 -30 -67 q-19 -19 -58 -36 l0 -7 l193 0 l0 7 q-22 13 -34 25 q-11 12 -11 34 q0 9 2 20 q2 11 5 24 l120 480 q11 47 30 67 q19 19 58 36 l0 7 l-193 0 l0 -7 q23 -13 34 -25 q11 -12 11 -34 q0 -9 -2 -20 q-2 -11 -5 -24 l-120 -480 Z" /><glyph glyph-name="" unicode="ì" d="M166 929 l106 -158 l16 0 l-26 158 l-96 0 ZM78 110 q-11 -47 -30 -67 q-19 -19 -58 -36 l0 -7 l193 0 l0 7 q-22 13 -34 25 q-11 12 -11 34 q0 9 2 20 q2 11 5 24 l120 480 q11 47 30 67 q19 19 58 36 l0 7 l-193 0 l0 -7 q23 -13 34 -25 q11 -12 11 -34 q0 -9 -2 -20 q-2 -11 -5 -24 l-120 -480 Z" /><glyph glyph-name="" unicode="ñ" d="M381 791 q16 31 34 51 q18 20 49 21 q30 -4 62 -34 q32 -30 69 -34 q35 0 64 33 q30 33 54 95 l-24 0 q-16 -31 -34 -51 q-18 -20 -49 -21 q-30 4 -62 34 q-32 30 -69 34 q-35 0 -64 -33 q-30 -33 -54 -95 l24 0 ZM588 -9 l149 599 q12 47 35 67 q24 19 63 36 l0 7 l-191 0 l0 -7 q24 -14 39 -27 q14 -14 14 -40 q0 -15 -5 -36 l-112 -450 l-287 560 l-133 0 l0 -7 q23 -13 34 -25 q11 -12 11 -34 q0 -9 -2 -20 q-2 -11 -5 -24 l-120 -480 q-12 -47 -35 -67 q-24 -19 -63 -36 l0 -7 l191 0 l0 7 q-24 14 -38 28 q-15 13 -15 39 q0 15 5 36 l130 521 l331 -640 l4 0 Z" /><glyph glyph-name="" unicode="ó" d="M587 929 l-100 -158 l20 0 l186 158 l-106 0 ZM730 420 q-1 125 -77 206 q-75 81 -208 84 q-164 -5 -267 -129 q-103 -123 -106 -301 q1 -125 77 -206 q75 -81 208 -84 q164 5 267 129 q103 123 106 301 l0 0 ZM146 280 q2 157 85 269 q82 112 214 117 q102 -1 157 -67 q54 -66 54 -179 q-2 -157 -85 -269 q-82 -112 -214 -117 q-102 1 -156 67 q-55 66 -55 179 l0 0 Z" /><glyph glyph-name="" unicode="ô" d="M550 946 l-16 0 q-35 -44 -89 -91 q-54 -48 -105 -86 l25 0 q43 19 82 41 q38 23 74 51 q19 -28 40 -49 q22 -21 52 -43 l25 0 q-29 38 -54 86 q-24 47 -34 91 l0 0 ZM730 420 q-1 125 -77 206 q-75 81 -208 84 q-164 -5 -267 -129 q-103 -123 -106 -301 q1 -125 77 -206 q75 -81 208 -84 q164 5 267 129 q103 123 106 301 l0 0 ZM146 280 q2 157 85 269 q82 112 214 117 q102 -1 157 -67 q54 -66 54 -179 q-2 -157 -85 -269 q-82 -112 -214 -117 q-102 1 -156 67 q-55 66 -55 179 l0 0 Z" /><glyph glyph-name="" unicode="ö" d="M598 786 q23 1 38 16 q15 15 15 37 q0 22 -15 37 q-15 15 -38 16 q-22 -1 -37 -16 q-15 -15 -16 -37 q1 -22 16 -37 q15 -15 37 -16 l0 0 ZM428 786 q22 1 37 16 q15 15 16 37 q-1 22 -16 37 q-15 15 -37 16 q-23 -1 -38 -16 q-14 -15 -15 -37 q1 -22 15 -37 q15 -15 38 -16 l0 0 ZM730 420 q-1 125 -77 206 q-75 81 -208 84 q-164 -5 -267 -129 q-103 -123 -106 -301 q1 -125 77 -206 q75 -81 208 -84 q164 5 267 129 q103 123 106 301 l0 0 ZM146 280 q2 157 85 269 q82 112 214 117 q102 -1 157 -67 q54 -66 54 -179 q-2 -157 -85 -269 q-82 -112 -214 -117 q-102 1 -156 67 q-55 66 -55 179 l0 0 Z" /><glyph glyph-name="" unicode="ò" d="M386 929 l106 -158 l16 0 l-26 158 l-96 0 ZM730 420 q-1 125 -77 206 q-75 81 -208 84 q-164 -5 -267 -129 q-103 -123 -106 -301 q1 -125 77 -206 q75 -81 208 -84 q164 5 267 129 q103 123 106 301 l0 0 ZM146 280 q2 157 85 269 q82 112 214 117 q102 -1 157 -67 q54 -66 54 -179 q-2 -157 -85 -269 q-82 -112 -214 -117 q-102 1 -156 67 q-55 66 -55 179 l0 0 Z" /><glyph glyph-name="" unicode="õ" d="M373 791 q16 31 34 51 q18 20 49 21 q30 -4 62 -34 q32 -30 69 -34 q35 0 64 33 q30 33 54 95 l-24 0 q-16 -31 -34 -51 q-18 -20 -49 -21 q-30 4 -62 34 q-32 30 -69 34 q-35 0 -64 -33 q-30 -33 -54 -95 l24 0 ZM730 420 q-1 125 -77 206 q-75 81 -208 84 q-164 -5 -267 -129 q-103 -123 -106 -301 q1 -125 77 -206 q75 -81 208 -84 q164 5 267 129 q103 123 106 301 l0 0 ZM146 280 q2 157 85 269 q82 112 214 117 q102 -1 157 -67 q54 -66 54 -179 q-2 -157 -85 -269 q-82 -112 -214 -117 q-102 1 -156 67 q-55 66 -55 179 l0 0 Z" /><glyph glyph-name="" unicode="&#x160;" d="M410 764 l16 0 q35 44 89 92 q54 47 105 85 l-25 0 q-43 -19 -82 -41 q-38 -23 -74 -51 q-19 28 -40 49 q-22 21 -52 43 l-25 0 q29 -38 54 -85 q24 -48 34 -92 l0 0 ZM561 511 l7 0 l40 197 l-11 0 l-51 -50 q-24 18 -68 34 q-43 17 -112 18 q-98 -1 -161 -53 q-63 -52 -65 -143 q1 -61 39 -102 q38 -41 101 -67 l86 -36 q47 -19 72 -48 q25 -29 25 -74 q-1 -70 -49 -113 q-48 -43 -129 -44 q-83 0 -134 46 q-51 45 -78 139 l-10 0 l-50 -219 l11 0 l58 64 q32 -29 83 -49 q50 -20 120 -21 q101 1 172 57 q71 56 74 161 q-1 60 -36 98 q-35 39 -99 65 l-81 35 q-49 20 -78 47 q-28 28 -29 81 q1 61 44 98 q42 37 114 38 q81 0 126 -40 q45 -40 69 -119 l0 0 Z" /><glyph glyph-name="" unicode="ú" d="M584 929 l-100 -158 l20 0 l186 158 l-106 0 ZM249 590 q11 47 30 67 q19 19 58 36 l0 7 l-193 0 l0 -7 q22 -13 33 -25 q11 -12 11 -33 q0 -9 -2 -20 q-1 -11 -5 -25 l-78 -314 q-9 -37 -9 -72 q1 -96 66 -154 q64 -58 179 -60 q123 1 198 75 q74 74 107 211 l78 314 q12 47 35 67 q24 19 63 36 l0 7 l-193 0 l0 -7 q24 -14 39 -27 q14 -14 14 -40 q0 -15 -5 -36 l-75 -302 q-31 -129 -94 -191 q-62 -62 -167 -62 q-80 0 -128 44 q-48 43 -49 126 q0 35 10 77 l77 308 Z" /><glyph glyph-name="" unicode="û" d="M556 946 l-16 0 q-35 -44 -89 -91 q-54 -48 -105 -86 l25 0 q43 19 82 41 q38 23 74 51 q19 -28 40 -49 q22 -21 52 -43 l25 0 q-29 38 -54 86 q-24 47 -34 91 l0 0 ZM249 590 q11 47 30 67 q19 19 58 36 l0 7 l-193 0 l0 -7 q22 -13 33 -25 q11 -12 11 -33 q0 -9 -2 -20 q-1 -11 -5 -25 l-78 -314 q-9 -37 -9 -72 q1 -96 66 -154 q64 -58 179 -60 q123 1 198 75 q74 74 107 211 l78 314 q12 47 35 67 q24 19 63 36 l0 7 l-193 0 l0 -7 q24 -14 39 -27 q14 -14 14 -40 q0 -15 -5 -36 l-75 -302 q-31 -129 -94 -191 q-62 -62 -167 -62 q-80 0 -128 44 q-48 43 -49 126 q0 35 10 77 l77 308 Z" /><glyph glyph-name="" unicode="ü" d="M604 786 q23 1 38 16 q15 15 15 37 q0 22 -15 37 q-15 15 -38 16 q-22 -1 -37 -16 q-15 -15 -16 -37 q1 -22 16 -37 q15 -15 37 -16 l0 0 ZM434 786 q22 1 37 16 q15 15 16 37 q-1 22 -16 37 q-15 15 -37 16 q-23 -1 -38 -16 q-14 -15 -15 -37 q1 -22 15 -37 q15 -15 38 -16 l0 0 ZM249 590 q11 47 30 67 q19 19 58 36 l0 7 l-193 0 l0 -7 q22 -13 33 -25 q11 -12 11 -33 q0 -9 -2 -20 q-1 -11 -5 -25 l-78 -314 q-9 -37 -9 -72 q1 -96 66 -154 q64 -58 179 -60 q123 1 198 75 q74 74 107 211 l78 314 q12 47 35 67 q24 19 63 36 l0 7 l-193 0 l0 -7 q24 -14 39 -27 q14 -14 14 -40 q0 -15 -5 -36 l-75 -302 q-31 -129 -94 -191 q-62 -62 -167 -62 q-80 0 -128 44 q-48 43 -49 126 q0 35 10 77 l77 308 Z" /><glyph glyph-name="" unicode="ù" d="M392 929 l106 -158 l16 0 l-26 158 l-96 0 ZM249 590 q11 47 30 67 q19 19 58 36 l0 7 l-193 0 l0 -7 q22 -13 33 -25 q11 -12 11 -33 q0 -9 -2 -20 q-1 -11 -5 -25 l-78 -314 q-9 -37 -9 -72 q1 -96 66 -154 q64 -58 179 -60 q123 1 198 75 q74 74 107 211 l78 314 q12 47 35 67 q24 19 63 36 l0 7 l-193 0 l0 -7 q24 -14 39 -27 q14 -14 14 -40 q0 -15 -5 -36 l-75 -302 q-31 -129 -94 -191 q-62 -62 -167 -62 q-80 0 -128 44 q-48 43 -49 126 q0 35 10 77 l77 308 Z" /><glyph glyph-name="" unicode="ý" d="M548 929 l-100 -158 l20 0 l186 158 l-106 0 ZM357 333 l-102 270 q-6 14 -6 26 q0 20 13 37 q12 16 35 27 l0 7 l-171 0 l0 -7 q25 -21 38 -43 q14 -22 28 -60 l113 -299 l-45 -181 q-11 -47 -32 -67 q-21 -19 -67 -36 l0 -7 l213 0 l0 7 q-28 13 -41 26 q-13 12 -13 34 q0 16 7 43 l45 181 l263 299 q33 38 57 60 q25 22 59 43 l0 7 l-171 0 l0 -7 q19 -14 28 -25 q9 -12 9 -23 q0 -9 -6 -19 q-5 -10 -16 -23 l-238 -270 Z" /><glyph glyph-name="" unicode="&#x178;" d="M568 786 q23 1 38 16 q15 15 15 37 q0 22 -15 37 q-15 15 -38 16 q-22 -1 -37 -16 q-15 -15 -16 -37 q1 -22 16 -37 q15 -15 37 -16 l0 0 ZM398 786 q22 1 37 16 q15 15 16 37 q-1 22 -16 37 q-15 15 -37 16 q-23 -1 -38 -16 q-14 -15 -15 -37 q1 -22 15 -37 q15 -15 38 -16 l0 0 ZM357 333 l-102 270 q-6 14 -6 26 q0 20 13 37 q12 16 35 27 l0 7 l-171 0 l0 -7 q25 -21 38 -43 q14 -22 28 -60 l113 -299 l-45 -181 q-11 -47 -32 -67 q-21 -19 -67 -36 l0 -7 l213 0 l0 7 q-28 13 -41 26 q-13 12 -13 34 q0 16 7 43 l45 181 l263 299 q33 38 57 60 q25 22 59 43 l0 7 l-171 0 l0 -7 q19 -14 28 -25 q9 -12 9 -23 q0 -9 -6 -19 q-5 -10 -16 -23 l-238 -270 Z" /><glyph glyph-name="" unicode="&#x17d;" d="M460 764 l16 0 q35 44 89 92 q54 47 105 85 l-25 0 q-43 -19 -82 -41 q-38 -23 -74 -51 q-19 28 -40 49 q-22 21 -52 43 l-25 0 q29 -38 54 -85 q24 -48 34 -92 l0 0 ZM544 0 l71 158 l-9 0 q-63 -70 -113 -96 q-50 -26 -130 -25 l-253 0 l625 659 l0 4 l-459 0 q-22 0 -35 2 q-13 2 -23 4 l-63 -167 l9 0 q52 64 96 94 q44 30 126 30 l236 0 l-627 -659 l0 -4 l549 0 Z" /><glyph glyph-name="" unicode="á" d="M461 749 l-114 -188 l19 0 l197 188 l-102 0 ZM526 494 l-12 0 q-17 -14 -38 -42 q-21 -29 -33 -52 q-8 38 -43 65 q-35 28 -96 29 q-114 -4 -187 -98 q-73 -95 -76 -225 q1 -83 43 -132 q41 -48 112 -49 q61 2 104 39 q43 36 70 89 q-6 -17 -9 -32 q-4 -14 -4 -27 q0 -32 16 -50 q16 -19 48 -19 q28 1 55 15 q28 14 51 35 l0 10 q-20 -7 -36 -10 q-16 -3 -28 -3 q-41 0 -40 36 q0 5 1 10 q1 6 3 13 l99 398 ZM400 242 q-22 -89 -73 -147 q-51 -58 -115 -60 q-46 1 -72 37 q-27 37 -27 99 q1 118 55 198 q53 80 144 83 q44 1 74 -25 q31 -25 32 -84 q0 -26 -8 -59 l-10 -42 Z" /><glyph glyph-name="" unicode="â" d="M409 749 l-16 0 q-35 -45 -90 -101 q-55 -57 -107 -96 l25 0 q44 23 84 50 q39 27 75 56 q19 -29 39 -56 q20 -27 50 -50 l25 0 q-29 39 -52 96 q-23 56 -33 101 l0 0 ZM526 494 l-12 0 q-17 -14 -38 -42 q-21 -29 -33 -52 q-8 38 -43 65 q-35 28 -96 29 q-114 -4 -187 -98 q-73 -95 -76 -225 q1 -83 43 -132 q41 -48 112 -49 q61 2 104 39 q43 36 70 89 q-6 -17 -9 -32 q-4 -14 -4 -27 q0 -32 16 -50 q16 -19 48 -19 q28 1 55 15 q28 14 51 35 l0 10 q-20 -7 -36 -10 q-16 -3 -28 -3 q-41 0 -40 36 q0 5 1 10 q1 6 3 13 l99 398 ZM400 242 q-22 -89 -73 -147 q-51 -58 -115 -60 q-46 1 -72 37 q-27 37 -27 99 q1 118 55 198 q53 80 144 83 q44 1 74 -25 q31 -25 32 -84 q0 -26 -8 -59 l-10 -42 Z" /><glyph glyph-name="" unicode="ä" d="M289 586 q22 1 37 16 q15 15 16 37 q-1 22 -16 37 q-15 15 -37 16 q-23 -1 -38 -16 q-14 -15 -15 -37 q1 -22 15 -37 q15 -15 38 -16 l0 0 ZM459 586 q23 1 38 16 q15 15 15 37 q0 22 -15 37 q-15 15 -38 16 q-22 -1 -37 -16 q-15 -15 -16 -37 q1 -22 16 -37 q15 -15 37 -16 l0 0 ZM526 494 l-12 0 q-17 -14 -38 -42 q-21 -29 -33 -52 q-8 38 -43 65 q-35 28 -96 29 q-114 -4 -187 -98 q-73 -95 -76 -225 q1 -83 43 -132 q41 -48 112 -49 q61 2 104 39 q43 36 70 89 q-6 -17 -9 -32 q-4 -14 -4 -27 q0 -32 16 -50 q16 -19 48 -19 q28 1 55 15 q28 14 51 35 l0 10 q-20 -7 -36 -10 q-16 -3 -28 -3 q-41 0 -40 36 q0 5 1 10 q1 6 3 13 l99 398 ZM400 242 q-22 -89 -73 -147 q-51 -58 -115 -60 q-46 1 -72 37 q-27 37 -27 99 q1 118 55 198 q53 80 144 83 q44 1 74 -25 q31 -25 32 -84 q0 -26 -8 -59 l-10 -42 Z" /><glyph glyph-name="" unicode="à" d="M265 749 l96 -188 l16 0 l-19 188 l-93 0 ZM526 494 l-12 0 q-17 -14 -38 -42 q-21 -29 -33 -52 q-8 38 -43 65 q-35 28 -96 29 q-114 -4 -187 -98 q-73 -95 -76 -225 q1 -83 43 -132 q41 -48 112 -49 q61 2 104 39 q43 36 70 89 q-6 -17 -9 -32 q-4 -14 -4 -27 q0 -32 16 -50 q16 -19 48 -19 q28 1 55 15 q28 14 51 35 l0 10 q-20 -7 -36 -10 q-16 -3 -28 -3 q-41 0 -40 36 q0 5 1 10 q1 6 3 13 l99 398 ZM400 242 q-22 -89 -73 -147 q-51 -58 -115 -60 q-46 1 -72 37 q-27 37 -27 99 q1 118 55 198 q53 80 144 83 q44 1 74 -25 q31 -25 32 -84 q0 -26 -8 -59 l-10 -42 Z" /><glyph glyph-name="" unicode="å" d="M273 648 q1 -40 27 -65 q25 -26 66 -27 q47 1 82 32 q35 31 37 83 q-1 40 -27 66 q-25 25 -66 26 q-47 -1 -82 -32 q-35 -31 -37 -83 l0 0 ZM443 667 q-1 -31 -20 -52 q-20 -20 -52 -21 q-27 0 -42 16 q-15 16 -14 42 q1 31 20 52 q20 20 52 21 q27 0 42 -16 q15 -16 14 -42 l0 0 ZM526 494 l-12 0 q-17 -14 -38 -42 q-21 -29 -33 -52 q-8 38 -43 65 q-35 28 -96 29 q-114 -4 -187 -98 q-73 -95 -76 -225 q1 -83 43 -132 q41 -48 112 -49 q61 2 104 39 q43 36 70 89 q-6 -17 -9 -32 q-4 -14 -4 -27 q0 -32 16 -50 q16 -19 48 -19 q28 1 55 15 q28 14 51 35 l0 10 q-20 -7 -36 -10 q-16 -3 -28 -3 q-41 0 -40 36 q0 5 1 10 q1 6 3 13 l99 398 ZM400 242 q-22 -89 -73 -147 q-51 -58 -115 -60 q-46 1 -72 37 q-27 37 -27 99 q1 118 55 198 q53 80 144 83 q44 1 74 -25 q31 -25 32 -84 q0 -26 -8 -59 l-10 -42 Z" /><glyph glyph-name="" unicode="ã" d="M222 580 q16 31 34 51 q18 20 49 21 q30 -4 62 -34 q32 -30 69 -34 q35 0 64 33 q30 33 54 95 l-24 0 q-16 -31 -34 -51 q-18 -20 -49 -21 q-30 4 -62 34 q-32 30 -69 34 q-35 0 -64 -33 q-30 -33 -54 -95 l24 0 ZM526 494 l-12 0 q-17 -14 -38 -42 q-21 -29 -33 -52 q-8 38 -43 65 q-35 28 -96 29 q-114 -4 -187 -98 q-73 -95 -76 -225 q1 -83 43 -132 q41 -48 112 -49 q61 2 104 39 q43 36 70 89 q-6 -17 -9 -32 q-4 -14 -4 -27 q0 -32 16 -50 q16 -19 48 -19 q28 1 55 15 q28 14 51 35 l0 10 q-20 -7 -36 -10 q-16 -3 -28 -3 q-41 0 -40 36 q0 5 1 10 q1 6 3 13 l99 398 ZM400 242 q-22 -89 -73 -147 q-51 -58 -115 -60 q-46 1 -72 37 q-27 37 -27 99 q1 118 55 198 q53 80 144 83 q44 1 74 -25 q31 -25 32 -84 q0 -26 -8 -59 l-10 -42 Z" /><glyph glyph-name="" unicode="ç" d="M134 -221 q47 1 87 26 q39 25 41 67 q0 33 -26 51 q-26 17 -72 19 l35 49 q5 -1 10 -1 q5 0 10 0 q67 1 118 36 q50 35 78 96 l-17 10 q-35 -49 -74 -73 q-39 -23 -83 -23 q-61 1 -94 40 q-33 39 -33 108 q1 102 52 184 q51 82 145 87 q39 -1 57 -19 q17 -18 17 -47 q0 -23 -5 -33 q-4 -11 -10 -17 q10 -6 25 -6 q27 0 42 16 q16 16 16 45 q-1 46 -39 73 q-39 26 -103 27 q-117 -4 -192 -95 q-75 -91 -77 -215 q0 -73 33 -122 q32 -50 92 -66 l-55 -77 q41 -1 63 -13 q21 -11 21 -35 q-1 -27 -22 -42 q-20 -16 -44 -16 q-27 0 -45 9 q-18 8 -29 26 l-21 -20 q8 -19 33 -33 q25 -15 66 -16 l0 0 Z" /><glyph glyph-name="" unicode="é" d="M425 749 l-114 -188 l19 0 l197 188 l-102 0 ZM221 -10 q69 1 121 36 q53 35 81 96 l-17 9 q-36 -49 -77 -73 q-40 -23 -86 -23 q-62 1 -95 38 q-34 38 -34 107 q0 23 3 44 q166 8 253 46 q86 38 87 115 q-1 51 -38 80 q-37 29 -104 29 q-120 -5 -195 -100 q-76 -95 -78 -214 q1 -88 47 -138 q46 -51 132 -52 l0 0 ZM315 455 q33 0 51 -16 q19 -17 19 -47 q-3 -80 -76 -106 q-74 -25 -186 -28 q17 81 66 138 q49 56 126 59 l0 0 Z" /><glyph glyph-name="" unicode="ê" d="M383 749 l-16 0 q-35 -45 -90 -101 q-55 -57 -107 -96 l25 0 q44 23 84 50 q39 27 75 56 q19 -29 39 -56 q20 -27 50 -50 l25 0 q-29 39 -52 96 q-23 56 -33 101 l0 0 ZM221 -10 q69 1 121 36 q53 35 81 96 l-17 9 q-36 -49 -77 -73 q-40 -23 -86 -23 q-62 1 -95 38 q-34 38 -34 107 q0 23 3 44 q166 8 253 46 q86 38 87 115 q-1 51 -38 80 q-37 29 -104 29 q-120 -5 -195 -100 q-76 -95 -78 -214 q1 -88 47 -138 q46 -51 132 -52 l0 0 ZM315 455 q33 0 51 -16 q19 -17 19 -47 q-3 -80 -76 -106 q-74 -25 -186 -28 q17 81 66 138 q49 56 126 59 l0 0 Z" /><glyph glyph-name="" unicode="ë" d="M263 586 q22 1 37 16 q15 15 16 37 q-1 22 -16 37 q-15 15 -37 16 q-23 -1 -38 -16 q-14 -15 -15 -37 q1 -22 15 -37 q15 -15 38 -16 l0 0 ZM433 586 q23 1 38 16 q15 15 15 37 q0 22 -15 37 q-15 15 -38 16 q-22 -1 -37 -16 q-15 -15 -16 -37 q1 -22 16 -37 q15 -15 37 -16 l0 0 ZM221 -10 q69 1 121 36 q53 35 81 96 l-17 9 q-36 -49 -77 -73 q-40 -23 -86 -23 q-62 1 -95 38 q-34 38 -34 107 q0 23 3 44 q166 8 253 46 q86 38 87 115 q-1 51 -38 80 q-37 29 -104 29 q-120 -5 -195 -100 q-76 -95 -78 -214 q1 -88 47 -138 q46 -51 132 -52 l0 0 ZM315 455 q33 0 51 -16 q19 -17 19 -47 q-3 -80 -76 -106 q-74 -25 -186 -28 q17 81 66 138 q49 56 126 59 l0 0 Z" /><glyph glyph-name="" unicode="è" d="M229 749 l96 -188 l16 0 l-19 188 l-93 0 ZM221 -10 q69 1 121 36 q53 35 81 96 l-17 9 q-36 -49 -77 -73 q-40 -23 -86 -23 q-62 1 -95 38 q-34 38 -34 107 q0 23 3 44 q166 8 253 46 q86 38 87 115 q-1 51 -38 80 q-37 29 -104 29 q-120 -5 -195 -100 q-76 -95 -78 -214 q1 -88 47 -138 q46 -51 132 -52 l0 0 ZM315 455 q33 0 51 -16 q19 -17 19 -47 q-3 -80 -76 -106 q-74 -25 -186 -28 q17 81 66 138 q49 56 126 59 l0 0 Z" /><glyph glyph-name="" unicode="í" d="M304 749 l-114 -188 l19 0 l197 188 l-102 0 ZM220 484 l-143 0 l0 -6 q25 -14 41 -30 q15 -16 16 -42 q0 -10 -3 -23 l-71 -286 q-2 -9 -4 -19 q-1 -11 -1 -20 q0 -30 16 -49 q16 -18 47 -19 q28 1 55 15 q28 14 51 35 l0 10 q-20 -7 -36 -10 q-16 -3 -28 -3 q-20 0 -30 8 q-11 9 -11 26 q0 5 1 12 q1 7 3 13 l97 388 Z" /><glyph glyph-name="" unicode="î" d="M262 749 l-16 0 q-35 -45 -90 -101 q-55 -57 -107 -96 l25 0 q44 23 84 50 q39 27 75 56 q19 -29 39 -56 q20 -27 50 -50 l25 0 q-29 39 -52 96 q-23 56 -33 101 l0 0 ZM220 484 l-143 0 l0 -6 q25 -14 41 -30 q15 -16 16 -42 q0 -10 -3 -23 l-71 -286 q-2 -9 -4 -19 q-1 -11 -1 -20 q0 -30 16 -49 q16 -18 47 -19 q28 1 55 15 q28 14 51 35 l0 10 q-20 -7 -36 -10 q-16 -3 -28 -3 q-20 0 -30 8 q-11 9 -11 26 q0 5 1 12 q1 7 3 13 l97 388 Z" /><glyph glyph-name="" unicode="ï" d="M132 586 q22 1 37 16 q15 15 16 37 q-1 22 -16 37 q-15 15 -37 16 q-23 -1 -38 -16 q-14 -15 -15 -37 q1 -22 15 -37 q15 -15 38 -16 l0 0 ZM302 586 q23 1 38 16 q15 15 15 37 q0 22 -15 37 q-15 15 -38 16 q-22 -1 -37 -16 q-15 -15 -16 -37 q1 -22 16 -37 q15 -15 37 -16 l0 0 ZM220 484 l-143 0 l0 -6 q25 -14 41 -30 q15 -16 16 -42 q0 -10 -3 -23 l-71 -286 q-2 -9 -4 -19 q-1 -11 -1 -20 q0 -30 16 -49 q16 -18 47 -19 q28 1 55 15 q28 14 51 35 l0 10 q-20 -7 -36 -10 q-16 -3 -28 -3 q-20 0 -30 8 q-11 9 -11 26 q0 5 1 12 q1 7 3 13 l97 388 Z" /><glyph glyph-name="" unicode="ì" d="M109 749 l96 -188 l16 0 l-19 188 l-93 0 ZM220 484 l-143 0 l0 -6 q25 -14 41 -30 q15 -16 16 -42 q0 -10 -3 -23 l-71 -286 q-2 -9 -4 -19 q-1 -11 -1 -20 q0 -30 16 -49 q16 -18 47 -19 q28 1 55 15 q28 14 51 35 l0 10 q-20 -7 -36 -10 q-16 -3 -28 -3 q-20 0 -30 8 q-11 9 -11 26 q0 5 1 12 q1 7 3 13 l97 388 Z" /><glyph glyph-name="" unicode="ñ" d="M215 580 q16 31 34 51 q18 20 49 21 q30 -4 62 -34 q32 -30 69 -34 q35 0 64 33 q30 33 54 95 l-24 0 q-16 -31 -34 -51 q-18 -20 -49 -21 q-30 4 -62 34 q-32 30 -69 34 q-35 0 -64 -33 q-30 -33 -54 -95 l24 0 ZM100 0 l45 181 q32 119 94 189 q62 70 127 72 q34 0 50 -19 q16 -18 16 -50 q0 -19 -6 -42 l-59 -234 q-2 -10 -4 -20 q-1 -9 -1 -18 q0 -32 17 -50 q16 -19 48 -19 q28 1 55 15 q28 14 51 35 l0 10 q-20 -7 -36 -10 q-16 -3 -28 -3 q-20 0 -31 9 q-10 8 -10 25 q0 5 1 11 q1 7 3 14 l59 238 q4 15 5 28 q2 13 2 25 q0 47 -24 77 q-25 29 -75 30 q-65 -1 -121 -44 q-57 -43 -95 -115 l32 149 l-138 0 l0 -6 q25 -14 41 -30 q15 -16 16 -42 q0 -10 -3 -23 l-95 -383 l64 0 Z" /><glyph glyph-name="" unicode="ó" d="M434 749 l-114 -188 l19 0 l197 188 l-102 0 ZM493 289 q-2 99 -55 152 q-53 52 -136 53 q-119 -5 -188 -94 q-69 -89 -71 -205 q2 -99 55 -152 q53 -52 136 -53 q119 5 188 94 q69 89 71 205 l0 0 ZM115 184 q2 108 54 187 q52 78 133 82 q63 -1 91 -41 q29 -41 28 -112 q-2 -108 -54 -187 q-52 -78 -133 -82 q-63 1 -91 41 q-29 41 -28 112 l0 0 Z" /><glyph glyph-name="" unicode="ô" d="M392 749 l-16 0 q-35 -45 -90 -101 q-55 -57 -107 -96 l25 0 q44 23 84 50 q39 27 75 56 q19 -29 39 -56 q20 -27 50 -50 l25 0 q-29 39 -52 96 q-23 56 -33 101 l0 0 ZM493 289 q-2 99 -55 152 q-53 52 -136 53 q-119 -5 -188 -94 q-69 -89 -71 -205 q2 -99 55 -152 q53 -52 136 -53 q119 5 188 94 q69 89 71 205 l0 0 ZM115 184 q2 108 54 187 q52 78 133 82 q63 -1 91 -41 q29 -41 28 -112 q-2 -108 -54 -187 q-52 -78 -133 -82 q-63 1 -91 41 q-29 41 -28 112 l0 0 Z" /><glyph glyph-name="" unicode="ö" d="M272 586 q22 1 37 16 q15 15 16 37 q-1 22 -16 37 q-15 15 -37 16 q-23 -1 -38 -16 q-14 -15 -15 -37 q1 -22 15 -37 q15 -15 38 -16 l0 0 ZM442 586 q23 1 38 16 q15 15 15 37 q0 22 -15 37 q-15 15 -38 16 q-22 -1 -37 -16 q-15 -15 -16 -37 q1 -22 16 -37 q15 -15 37 -16 l0 0 ZM493 289 q-2 99 -55 152 q-53 52 -136 53 q-119 -5 -188 -94 q-69 -89 -71 -205 q2 -99 55 -152 q53 -52 136 -53 q119 5 188 94 q69 89 71 205 l0 0 ZM115 184 q2 108 54 187 q52 78 133 82 q63 -1 91 -41 q29 -41 28 -112 q-2 -108 -54 -187 q-52 -78 -133 -82 q-63 1 -91 41 q-29 41 -28 112 l0 0 Z" /><glyph glyph-name="" unicode="ò" d="M247 749 l96 -188 l16 0 l-19 188 l-93 0 ZM493 289 q-2 99 -55 152 q-53 52 -136 53 q-119 -5 -188 -94 q-69 -89 -71 -205 q2 -99 55 -152 q53 -52 136 -53 q119 5 188 94 q69 89 71 205 l0 0 ZM115 184 q2 108 54 187 q52 78 133 82 q63 -1 91 -41 q29 -41 28 -112 q-2 -108 -54 -187 q-52 -78 -133 -82 q-63 1 -91 41 q-29 41 -28 112 l0 0 Z" /><glyph glyph-name="" unicode="õ" d="M196 580 q16 31 34 51 q18 20 49 21 q30 -4 62 -34 q32 -30 69 -34 q35 0 64 33 q30 33 54 95 l-24 0 q-16 -31 -34 -51 q-18 -20 -49 -21 q-30 4 -62 34 q-32 30 -69 34 q-35 0 -64 -33 q-30 -33 -54 -95 l24 0 ZM493 289 q-2 99 -55 152 q-53 52 -136 53 q-119 -5 -188 -94 q-69 -89 -71 -205 q2 -99 55 -152 q53 -52 136 -53 q119 5 188 94 q69 89 71 205 l0 0 ZM115 184 q2 108 54 187 q52 78 133 82 q63 -1 91 -41 q29 -41 28 -112 q-2 -108 -54 -187 q-52 -78 -133 -82 q-63 1 -91 41 q-29 41 -28 112 l0 0 Z" /><glyph glyph-name="" unicode="&#x161;" d="M315 552 q35 45 90 102 q56 56 107 95 l-25 0 q-44 -23 -84 -50 q-39 -27 -75 -56 q-19 29 -39 56 q-20 27 -50 50 l-25 0 q29 -39 52 -95 q23 -57 33 -102 l16 0 ZM355 381 q0 -14 -4 -25 q-4 -11 -9 -17 q9 -2 20 -2 q24 0 43 13 q18 12 19 40 q-1 45 -42 74 q-42 29 -115 30 q-73 -1 -120 -40 q-46 -38 -48 -99 q1 -45 34 -78 q33 -33 86 -60 q53 -29 75 -54 q21 -25 20 -51 q-1 -41 -35 -63 q-35 -21 -84 -21 q-52 1 -80 27 q-28 26 -28 64 q0 13 4 23 q4 10 10 17 q-12 4 -26 4 q-24 0 -41 -14 q-16 -14 -17 -41 q1 -49 50 -83 q49 -34 128 -35 q78 1 129 40 q51 39 53 104 q1 39 -25 71 q-26 31 -91 68 q-54 31 -77 53 q-24 23 -23 49 q1 37 29 58 q28 22 77 22 q42 0 65 -20 q23 -20 23 -54 l0 0 Z" /><glyph glyph-name="" unicode="ú" d="M453 749 l-114 -188 l19 0 l197 188 l-102 0 ZM366 97 q-5 -20 -5 -38 q0 -32 17 -50 q16 -19 48 -19 q28 1 55 15 q28 14 51 35 l0 10 q-20 -7 -36 -10 q-16 -3 -28 -3 q-20 0 -31 9 q-11 10 -11 27 q0 5 1 10 q1 6 2 13 l97 388 l-64 0 l-45 -180 q-32 -123 -95 -193 q-63 -71 -128 -72 q-33 0 -48 19 q-16 18 -16 50 q0 21 6 45 l83 331 l-144 0 l0 -6 q25 -14 41 -30 q15 -16 16 -42 q0 -10 -3 -23 l-58 -233 q-7 -29 -7 -53 q0 -47 24 -77 q25 -29 75 -30 q65 1 122 44 q56 43 94 115 l-13 -52 Z" /><glyph glyph-name="" unicode="û" d="M410 749 l-16 0 q-35 -45 -90 -101 q-55 -57 -107 -96 l25 0 q44 23 84 50 q39 27 75 56 q19 -29 39 -56 q20 -27 50 -50 l25 0 q-29 39 -52 96 q-23 56 -33 101 l0 0 ZM366 97 q-5 -20 -5 -38 q0 -32 17 -50 q16 -19 48 -19 q28 1 55 15 q28 14 51 35 l0 10 q-20 -7 -36 -10 q-16 -3 -28 -3 q-20 0 -31 9 q-11 10 -11 27 q0 5 1 10 q1 6 2 13 l97 388 l-64 0 l-45 -180 q-32 -123 -95 -193 q-63 -71 -128 -72 q-33 0 -48 19 q-16 18 -16 50 q0 21 6 45 l83 331 l-144 0 l0 -6 q25 -14 41 -30 q15 -16 16 -42 q0 -10 -3 -23 l-58 -233 q-7 -29 -7 -53 q0 -47 24 -77 q25 -29 75 -30 q65 1 122 44 q56 43 94 115 l-13 -52 Z" /><glyph glyph-name="" unicode="ü" d="M291 586 q22 1 37 16 q15 15 16 37 q-1 22 -16 37 q-15 15 -37 16 q-23 -1 -38 -16 q-14 -15 -15 -37 q1 -22 15 -37 q15 -15 38 -16 l0 0 ZM461 586 q23 1 38 16 q15 15 15 37 q0 22 -15 37 q-15 15 -38 16 q-22 -1 -37 -16 q-15 -15 -16 -37 q1 -22 16 -37 q15 -15 37 -16 l0 0 ZM366 97 q-5 -20 -5 -38 q0 -32 17 -50 q16 -19 48 -19 q28 1 55 15 q28 14 51 35 l0 10 q-20 -7 -36 -10 q-16 -3 -28 -3 q-20 0 -31 9 q-11 10 -11 27 q0 5 1 10 q1 6 2 13 l97 388 l-64 0 l-45 -180 q-32 -123 -95 -193 q-63 -71 -128 -72 q-33 0 -48 19 q-16 18 -16 50 q0 21 6 45 l83 331 l-144 0 l0 -6 q25 -14 41 -30 q15 -16 16 -42 q0 -10 -3 -23 l-58 -233 q-7 -29 -7 -53 q0 -47 24 -77 q25 -29 75 -30 q65 1 122 44 q56 43 94 115 l-13 -52 Z" /><glyph glyph-name="" unicode="ù" d="M257 749 l96 -188 l16 0 l-19 188 l-93 0 ZM366 97 q-5 -20 -5 -38 q0 -32 17 -50 q16 -19 48 -19 q28 1 55 15 q28 14 51 35 l0 10 q-20 -7 -36 -10 q-16 -3 -28 -3 q-20 0 -31 9 q-11 10 -11 27 q0 5 1 10 q1 6 2 13 l97 388 l-64 0 l-45 -180 q-32 -123 -95 -193 q-63 -71 -128 -72 q-33 0 -48 19 q-16 18 -16 50 q0 21 6 45 l83 331 l-144 0 l0 -6 q25 -14 41 -30 q15 -16 16 -42 q0 -10 -3 -23 l-58 -233 q-7 -29 -7 -53 q0 -47 24 -77 q25 -29 75 -30 q65 1 122 44 q56 43 94 115 l-13 -52 Z" /><glyph glyph-name="" unicode="ý" d="M454 749 l-114 -188 l19 0 l197 188 l-102 0 ZM354 48 q-25 -107 -73 -172 q-49 -64 -136 -66 q-45 0 -68 22 q-23 21 -23 57 q0 18 6 30 q5 12 12 19 q-12 4 -24 4 q-26 0 -44 -16 q-19 -16 -20 -46 q1 -50 45 -77 q43 -28 116 -28 q111 2 176 74 q66 72 95 194 l110 441 l-64 0 l-45 -180 q-32 -123 -95 -193 q-63 -71 -128 -72 q-33 0 -48 19 q-16 18 -16 50 q0 21 6 45 l83 331 l-144 0 l0 -6 q25 -14 41 -30 q15 -16 16 -42 q0 -10 -3 -23 l-58 -233 q-7 -29 -7 -53 q0 -47 24 -77 q25 -29 75 -30 q65 1 122 44 q56 43 94 115 l-25 -101 Z" /><glyph glyph-name="" unicode="ÿ" d="M282 586 q22 1 37 16 q15 15 16 37 q-1 22 -16 37 q-15 15 -37 16 q-23 -1 -38 -16 q-14 -15 -15 -37 q1 -22 15 -37 q15 -15 38 -16 l0 0 ZM452 586 q23 1 38 16 q15 15 15 37 q0 22 -15 37 q-15 15 -38 16 q-22 -1 -37 -16 q-15 -15 -16 -37 q1 -22 16 -37 q15 -15 37 -16 l0 0 ZM354 48 q-25 -107 -73 -172 q-49 -64 -136 -66 q-45 0 -68 22 q-23 21 -23 57 q0 18 6 30 q5 12 12 19 q-12 4 -24 4 q-26 0 -44 -16 q-19 -16 -20 -46 q1 -50 45 -77 q43 -28 116 -28 q111 2 176 74 q66 72 95 194 l110 441 l-64 0 l-45 -180 q-32 -123 -95 -193 q-63 -71 -128 -72 q-33 0 -48 19 q-16 18 -16 50 q0 21 6 45 l83 331 l-144 0 l0 -6 q25 -14 41 -30 q15 -16 16 -42 q0 -10 -3 -23 l-58 -233 q-7 -29 -7 -53 q0 -47 24 -77 q25 -29 75 -30 q65 1 122 44 q56 43 94 115 l-25 -101 Z" /><glyph glyph-name="" unicode="&#x17e;" d="M353 552 q35 45 90 102 q56 56 107 95 l-25 0 q-44 -23 -84 -50 q-39 -27 -75 -56 q-19 29 -39 56 q-20 27 -50 50 l-25 0 q29 -39 52 -95 q23 -57 33 -102 l16 0 ZM407 426 l-441 -426 l65 0 q25 34 42 47 q17 12 34 11 q33 -4 93 -34 q60 -30 125 -34 q42 0 76 33 q34 32 64 94 l-13 0 q-29 -32 -55 -45 q-26 -13 -51 -12 q-41 0 -83 12 q-41 12 -128 39 l382 369 l0 4 l-288 0 q-27 0 -44 2 q-17 2 -27 8 l-68 -163 l11 -1 q47 62 73 80 q25 18 63 16 l170 0 Z" /><glyph glyph-name="" unicode="&#x20ac;" d="M613 194 l-17 6 q-47 -92 -104 -126 q-56 -34 -113 -31 q-82 1 -131 53 q-49 52 -50 153 q0 11 0 21 l166 0 l19 34 l-182 0 q3 22 7 43 q4 22 11 43 l210 0 l19 34 l-219 0 q37 104 106 175 q68 70 157 73 q57 -1 85 -28 q27 -27 27 -68 q-1 -36 -14 -61 q-13 -24 -30 -35 q7 -3 16 -5 q8 -3 22 -3 q34 1 58 27 q23 27 24 71 q-1 61 -50 100 q-50 39 -138 40 q-114 -2 -205 -81 q-90 -79 -135 -205 l-78 0 l-9 -34 l76 0 q-5 -21 -9 -43 q-5 -21 -7 -43 l-86 0 l-9 -34 l92 0 q0 -10 0 -21 q4 -132 73 -195 q68 -64 156 -64 q80 -1 150 46 q70 47 112 158 l0 0 Z" /><glyph glyph-name="" unicode="&#x2248;" d="M114 358 q40 22 73 31 q33 10 61 10 q56 -2 99 -20 q43 -17 99 -20 q28 0 61 9 q34 10 74 32 l11 45 q-40 -22 -73 -32 q-34 -9 -62 -9 q-56 3 -99 20 q-43 18 -99 20 q-28 0 -61 -10 q-33 -10 -72 -31 l-12 -45 ZM84 236 q39 21 72 31 q33 10 61 10 q56 -2 99 -20 q43 -17 99 -20 q28 0 62 9 q33 10 73 32 l12 45 q-40 -22 -74 -32 q-34 -9 -62 -9 q-56 3 -99 20 q-43 18 -99 20 q-28 0 -61 -10 q-33 -9 -72 -31 l-11 -45 Z" /><glyph glyph-name="" unicode="­&#x2260;" d="M544 252 l10 40 l-239 0 l98 94 l164 0 l10 40 l-133 0 l120 116 l-54 0 l-120 -116 l-269 0 l-10 -40 l237 0 l-97 -94 l-163 0 l-10 -40 l131 0 l-118 -114 l55 0 l118 114 l270 0 Z" /><glyph glyph-name="" unicode="&#x2264;" d="M106 376 l305 -172 l11 44 l-259 146 l331 144 l13 50 l-391 -171 l-10 -41 ZM39 105 l348 0 l11 43 l-348 0 l-11 -43 Z" /><glyph glyph-name="" unicode="&#x2265;" d="M159 588 l-11 -44 l259 -146 l-331 -144 l-13 -50 l391 171 l10 41 l-305 172 ZM398 148 l-348 0 l-11 -43 l348 0 l11 43 Z" /><glyph glyph-name="" unicode=" " d="" /><glyph glyph-name="" unicode="&#x100;" d="M636 792 l12 47 l-268 0 l-12 -47 l268 0 ZM442 588 l52 -307 l-266 0 l214 307 ZM142 7 q-30 15 -45 27 q-15 11 -15 24 q0 8 5 19 q5 10 15 24 l99 142 l299 0 l24 -142 q3 -17 3 -29 q1 -21 -15 -34 q-16 -13 -56 -31 l0 -7 l189 0 l0 7 q-27 21 -37 42 q-10 21 -16 63 l-106 598 l-5 0 l-421 -598 q-28 -41 -49 -62 q-21 -21 -58 -43 l0 -7 l189 0 l0 7 Z" /><glyph glyph-name="" unicode="&#x102;" d="M421 912 q0 12 2 24 l-25 0 q-6 -26 -6 -47 q0 -52 29 -81 q30 -30 79 -30 q61 1 109 43 q48 42 67 115 l-25 0 q-17 -50 -57 -75 q-39 -25 -85 -25 q-40 0 -64 19 q-24 19 -24 57 l0 0 ZM442 588 l52 -307 l-266 0 l214 307 ZM142 7 q-30 15 -45 27 q-15 11 -15 24 q0 8 5 19 q5 10 15 24 l99 142 l299 0 l24 -142 q3 -17 3 -29 q1 -21 -15 -34 q-16 -13 -56 -31 l0 -7 l189 0 l0 7 q-27 21 -37 42 q-10 21 -16 63 l-106 598 l-5 0 l-421 -598 q-28 -41 -49 -62 q-21 -21 -58 -43 l0 -7 l189 0 l0 7 Z" /><glyph glyph-name="" unicode="&#x104;" d="M496 -149 l-10 12 q-26 -24 -55 -39 q-28 -16 -56 -16 q-18 0 -30 9 q-12 8 -12 27 q0 42 37 78 q37 37 108 78 l167 0 l0 7 q-27 21 -37 42 q-10 21 -16 63 l-106 598 l-5 0 l-421 -598 q-28 -41 -49 -62 q-21 -21 -58 -43 l0 -7 l189 0 l0 7 q-30 15 -45 27 q-15 11 -15 24 q0 8 5 19 q5 10 15 24 l99 142 l299 0 l24 -142 q3 -17 3 -29 q0 -18 -10 -29 q-11 -11 -38 -24 q-81 -38 -144 -84 q-63 -46 -66 -108 q1 -29 20 -46 q18 -16 49 -16 q50 1 92 27 q41 25 66 59 l0 0 ZM442 588 l52 -307 l-266 0 l214 307 Z" /><glyph glyph-name="" unicode="&#x106;" d="M567 929 l-100 -158 l20 0 l186 158 l-106 0 ZM650 505 l7 0 l34 201 l-8 0 l-57 -54 q-25 23 -68 40 q-42 17 -107 18 q-156 -3 -265 -122 q-110 -119 -115 -314 q1 -121 73 -201 q72 -80 202 -83 q103 1 177 55 q74 55 113 148 l-16 6 q-54 -86 -117 -124 q-63 -39 -143 -38 q-97 1 -155 65 q-58 63 -59 172 q2 173 85 282 q83 109 220 112 q85 -1 130 -44 q44 -43 69 -119 l0 0 Z" /><glyph glyph-name="" unicode="&#x108;" d="M540 946 l-16 0 q-35 -44 -89 -91 q-54 -48 -105 -86 l25 0 q43 19 82 41 q38 23 74 51 q19 -28 40 -49 q22 -21 52 -43 l25 0 q-29 38 -54 86 q-24 47 -34 91 l0 0 ZM650 505 l7 0 l34 201 l-8 0 l-57 -54 q-25 23 -68 40 q-42 17 -107 18 q-156 -3 -265 -122 q-110 -119 -115 -314 q1 -121 73 -201 q72 -80 202 -83 q103 1 177 55 q74 55 113 148 l-16 6 q-54 -86 -117 -124 q-63 -39 -143 -38 q-97 1 -155 65 q-58 63 -59 172 q2 173 85 282 q83 109 220 112 q85 -1 130 -44 q44 -43 69 -119 l0 0 Z" /><glyph glyph-name="" unicode="&#x10a;" d="M505 793 q23 1 38 16 q15 15 16 38 q-1 23 -16 38 q-15 15 -38 16 q-23 -1 -38 -16 q-15 -15 -16 -38 q1 -23 16 -38 q15 -15 38 -16 l0 0 ZM650 505 l7 0 l34 201 l-8 0 l-57 -54 q-25 23 -68 40 q-42 17 -107 18 q-156 -3 -265 -122 q-110 -119 -115 -314 q1 -121 73 -201 q72 -80 202 -83 q103 1 177 55 q74 55 113 148 l-16 6 q-54 -86 -117 -124 q-63 -39 -143 -38 q-97 1 -155 65 q-58 63 -59 172 q2 173 85 282 q83 109 220 112 q85 -1 130 -44 q44 -43 69 -119 l0 0 Z" /><glyph glyph-name="" unicode="&#x10c;" d="M477 764 l16 0 q35 44 89 92 q54 47 105 85 l-25 0 q-43 -19 -82 -41 q-38 -23 -74 -51 q-19 28 -40 49 q-22 21 -52 43 l-25 0 q29 -38 54 -85 q24 -48 34 -92 l0 0 ZM650 505 l7 0 l34 201 l-8 0 l-57 -54 q-25 23 -68 40 q-42 17 -107 18 q-156 -3 -265 -122 q-110 -119 -115 -314 q1 -121 73 -201 q72 -80 202 -83 q103 1 177 55 q74 55 113 148 l-16 6 q-54 -86 -117 -124 q-63 -39 -143 -38 q-97 1 -155 65 q-58 63 -59 172 q2 173 85 282 q83 109 220 112 q85 -1 130 -44 q44 -43 69 -119 l0 0 Z" /><glyph glyph-name="" unicode="&#x10e;" d="M448 764 l16 0 q35 44 89 92 q54 47 105 85 l-25 0 q-43 -19 -82 -41 q-38 -23 -74 -51 q-19 28 -40 49 q-22 21 -52 43 l-25 0 q29 -38 54 -85 q24 -48 34 -92 l0 0 ZM160 700 l0 -7 q23 -13 34 -25 q11 -12 11 -34 q0 -9 -2 -20 q-2 -11 -5 -24 l-120 -480 q-11 -47 -30 -67 q-19 -19 -58 -36 l0 -7 l279 0 q200 2 321 117 q121 114 124 314 q-1 119 -79 193 q-78 74 -227 76 l-248 0 ZM127 37 l156 626 l116 0 q123 -1 182 -63 q59 -61 59 -169 q-1 -174 -96 -282 q-94 -109 -270 -112 l-147 0 Z" /><glyph glyph-name="" unicode="&#x112;" d="M572 792 l12 47 l-268 0 l-12 -47 l268 0 ZM-10 0 l516 0 l71 158 l-8 0 q-63 -70 -113 -96 q-50 -26 -130 -25 l-199 0 l76 306 l148 0 q59 2 78 -16 q20 -18 25 -80 l8 0 l57 229 l-8 0 q-37 -57 -65 -77 q-28 -20 -86 -19 l-148 0 l71 283 l178 0 q82 1 117 -21 q34 -22 62 -82 l7 0 l3 146 q-12 -2 -26 -4 q-14 -2 -36 -2 l-428 0 l0 -7 q23 -13 34 -25 q11 -12 11 -34 q0 -9 -2 -20 q-2 -11 -5 -24 l-120 -480 q-11 -47 -30 -67 q-19 -19 -58 -36 l0 -7 Z" /><glyph glyph-name="" unicode="&#x114;" d="M357 912 q0 12 2 24 l-25 0 q-6 -26 -6 -47 q0 -52 29 -81 q30 -30 79 -30 q61 1 109 43 q48 42 67 115 l-25 0 q-17 -50 -57 -75 q-39 -25 -85 -25 q-40 0 -64 19 q-24 19 -24 57 l0 0 ZM-10 0 l516 0 l71 158 l-8 0 q-63 -70 -113 -96 q-50 -26 -130 -25 l-199 0 l76 306 l148 0 q59 2 78 -16 q20 -18 25 -80 l8 0 l57 229 l-8 0 q-37 -57 -65 -77 q-28 -20 -86 -19 l-148 0 l71 283 l178 0 q82 1 117 -21 q34 -22 62 -82 l7 0 l3 146 q-12 -2 -26 -4 q-14 -2 -36 -2 l-428 0 l0 -7 q23 -13 34 -25 q11 -12 11 -34 q0 -9 -2 -20 q-2 -11 -5 -24 l-120 -480 q-11 -47 -30 -67 q-19 -19 -58 -36 l0 -7 Z" /><glyph glyph-name="" unicode="&#x116;" d="M452 793 q23 1 38 16 q15 15 16 38 q-1 23 -16 38 q-15 15 -38 16 q-23 -1 -38 -16 q-15 -15 -16 -38 q1 -23 16 -38 q15 -15 38 -16 l0 0 ZM-10 0 l516 0 l71 158 l-8 0 q-63 -70 -113 -96 q-50 -26 -130 -25 l-199 0 l76 306 l148 0 q59 2 78 -16 q20 -18 25 -80 l8 0 l57 229 l-8 0 q-37 -57 -65 -77 q-28 -20 -86 -19 l-148 0 l71 283 l178 0 q82 1 117 -21 q34 -22 62 -82 l7 0 l3 146 q-12 -2 -26 -4 q-14 -2 -36 -2 l-428 0 l0 -7 q23 -13 34 -25 q11 -12 11 -34 q0 -9 -2 -20 q-2 -11 -5 -24 l-120 -480 q-11 -47 -30 -67 q-19 -19 -58 -36 l0 -7 Z" /><glyph glyph-name="" unicode="&#x118;" d="M458 -149 l-10 12 q-26 -24 -55 -39 q-28 -16 -56 -16 q-18 0 -30 9 q-12 8 -12 27 q0 42 37 78 q37 37 108 78 l66 0 l71 158 l-8 0 q-63 -70 -113 -96 q-50 -26 -130 -25 l-199 0 l76 306 l148 0 q59 2 78 -16 q20 -18 25 -80 l8 0 l57 229 l-8 0 q-37 -57 -65 -77 q-28 -20 -86 -19 l-148 0 l71 283 l178 0 q82 1 117 -21 q34 -22 62 -82 l7 0 l3 146 q-12 -2 -26 -4 q-14 -2 -36 -2 l-428 0 l0 -7 q23 -13 34 -25 q11 -12 11 -34 q0 -9 -2 -20 q-2 -11 -5 -24 l-120 -480 q-11 -47 -30 -67 q-19 -19 -58 -36 l0 -7 l413 0 q-70 -35 -120 -77 q-50 -42 -52 -96 q1 -29 20 -46 q18 -16 49 -16 q50 1 92 27 q41 25 66 59 l0 0 Z" /><glyph glyph-name="" unicode="&#x11a;" d="M424 764 l16 0 q35 44 89 92 q54 47 105 85 l-25 0 q-43 -19 -82 -41 q-38 -23 -74 -51 q-19 28 -40 49 q-22 21 -52 43 l-25 0 q29 -38 54 -85 q24 -48 34 -92 l0 0 ZM-10 0 l516 0 l71 158 l-8 0 q-63 -70 -113 -96 q-50 -26 -130 -25 l-199 0 l76 306 l148 0 q59 2 78 -16 q20 -18 25 -80 l8 0 l57 229 l-8 0 q-37 -57 -65 -77 q-28 -20 -86 -19 l-148 0 l71 283 l178 0 q82 1 117 -21 q34 -22 62 -82 l7 0 l3 146 q-12 -2 -26 -4 q-14 -2 -36 -2 l-428 0 l0 -7 q23 -13 34 -25 q11 -12 11 -34 q0 -9 -2 -20 q-2 -11 -5 -24 l-120 -480 q-11 -47 -30 -67 q-19 -19 -58 -36 l0 -7 Z" /><glyph glyph-name="" unicode="&#x11c;" d="M562 946 l-16 0 q-35 -44 -89 -91 q-54 -48 -105 -86 l25 0 q43 19 82 41 q38 23 74 51 q19 -28 40 -49 q22 -21 52 -43 l25 0 q-29 38 -54 86 q-24 47 -34 91 l0 0 ZM671 505 l7 0 l34 201 l-7 0 l-58 -54 q-26 23 -72 40 q-47 17 -112 18 q-162 -3 -274 -122 q-113 -119 -118 -314 q1 -121 71 -201 q70 -80 200 -83 q65 1 119 29 q53 28 91 74 l15 -103 l21 0 l63 232 q12 47 29 67 q17 19 55 36 l0 7 l-183 0 l0 -7 q21 -12 32 -24 q10 -11 10 -30 q0 -10 -2 -21 q-2 -12 -7 -28 l-25 -85 q-47 -50 -97 -76 q-50 -26 -113 -26 q-91 1 -147 66 q-55 64 -57 173 q3 173 90 282 q86 109 227 112 q86 -1 134 -43 q49 -43 74 -120 l0 0 Z" /><glyph glyph-name="" unicode="&#x11e;" d="M432 912 q0 12 2 24 l-25 0 q-6 -26 -6 -47 q0 -52 29 -81 q30 -30 79 -30 q61 1 109 43 q48 42 67 115 l-25 0 q-17 -50 -57 -75 q-39 -25 -85 -25 q-40 0 -64 19 q-24 19 -24 57 l0 0 ZM671 505 l7 0 l34 201 l-7 0 l-58 -54 q-26 23 -72 40 q-47 17 -112 18 q-162 -3 -274 -122 q-113 -119 -118 -314 q1 -121 71 -201 q70 -80 200 -83 q65 1 119 29 q53 28 91 74 l15 -103 l21 0 l63 232 q12 47 29 67 q17 19 55 36 l0 7 l-183 0 l0 -7 q21 -12 32 -24 q10 -11 10 -30 q0 -10 -2 -21 q-2 -12 -7 -28 l-25 -85 q-47 -50 -97 -76 q-50 -26 -113 -26 q-91 1 -147 66 q-55 64 -57 173 q3 173 90 282 q86 109 227 112 q86 -1 134 -43 q49 -43 74 -120 l0 0 Z" /><glyph glyph-name="" unicode="&#x120;" d="M527 793 q23 1 38 16 q15 15 16 38 q-1 23 -16 38 q-15 15 -38 16 q-23 -1 -38 -16 q-15 -15 -16 -38 q1 -23 16 -38 q15 -15 38 -16 l0 0 ZM671 505 l7 0 l34 201 l-7 0 l-58 -54 q-26 23 -72 40 q-47 17 -112 18 q-162 -3 -274 -122 q-113 -119 -118 -314 q1 -121 71 -201 q70 -80 200 -83 q65 1 119 29 q53 28 91 74 l15 -103 l21 0 l63 232 q12 47 29 67 q17 19 55 36 l0 7 l-183 0 l0 -7 q21 -12 32 -24 q10 -11 10 -30 q0 -10 -2 -21 q-2 -12 -7 -28 l-25 -85 q-47 -50 -97 -76 q-50 -26 -113 -26 q-91 1 -147 66 q-55 64 -57 173 q3 173 90 282 q86 109 227 112 q86 -1 134 -43 q49 -43 74 -120 l0 0 Z" /><glyph glyph-name="" unicode="&#x122;" d="M671 505 l7 0 l34 201 l-7 0 l-58 -54 q-26 23 -72 40 q-47 17 -112 18 q-162 -3 -274 -122 q-113 -119 -118 -314 q1 -121 71 -201 q70 -80 200 -83 q65 1 119 29 q53 28 91 74 l15 -103 l21 0 l63 232 q12 47 29 67 q17 19 55 36 l0 7 l-183 0 l0 -7 q21 -12 32 -24 q10 -11 10 -30 q0 -10 -2 -21 q-2 -12 -7 -28 l-25 -85 q-47 -50 -97 -76 q-50 -26 -113 -26 q-91 1 -147 66 q-55 64 -57 173 q3 173 90 282 q86 109 227 112 q86 -1 134 -43 q49 -43 74 -120 l0 0 ZM308 -140 q-2 -33 -31 -55 q-29 -22 -67 -27 l-3 -24 q65 2 103 38 q38 36 39 86 q0 28 -15 46 q-15 18 -42 19 q-23 0 -38 -14 q-14 -13 -15 -36 q0 -16 10 -27 q10 -12 31 -13 q7 0 14 2 q6 1 14 5 l0 0 Z" /><glyph glyph-name="" unicode="&#x124;" d="M578 946 l-16 0 q-35 -44 -89 -91 q-54 -48 -105 -86 l25 0 q43 19 82 41 q38 23 74 51 q19 -28 40 -49 q22 -21 52 -43 l25 0 q-29 38 -54 86 q-24 47 -34 91 l0 0 ZM-10 0 l193 0 l0 7 q-22 13 -34 25 q-11 12 -11 34 q0 9 2 20 q2 11 5 24 l58 230 l427 0 l-58 -230 q-11 -47 -30 -67 q-19 -19 -58 -36 l0 -7 l193 0 l0 7 q-22 13 -34 25 q-11 12 -11 34 q0 9 2 20 q2 11 5 24 l120 480 q11 47 30 67 q19 19 58 36 l0 7 l-193 0 l0 -7 q23 -13 34 -25 q11 -12 11 -34 q0 -9 -2 -20 q-2 -11 -5 -24 l-53 -211 l-427 0 l53 211 q11 47 30 67 q19 19 58 36 l0 7 l-193 0 l0 -7 q23 -13 34 -25 q11 -12 11 -34 q0 -9 -2 -20 q-2 -11 -5 -24 l-120 -480 q-11 -47 -30 -67 q-19 -19 -58 -36 l0 -7 Z" /><glyph glyph-name="" unicode="&#x128;" d="M143 791 q16 31 34 51 q18 20 49 21 q30 -4 62 -34 q32 -30 69 -34 q35 0 64 33 q30 33 54 95 l-24 0 q-16 -31 -34 -51 q-18 -20 -49 -21 q-30 4 -62 34 q-32 30 -69 34 q-35 0 -64 -33 q-30 -33 -54 -95 l24 0 ZM78 110 q-11 -47 -30 -67 q-19 -19 -58 -36 l0 -7 l193 0 l0 7 q-22 13 -34 25 q-11 12 -11 34 q0 9 2 20 q2 11 5 24 l120 480 q11 47 30 67 q19 19 58 36 l0 7 l-193 0 l0 -7 q23 -13 34 -25 q11 -12 11 -34 q0 -9 -2 -20 q-2 -11 -5 -24 l-120 -480 Z" /><glyph glyph-name="" unicode="&#x12a;" d="M415 792 l12 47 l-268 0 l-12 -47 l268 0 ZM78 110 q-11 -47 -30 -67 q-19 -19 -58 -36 l0 -7 l193 0 l0 7 q-22 13 -34 25 q-11 12 -11 34 q0 9 2 20 q2 11 5 24 l120 480 q11 47 30 67 q19 19 58 36 l0 7 l-193 0 l0 -7 q23 -13 34 -25 q11 -12 11 -34 q0 -9 -2 -20 q-2 -11 -5 -24 l-120 -480 Z" /><glyph glyph-name="" unicode="&#x12c;" d="M200 912 q0 12 2 24 l-25 0 q-6 -26 -6 -47 q0 -52 29 -81 q30 -30 79 -30 q61 1 109 43 q48 42 67 115 l-25 0 q-17 -50 -57 -75 q-39 -25 -85 -25 q-40 0 -64 19 q-24 19 -24 57 l0 0 ZM78 110 q-11 -47 -30 -67 q-19 -19 -58 -36 l0 -7 l193 0 l0 7 q-22 13 -34 25 q-11 12 -11 34 q0 9 2 20 q2 11 5 24 l120 480 q11 47 30 67 q19 19 58 36 l0 7 l-193 0 l0 -7 q23 -13 34 -25 q11 -12 11 -34 q0 -9 -2 -20 q-2 -11 -5 -24 l-120 -480 Z" /><glyph glyph-name="" unicode="&#x12e;" d="M171 -149 l-10 12 q-26 -24 -55 -39 q-28 -16 -56 -16 q-18 0 -30 9 q-12 8 -12 27 q0 42 37 78 q37 37 108 78 l30 0 l0 7 q-22 13 -34 25 q-11 12 -11 34 q0 9 2 20 q2 11 5 24 l120 480 q11 47 30 67 q19 19 58 36 l0 7 l-193 0 l0 -7 q23 -13 34 -25 q11 -12 11 -34 q0 -9 -2 -20 q-2 -11 -5 -24 l-120 -480 q-11 -47 -30 -67 q-19 -19 -58 -36 l0 -7 l126 0 q-70 -35 -120 -77 q-50 -42 -52 -96 q1 -29 20 -46 q18 -16 49 -16 q50 1 92 27 q41 25 66 59 l0 0 Z" /><glyph glyph-name="" unicode="&#x130;" d="M295 793 q23 1 38 16 q15 15 16 38 q-1 23 -16 38 q-15 15 -38 16 q-23 -1 -38 -16 q-15 -15 -16 -38 q1 -23 16 -38 q15 -15 38 -16 l0 0 ZM78 110 q-11 -47 -30 -67 q-19 -19 -58 -36 l0 -7 l193 0 l0 7 q-22 13 -34 25 q-11 12 -11 34 q0 9 2 20 q2 11 5 24 l120 480 q11 47 30 67 q19 19 58 36 l0 7 l-193 0 l0 -7 q23 -13 34 -25 q11 -12 11 -34 q0 -9 -2 -20 q-2 -11 -5 -24 l-120 -480 Z" /><glyph glyph-name="" unicode="&#x134;" d="M590 946 l-16 0 q-35 -44 -89 -91 q-54 -48 -105 -86 l25 0 q43 19 82 41 q38 23 74 51 q19 -28 40 -49 q22 -21 52 -43 l25 0 q-29 38 -54 86 q-24 47 -34 91 l0 0 ZM361 199 q-20 -84 -58 -128 q-39 -44 -111 -44 q-50 0 -80 27 q-31 26 -32 74 q0 34 16 57 q16 23 52 37 q-6 6 -18 11 q-11 4 -27 4 q-42 -1 -68 -28 q-25 -28 -26 -74 q1 -62 51 -103 q49 -41 132 -42 q99 1 155 54 q57 54 79 149 l99 397 q11 47 30 67 q19 19 58 36 l0 7 l-193 0 l0 -7 q23 -13 34 -25 q11 -12 11 -34 q0 -9 -2 -20 q-2 -11 -5 -24 l-97 -391 Z" /><glyph glyph-name="" unicode="&#x136;" d="M183 0 l0 7 q-22 13 -34 25 q-11 12 -11 34 q0 9 2 20 q2 11 5 24 l39 155 l109 86 l181 -272 q7 -10 10 -18 q4 -7 4 -13 q0 -9 -11 -19 q-11 -9 -33 -22 l0 -7 l200 0 l0 7 q-32 14 -57 37 q-25 23 -55 68 l-188 278 l252 198 q44 31 87 57 q43 26 97 48 l0 7 l-213 0 l0 -7 q18 -12 28 -20 q9 -8 9 -17 q0 -8 -7 -16 q-7 -9 -21 -20 l-378 -298 l67 268 q11 47 30 67 q19 19 58 36 l0 7 l-193 0 l0 -7 q23 -13 34 -25 q11 -12 11 -34 q0 -9 -2 -20 q-2 -11 -5 -24 l-120 -480 q-11 -47 -30 -67 q-19 -19 -58 -36 l0 -7 l193 0 ZM290 -140 q-2 -33 -31 -55 q-29 -22 -67 -27 l-3 -24 q65 2 103 38 q38 36 39 86 q0 28 -15 46 q-15 18 -42 19 q-23 0 -38 -14 q-14 -13 -15 -36 q0 -16 10 -27 q10 -12 31 -13 q7 0 14 2 q6 1 14 5 l0 0 Z" /><glyph glyph-name="" unicode="&#x139;" d="M373 929 l-100 -158 l20 0 l186 158 l-106 0 ZM265 590 q11 47 30 67 q19 19 58 36 l0 7 l-193 0 l0 -7 q23 -13 34 -25 q11 -12 11 -34 q0 -9 -2 -20 q-2 -11 -5 -24 l-120 -480 q-11 -47 -30 -67 q-19 -19 -58 -36 l0 -7 l494 0 l80 180 l-8 0 q-68 -82 -120 -113 q-52 -31 -132 -30 l-177 0 l138 553 Z" /><glyph glyph-name="" unicode="&#x13b;" d="M265 590 q11 47 30 67 q19 19 58 36 l0 7 l-193 0 l0 -7 q23 -13 34 -25 q11 -12 11 -34 q0 -9 -2 -20 q-2 -11 -5 -24 l-120 -480 q-11 -47 -30 -67 q-19 -19 -58 -36 l0 -7 l494 0 l80 180 l-8 0 q-68 -82 -120 -113 q-52 -31 -132 -30 l-177 0 l138 553 ZM252 -140 q-2 -33 -31 -55 q-29 -22 -67 -27 l-3 -24 q65 2 103 38 q38 36 39 86 q0 28 -15 46 q-15 18 -42 19 q-23 0 -38 -14 q-14 -13 -15 -36 q0 -16 10 -27 q10 -12 31 -13 q7 0 14 2 q6 1 14 5 l0 0 Z" /><glyph glyph-name="" unicode="&#x13d;" d="M624 700 l-81 0 l-77 -205 l15 0 l143 205 ZM265 590 q11 47 30 67 q19 19 58 36 l0 7 l-193 0 l0 -7 q23 -13 34 -25 q11 -12 11 -34 q0 -9 -2 -20 q-2 -11 -5 -24 l-120 -480 q-11 -47 -30 -67 q-19 -19 -58 -36 l0 -7 l494 0 l80 180 l-8 0 q-68 -82 -120 -113 q-52 -31 -132 -30 l-177 0 l138 553 Z" /><glyph glyph-name="" unicode="&#x143;" d="M595 929 l-100 -158 l20 0 l186 158 l-106 0 ZM588 -9 l149 599 q12 47 35 67 q24 19 63 36 l0 7 l-191 0 l0 -7 q24 -14 39 -27 q14 -14 14 -40 q0 -15 -5 -36 l-112 -450 l-287 560 l-133 0 l0 -7 q23 -13 34 -25 q11 -12 11 -34 q0 -9 -2 -20 q-2 -11 -5 -24 l-120 -480 q-12 -47 -35 -67 q-24 -19 -63 -36 l0 -7 l191 0 l0 7 q-24 14 -38 28 q-15 13 -15 39 q0 15 5 36 l130 521 l331 -640 l4 0 Z" /><glyph glyph-name="" unicode="&#x145;" d="M588 -9 l149 599 q12 47 35 67 q24 19 63 36 l0 7 l-191 0 l0 -7 q24 -14 39 -27 q14 -14 14 -40 q0 -15 -5 -36 l-112 -450 l-287 560 l-133 0 l0 -7 q23 -13 34 -25 q11 -12 11 -34 q0 -9 -2 -20 q-2 -11 -5 -24 l-120 -480 q-12 -47 -35 -67 q-24 -19 -63 -36 l0 -7 l191 0 l0 7 q-24 14 -38 28 q-15 13 -15 39 q0 15 5 36 l130 521 l331 -640 l4 0 ZM313 -140 q-2 -33 -31 -55 q-29 -22 -67 -27 l-3 -24 q65 2 103 38 q38 36 39 86 q0 28 -15 46 q-15 18 -42 19 q-23 0 -38 -14 q-14 -13 -15 -36 q0 -16 10 -27 q10 -12 31 -13 q7 0 14 2 q6 1 14 5 l0 0 Z" /><glyph glyph-name="" unicode="&#x147;" d="M504 764 l16 0 q35 44 89 92 q54 47 105 85 l-25 0 q-43 -19 -82 -41 q-38 -23 -74 -51 q-19 28 -40 49 q-22 21 -52 43 l-25 0 q29 -38 54 -85 q24 -48 34 -92 l0 0 ZM588 -9 l149 599 q12 47 35 67 q24 19 63 36 l0 7 l-191 0 l0 -7 q24 -14 39 -27 q14 -14 14 -40 q0 -15 -5 -36 l-112 -450 l-287 560 l-133 0 l0 -7 q23 -13 34 -25 q11 -12 11 -34 q0 -9 -2 -20 q-2 -11 -5 -24 l-120 -480 q-12 -47 -35 -67 q-24 -19 -63 -36 l0 -7 l191 0 l0 7 q-24 14 -38 28 q-15 13 -15 39 q0 15 5 36 l130 521 l331 -640 l4 0 Z" /><glyph glyph-name="" unicode="&#x14c;" d="M628 792 l12 47 l-268 0 l-12 -47 l268 0 ZM730 420 q-1 125 -77 206 q-75 81 -208 84 q-164 -5 -267 -129 q-103 -123 -106 -301 q1 -125 77 -206 q75 -81 208 -84 q164 5 267 129 q103 123 106 301 l0 0 ZM146 280 q2 157 85 269 q82 112 214 117 q102 -1 157 -67 q54 -66 54 -179 q-2 -157 -85 -269 q-82 -112 -214 -117 q-102 1 -156 67 q-55 66 -55 179 l0 0 Z" /><glyph glyph-name="" unicode="&#x14e;" d="M420 912 q0 12 2 24 l-25 0 q-6 -26 -6 -47 q0 -52 29 -81 q30 -30 79 -30 q61 1 109 43 q48 42 67 115 l-25 0 q-17 -50 -57 -75 q-39 -25 -85 -25 q-40 0 -64 19 q-24 19 -24 57 l0 0 ZM730 420 q-1 125 -77 206 q-75 81 -208 84 q-164 -5 -267 -129 q-103 -123 -106 -301 q1 -125 77 -206 q75 -81 208 -84 q164 5 267 129 q103 123 106 301 l0 0 ZM146 280 q2 157 85 269 q82 112 214 117 q102 -1 157 -67 q54 -66 54 -179 q-2 -157 -85 -269 q-82 -112 -214 -117 q-102 1 -156 67 q-55 66 -55 179 l0 0 Z" /><glyph glyph-name="" unicode="&#x150;" d="M505 929 l-107 -158 l21 0 l185 158 l-99 0 ZM655 929 l-107 -158 l21 0 l185 158 l-99 0 ZM730 420 q-1 125 -77 206 q-75 81 -208 84 q-164 -5 -267 -129 q-103 -123 -106 -301 q1 -125 77 -206 q75 -81 208 -84 q164 5 267 129 q103 123 106 301 l0 0 ZM146 280 q2 157 85 269 q82 112 214 117 q102 -1 157 -67 q54 -66 54 -179 q-2 -157 -85 -269 q-82 -112 -214 -117 q-102 1 -156 67 q-55 66 -55 179 l0 0 Z" /><glyph glyph-name="" unicode="&#x154;" d="M509 929 l-100 -158 l20 0 l186 158 l-106 0 ZM282 663 l153 0 q72 0 110 -27 q37 -28 37 -89 q-1 -98 -62 -143 q-60 -45 -161 -44 l-152 0 l75 303 ZM198 321 l149 0 q61 0 85 -30 q24 -31 31 -93 l12 -90 q4 -32 9 -55 q5 -24 14 -53 l131 0 l0 7 q-41 16 -63 41 q-22 25 -28 77 l-10 83 q-5 50 -31 82 q-26 31 -78 42 l0 3 q103 4 169 58 q66 55 68 154 q-2 77 -60 115 q-59 38 -152 38 l-284 0 l0 -7 q23 -13 34 -25 q11 -12 11 -34 q0 -9 -2 -20 q-2 -11 -5 -24 l-120 -480 q-11 -47 -30 -67 q-19 -19 -58 -36 l0 -7 l193 0 l0 7 q-22 13 -34 25 q-11 12 -11 34 q0 17 7 44 l53 211 Z" /><glyph glyph-name="" unicode="&#x156;" d="M282 663 l153 0 q72 0 110 -27 q37 -28 37 -89 q-1 -98 -62 -143 q-60 -45 -161 -44 l-152 0 l75 303 ZM198 321 l149 0 q61 0 85 -30 q24 -31 31 -93 l12 -90 q4 -32 9 -55 q5 -24 14 -53 l131 0 l0 7 q-41 16 -63 41 q-22 25 -28 77 l-10 83 q-5 50 -31 82 q-26 31 -78 42 l0 3 q103 4 169 58 q66 55 68 154 q-2 77 -60 115 q-59 38 -152 38 l-284 0 l0 -7 q23 -13 34 -25 q11 -12 11 -34 q0 -9 -2 -20 q-2 -11 -5 -24 l-120 -480 q-11 -47 -30 -67 q-19 -19 -58 -36 l0 -7 l193 0 l0 7 q-22 13 -34 25 q-11 12 -11 34 q0 17 7 44 l53 211 ZM298 -140 q-2 -33 -31 -55 q-29 -22 -67 -27 l-3 -24 q65 2 103 38 q38 36 39 86 q0 28 -15 46 q-15 18 -42 19 q-23 0 -38 -14 q-14 -13 -15 -36 q0 -16 10 -27 q10 -12 31 -13 q7 0 14 2 q6 1 14 5 l0 0 Z" /><glyph glyph-name="" unicode="&#x158;" d="M419 764 l16 0 q35 44 89 92 q54 47 105 85 l-25 0 q-43 -19 -82 -41 q-38 -23 -74 -51 q-19 28 -40 49 q-22 21 -52 43 l-25 0 q29 -38 54 -85 q24 -48 34 -92 l0 0 ZM282 663 l153 0 q72 0 110 -27 q37 -28 37 -89 q-1 -98 -62 -143 q-60 -45 -161 -44 l-152 0 l75 303 ZM198 321 l149 0 q61 0 85 -30 q24 -31 31 -93 l12 -90 q4 -32 9 -55 q5 -24 14 -53 l131 0 l0 7 q-41 16 -63 41 q-22 25 -28 77 l-10 83 q-5 50 -31 82 q-26 31 -78 42 l0 3 q103 4 169 58 q66 55 68 154 q-2 77 -60 115 q-59 38 -152 38 l-284 0 l0 -7 q23 -13 34 -25 q11 -12 11 -34 q0 -9 -2 -20 q-2 -11 -5 -24 l-120 -480 q-11 -47 -30 -67 q-19 -19 -58 -36 l0 -7 l193 0 l0 7 q-22 13 -34 25 q-11 12 -11 34 q0 17 7 44 l53 211 Z" /><glyph glyph-name="" unicode="&#x15a;" d="M500 929 l-100 -158 l20 0 l186 158 l-106 0 ZM561 511 l7 0 l40 197 l-11 0 l-51 -50 q-24 18 -68 34 q-43 17 -112 18 q-98 -1 -161 -53 q-63 -52 -65 -143 q1 -61 39 -102 q38 -41 101 -67 l86 -36 q47 -19 72 -48 q25 -29 25 -74 q-1 -70 -49 -113 q-48 -43 -129 -44 q-83 0 -134 46 q-51 45 -78 139 l-10 0 l-50 -219 l11 0 l58 64 q32 -29 83 -49 q50 -20 120 -21 q101 1 172 57 q71 56 74 161 q-1 60 -36 98 q-35 39 -99 65 l-81 35 q-49 20 -78 47 q-28 28 -29 81 q1 61 44 98 q42 37 114 38 q81 0 126 -40 q45 -40 69 -119 l0 0 Z" /><glyph glyph-name="" unicode="&#x15c;" d="M473 946 l-16 0 q-35 -44 -89 -91 q-54 -48 -105 -86 l25 0 q43 19 82 41 q38 23 74 51 q19 -28 40 -49 q22 -21 52 -43 l25 0 q-29 38 -54 86 q-24 47 -34 91 l0 0 ZM561 511 l7 0 l40 197 l-11 0 l-51 -50 q-24 18 -68 34 q-43 17 -112 18 q-98 -1 -161 -53 q-63 -52 -65 -143 q1 -61 39 -102 q38 -41 101 -67 l86 -36 q47 -19 72 -48 q25 -29 25 -74 q-1 -70 -49 -113 q-48 -43 -129 -44 q-83 0 -134 46 q-51 45 -78 139 l-10 0 l-50 -219 l11 0 l58 64 q32 -29 83 -49 q50 -20 120 -21 q101 1 172 57 q71 56 74 161 q-1 60 -36 98 q-35 39 -99 65 l-81 35 q-49 20 -78 47 q-28 28 -29 81 q1 61 44 98 q42 37 114 38 q81 0 126 -40 q45 -40 69 -119 l0 0 Z" /><glyph glyph-name="" unicode="&#x15e;" d="M181 -221 q47 1 87 26 q39 25 41 67 q0 33 -26 51 q-26 17 -72 19 l36 50 q18 -2 38 -2 q101 1 172 57 q71 56 74 161 q-1 60 -36 98 q-35 39 -99 65 l-81 35 q-49 20 -78 47 q-28 28 -29 81 q1 61 44 98 q42 37 114 38 q81 0 126 -40 q45 -40 69 -119 l7 0 l40 197 l-11 0 l-51 -50 q-24 18 -68 34 q-43 17 -112 18 q-98 -1 -161 -53 q-63 -52 -65 -143 q1 -61 39 -102 q38 -41 101 -67 l86 -36 q47 -19 72 -48 q25 -29 25 -74 q-1 -70 -49 -113 q-48 -43 -129 -44 q-83 0 -134 46 q-51 45 -78 139 l-10 0 l-50 -219 l11 0 l58 64 q23 -21 56 -37 q33 -17 76 -26 l-55 -78 q41 -1 63 -13 q21 -11 21 -35 q-1 -27 -22 -42 q-20 -16 -44 -16 q-27 0 -45 9 q-18 8 -29 26 l-21 -20 q8 -19 33 -33 q25 -15 66 -16 l0 0 Z" /><glyph glyph-name="" unicode="&#x218;" d="M561 511 l7 0 l40 197 l-11 0 l-51 -50 q-24 18 -68 34 q-43 17 -112 18 q-98 -1 -161 -53 q-63 -52 -65 -143 q1 -61 39 -102 q38 -41 101 -67 l86 -36 q47 -19 72 -48 q25 -29 25 -74 q-1 -70 -49 -113 q-48 -43 -129 -44 q-83 0 -134 46 q-51 45 -78 139 l-10 0 l-50 -219 l11 0 l58 64 q32 -29 83 -49 q50 -20 120 -21 q101 1 172 57 q71 56 74 161 q-1 60 -36 98 q-35 39 -99 65 l-81 35 q-49 20 -78 47 q-28 28 -29 81 q1 61 44 98 q42 37 114 38 q81 0 126 -40 q45 -40 69 -119 l0 0 ZM219 -140 q-2 -33 -31 -55 q-29 -22 -67 -27 l-3 -24 q65 2 103 38 q38 36 39 86 q0 28 -15 46 q-15 18 -42 19 q-23 0 -38 -14 q-14 -13 -15 -36 q0 -16 10 -27 q10 -12 31 -13 q7 0 14 2 q6 1 14 5 l0 0 Z" /><glyph glyph-name="" unicode="&#x162;" d="M243 -221 q47 1 87 26 q39 25 41 67 q0 33 -26 51 q-26 17 -72 19 l42 58 l88 0 l0 7 q-28 13 -41 25 q-13 13 -13 35 q0 16 7 43 l139 556 l110 0 q65 0 92 -34 q26 -34 49 -103 l8 0 l11 177 q-12 -2 -26 -4 q-14 -2 -36 -2 l-468 0 q-22 0 -35 2 q-13 2 -23 4 l-78 -177 l10 0 q71 80 114 109 q43 30 107 28 l98 0 l-139 -556 q-11 -47 -32 -67 q-21 -19 -67 -36 l0 -7 l89 0 l-58 -81 q41 -1 63 -13 q21 -11 21 -35 q-1 -27 -22 -42 q-20 -16 -44 -16 q-27 0 -45 9 q-18 8 -29 26 l-21 -20 q8 -19 33 -33 q25 -15 66 -16 l0 0 Z" /><glyph glyph-name="" unicode="&#x164;" d="M481 764 l16 0 q35 44 89 92 q54 47 105 85 l-25 0 q-43 -19 -82 -41 q-38 -23 -74 -51 q-19 28 -40 49 q-22 21 -52 43 l-25 0 q29 -38 54 -85 q24 -48 34 -92 l0 0 ZM235 700 q-22 0 -35 2 q-13 2 -23 4 l-78 -177 l10 0 q71 80 114 109 q43 30 107 28 l98 0 l-139 -556 q-11 -47 -32 -67 q-21 -19 -67 -36 l0 -7 l213 0 l0 7 q-28 13 -41 25 q-13 13 -13 35 q0 16 7 43 l139 556 l110 0 q65 0 92 -34 q26 -34 49 -103 l8 0 l11 177 q-12 -2 -26 -4 q-14 -2 -36 -2 l-468 0 Z" /><glyph glyph-name="" unicode="&#x21a;" d="M235 700 q-22 0 -35 2 q-13 2 -23 4 l-78 -177 l10 0 q71 80 114 109 q43 30 107 28 l98 0 l-139 -556 q-11 -47 -32 -67 q-21 -19 -67 -36 l0 -7 l213 0 l0 7 q-28 13 -41 25 q-13 13 -13 35 q0 16 7 43 l139 556 l110 0 q65 0 92 -34 q26 -34 49 -103 l8 0 l11 177 q-12 -2 -26 -4 q-14 -2 -36 -2 l-468 0 ZM290 -140 q-2 -33 -31 -55 q-29 -22 -67 -27 l-3 -24 q65 2 103 38 q38 36 39 86 q0 28 -15 46 q-15 18 -42 19 q-23 0 -38 -14 q-14 -13 -15 -36 q0 -16 10 -27 q10 -12 31 -13 q7 0 14 2 q6 1 14 5 l0 0 Z" /><glyph glyph-name="" unicode="&#x168;" d="M370 791 q16 31 34 51 q18 20 49 21 q30 -4 62 -34 q32 -30 69 -34 q35 0 64 33 q30 33 54 95 l-24 0 q-16 -31 -34 -51 q-18 -20 -49 -21 q-30 4 -62 34 q-32 30 -69 34 q-35 0 -64 -33 q-30 -33 -54 -95 l24 0 ZM249 590 q11 47 30 67 q19 19 58 36 l0 7 l-193 0 l0 -7 q22 -13 33 -25 q11 -12 11 -33 q0 -9 -2 -20 q-1 -11 -5 -25 l-78 -314 q-9 -37 -9 -72 q1 -96 66 -154 q64 -58 179 -60 q123 1 198 75 q74 74 107 211 l78 314 q12 47 35 67 q24 19 63 36 l0 7 l-193 0 l0 -7 q24 -14 39 -27 q14 -14 14 -40 q0 -15 -5 -36 l-75 -302 q-31 -129 -94 -191 q-62 -62 -167 -62 q-80 0 -128 44 q-48 43 -49 126 q0 35 10 77 l77 308 Z" /><glyph glyph-name="" unicode="&#x16a;" d="M641 792 l12 47 l-268 0 l-12 -47 l268 0 ZM249 590 q11 47 30 67 q19 19 58 36 l0 7 l-193 0 l0 -7 q22 -13 33 -25 q11 -12 11 -33 q0 -9 -2 -20 q-1 -11 -5 -25 l-78 -314 q-9 -37 -9 -72 q1 -96 66 -154 q64 -58 179 -60 q123 1 198 75 q74 74 107 211 l78 314 q12 47 35 67 q24 19 63 36 l0 7 l-193 0 l0 -7 q24 -14 39 -27 q14 -14 14 -40 q0 -15 -5 -36 l-75 -302 q-31 -129 -94 -191 q-62 -62 -167 -62 q-80 0 -128 44 q-48 43 -49 126 q0 35 10 77 l77 308 Z" /><glyph glyph-name="" unicode="&#x16c;" d="M427 912 q0 12 2 24 l-25 0 q-6 -26 -6 -47 q0 -52 29 -81 q30 -30 79 -30 q61 1 109 43 q48 42 67 115 l-25 0 q-17 -50 -57 -75 q-39 -25 -85 -25 q-40 0 -64 19 q-24 19 -24 57 l0 0 ZM249 590 q11 47 30 67 q19 19 58 36 l0 7 l-193 0 l0 -7 q22 -13 33 -25 q11 -12 11 -33 q0 -9 -2 -20 q-1 -11 -5 -25 l-78 -314 q-9 -37 -9 -72 q1 -96 66 -154 q64 -58 179 -60 q123 1 198 75 q74 74 107 211 l78 314 q12 47 35 67 q24 19 63 36 l0 7 l-193 0 l0 -7 q24 -14 39 -27 q14 -14 14 -40 q0 -15 -5 -36 l-75 -302 q-31 -129 -94 -191 q-62 -62 -167 -62 q-80 0 -128 44 q-48 43 -49 126 q0 35 10 77 l77 308 Z" /><glyph glyph-name="" unicode="&#x16e;" d="M415 835 q1 -40 27 -65 q25 -26 66 -27 q47 1 82 32 q35 31 37 83 q-1 40 -27 66 q-25 25 -66 26 q-47 -1 -82 -32 q-35 -31 -37 -83 l0 0 ZM585 854 q-1 -31 -20 -52 q-20 -20 -52 -21 q-27 0 -42 16 q-15 16 -14 42 q1 31 20 52 q20 20 52 21 q27 0 42 -16 q15 -16 14 -42 l0 0 ZM249 590 q11 47 30 67 q19 19 58 36 l0 7 l-193 0 l0 -7 q22 -13 33 -25 q11 -12 11 -33 q0 -9 -2 -20 q-1 -11 -5 -25 l-78 -314 q-9 -37 -9 -72 q1 -96 66 -154 q64 -58 179 -60 q123 1 198 75 q74 74 107 211 l78 314 q12 47 35 67 q24 19 63 36 l0 7 l-193 0 l0 -7 q24 -14 39 -27 q14 -14 14 -40 q0 -15 -5 -36 l-75 -302 q-31 -129 -94 -191 q-62 -62 -167 -62 q-80 0 -128 44 q-48 43 -49 126 q0 35 10 77 l77 308 Z" /><glyph glyph-name="" unicode="&#x170;" d="M512 929 l-107 -158 l21 0 l185 158 l-99 0 ZM662 929 l-107 -158 l21 0 l185 158 l-99 0 ZM249 590 q11 47 30 67 q19 19 58 36 l0 7 l-193 0 l0 -7 q22 -13 33 -25 q11 -12 11 -33 q0 -9 -2 -20 q-1 -11 -5 -25 l-78 -314 q-9 -37 -9 -72 q1 -96 66 -154 q64 -58 179 -60 q123 1 198 75 q74 74 107 211 l78 314 q12 47 35 67 q24 19 63 36 l0 7 l-193 0 l0 -7 q24 -14 39 -27 q14 -14 14 -40 q0 -15 -5 -36 l-75 -302 q-31 -129 -94 -191 q-62 -62 -167 -62 q-80 0 -128 44 q-48 43 -49 126 q0 35 10 77 l77 308 Z" /><glyph glyph-name="" unicode="&#x172;" d="M284 -235 q50 1 92 27 q41 25 66 59 l-10 12 q-26 -24 -55 -39 q-28 -16 -56 -16 q-18 0 -30 9 q-12 8 -12 27 q0 43 39 83 q38 40 108 70 q81 34 135 100 q55 66 83 179 l78 314 q12 47 35 67 q24 19 63 36 l0 7 l-193 0 l0 -7 q24 -14 39 -27 q14 -14 14 -40 q0 -15 -5 -36 l-75 -302 q-31 -129 -94 -191 q-62 -62 -167 -62 q-80 0 -128 44 q-48 43 -49 126 q0 35 10 77 l77 308 q11 47 30 67 q19 19 58 36 l0 7 l-193 0 l0 -7 q22 -13 33 -25 q11 -12 11 -33 q0 -9 -2 -20 q-1 -11 -5 -25 l-78 -314 q-9 -37 -9 -72 q1 -96 66 -154 q64 -58 179 -60 q8 0 16 0 q8 0 16 1 q-65 -33 -109 -73 q-45 -40 -47 -91 q1 -29 20 -46 q18 -16 49 -16 l0 0 Z" /><glyph glyph-name="" unicode="&#x174;" d="M660 946 l-16 0 q-35 -44 -89 -91 q-54 -48 -105 -86 l25 0 q43 19 82 41 q38 23 74 51 q19 -28 40 -49 q22 -21 52 -43 l25 0 q-29 38 -54 86 q-24 47 -34 91 l0 0 ZM582 -10 l9 0 l362 598 q25 42 47 63 q22 21 59 42 l0 7 l-185 0 l0 -7 q28 -17 42 -27 q14 -11 14 -24 q0 -8 -5 -19 q-4 -11 -14 -26 l-277 -457 l-17 457 q-1 9 -1 16 q-1 36 14 52 q15 16 58 28 l0 7 l-191 0 l0 -7 q22 -16 33 -31 q12 -15 16 -38 l-274 -478 l-27 451 q-1 10 -1 19 q-1 35 14 49 q15 15 58 28 l0 7 l-190 0 l0 -7 q28 -21 40 -41 q12 -20 14 -64 l36 -598 l9 0 l328 569 l29 -569 Z" /><glyph glyph-name="" unicode="&#x1e80;" d="M496 929 l106 -158 l16 0 l-26 158 l-96 0 ZM582 -10 l9 0 l362 598 q25 42 47 63 q22 21 59 42 l0 7 l-185 0 l0 -7 q28 -17 42 -27 q14 -11 14 -24 q0 -8 -5 -19 q-4 -11 -14 -26 l-277 -457 l-17 457 q-1 9 -1 16 q-1 36 14 52 q15 16 58 28 l0 7 l-191 0 l0 -7 q22 -16 33 -31 q12 -15 16 -38 l-274 -478 l-27 451 q-1 10 -1 19 q-1 35 14 49 q15 15 58 28 l0 7 l-190 0 l0 -7 q28 -21 40 -41 q12 -20 14 -64 l36 -598 l9 0 l328 569 l29 -569 Z" /><glyph glyph-name="" unicode="&#x1e82;" d="M688 929 l-100 -158 l20 0 l186 158 l-106 0 ZM582 -10 l9 0 l362 598 q25 42 47 63 q22 21 59 42 l0 7 l-185 0 l0 -7 q28 -17 42 -27 q14 -11 14 -24 q0 -8 -5 -19 q-4 -11 -14 -26 l-277 -457 l-17 457 q-1 9 -1 16 q-1 36 14 52 q15 16 58 28 l0 7 l-191 0 l0 -7 q22 -16 33 -31 q12 -15 16 -38 l-274 -478 l-27 451 q-1 10 -1 19 q-1 35 14 49 q15 15 58 28 l0 7 l-190 0 l0 -7 q28 -21 40 -41 q12 -20 14 -64 l36 -598 l9 0 l328 569 l29 -569 Z" /><glyph glyph-name="" unicode="&#x1e84;" d="M708 786 q23 1 38 16 q15 15 15 37 q0 22 -15 37 q-15 15 -38 16 q-22 -1 -37 -16 q-15 -15 -16 -37 q1 -22 16 -37 q15 -15 37 -16 l0 0 ZM538 786 q22 1 37 16 q15 15 16 37 q-1 22 -16 37 q-15 15 -37 16 q-23 -1 -38 -16 q-14 -15 -15 -37 q1 -22 15 -37 q15 -15 38 -16 l0 0 ZM582 -10 l9 0 l362 598 q25 42 47 63 q22 21 59 42 l0 7 l-185 0 l0 -7 q28 -17 42 -27 q14 -11 14 -24 q0 -8 -5 -19 q-4 -11 -14 -26 l-277 -457 l-17 457 q-1 9 -1 16 q-1 36 14 52 q15 16 58 28 l0 7 l-191 0 l0 -7 q22 -16 33 -31 q12 -15 16 -38 l-274 -478 l-27 451 q-1 10 -1 19 q-1 35 14 49 q15 15 58 28 l0 7 l-190 0 l0 -7 q28 -21 40 -41 q12 -20 14 -64 l36 -598 l9 0 l328 569 l29 -569 Z" /><glyph glyph-name="" unicode="&#x176;" d="M520 946 l-16 0 q-35 -44 -89 -91 q-54 -48 -105 -86 l25 0 q43 19 82 41 q38 23 74 51 q19 -28 40 -49 q22 -21 52 -43 l25 0 q-29 38 -54 86 q-24 47 -34 91 l0 0 ZM357 333 l-102 270 q-6 14 -6 26 q0 20 13 37 q12 16 35 27 l0 7 l-171 0 l0 -7 q25 -21 38 -43 q14 -22 28 -60 l113 -299 l-45 -181 q-11 -47 -32 -67 q-21 -19 -67 -36 l0 -7 l213 0 l0 7 q-28 13 -41 26 q-13 12 -13 34 q0 16 7 43 l45 181 l263 299 q33 38 57 60 q25 22 59 43 l0 7 l-171 0 l0 -7 q19 -14 28 -25 q9 -12 9 -23 q0 -9 -6 -19 q-5 -10 -16 -23 l-238 -270 Z" /><glyph glyph-name="" unicode="&#x1ef2;" d="M356 929 l106 -158 l16 0 l-26 158 l-96 0 ZM357 333 l-102 270 q-6 14 -6 26 q0 20 13 37 q12 16 35 27 l0 7 l-171 0 l0 -7 q25 -21 38 -43 q14 -22 28 -60 l113 -299 l-45 -181 q-11 -47 -32 -67 q-21 -19 -67 -36 l0 -7 l213 0 l0 7 q-28 13 -41 26 q-13 12 -13 34 q0 16 7 43 l45 181 l263 299 q33 38 57 60 q25 22 59 43 l0 7 l-171 0 l0 -7 q19 -14 28 -25 q9 -12 9 -23 q0 -9 -6 -19 q-5 -10 -16 -23 l-238 -270 Z" /><glyph glyph-name="" unicode="&#x179;" d="M551 929 l-100 -158 l20 0 l186 158 l-106 0 ZM544 0 l71 158 l-9 0 q-63 -70 -113 -96 q-50 -26 -130 -25 l-253 0 l625 659 l0 4 l-459 0 q-22 0 -35 2 q-13 2 -23 4 l-63 -167 l9 0 q52 64 96 94 q44 30 126 30 l236 0 l-627 -659 l0 -4 l549 0 Z" /><glyph glyph-name="" unicode="&#x17b;" d="M488 793 q23 1 38 16 q15 15 16 38 q-1 23 -16 38 q-15 15 -38 16 q-23 -1 -38 -16 q-15 -15 -16 -38 q1 -23 16 -38 q15 -15 38 -16 l0 0 ZM544 0 l71 158 l-9 0 q-63 -70 -113 -96 q-50 -26 -130 -25 l-253 0 l625 659 l0 4 l-459 0 q-22 0 -35 2 q-13 2 -23 4 l-63 -167 l9 0 q52 64 96 94 q44 30 126 30 l236 0 l-627 -659 l0 -4 l549 0 Z" /><glyph glyph-name="" unicode="&#x1fc;" d="M868 929 l-100 -158 l20 0 l186 158 l-106 0 ZM655 663 l-91 -363 l-255 0 l346 363 ZM145 7 q-26 17 -39 28 q-13 11 -13 23 q0 8 7 19 q7 10 20 24 l153 161 l282 0 l-38 -152 q-11 -47 -30 -67 q-19 -19 -58 -36 l0 -7 l516 0 l71 158 l-8 0 q-63 -70 -113 -96 q-50 -26 -130 -25 l-199 0 l76 306 l148 0 q59 2 78 -16 q20 -18 25 -80 l8 0 l57 229 l-8 0 q-37 -57 -65 -77 q-28 -20 -86 -19 l-148 0 l71 283 l178 0 q82 1 117 -21 q34 -22 62 -82 l7 0 l3 146 q-12 -2 -26 -4 q-14 -2 -36 -2 l-514 0 l0 -7 q23 -13 40 -24 q16 -11 17 -23 q0 -7 -3 -13 q-3 -7 -10 -14 l-482 -507 q-33 -36 -59 -59 q-26 -24 -63 -46 l0 -7 l192 0 l0 7 Z" /><glyph glyph-name="" unicode="&#x1fe;" d="M585 929 l-100 -158 l20 0 l186 158 l-106 0 ZM151 280 q2 157 85 269 q82 112 214 117 q55 0 96 -20 q41 -20 68 -56 l-433 -451 q-30 59 -30 141 l0 0 ZM362 34 q-54 0 -95 20 q-41 19 -68 55 l433 450 q14 -29 22 -63 q7 -35 7 -76 q-2 -157 -85 -269 q-82 -112 -214 -117 l0 0 ZM362 -10 q164 5 267 129 q103 123 106 301 q0 53 -15 100 q-15 47 -44 85 l88 91 l-27 22 l-84 -87 q-37 37 -88 58 q-51 21 -115 21 q-164 -5 -267 -129 q-103 -123 -106 -301 q0 -54 15 -101 q16 -47 45 -85 l-96 -100 l26 -22 l92 96 q38 -37 89 -57 q51 -21 114 -21 l0 0 Z" /><glyph glyph-name="" unicode="&#x110;" d="M284 0 q200 2 321 117 q121 114 124 314 q-1 119 -79 193 q-78 74 -227 76 l-248 0 l0 -7 q23 -13 34 -25 q11 -12 11 -34 q0 -9 -2 -20 q-2 -11 -5 -24 l-53 -211 l-74 0 l-9 -39 l74 0 l-58 -230 q-11 -47 -30 -67 q-19 -19 -58 -36 l0 -7 l279 0 ZM142 37 l76 303 l163 0 l9 39 l-163 0 l71 284 l116 0 q123 -1 182 -63 q59 -61 59 -169 q-1 -174 -96 -282 q-94 -109 -270 -112 l-147 0 Z" /><glyph glyph-name="" unicode="&#x126;" d="M674 467 l-35 -141 l-427 0 l35 141 l427 0 ZM3 0 l193 0 l0 7 q-22 13 -33 25 q-11 12 -11 34 q0 18 6 44 l44 177 l427 0 l-44 -177 q-11 -47 -30 -67 q-19 -19 -58 -36 l0 -7 l193 0 l0 7 q-22 13 -33 25 q-11 12 -11 34 q0 18 6 44 l89 357 l74 0 l10 39 l-74 0 l21 84 q11 47 30 67 q19 19 58 36 l0 7 l-193 0 l0 -7 q23 -13 34 -25 q11 -12 11 -34 q0 -9 -2 -20 q-1 -11 -5 -24 l-21 -84 l-427 0 l21 84 q11 47 30 67 q19 19 58 36 l0 7 l-193 0 l0 -7 q23 -13 34 -25 q11 -12 11 -34 q0 -9 -2 -20 q-1 -11 -5 -24 l-21 -84 l-74 0 l-10 -39 l74 0 l-89 -357 q-11 -47 -30 -67 q-19 -19 -58 -36 l0 -7 Z" /><glyph glyph-name="" unicode="&#x13f;" d="M265 590 q11 47 30 67 q19 19 58 36 l0 7 l-193 0 l0 -7 q23 -13 34 -25 q11 -12 11 -34 q0 -9 -2 -20 q-2 -11 -5 -24 l-120 -480 q-11 -47 -30 -67 q-19 -19 -58 -36 l0 -7 l494 0 l80 180 l-8 0 q-68 -82 -120 -113 q-52 -31 -132 -30 l-177 0 l138 553 ZM546 312 q23 1 38 16 q15 15 16 38 q-1 23 -16 38 q-15 15 -38 16 q-23 -1 -38 -16 q-15 -15 -16 -38 q1 -23 16 -38 q15 -15 38 -16 l0 0 Z" /><glyph glyph-name="" unicode="&#x14a;" d="M434 -225 q72 1 101 52 q28 52 47 141 l155 622 q12 47 40 67 q28 19 68 36 l0 7 l-211 0 l0 -7 q26 -14 44 -29 q17 -14 18 -44 q0 -12 -4 -30 l-112 -450 l-287 560 l-133 0 l0 -7 q23 -13 34 -25 q11 -12 11 -34 q0 -9 -2 -20 q-2 -11 -5 -24 l-120 -480 q-12 -47 -40 -67 q-28 -19 -68 -36 l0 -7 l211 0 l0 7 q-26 15 -44 29 q-17 15 -18 44 q0 12 4 30 l130 521 l304 -588 l-25 -98 q-16 -64 -35 -101 q-20 -37 -55 -38 q-23 0 -34 13 q-10 13 -10 32 q0 17 4 29 q4 12 12 22 q-4 2 -10 2 q-5 1 -10 1 q-25 0 -44 -13 q-19 -13 -20 -44 q1 -33 29 -53 q28 -19 75 -20 l0 0 Z" /><glyph glyph-name="" unicode="&#x166;" d="M190 0 l213 0 l0 7 q-28 13 -41 25 q-13 13 -13 35 q0 16 7 43 l58 230 l139 0 l9 39 l-139 0 l72 287 l110 0 q65 0 92 -34 q26 -34 49 -103 l8 0 l11 177 q-12 -2 -26 -4 q-14 -2 -36 -2 l-468 0 q-22 0 -35 2 q-13 2 -23 4 l-78 -177 l10 0 q71 80 114 109 q43 30 107 28 l98 0 l-72 -287 l-140 0 l-9 -39 l140 0 l-58 -230 q-11 -47 -32 -67 q-21 -19 -67 -36 l0 -7 Z" /><glyph glyph-name="" unicode="&#x101;" d="M495 592 l15 47 l-268 0 l-15 -47 l268 0 ZM526 494 l-12 0 q-17 -14 -38 -42 q-21 -29 -33 -52 q-8 38 -43 65 q-35 28 -96 29 q-114 -4 -187 -98 q-73 -95 -76 -225 q1 -83 43 -132 q41 -48 112 -49 q61 2 104 39 q43 36 70 89 q-6 -17 -9 -32 q-4 -14 -4 -27 q0 -32 16 -50 q16 -19 48 -19 q28 1 55 15 q28 14 51 35 l0 10 q-20 -7 -36 -10 q-16 -3 -28 -3 q-41 0 -40 36 q0 5 1 10 q1 6 3 13 l99 398 ZM400 242 q-22 -89 -73 -147 q-51 -58 -115 -60 q-46 1 -72 37 q-27 37 -27 99 q1 118 55 198 q53 80 144 83 q44 1 74 -25 q31 -25 32 -84 q0 -26 -8 -59 l-10 -42 Z" /><glyph glyph-name="" unicode="&#x103;" d="M286 706 q0 14 3 30 l-25 0 q-8 -31 -8 -57 q1 -53 29 -82 q28 -29 72 -29 q63 1 112 45 q50 44 73 123 l-25 0 q-19 -55 -59 -83 q-40 -27 -85 -27 q-38 0 -62 20 q-24 20 -25 60 l0 0 ZM526 494 l-12 0 q-17 -14 -38 -42 q-21 -29 -33 -52 q-8 38 -43 65 q-35 28 -96 29 q-114 -4 -187 -98 q-73 -95 -76 -225 q1 -83 43 -132 q41 -48 112 -49 q61 2 104 39 q43 36 70 89 q-6 -17 -9 -32 q-4 -14 -4 -27 q0 -32 16 -50 q16 -19 48 -19 q28 1 55 15 q28 14 51 35 l0 10 q-20 -7 -36 -10 q-16 -3 -28 -3 q-41 0 -40 36 q0 5 1 10 q1 6 3 13 l99 398 ZM400 242 q-22 -89 -73 -147 q-51 -58 -115 -60 q-46 1 -72 37 q-27 37 -27 99 q1 118 55 198 q53 80 144 83 q44 1 74 -25 q31 -25 32 -84 q0 -26 -8 -59 l-10 -42 Z" /><glyph glyph-name="" unicode="&#x105;" d="M326 -235 q50 1 92 27 q41 25 66 59 l-10 12 q-26 -24 -55 -39 q-28 -16 -56 -16 q-18 0 -30 9 q-12 8 -12 27 q5 64 71 107 q66 43 135 89 l0 10 q-20 -7 -36 -10 q-16 -3 -28 -3 q-41 0 -40 36 q0 5 1 10 q1 6 3 13 l99 398 l-12 0 q-17 -14 -38 -42 q-21 -29 -33 -52 q-8 38 -43 65 q-35 28 -96 29 q-114 -4 -187 -98 q-73 -95 -76 -225 q1 -83 43 -132 q41 -48 112 -49 q61 2 104 39 q43 36 70 89 q-6 -17 -9 -32 q-4 -14 -4 -27 q0 -29 14 -47 q14 -18 40 -21 q-64 -33 -108 -73 q-44 -40 -46 -91 q1 -29 20 -46 q18 -16 49 -16 l0 0 ZM400 242 q-22 -89 -73 -147 q-51 -58 -115 -60 q-46 1 -72 37 q-27 37 -27 99 q1 118 55 198 q53 80 144 83 q44 1 74 -25 q31 -25 32 -84 q0 -26 -8 -59 l-10 -42 Z" /><glyph glyph-name="" unicode="&#x107;" d="M423 749 l-114 -188 l19 0 l197 188 l-102 0 ZM385 389 q0 -23 -5 -33 q-4 -11 -10 -17 q10 -6 25 -6 q27 0 42 16 q16 16 16 45 q-1 46 -39 73 q-39 26 -103 27 q-117 -4 -192 -95 q-75 -91 -77 -215 q1 -88 47 -140 q46 -53 130 -54 q67 1 118 36 q50 35 78 96 l-17 10 q-35 -49 -74 -73 q-39 -23 -83 -23 q-61 1 -94 40 q-33 39 -33 108 q1 102 52 184 q51 82 145 87 q39 -1 57 -19 q17 -18 17 -47 l0 0 Z" /><glyph glyph-name="" unicode="&#x109;" d="M381 749 l-16 0 q-35 -45 -90 -101 q-55 -57 -107 -96 l25 0 q44 23 84 50 q39 27 75 56 q19 -29 39 -56 q20 -27 50 -50 l25 0 q-29 39 -52 96 q-23 56 -33 101 l0 0 ZM385 389 q0 -23 -5 -33 q-4 -11 -10 -17 q10 -6 25 -6 q27 0 42 16 q16 16 16 45 q-1 46 -39 73 q-39 26 -103 27 q-117 -4 -192 -95 q-75 -91 -77 -215 q1 -88 47 -140 q46 -53 130 -54 q67 1 118 36 q50 35 78 96 l-17 10 q-35 -49 -74 -73 q-39 -23 -83 -23 q-61 1 -94 40 q-33 39 -33 108 q1 102 52 184 q51 82 145 87 q39 -1 57 -19 q17 -18 17 -47 l0 0 Z" /><glyph glyph-name="" unicode="&#x10b;" d="M350 603 q23 1 38 16 q15 15 16 38 q-1 23 -16 38 q-15 15 -38 16 q-23 -1 -38 -16 q-15 -15 -16 -38 q1 -23 16 -38 q15 -15 38 -16 l0 0 ZM385 389 q0 -23 -5 -33 q-4 -11 -10 -17 q10 -6 25 -6 q27 0 42 16 q16 16 16 45 q-1 46 -39 73 q-39 26 -103 27 q-117 -4 -192 -95 q-75 -91 -77 -215 q1 -88 47 -140 q46 -53 130 -54 q67 1 118 36 q50 35 78 96 l-17 10 q-35 -49 -74 -73 q-39 -23 -83 -23 q-61 1 -94 40 q-33 39 -33 108 q1 102 52 184 q51 82 145 87 q39 -1 57 -19 q17 -18 17 -47 l0 0 Z" /><glyph glyph-name="" unicode="&#x10d;" d="M332 552 q35 45 90 102 q56 56 107 95 l-25 0 q-44 -23 -84 -50 q-39 -27 -75 -56 q-19 29 -39 56 q-20 27 -50 50 l-25 0 q29 -39 52 -95 q23 -57 33 -102 l16 0 ZM385 389 q0 -23 -5 -33 q-4 -11 -10 -17 q10 -6 25 -6 q27 0 42 16 q16 16 16 45 q-1 46 -39 73 q-39 26 -103 27 q-117 -4 -192 -95 q-75 -91 -77 -215 q1 -88 47 -140 q46 -53 130 -54 q67 1 118 36 q50 35 78 96 l-17 10 q-35 -49 -74 -73 q-39 -23 -83 -23 q-61 1 -94 40 q-33 39 -33 108 q1 102 52 184 q51 82 145 87 q39 -1 57 -19 q17 -18 17 -47 l0 0 Z" /><glyph glyph-name="" unicode="&#x10f;" d="M821 749 l-81 0 l-77 -205 l15 0 l143 205 ZM371 59 q0 -32 17 -50 q16 -19 48 -19 q28 1 55 15 q28 14 51 35 l0 10 q-20 -7 -36 -10 q-16 -3 -28 -3 q-40 0 -40 34 q0 5 1 11 q1 7 3 14 l160 653 l-143 0 l0 -6 q25 -14 41 -30 q16 -16 16 -42 q0 -11 -3 -23 l-61 -253 q-8 38 -44 68 q-35 29 -97 31 q-117 -4 -192 -98 q-75 -95 -78 -225 q1 -84 44 -132 q42 -48 115 -49 q64 2 110 39 q45 36 73 89 q-12 -33 -12 -59 l0 0 ZM412 232 q-21 -83 -76 -139 q-55 -56 -119 -58 q-52 1 -78 37 q-26 36 -26 99 q1 106 54 191 q53 86 149 91 q46 0 79 -30 q33 -30 34 -91 q0 -24 -6 -53 l-11 -47 Z" /><glyph glyph-name="" unicode="&#x113;" d="M459 592 l15 47 l-268 0 l-15 -47 l268 0 ZM221 -10 q69 1 121 36 q53 35 81 96 l-17 9 q-36 -49 -77 -73 q-40 -23 -86 -23 q-62 1 -95 38 q-34 38 -34 107 q0 23 3 44 q166 8 253 46 q86 38 87 115 q-1 51 -38 80 q-37 29 -104 29 q-120 -5 -195 -100 q-76 -95 -78 -214 q1 -88 47 -138 q46 -51 132 -52 l0 0 ZM315 455 q33 0 51 -16 q19 -17 19 -47 q-3 -80 -76 -106 q-74 -25 -186 -28 q17 81 66 138 q49 56 126 59 l0 0 Z" /><glyph glyph-name="" unicode="&#x115;" d="M250 706 q0 14 3 30 l-25 0 q-8 -31 -8 -57 q1 -53 29 -82 q28 -29 72 -29 q63 1 112 45 q50 44 73 123 l-25 0 q-19 -55 -59 -83 q-40 -27 -85 -27 q-38 0 -62 20 q-24 20 -25 60 l0 0 ZM221 -10 q69 1 121 36 q53 35 81 96 l-17 9 q-36 -49 -77 -73 q-40 -23 -86 -23 q-62 1 -95 38 q-34 38 -34 107 q0 23 3 44 q166 8 253 46 q86 38 87 115 q-1 51 -38 80 q-37 29 -104 29 q-120 -5 -195 -100 q-76 -95 -78 -214 q1 -88 47 -138 q46 -51 132 -52 l0 0 ZM315 455 q33 0 51 -16 q19 -17 19 -47 q-3 -80 -76 -106 q-74 -25 -186 -28 q17 81 66 138 q49 56 126 59 l0 0 Z" /><glyph glyph-name="" unicode="&#x117;" d="M352 603 q23 1 38 16 q15 15 16 38 q-1 23 -16 38 q-15 15 -38 16 q-23 -1 -38 -16 q-15 -15 -16 -38 q1 -23 16 -38 q15 -15 38 -16 l0 0 ZM221 -10 q69 1 121 36 q53 35 81 96 l-17 9 q-36 -49 -77 -73 q-40 -23 -86 -23 q-62 1 -95 38 q-34 38 -34 107 q0 23 3 44 q166 8 253 46 q86 38 87 115 q-1 51 -38 80 q-37 29 -104 29 q-120 -5 -195 -100 q-76 -95 -78 -214 q1 -88 47 -138 q46 -51 132 -52 l0 0 ZM315 455 q33 0 51 -16 q19 -17 19 -47 q-3 -80 -76 -106 q-74 -25 -186 -28 q17 81 66 138 q49 56 126 59 l0 0 Z" /><glyph glyph-name="" unicode="&#x119;" d="M175 -235 q50 1 92 27 q41 25 66 59 l-10 12 q-26 -24 -55 -39 q-28 -16 -56 -16 q-18 0 -30 9 q-12 8 -12 27 q4 45 55 89 q50 45 96 74 q32 21 59 49 q26 29 43 66 l-17 9 q-36 -49 -77 -73 q-40 -23 -86 -23 q-62 1 -95 38 q-34 38 -34 107 q0 23 3 44 q166 8 253 46 q86 38 87 115 q-1 51 -38 80 q-37 29 -104 29 q-120 -5 -195 -100 q-76 -95 -78 -214 q1 -88 47 -138 q46 -51 132 -52 q24 0 47 5 q-67 -34 -113 -75 q-47 -41 -49 -93 q1 -29 20 -46 q18 -16 49 -16 l0 0 ZM123 258 q17 81 66 138 q49 56 126 59 q33 0 51 -16 q19 -17 19 -47 q-3 -79 -74 -105 q-72 -26 -183 -29 l-5 0 Z" /><glyph glyph-name="" unicode="&#x11b;" d="M324 552 q35 45 90 102 q56 56 107 95 l-25 0 q-44 -23 -84 -50 q-39 -27 -75 -56 q-19 29 -39 56 q-20 27 -50 50 l-25 0 q29 -39 52 -95 q23 -57 33 -102 l16 0 ZM221 -10 q69 1 121 36 q53 35 81 96 l-17 9 q-36 -49 -77 -73 q-40 -23 -86 -23 q-62 1 -95 38 q-34 38 -34 107 q0 23 3 44 q166 8 253 46 q86 38 87 115 q-1 51 -38 80 q-37 29 -104 29 q-120 -5 -195 -100 q-76 -95 -78 -214 q1 -88 47 -138 q46 -51 132 -52 l0 0 ZM315 455 q33 0 51 -16 q19 -17 19 -47 q-3 -80 -76 -106 q-74 -25 -186 -28 q17 81 66 138 q49 56 126 59 l0 0 Z" /><glyph glyph-name="" unicode="&#x11d;" d="M423 749 l-16 0 q-35 -45 -90 -101 q-55 -57 -107 -96 l25 0 q44 23 84 50 q39 27 75 56 q19 -29 39 -56 q20 -27 50 -50 l25 0 q-29 39 -52 96 q-23 56 -33 101 l0 0 ZM412 232 q-21 -83 -76 -139 q-55 -56 -119 -58 q-52 1 -78 37 q-26 36 -26 99 q1 106 54 191 q53 86 149 91 q46 0 79 -30 q33 -30 34 -91 q0 -24 -6 -53 l-11 -47 ZM353 -1 q-21 -87 -65 -137 q-44 -50 -126 -51 q-54 1 -82 28 q-29 26 -29 66 q0 17 6 29 q5 13 12 20 q-6 2 -12 4 q-7 1 -13 1 q-25 0 -42 -16 q-17 -16 -18 -48 q2 -53 51 -86 q50 -33 127 -34 q102 0 165 56 q62 55 89 165 l124 498 l-12 0 q-17 -14 -38 -43 q-22 -30 -34 -53 q-9 38 -46 66 q-37 29 -99 30 q-117 -4 -192 -98 q-75 -95 -78 -225 q1 -84 44 -132 q42 -48 115 -49 q64 2 109 38 q45 36 73 88 l-29 -117 Z" /><glyph glyph-name="" unicode="&#x11f;" d="M300 706 q0 14 3 30 l-25 0 q-8 -31 -8 -57 q1 -53 29 -82 q28 -29 72 -29 q63 1 112 45 q50 44 73 123 l-25 0 q-19 -55 -59 -83 q-40 -27 -85 -27 q-38 0 -62 20 q-24 20 -25 60 l0 0 ZM412 232 q-21 -83 -76 -139 q-55 -56 -119 -58 q-52 1 -78 37 q-26 36 -26 99 q1 106 54 191 q53 86 149 91 q46 0 79 -30 q33 -30 34 -91 q0 -24 -6 -53 l-11 -47 ZM353 -1 q-21 -87 -65 -137 q-44 -50 -126 -51 q-54 1 -82 28 q-29 26 -29 66 q0 17 6 29 q5 13 12 20 q-6 2 -12 4 q-7 1 -13 1 q-25 0 -42 -16 q-17 -16 -18 -48 q2 -53 51 -86 q50 -33 127 -34 q102 0 165 56 q62 55 89 165 l124 498 l-12 0 q-17 -14 -38 -43 q-22 -30 -34 -53 q-9 38 -46 66 q-37 29 -99 30 q-117 -4 -192 -98 q-75 -95 -78 -225 q1 -84 44 -132 q42 -48 115 -49 q64 2 109 38 q45 36 73 88 l-29 -117 Z" /><glyph glyph-name="" unicode="&#x121;" d="M392 603 q23 1 38 16 q15 15 16 38 q-1 23 -16 38 q-15 15 -38 16 q-23 -1 -38 -16 q-15 -15 -16 -38 q1 -23 16 -38 q15 -15 38 -16 l0 0 ZM412 232 q-21 -83 -76 -139 q-55 -56 -119 -58 q-52 1 -78 37 q-26 36 -26 99 q1 106 54 191 q53 86 149 91 q46 0 79 -30 q33 -30 34 -91 q0 -24 -6 -53 l-11 -47 ZM353 -1 q-21 -87 -65 -137 q-44 -50 -126 -51 q-54 1 -82 28 q-29 26 -29 66 q0 17 6 29 q5 13 12 20 q-6 2 -12 4 q-7 1 -13 1 q-25 0 -42 -16 q-17 -16 -18 -48 q2 -53 51 -86 q50 -33 127 -34 q102 0 165 56 q62 55 89 165 l124 498 l-12 0 q-17 -14 -38 -43 q-22 -30 -34 -53 q-9 38 -46 66 q-37 29 -99 30 q-117 -4 -192 -98 q-75 -95 -78 -225 q1 -84 44 -132 q42 -48 115 -49 q64 2 109 38 q45 36 73 88 l-29 -117 Z" /><glyph glyph-name="" unicode="&#x123;" d="M366 651 q2 33 31 55 q29 22 67 27 l3 24 q-65 -2 -103 -38 q-38 -36 -39 -86 q0 -28 15 -46 q15 -18 42 -19 q23 0 38 14 q15 13 15 36 q0 16 -10 28 q-10 11 -31 12 q-7 0 -14 -2 q-6 -1 -14 -5 l0 0 ZM412 232 q-21 -83 -76 -139 q-55 -56 -119 -58 q-52 1 -78 37 q-26 36 -26 99 q1 106 54 191 q53 86 149 91 q46 0 79 -30 q33 -30 34 -91 q0 -24 -6 -53 l-11 -47 ZM353 -1 q-21 -87 -65 -137 q-44 -50 -126 -51 q-54 1 -82 28 q-29 26 -29 66 q0 17 6 29 q5 13 12 20 q-6 2 -12 4 q-7 1 -13 1 q-25 0 -42 -16 q-17 -16 -18 -48 q2 -53 51 -86 q50 -33 127 -34 q102 0 165 56 q62 55 89 165 l124 498 l-12 0 q-17 -14 -38 -43 q-22 -30 -34 -53 q-9 38 -46 66 q-37 29 -99 30 q-117 -4 -192 -98 q-75 -95 -78 -225 q1 -84 44 -132 q42 -48 115 -49 q64 2 109 38 q45 36 73 88 l-29 -117 Z" /><glyph glyph-name="" unicode="&#x125;" d="M446 976 l-16 0 q-35 -44 -89 -91 q-54 -48 -105 -86 l25 0 q43 19 82 41 q38 23 74 51 q19 -28 40 -49 q22 -21 52 -43 l25 0 q-29 38 -54 86 q-24 47 -34 91 l0 0 ZM286 749 l-143 0 l0 -6 q25 -14 41 -30 q15 -16 16 -42 q0 -10 -3 -23 l-161 -648 l64 0 l45 181 q32 119 94 189 q62 70 127 72 q34 0 50 -19 q16 -18 16 -50 q0 -19 -6 -42 l-59 -234 q-2 -10 -4 -20 q-1 -9 -1 -18 q0 -32 17 -50 q16 -19 48 -19 q28 1 55 15 q28 14 51 35 l0 10 q-20 -7 -36 -10 q-16 -3 -28 -3 q-20 0 -31 9 q-10 8 -10 25 q0 5 1 11 q1 7 3 14 l59 238 q7 29 7 53 q0 47 -24 77 q-25 29 -75 30 q-65 -1 -121 -44 q-57 -43 -95 -115 l103 414 Z" /><glyph glyph-name="" unicode="&#x129;" d="M158 649 q29 -4 52 -32 q23 -29 59 -33 q34 0 59 33 q26 33 49 95 l-24 0 q-17 -31 -33 -50 q-17 -19 -40 -19 q-28 4 -52 33 q-23 28 -59 32 q-34 0 -59 -33 q-26 -33 -49 -95 l24 0 q17 31 33 50 q17 19 40 19 l0 0 ZM220 484 l-143 0 l0 -6 q25 -14 41 -30 q15 -16 16 -42 q0 -10 -3 -23 l-71 -286 q-2 -9 -4 -19 q-1 -11 -1 -20 q0 -30 16 -49 q16 -18 47 -19 q28 1 55 15 q28 14 51 35 l0 10 q-20 -7 -36 -10 q-16 -3 -28 -3 q-20 0 -30 8 q-11 9 -11 26 q0 5 1 12 q1 7 3 13 l97 388 Z" /><glyph glyph-name="" unicode="&#x12b;" d="M325 592 l15 47 l-228 0 l-15 -47 l228 0 ZM220 484 l-143 0 l0 -6 q25 -14 41 -30 q15 -16 16 -42 q0 -10 -3 -23 l-71 -286 q-2 -9 -4 -19 q-1 -11 -1 -20 q0 -30 16 -49 q16 -18 47 -19 q28 1 55 15 q28 14 51 35 l0 10 q-20 -7 -36 -10 q-16 -3 -28 -3 q-20 0 -30 8 q-11 9 -11 26 q0 5 1 12 q1 7 3 13 l97 388 Z" /><glyph glyph-name="" unicode="&#x12d;" d="M129 706 q0 14 3 30 l-25 0 q-8 -31 -8 -57 q1 -53 29 -82 q28 -29 72 -29 q63 1 112 45 q50 44 73 123 l-25 0 q-19 -55 -59 -83 q-40 -27 -85 -27 q-38 0 -62 20 q-24 20 -25 60 l0 0 ZM220 484 l-143 0 l0 -6 q25 -14 41 -30 q15 -16 16 -42 q0 -10 -3 -23 l-71 -286 q-2 -9 -4 -19 q-1 -11 -1 -20 q0 -30 16 -49 q16 -18 47 -19 q28 1 55 15 q28 14 51 35 l0 10 q-20 -7 -36 -10 q-16 -3 -28 -3 q-20 0 -30 8 q-11 9 -11 26 q0 5 1 12 q1 7 3 13 l97 388 Z" /><glyph glyph-name="" unicode="&#x12f;" d="M219 603 q23 1 38 16 q15 15 16 38 q-1 23 -16 38 q-15 15 -38 16 q-23 -1 -38 -16 q-15 -15 -16 -38 q1 -23 16 -38 q15 -15 38 -16 l0 0 ZM108 -9 q-64 -33 -108 -73 q-44 -40 -46 -91 q1 -29 20 -46 q18 -16 49 -16 q50 1 92 27 q41 25 66 59 l-10 12 q-26 -24 -55 -39 q-28 -16 -56 -16 q-18 0 -30 9 q-12 8 -12 27 q5 64 71 107 q66 43 135 89 l0 10 q-20 -7 -36 -10 q-16 -3 -28 -3 q-20 0 -30 8 q-11 9 -11 26 q0 5 1 12 q1 7 3 13 l97 388 l-143 0 l0 -6 q25 -14 41 -30 q15 -16 16 -42 q0 -10 -3 -23 l-71 -286 q-2 -9 -4 -19 q-1 -11 -1 -20 q0 -30 14 -46 q14 -17 39 -21 l0 0 Z" /><glyph glyph-name="" unicode="&#x135;" d="M262 749 l-16 0 q-35 -45 -90 -101 q-55 -57 -107 -96 l25 0 q44 23 84 50 q39 27 75 56 q19 -29 39 -56 q20 -27 50 -50 l25 0 q-29 39 -52 96 q-23 56 -33 101 l0 0 ZM28 -55 q-14 -64 -32 -101 q-18 -37 -58 -38 q-23 0 -34 13 q-10 13 -10 32 q0 17 4 29 q4 12 12 22 q-4 2 -10 2 q-5 1 -10 1 q-25 0 -44 -13 q-19 -13 -20 -44 q1 -33 29 -53 q28 -19 75 -20 q73 1 110 52 q37 52 57 141 l129 516 l-143 0 l0 -6 q25 -14 41 -30 q15 -16 16 -42 q0 -10 -3 -23 l-109 -438 Z" /><glyph glyph-name="" unicode="&#x137;" d="M286 749 l-143 0 l0 -6 q25 -14 41 -30 q15 -16 16 -42 q0 -10 -3 -23 l-161 -648 l64 0 l63 252 q33 61 100 124 q67 64 131 69 q35 0 51 -16 q15 -16 15 -45 q0 -53 -45 -97 q-46 -44 -139 -58 l-46 10 l97 -187 q14 -29 32 -45 q17 -17 48 -17 q26 0 50 10 q23 10 52 32 l0 7 q-15 -2 -27 -3 q-13 -1 -23 -1 q-33 0 -49 12 q-16 12 -28 37 l-66 123 q95 18 152 70 q58 52 59 121 q0 43 -25 69 q-26 26 -79 27 q-69 -2 -131 -50 q-63 -48 -112 -120 l106 425 ZM208 -140 q-2 -33 -31 -55 q-29 -22 -67 -27 l-3 -24 q65 2 103 38 q38 36 39 86 q0 28 -15 46 q-15 18 -42 19 q-23 0 -38 -14 q-14 -13 -15 -36 q0 -16 10 -27 q10 -12 31 -13 q7 0 14 2 q6 1 14 5 l0 0 Z" /><glyph glyph-name="" unicode="&#x13a;" d="M348 959 l-100 -158 l20 0 l186 158 l-106 0 ZM281 749 l-143 0 l0 -6 q25 -14 41 -30 q15 -16 16 -42 q0 -10 -3 -23 l-135 -551 q-2 -10 -4 -20 q-2 -10 -2 -19 q0 -31 17 -49 q16 -19 48 -19 q28 1 55 15 q28 14 51 35 l0 10 q-20 -7 -36 -10 q-16 -3 -28 -3 q-41 0 -41 34 q0 5 1 12 q1 7 3 13 l160 653 Z" /><glyph glyph-name="" unicode="&#x13c;" d="M281 749 l-143 0 l0 -6 q25 -14 41 -30 q15 -16 16 -42 q0 -10 -3 -23 l-135 -551 q-2 -10 -4 -20 q-2 -10 -2 -19 q0 -31 17 -49 q16 -19 48 -19 q28 1 55 15 q28 14 51 35 l0 10 q-20 -7 -36 -10 q-16 -3 -28 -3 q-41 0 -41 34 q0 5 1 12 q1 7 3 13 l160 653 ZM110 -140 q-2 -33 -31 -55 q-29 -22 -67 -27 l-3 -24 q65 2 103 38 q38 36 39 86 q0 28 -15 46 q-15 18 -42 19 q-23 0 -38 -14 q-14 -13 -15 -36 q0 -16 10 -27 q10 -12 31 -13 q7 0 14 2 q6 1 14 5 l0 0 Z" /><glyph glyph-name="" unicode="&#x13e;" d="M502 749 l-81 0 l-77 -205 l15 0 l143 205 ZM281 749 l-143 0 l0 -6 q25 -14 41 -30 q15 -16 16 -42 q0 -10 -3 -23 l-135 -551 q-2 -10 -4 -20 q-2 -10 -2 -19 q0 -31 17 -49 q16 -19 48 -19 q28 1 55 15 q28 14 51 35 l0 10 q-20 -7 -36 -10 q-16 -3 -28 -3 q-41 0 -41 34 q0 5 1 12 q1 7 3 13 l160 653 Z" /><glyph glyph-name="" unicode="&#x144;" d="M434 749 l-114 -188 l19 0 l197 188 l-102 0 ZM100 0 l45 181 q32 119 94 189 q62 70 127 72 q34 0 50 -19 q16 -18 16 -50 q0 -19 -6 -42 l-59 -234 q-2 -10 -4 -20 q-1 -9 -1 -18 q0 -32 17 -50 q16 -19 48 -19 q28 1 55 15 q28 14 51 35 l0 10 q-20 -7 -36 -10 q-16 -3 -28 -3 q-20 0 -31 9 q-10 8 -10 25 q0 5 1 11 q1 7 3 14 l59 238 q4 15 5 28 q2 13 2 25 q0 47 -24 77 q-25 29 -75 30 q-65 -1 -121 -44 q-57 -43 -95 -115 l32 149 l-138 0 l0 -6 q25 -14 41 -30 q15 -16 16 -42 q0 -10 -3 -23 l-95 -383 l64 0 Z" /><glyph glyph-name="" unicode="&#x146;" d="M100 0 l45 181 q32 119 94 189 q62 70 127 72 q34 0 50 -19 q16 -18 16 -50 q0 -19 -6 -42 l-59 -234 q-2 -10 -4 -20 q-1 -9 -1 -18 q0 -32 17 -50 q16 -19 48 -19 q28 1 55 15 q28 14 51 35 l0 10 q-20 -7 -36 -10 q-16 -3 -28 -3 q-20 0 -31 9 q-10 8 -10 25 q0 5 1 11 q1 7 3 14 l59 238 q4 15 5 28 q2 13 2 25 q0 47 -24 77 q-25 29 -75 30 q-65 -1 -121 -44 q-57 -43 -95 -115 l32 149 l-138 0 l0 -6 q25 -14 41 -30 q15 -16 16 -42 q0 -10 -3 -23 l-95 -383 l64 0 ZM210 -140 q-2 -33 -31 -55 q-29 -22 -67 -27 l-3 -24 q65 2 103 38 q38 36 39 86 q0 28 -15 46 q-15 18 -42 19 q-23 0 -38 -14 q-14 -13 -15 -36 q0 -16 10 -27 q10 -12 31 -13 q7 0 14 2 q6 1 14 5 l0 0 Z" /><glyph glyph-name="" unicode="&#x148;" d="M350 552 q35 45 90 102 q56 56 107 95 l-25 0 q-44 -23 -84 -50 q-39 -27 -75 -56 q-19 29 -39 56 q-20 27 -50 50 l-25 0 q29 -39 52 -95 q23 -57 33 -102 l16 0 ZM100 0 l45 181 q32 119 94 189 q62 70 127 72 q34 0 50 -19 q16 -18 16 -50 q0 -19 -6 -42 l-59 -234 q-2 -10 -4 -20 q-1 -9 -1 -18 q0 -32 17 -50 q16 -19 48 -19 q28 1 55 15 q28 14 51 35 l0 10 q-20 -7 -36 -10 q-16 -3 -28 -3 q-20 0 -31 9 q-10 8 -10 25 q0 5 1 11 q1 7 3 14 l59 238 q4 15 5 28 q2 13 2 25 q0 47 -24 77 q-25 29 -75 30 q-65 -1 -121 -44 q-57 -43 -95 -115 l32 149 l-138 0 l0 -6 q25 -14 41 -30 q15 -16 16 -42 q0 -10 -3 -23 l-95 -383 l64 0 Z" /><glyph glyph-name="" unicode="&#x14d;" d="M469 592 l15 47 l-268 0 l-15 -47 l268 0 ZM493 289 q-2 99 -55 152 q-53 52 -136 53 q-119 -5 -188 -94 q-69 -89 -71 -205 q2 -99 55 -152 q53 -52 136 -53 q119 5 188 94 q69 89 71 205 l0 0 ZM115 184 q2 108 54 187 q52 78 133 82 q63 -1 91 -41 q29 -41 28 -112 q-2 -108 -54 -187 q-52 -78 -133 -82 q-63 1 -91 41 q-29 41 -28 112 l0 0 Z" /><glyph glyph-name="" unicode="&#x14f;" d="M269 706 q0 14 3 30 l-25 0 q-8 -31 -8 -57 q1 -53 29 -82 q28 -29 72 -29 q63 1 112 45 q50 44 73 123 l-25 0 q-19 -55 -59 -83 q-40 -27 -85 -27 q-38 0 -62 20 q-24 20 -25 60 l0 0 ZM493 289 q-2 99 -55 152 q-53 52 -136 53 q-119 -5 -188 -94 q-69 -89 -71 -205 q2 -99 55 -152 q53 -52 136 -53 q119 5 188 94 q69 89 71 205 l0 0 ZM115 184 q2 108 54 187 q52 78 133 82 q63 -1 91 -41 q29 -41 28 -112 q-2 -108 -54 -187 q-52 -78 -133 -82 q-63 1 -91 41 q-29 41 -28 112 l0 0 Z" /><glyph glyph-name="" unicode="&#x151;" d="M358 749 l-120 -188 l19 0 l197 188 l-96 0 ZM508 749 l-120 -188 l19 0 l197 188 l-96 0 ZM493 289 q-2 99 -55 152 q-53 52 -136 53 q-119 -5 -188 -94 q-69 -89 -71 -205 q2 -99 55 -152 q53 -52 136 -53 q119 5 188 94 q69 89 71 205 l0 0 ZM115 184 q2 108 54 187 q52 78 133 82 q63 -1 91 -41 q29 -41 28 -112 q-2 -108 -54 -187 q-52 -78 -133 -82 q-63 1 -91 41 q-29 41 -28 112 l0 0 Z" /><glyph glyph-name="" unicode="&#x155;" d="M385 749 l-114 -188 l19 0 l197 188 l-102 0 ZM220 484 l-143 0 l0 -6 q25 -14 41 -30 q15 -16 16 -42 q0 -10 -3 -23 l-95 -383 l64 0 l48 192 q24 88 80 162 q55 73 107 78 q19 0 28 -9 q9 -9 9 -22 q0 -6 -2 -12 q-2 -7 -6 -13 q25 0 46 16 q21 16 22 49 q0 20 -14 36 q-14 16 -47 17 q-64 -3 -111 -57 q-48 -54 -82 -121 l42 168 Z" /><glyph glyph-name="" unicode="&#x157;" d="M220 484 l-143 0 l0 -6 q25 -14 41 -30 q15 -16 16 -42 q0 -10 -3 -23 l-95 -383 l64 0 l48 192 q24 88 80 162 q55 73 107 78 q19 0 28 -9 q9 -9 9 -22 q0 -6 -2 -12 q-2 -7 -6 -13 q25 0 46 16 q21 16 22 49 q0 20 -14 36 q-14 16 -47 17 q-64 -3 -111 -57 q-48 -54 -82 -121 l42 168 ZM61 -140 q-2 -33 -31 -55 q-29 -22 -67 -27 l-3 -24 q65 2 103 38 q38 36 39 86 q0 28 -15 46 q-15 18 -42 19 q-23 0 -38 -14 q-14 -13 -15 -36 q0 -16 10 -27 q10 -12 31 -13 q7 0 14 2 q6 1 14 5 l0 0 Z" /><glyph glyph-name="" unicode="&#x159;" d="M294 552 q35 45 90 102 q56 56 107 95 l-25 0 q-44 -23 -84 -50 q-39 -27 -75 -56 q-19 29 -39 56 q-20 27 -50 50 l-25 0 q29 -39 52 -95 q23 -57 33 -102 l16 0 ZM220 484 l-143 0 l0 -6 q25 -14 41 -30 q15 -16 16 -42 q0 -10 -3 -23 l-95 -383 l64 0 l48 192 q24 88 80 162 q55 73 107 78 q19 0 28 -9 q9 -9 9 -22 q0 -6 -2 -12 q-2 -7 -6 -13 q25 0 46 16 q21 16 22 49 q0 20 -14 36 q-14 16 -47 17 q-64 -3 -111 -57 q-48 -54 -82 -121 l42 168 Z" /><glyph glyph-name="" unicode="&#x15b;" d="M405 749 l-114 -188 l19 0 l197 188 l-102 0 ZM355 381 q0 -14 -4 -25 q-4 -11 -9 -17 q9 -2 20 -2 q24 0 43 13 q18 12 19 40 q-1 45 -42 74 q-42 29 -115 30 q-73 -1 -120 -40 q-46 -38 -48 -99 q1 -45 34 -78 q33 -33 86 -60 q53 -29 75 -54 q21 -25 20 -51 q-1 -41 -35 -63 q-35 -21 -84 -21 q-52 1 -80 27 q-28 26 -28 64 q0 13 4 23 q4 10 10 17 q-12 4 -26 4 q-24 0 -41 -14 q-16 -14 -17 -41 q1 -49 50 -83 q49 -34 128 -35 q78 1 129 40 q51 39 53 104 q1 39 -25 71 q-26 31 -91 68 q-54 31 -77 53 q-24 23 -23 49 q1 37 29 58 q28 22 77 22 q42 0 65 -20 q23 -20 23 -54 l0 0 Z" /><glyph glyph-name="" unicode="&#x15d;" d="M363 749 l-16 0 q-35 -45 -90 -101 q-55 -57 -107 -96 l25 0 q44 23 84 50 q39 27 75 56 q19 -29 39 -56 q20 -27 50 -50 l25 0 q-29 39 -52 96 q-23 56 -33 101 l0 0 ZM355 381 q0 -14 -4 -25 q-4 -11 -9 -17 q9 -2 20 -2 q24 0 43 13 q18 12 19 40 q-1 45 -42 74 q-42 29 -115 30 q-73 -1 -120 -40 q-46 -38 -48 -99 q1 -45 34 -78 q33 -33 86 -60 q53 -29 75 -54 q21 -25 20 -51 q-1 -41 -35 -63 q-35 -21 -84 -21 q-52 1 -80 27 q-28 26 -28 64 q0 13 4 23 q4 10 10 17 q-12 4 -26 4 q-24 0 -41 -14 q-16 -14 -17 -41 q1 -49 50 -83 q49 -34 128 -35 q78 1 129 40 q51 39 53 104 q1 39 -25 71 q-26 31 -91 68 q-54 31 -77 53 q-24 23 -23 49 q1 37 29 58 q28 22 77 22 q42 0 65 -20 q23 -20 23 -54 l0 0 Z" /><glyph glyph-name="" unicode="&#x15f;" d="M107 -221 q47 1 87 26 q39 25 41 67 q0 33 -26 51 q-26 17 -72 19 l35 49 q6 -1 12 -1 q5 0 11 0 q78 1 129 40 q51 39 53 104 q1 39 -25 71 q-26 31 -91 68 q-54 31 -77 53 q-24 23 -23 49 q1 37 29 58 q28 22 77 22 q42 0 65 -20 q23 -20 23 -54 q0 -14 -4 -25 q-4 -11 -9 -17 q9 -2 20 -2 q24 0 43 13 q18 12 19 40 q-1 45 -42 74 q-42 29 -115 30 q-73 -1 -120 -40 q-46 -38 -48 -99 q1 -45 34 -78 q33 -33 86 -60 q53 -29 75 -54 q21 -25 20 -51 q-1 -41 -35 -63 q-35 -21 -84 -21 q-52 1 -80 27 q-28 26 -28 64 q0 13 4 23 q4 10 10 17 q-12 4 -26 4 q-24 0 -41 -14 q-16 -14 -17 -41 q1 -39 34 -69 q33 -31 89 -43 l-55 -77 q41 -1 63 -13 q21 -11 21 -35 q-1 -27 -22 -42 q-20 -16 -44 -16 q-27 0 -45 9 q-18 8 -29 26 l-21 -20 q8 -19 33 -33 q25 -15 66 -16 l0 0 Z" /><glyph glyph-name="" unicode="&#x219;" d="M355 381 q0 -14 -4 -25 q-4 -11 -9 -17 q9 -2 20 -2 q24 0 43 13 q18 12 19 40 q-1 45 -42 74 q-42 29 -115 30 q-73 -1 -120 -40 q-46 -38 -48 -99 q1 -45 34 -78 q33 -33 86 -60 q53 -29 75 -54 q21 -25 20 -51 q-1 -41 -35 -63 q-35 -21 -84 -21 q-52 1 -80 27 q-28 26 -28 64 q0 13 4 23 q4 10 10 17 q-12 4 -26 4 q-24 0 -41 -14 q-16 -14 -17 -41 q1 -49 50 -83 q49 -34 128 -35 q78 1 129 40 q51 39 53 104 q1 39 -25 71 q-26 31 -91 68 q-54 31 -77 53 q-24 23 -23 49 q1 37 29 58 q28 22 77 22 q42 0 65 -20 q23 -20 23 -54 l0 0 ZM161 -140 q-2 -33 -31 -55 q-29 -22 -67 -27 l-3 -24 q65 2 103 38 q38 36 39 86 q0 28 -15 46 q-15 18 -42 19 q-23 0 -38 -14 q-14 -13 -15 -36 q0 -16 10 -27 q10 -12 31 -13 q7 0 14 2 q6 1 14 5 l0 0 Z" /><glyph glyph-name="" unicode="&#x163;" d="M106 -221 q47 1 87 26 q39 25 41 67 q0 33 -26 51 q-26 17 -72 19 l35 49 q30 4 64 20 q34 15 66 38 l0 12 q-64 -19 -105 -19 q-32 0 -48 12 q-16 13 -16 39 q0 12 4 28 l80 325 l138 0 l15 38 l-143 0 l42 164 l-26 0 q-28 -74 -64 -118 q-37 -43 -100 -58 l-7 -26 l80 0 l-81 -329 q-5 -20 -5 -38 q0 -36 19 -58 q19 -23 52 -29 l-52 -73 q41 -1 63 -13 q21 -11 21 -35 q-1 -27 -22 -42 q-20 -16 -44 -16 q-27 0 -45 9 q-18 8 -29 26 l-21 -20 q8 -19 33 -33 q25 -15 66 -16 l0 0 Z" /><glyph glyph-name="" unicode="&#x165;" d="M498 781 l-81 0 l-77 -205 l15 0 l143 205 ZM216 446 l138 0 l15 38 l-143 0 l42 164 l-26 0 q-28 -74 -64 -118 q-37 -43 -100 -58 l-7 -26 l80 0 l-81 -329 q-5 -20 -5 -38 q0 -41 24 -65 q24 -23 66 -24 q33 1 71 17 q38 16 75 42 l0 12 q-64 -19 -105 -19 q-32 0 -48 12 q-16 13 -16 39 q0 12 4 28 l80 325 Z" /><glyph glyph-name="" unicode="&#x21b;" d="M216 446 l138 0 l15 38 l-143 0 l42 164 l-26 0 q-28 -74 -64 -118 q-37 -43 -100 -58 l-7 -26 l80 0 l-81 -329 q-5 -20 -5 -38 q0 -41 24 -65 q24 -23 66 -24 q33 1 71 17 q38 16 75 42 l0 12 q-64 -19 -105 -19 q-32 0 -48 12 q-16 13 -16 39 q0 12 4 28 l80 325 ZM130 -140 q-2 -33 -31 -55 q-29 -22 -67 -27 l-3 -24 q65 2 103 38 q38 36 39 86 q0 28 -15 46 q-15 18 -42 19 q-23 0 -38 -14 q-14 -13 -15 -36 q0 -16 10 -27 q10 -12 31 -13 q7 0 14 2 q6 1 14 5 l0 0 Z" /><glyph glyph-name="" unicode="&#x169;" d="M223 580 q16 31 34 51 q18 20 49 21 q30 -4 62 -34 q32 -30 69 -34 q35 0 64 33 q30 33 54 95 l-24 0 q-16 -31 -34 -51 q-18 -20 -49 -21 q-30 4 -62 34 q-32 30 -69 34 q-35 0 -64 -33 q-30 -33 -54 -95 l24 0 ZM366 97 q-5 -20 -5 -38 q0 -32 17 -50 q16 -19 48 -19 q28 1 55 15 q28 14 51 35 l0 10 q-20 -7 -36 -10 q-16 -3 -28 -3 q-20 0 -31 9 q-11 10 -11 27 q0 5 1 10 q1 6 2 13 l97 388 l-64 0 l-45 -180 q-32 -123 -95 -193 q-63 -71 -128 -72 q-33 0 -48 19 q-16 18 -16 50 q0 21 6 45 l83 331 l-144 0 l0 -6 q25 -14 41 -30 q15 -16 16 -42 q0 -10 -3 -23 l-58 -233 q-7 -29 -7 -53 q0 -47 24 -77 q25 -29 75 -30 q65 1 122 44 q56 43 94 115 l-13 -52 Z" /><glyph glyph-name="" unicode="&#x16b;" d="M497 592 l15 47 l-268 0 l-15 -47 l268 0 ZM366 97 q-5 -20 -5 -38 q0 -32 17 -50 q16 -19 48 -19 q28 1 55 15 q28 14 51 35 l0 10 q-20 -7 -36 -10 q-16 -3 -28 -3 q-20 0 -31 9 q-11 10 -11 27 q0 5 1 10 q1 6 2 13 l97 388 l-64 0 l-45 -180 q-32 -123 -95 -193 q-63 -71 -128 -72 q-33 0 -48 19 q-16 18 -16 50 q0 21 6 45 l83 331 l-144 0 l0 -6 q25 -14 41 -30 q15 -16 16 -42 q0 -10 -3 -23 l-58 -233 q-7 -29 -7 -53 q0 -47 24 -77 q25 -29 75 -30 q65 1 122 44 q56 43 94 115 l-13 -52 Z" /><glyph glyph-name="" unicode="&#x16d;" d="M278 706 q0 14 3 30 l-25 0 q-8 -31 -8 -57 q1 -53 29 -82 q28 -29 72 -29 q63 1 112 45 q50 44 73 123 l-25 0 q-19 -55 -59 -83 q-40 -27 -85 -27 q-38 0 -62 20 q-24 20 -25 60 l0 0 ZM366 97 q-5 -20 -5 -38 q0 -32 17 -50 q16 -19 48 -19 q28 1 55 15 q28 14 51 35 l0 10 q-20 -7 -36 -10 q-16 -3 -28 -3 q-20 0 -31 9 q-11 10 -11 27 q0 5 1 10 q1 6 2 13 l97 388 l-64 0 l-45 -180 q-32 -123 -95 -193 q-63 -71 -128 -72 q-33 0 -48 19 q-16 18 -16 50 q0 21 6 45 l83 331 l-144 0 l0 -6 q25 -14 41 -30 q15 -16 16 -42 q0 -10 -3 -23 l-58 -233 q-7 -29 -7 -53 q0 -47 24 -77 q25 -29 75 -30 q65 1 122 44 q56 43 94 115 l-13 -52 Z" /><glyph glyph-name="" unicode="&#x16f;" d="M275 648 q1 -40 27 -65 q25 -26 66 -27 q47 1 82 32 q35 31 37 83 q-1 40 -27 66 q-25 25 -66 26 q-47 -1 -82 -32 q-35 -31 -37 -83 l0 0 ZM445 667 q-1 -31 -20 -52 q-20 -20 -52 -21 q-27 0 -42 16 q-15 16 -14 42 q1 31 20 52 q20 20 52 21 q27 0 42 -16 q15 -16 14 -42 l0 0 ZM366 97 q-5 -20 -5 -38 q0 -32 17 -50 q16 -19 48 -19 q28 1 55 15 q28 14 51 35 l0 10 q-20 -7 -36 -10 q-16 -3 -28 -3 q-20 0 -31 9 q-11 10 -11 27 q0 5 1 10 q1 6 2 13 l97 388 l-64 0 l-45 -180 q-32 -123 -95 -193 q-63 -71 -128 -72 q-33 0 -48 19 q-16 18 -16 50 q0 21 6 45 l83 331 l-144 0 l0 -6 q25 -14 41 -30 q15 -16 16 -42 q0 -10 -3 -23 l-58 -233 q-7 -29 -7 -53 q0 -47 24 -77 q25 -29 75 -30 q65 1 122 44 q56 43 94 115 l-13 -52 Z" /><glyph glyph-name="" unicode="&#x171;" d="M355 749 l-120 -188 l19 0 l197 188 l-96 0 ZM505 749 l-120 -188 l19 0 l197 188 l-96 0 ZM366 97 q-5 -20 -5 -38 q0 -32 17 -50 q16 -19 48 -19 q28 1 55 15 q28 14 51 35 l0 10 q-20 -7 -36 -10 q-16 -3 -28 -3 q-20 0 -31 9 q-11 10 -11 27 q0 5 1 10 q1 6 2 13 l97 388 l-64 0 l-45 -180 q-32 -123 -95 -193 q-63 -71 -128 -72 q-33 0 -48 19 q-16 18 -16 50 q0 21 6 45 l83 331 l-144 0 l0 -6 q25 -14 41 -30 q15 -16 16 -42 q0 -10 -3 -23 l-58 -233 q-7 -29 -7 -53 q0 -47 24 -77 q25 -29 75 -30 q65 1 122 44 q56 43 94 115 l-13 -52 Z" /><glyph glyph-name="" unicode="&#x173;" d="M468 37 q-20 0 -31 9 q-11 10 -11 27 q0 5 1 10 q1 6 2 13 l97 388 l-64 0 l-45 -180 q-32 -123 -95 -193 q-63 -71 -128 -72 q-33 0 -48 19 q-16 18 -16 50 q0 21 6 45 l83 331 l-144 0 l0 -6 q25 -14 41 -30 q15 -16 16 -42 q0 -10 -3 -23 l-58 -233 q-7 -29 -7 -53 q0 -47 24 -77 q25 -29 75 -30 q65 1 122 44 q56 43 94 115 l-13 -52 q-5 -20 -5 -38 q1 -32 17 -49 q17 -17 38 -19 q-64 -33 -108 -73 q-44 -40 -46 -91 q1 -29 20 -46 q18 -16 49 -16 q50 1 92 27 q41 25 66 59 l-10 12 q-26 -24 -55 -39 q-28 -16 -56 -16 q-18 0 -30 9 q-12 8 -12 27 q5 64 71 107 q66 43 135 89 l0 10 q-20 -7 -36 -10 q-16 -3 -28 -3 l0 0 Z" /><glyph glyph-name="" unicode="&#x175;" d="M520 749 l-16 0 q-35 -45 -90 -101 q-55 -57 -107 -96 l25 0 q44 23 84 50 q39 27 75 56 q19 -29 39 -56 q20 -27 50 -50 l25 0 q-29 39 -52 96 q-23 56 -33 101 l0 0 ZM362 219 q-17 -71 -58 -126 q-41 -55 -103 -58 q-38 0 -57 22 q-19 22 -19 64 q0 33 11 76 l72 287 l-143 0 l0 -6 q25 -14 41 -30 q15 -16 16 -42 q0 -10 -3 -23 l-46 -187 q-5 -21 -8 -41 q-3 -20 -3 -37 q0 -59 29 -93 q29 -34 89 -35 q55 1 100 35 q45 33 71 94 q0 -61 30 -94 q29 -34 84 -35 q124 8 199 129 q76 122 78 260 q0 49 -21 82 q-21 32 -67 33 q-25 0 -47 -17 q-21 -17 -30 -56 q13 6 24 9 q11 2 24 2 q34 0 49 -20 q15 -20 15 -57 q-1 -109 -57 -211 q-55 -102 -148 -109 q-37 0 -56 23 q-18 23 -18 66 q0 17 3 37 q2 20 8 42 l70 281 l-143 0 l0 -6 q25 -14 41 -30 q16 -16 16 -42 q0 -11 -3 -23 l-40 -164 Z" /><glyph glyph-name="" unicode="&#x1e81;" d="M366 749 l96 -188 l16 0 l-19 188 l-93 0 ZM362 219 q-17 -71 -58 -126 q-41 -55 -103 -58 q-38 0 -57 22 q-19 22 -19 64 q0 33 11 76 l72 287 l-143 0 l0 -6 q25 -14 41 -30 q15 -16 16 -42 q0 -10 -3 -23 l-46 -187 q-5 -21 -8 -41 q-3 -20 -3 -37 q0 -59 29 -93 q29 -34 89 -35 q55 1 100 35 q45 33 71 94 q0 -61 30 -94 q29 -34 84 -35 q124 8 199 129 q76 122 78 260 q0 49 -21 82 q-21 32 -67 33 q-25 0 -47 -17 q-21 -17 -30 -56 q13 6 24 9 q11 2 24 2 q34 0 49 -20 q15 -20 15 -57 q-1 -109 -57 -211 q-55 -102 -148 -109 q-37 0 -56 23 q-18 23 -18 66 q0 17 3 37 q2 20 8 42 l70 281 l-143 0 l0 -6 q25 -14 41 -30 q16 -16 16 -42 q0 -11 -3 -23 l-40 -164 Z" /><glyph glyph-name="" unicode="&#x1e83;" d="M562 749 l-114 -188 l19 0 l197 188 l-102 0 ZM362 219 q-17 -71 -58 -126 q-41 -55 -103 -58 q-38 0 -57 22 q-19 22 -19 64 q0 33 11 76 l72 287 l-143 0 l0 -6 q25 -14 41 -30 q15 -16 16 -42 q0 -10 -3 -23 l-46 -187 q-5 -21 -8 -41 q-3 -20 -3 -37 q0 -59 29 -93 q29 -34 89 -35 q55 1 100 35 q45 33 71 94 q0 -61 30 -94 q29 -34 84 -35 q124 8 199 129 q76 122 78 260 q0 49 -21 82 q-21 32 -67 33 q-25 0 -47 -17 q-21 -17 -30 -56 q13 6 24 9 q11 2 24 2 q34 0 49 -20 q15 -20 15 -57 q-1 -109 -57 -211 q-55 -102 -148 -109 q-37 0 -56 23 q-18 23 -18 66 q0 17 3 37 q2 20 8 42 l70 281 l-143 0 l0 -6 q25 -14 41 -30 q16 -16 16 -42 q0 -11 -3 -23 l-40 -164 Z" /><glyph glyph-name="" unicode="&#x1e85;" d="M400 586 q22 1 37 16 q15 15 16 37 q-1 22 -16 37 q-15 15 -37 16 q-23 -1 -38 -16 q-14 -15 -15 -37 q1 -22 15 -37 q15 -15 38 -16 l0 0 ZM570 586 q23 1 38 16 q15 15 15 37 q0 22 -15 37 q-15 15 -38 16 q-22 -1 -37 -16 q-15 -15 -16 -37 q1 -22 16 -37 q15 -15 37 -16 l0 0 ZM362 219 q-17 -71 -58 -126 q-41 -55 -103 -58 q-38 0 -57 22 q-19 22 -19 64 q0 33 11 76 l72 287 l-143 0 l0 -6 q25 -14 41 -30 q15 -16 16 -42 q0 -10 -3 -23 l-46 -187 q-5 -21 -8 -41 q-3 -20 -3 -37 q0 -59 29 -93 q29 -34 89 -35 q55 1 100 35 q45 33 71 94 q0 -61 30 -94 q29 -34 84 -35 q124 8 199 129 q76 122 78 260 q0 49 -21 82 q-21 32 -67 33 q-25 0 -47 -17 q-21 -17 -30 -56 q13 6 24 9 q11 2 24 2 q34 0 49 -20 q15 -20 15 -57 q-1 -109 -57 -211 q-55 -102 -148 -109 q-37 0 -56 23 q-18 23 -18 66 q0 17 3 37 q2 20 8 42 l70 281 l-143 0 l0 -6 q25 -14 41 -30 q16 -16 16 -42 q0 -11 -3 -23 l-40 -164 Z" /><glyph glyph-name="" unicode="&#x177;" d="M412 749 l-16 0 q-35 -45 -90 -101 q-55 -57 -107 -96 l25 0 q44 23 84 50 q39 27 75 56 q19 -29 39 -56 q20 -27 50 -50 l25 0 q-29 39 -52 96 q-23 56 -33 101 l0 0 ZM354 48 q-25 -107 -73 -172 q-49 -64 -136 -66 q-45 0 -68 22 q-23 21 -23 57 q0 18 6 30 q5 12 12 19 q-12 4 -24 4 q-26 0 -44 -16 q-19 -16 -20 -46 q1 -50 45 -77 q43 -28 116 -28 q111 2 176 74 q66 72 95 194 l110 441 l-64 0 l-45 -180 q-32 -123 -95 -193 q-63 -71 -128 -72 q-33 0 -48 19 q-16 18 -16 50 q0 21 6 45 l83 331 l-144 0 l0 -6 q25 -14 41 -30 q15 -16 16 -42 q0 -10 -3 -23 l-58 -233 q-7 -29 -7 -53 q0 -47 24 -77 q25 -29 75 -30 q65 1 122 44 q56 43 94 115 l-25 -101 Z" /><glyph glyph-name="" unicode="&#x1ef3;" d="M258 749 l96 -188 l16 0 l-19 188 l-93 0 ZM354 48 q-25 -107 -73 -172 q-49 -64 -136 -66 q-45 0 -68 22 q-23 21 -23 57 q0 18 6 30 q5 12 12 19 q-12 4 -24 4 q-26 0 -44 -16 q-19 -16 -20 -46 q1 -50 45 -77 q43 -28 116 -28 q111 2 176 74 q66 72 95 194 l110 441 l-64 0 l-45 -180 q-32 -123 -95 -193 q-63 -71 -128 -72 q-33 0 -48 19 q-16 18 -16 50 q0 21 6 45 l83 331 l-144 0 l0 -6 q25 -14 41 -30 q15 -16 16 -42 q0 -10 -3 -23 l-58 -233 q-7 -29 -7 -53 q0 -47 24 -77 q25 -29 75 -30 q65 1 122 44 q56 43 94 115 l-25 -101 Z" /><glyph glyph-name="" unicode="&#x17a;" d="M443 749 l-114 -188 l19 0 l197 188 l-102 0 ZM407 426 l-441 -426 l65 0 q25 34 42 47 q17 12 34 11 q33 -4 93 -34 q60 -30 125 -34 q42 0 76 33 q34 32 64 94 l-13 0 q-29 -32 -55 -45 q-26 -13 -51 -12 q-41 0 -83 12 q-41 12 -128 39 l382 369 l0 4 l-288 0 q-27 0 -44 2 q-17 2 -27 8 l-68 -163 l11 -1 q47 62 73 80 q25 18 63 16 l170 0 Z" /><glyph glyph-name="" unicode="&#x17c;" d="M371 603 q23 1 38 16 q15 15 16 38 q-1 23 -16 38 q-15 15 -38 16 q-23 -1 -38 -16 q-15 -15 -16 -38 q1 -23 16 -38 q15 -15 38 -16 l0 0 ZM407 426 l-441 -426 l65 0 q25 34 42 47 q17 12 34 11 q33 -4 93 -34 q60 -30 125 -34 q42 0 76 33 q34 32 64 94 l-13 0 q-29 -32 -55 -45 q-26 -13 -51 -12 q-41 0 -83 12 q-41 12 -128 39 l382 369 l0 4 l-288 0 q-27 0 -44 2 q-17 2 -27 8 l-68 -163 l11 -1 q47 62 73 80 q25 18 63 16 l170 0 Z" /><glyph glyph-name="" unicode="&#x1fd;" d="M564 749 l-114 -188 l19 0 l197 188 l-102 0 ZM534 -10 q69 1 121 36 q53 35 81 96 l-17 9 q-36 -49 -77 -73 q-40 -23 -86 -23 q-62 1 -95 38 q-34 38 -34 107 q0 23 3 44 q166 8 253 46 q86 38 87 115 q-1 51 -38 80 q-37 29 -104 29 q-56 -1 -103 -25 q-48 -24 -84 -65 q-15 46 -51 68 q-36 22 -86 22 q-114 -4 -187 -98 q-73 -95 -76 -225 q1 -83 43 -132 q41 -48 112 -49 q51 1 95 31 q43 31 75 84 q17 -54 60 -84 q42 -31 108 -31 l0 0 ZM628 455 q33 0 51 -16 q19 -17 19 -47 q-3 -80 -76 -106 q-74 -25 -186 -28 q17 81 66 138 q49 56 126 59 l0 0 ZM212 35 q-46 1 -72 37 q-27 37 -27 99 q1 118 55 198 q53 80 144 83 q45 0 70 -22 q25 -21 34 -59 q-29 -42 -45 -91 q-16 -49 -16 -100 q0 -23 3 -44 q-34 -48 -70 -74 q-37 -27 -76 -27 l0 0 Z" /><glyph glyph-name="" unicode="&#x1ff;" d="M438 749 l-114 -188 l19 0 l197 188 l-102 0 ZM120 184 q2 108 54 187 q52 78 133 82 q60 0 88 -38 l-263 -312 q-7 17 -9 37 q-3 21 -3 44 l0 0 ZM239 31 q-31 0 -54 10 q-22 10 -36 30 l264 313 q7 -17 10 -39 q3 -21 3 -45 q-2 -108 -54 -187 q-52 -78 -133 -82 l0 0 ZM239 -10 q119 5 188 94 q69 89 71 205 q0 44 -12 80 q-12 35 -33 61 l57 68 l-28 20 l-54 -64 q-25 20 -55 30 q-31 10 -66 10 q-119 -5 -188 -94 q-69 -89 -71 -205 q0 -44 12 -78 q11 -35 32 -61 l-69 -82 l27 -20 l66 78 q25 -21 56 -31 q31 -11 67 -11 l0 0 Z" /><glyph glyph-name="" unicode="&#x111;" d="M436 -10 q28 1 55 15 q28 14 51 35 l0 10 q-20 -7 -36 -10 q-16 -3 -28 -3 q-40 0 -40 34 q0 5 1 11 q1 7 3 14 l115 470 l73 0 l9 34 l-74 0 l37 149 l-143 0 l0 -6 q25 -14 41 -30 q16 -16 16 -42 q0 -11 -3 -23 l-12 -48 l-142 0 l-9 -34 l143 0 l-41 -171 q-8 38 -44 68 q-35 29 -97 31 q-117 -4 -192 -98 q-75 -95 -78 -225 q1 -84 44 -132 q42 -48 115 -49 q64 2 110 39 q45 36 73 89 q-12 -33 -12 -59 q0 -32 17 -50 q16 -19 48 -19 l0 0 ZM412 232 q-21 -83 -76 -139 q-55 -56 -119 -58 q-52 1 -78 37 q-26 36 -26 99 q1 106 54 191 q53 86 149 91 q46 0 79 -30 q33 -30 34 -91 q0 -24 -6 -53 l-11 -47 Z" /><glyph glyph-name="" unicode="&#x127;" d="M543 40 l0 10 q-20 -7 -36 -10 q-16 -3 -28 -3 q-20 0 -31 9 q-10 8 -10 25 q0 5 1 11 q1 7 3 14 l59 238 q7 29 7 53 q0 47 -24 77 q-25 29 -75 30 q-65 -1 -121 -44 q-57 -43 -95 -115 l57 231 l143 0 l9 34 l-143 0 l37 149 l-143 0 l0 -6 q25 -14 41 -30 q15 -16 16 -42 q0 -10 -3 -23 l-12 -48 l-73 0 l-9 -34 l73 0 l-140 -566 l64 0 l45 181 q32 119 94 189 q62 70 127 72 q34 0 50 -19 q16 -18 16 -50 q0 -19 -6 -42 l-59 -234 q-2 -10 -4 -20 q-1 -9 -1 -18 q0 -32 17 -50 q16 -19 48 -19 q28 1 55 15 q28 14 51 35 l0 0 Z" /><glyph glyph-name="" unicode="&#x138;" d="M220 484 l-143 0 l0 -6 q25 -14 41 -30 q15 -16 16 -42 q0 -10 -3 -23 l-95 -383 l64 0 l63 252 q33 61 100 124 q67 64 131 69 q35 0 51 -16 q15 -16 15 -45 q0 -53 -45 -97 q-46 -44 -139 -58 l-46 10 l97 -187 q14 -29 32 -45 q17 -17 48 -17 q26 0 50 10 q23 10 52 32 l0 7 q-15 -2 -27 -3 q-13 -1 -23 -1 q-33 0 -49 12 q-16 12 -28 37 l-66 123 q95 18 152 70 q58 52 59 121 q0 43 -25 69 q-26 26 -79 27 q-69 -2 -131 -50 q-63 -48 -112 -120 l40 160 Z" /><glyph glyph-name="" unicode="&#x140;" d="M281 749 l-143 0 l0 -6 q25 -14 41 -30 q15 -16 16 -42 q0 -10 -3 -23 l-135 -551 q-2 -10 -4 -20 q-2 -10 -2 -19 q0 -31 17 -49 q16 -19 48 -19 q28 1 55 15 q28 14 51 35 l0 10 q-20 -7 -36 -10 q-16 -3 -28 -3 q-41 0 -41 34 q0 5 1 12 q1 7 3 13 l160 653 ZM355 309 q23 1 38 16 q15 15 16 38 q-1 23 -16 38 q-15 15 -38 16 q-23 -1 -38 -16 q-15 -15 -16 -38 q1 -23 16 -38 q15 -15 38 -16 l0 0 Z" /><glyph glyph-name="" unicode="&#x14b;" d="M491 334 q7 29 7 53 q0 47 -24 77 q-25 29 -75 30 q-65 -1 -121 -44 q-57 -43 -95 -115 l32 149 l-138 0 l0 -6 q25 -14 41 -30 q15 -16 16 -42 q0 -10 -3 -23 l-95 -383 l64 0 l45 181 q32 119 94 189 q62 70 127 72 q34 0 50 -19 q16 -18 16 -50 q0 -19 -6 -42 l-97 -386 q-14 -64 -32 -101 q-18 -37 -58 -38 q-23 0 -34 13 q-10 13 -10 32 q0 17 4 29 q4 12 12 22 q-4 2 -10 2 q-5 1 -10 1 q-25 0 -44 -13 q-19 -13 -20 -44 q1 -33 29 -53 q28 -19 75 -20 q73 1 108 52 q36 52 57 141 l95 366 Z" /><glyph glyph-name="" unicode="&#x167;" d="M310 49 l0 12 q-64 -19 -105 -19 q-32 0 -48 12 q-16 13 -16 39 q0 12 4 28 l39 157 l141 0 l9 34 l-142 0 l33 134 l138 0 l15 38 l-143 0 l42 164 l-26 0 q-28 -74 -64 -118 q-37 -43 -100 -58 l-7 -26 l80 0 l-33 -134 l-73 0 l-9 -34 l74 0 l-40 -161 q-5 -20 -5 -38 q0 -41 24 -65 q24 -23 66 -24 q33 1 71 17 q38 16 75 42 l0 0 Z" /><glyph glyph-name="" unicode="&#x2bb;" d="M332 651 q2 33 31 55 q29 22 67 27 l3 24 q-65 -2 -103 -38 q-38 -36 -39 -86 q0 -28 15 -46 q15 -18 42 -19 q23 0 38 14 q15 13 15 36 q0 16 -10 28 q-10 11 -31 12 q-7 0 -14 -2 q-6 -1 -14 -5 l0 0 Z" /><glyph glyph-name="" unicode="&#x2117;" d="M458 710 q-161 -3 -271 -109 q-110 -107 -115 -282 q3 -147 97 -237 q94 -90 239 -92 q161 3 271 109 q110 107 115 282 q-3 147 -97 237 q-94 90 -239 92 l0 0 ZM458 681 q131 -2 217 -84 q86 -82 89 -216 q-4 -157 -105 -258 q-101 -101 -251 -104 q-131 2 -217 84 q-86 82 -89 216 q4 157 105 258 q101 101 251 104 l0 0 ZM362 320 l84 0 q77 0 131 34 q55 35 57 109 q-1 47 -35 70 q-35 24 -95 24 l-180 0 l0 -10 q18 -8 26 -19 q7 -10 1 -37 l-68 -273 q-7 -27 -18 -39 q-10 -11 -33 -21 l0 -10 l140 0 l0 10 q-24 10 -34 21 q-9 12 -2 39 l26 102 ZM369 346 l46 185 l74 0 q45 0 67 -16 q21 -17 21 -51 q-1 -61 -37 -89 q-36 -29 -95 -29 l-76 0 Z" /><glyph glyph-name="" unicode="&#x2009;" d="" /><glyph glyph-name="" unicode="&#x237;" d="M28 -55 q-14 -64 -32 -101 q-18 -37 -58 -38 q-23 0 -34 13 q-10 13 -10 32 q0 17 4 29 q4 12 12 22 q-4 2 -10 2 q-5 1 -10 1 q-25 0 -44 -13 q-19 -13 -20 -44 q1 -33 29 -53 q28 -19 75 -20 q73 1 110 52 q37 52 57 141 l129 516 l-143 0 l0 -6 q25 -14 41 -30 q15 -16 16 -42 q0 -10 -3 -23 l-109 -438 Z" /><glyph glyph-name="" unicode="&#x2070;" d="M237 296 q92 4 149 80 q56 77 58 185 q0 64 -35 104 q-34 40 -97 41 q-92 -4 -149 -80 q-56 -77 -58 -184 q0 -64 35 -104 q34 -41 97 -42 l0 0 ZM236 326 q-32 0 -48 22 q-16 21 -16 67 q1 83 37 169 q37 85 103 92 q33 0 49 -21 q16 -22 16 -68 q-1 -83 -37 -169 q-37 -85 -104 -92 l0 0 Z" /><glyph glyph-name="" unicode="&#x2074;" d="M278 435 l-149 0 l201 210 l-52 -210 ZM357 411 q26 0 34 -6 q8 -7 14 -25 l7 0 l21 85 l-7 0 q-15 -18 -26 -24 q-11 -6 -37 -6 l-25 0 l66 265 l-52 0 l-279 -287 l1 -2 l198 0 l-11 -43 q-7 -27 -16 -38 q-10 -10 -31 -21 l-2 -7 l124 0 l2 7 q-11 8 -16 14 q-6 7 -6 17 q0 10 5 28 l11 43 l25 0 Z" /><glyph glyph-name="" unicode="&#x2075;" d="M205 324 q-29 0 -46 14 q-16 14 -16 38 q0 20 7 36 q7 16 23 28 q-5 2 -12 4 q-7 2 -16 2 q-28 0 -46 -18 q-18 -19 -19 -49 q1 -37 35 -60 q34 -22 90 -23 q72 1 121 45 q48 43 50 111 q-1 51 -34 78 q-32 28 -79 28 q-27 0 -49 -7 q-21 -7 -37 -17 l38 110 q17 -6 45 -11 q27 -5 57 -5 q48 0 72 23 q24 23 31 65 l-2 0 q-21 -16 -41 -21 q-21 -4 -51 -4 q-26 0 -58 3 q-32 2 -62 7 l-69 -212 l3 0 q17 15 43 25 q26 10 53 10 q33 0 52 -18 q18 -19 18 -54 q0 -50 -26 -88 q-27 -38 -75 -40 l0 0 Z" /><glyph glyph-name="" unicode="&#x2076;" d="M324 679 q24 0 37 -9 q12 -10 12 -28 q0 -16 -8 -29 q-8 -14 -21 -21 q5 -4 12 -7 q8 -3 18 -3 q23 1 36 16 q14 15 14 38 q0 31 -27 50 q-26 19 -74 20 q-95 -4 -157 -83 q-62 -79 -64 -184 q0 -63 32 -102 q32 -39 94 -40 q70 2 114 45 q45 43 46 104 q-1 50 -32 79 q-31 28 -80 29 q-34 0 -64 -16 q-30 -15 -46 -44 q18 82 61 133 q43 51 97 52 l0 0 ZM225 324 q-28 0 -44 18 q-17 17 -17 47 q1 49 27 91 q26 41 71 44 q31 0 46 -17 q15 -16 15 -48 q0 -50 -26 -91 q-26 -42 -72 -44 l0 0 Z" /><glyph glyph-name="" unicode="&#x2077;" d="M120 590 l13 0 q19 30 38 42 q20 12 51 12 l126 0 l-25 -28 q-68 -72 -117 -148 q-49 -76 -85 -172 l72 11 q22 86 61 164 q39 77 99 145 l73 82 l1 2 l-279 0 l-28 -110 Z" /><glyph glyph-name="" unicode="&#x2078;" d="M308 517 q41 6 72 33 q32 27 33 69 q-1 41 -34 64 q-33 23 -82 23 q-56 -1 -98 -32 q-42 -32 -43 -87 q1 -30 16 -49 q15 -19 37 -32 q-46 -7 -84 -34 q-37 -27 -39 -73 q2 -52 44 -78 q42 -25 100 -25 q57 0 106 32 q49 32 52 94 q0 32 -20 54 q-20 21 -60 41 l0 0 ZM297 677 q32 0 48 -15 q17 -15 17 -41 q0 -32 -20 -59 q-20 -27 -47 -39 l-32 17 q-21 11 -34 27 q-14 17 -15 39 q1 35 25 53 q25 18 58 18 l0 0 ZM274 471 q24 -12 39 -30 q14 -17 14 -39 q-2 -40 -32 -58 q-29 -18 -65 -18 q-40 0 -63 18 q-24 18 -24 54 q1 37 24 64 q22 27 53 37 l54 -28 Z" /><glyph glyph-name="" unicode="&#x2079;" d="M288 679 q28 0 44 -17 q17 -18 17 -48 q-1 -49 -27 -91 q-26 -41 -71 -44 q-31 0 -46 17 q-15 16 -15 48 q1 50 27 92 q26 41 71 43 l0 0 ZM189 324 q-24 0 -36 10 q-13 9 -13 27 q0 16 8 30 q8 13 21 20 q-5 4 -12 7 q-8 3 -18 3 q-23 -1 -36 -16 q-14 -15 -14 -38 q0 -31 27 -50 q26 -19 74 -20 q95 4 157 83 q62 79 64 184 q0 63 -32 102 q-32 39 -94 40 q-70 -2 -114 -45 q-45 -43 -46 -104 q1 -50 32 -79 q31 -28 80 -29 q34 0 64 16 q30 15 46 44 q-18 -82 -61 -133 q-43 -51 -97 -52 l0 0 Z" /><glyph glyph-name="" unicode="&#x2080;" d="M137 -106 q92 4 149 80 q56 77 58 185 q0 64 -35 104 q-34 40 -97 41 q-92 -4 -149 -80 q-56 -77 -58 -184 q0 -64 35 -104 q34 -41 97 -42 l0 0 ZM136 -76 q-32 0 -48 22 q-16 21 -16 67 q1 83 37 169 q37 85 103 92 q33 0 49 -21 q16 -22 16 -68 q-1 -83 -37 -169 q-37 -85 -104 -92 l0 0 Z" /><glyph glyph-name="" unicode="&#x2081;" d="M144 -100 l3 11 q-31 11 -47 19 q-17 8 -12 28 l85 340 l-135 0 l-3 -10 q34 -14 50 -22 q17 -9 11 -29 l-69 -279 q-5 -20 -25 -28 q-21 -8 -58 -19 l-3 -11 l203 0 Z" /><glyph glyph-name="" unicode="&#x2082;" d="M287 210 q-1 43 -32 68 q-32 25 -87 26 q-53 -1 -94 -30 q-41 -29 -43 -75 q0 -21 12 -33 q12 -12 33 -12 q6 0 13 1 q7 2 11 4 q-5 5 -9 15 q-4 9 -4 23 q0 32 21 55 q20 23 60 24 q28 -1 41 -17 q14 -16 14 -38 q-1 -53 -49 -107 q-49 -54 -133 -124 l-103 -87 l0 -3 l281 0 l38 105 l-11 0 q-28 -35 -48 -44 q-21 -9 -61 -8 l-108 -1 q126 83 192 139 q66 55 66 119 l0 0 Z" /><glyph glyph-name="" unicode="&#x2083;" d="M109 -106 q64 0 115 33 q50 33 53 98 q-1 38 -28 61 q-28 23 -65 27 l0 2 q50 3 85 29 q34 26 36 74 q-1 40 -33 63 q-32 23 -88 23 q-51 0 -91 -24 q-41 -24 -43 -72 q0 -20 11 -31 q11 -12 31 -12 q6 0 14 1 q7 2 12 4 q-5 6 -9 15 q-4 8 -4 20 q0 33 21 52 q21 18 58 18 q27 0 42 -12 q15 -13 15 -37 q-1 -51 -33 -76 q-31 -26 -77 -27 l-3 -15 q39 -2 60 -20 q20 -18 20 -51 q-1 -53 -28 -84 q-27 -30 -71 -31 q-30 0 -48 15 q-18 14 -18 40 q0 42 31 64 q-9 7 -27 7 q-28 0 -47 -17 q-18 -18 -19 -48 q2 -40 39 -64 q36 -24 89 -25 l0 0 Z" /><glyph glyph-name="" unicode="&#x2084;" d="M178 33 l-149 0 l201 210 l-52 -210 ZM257 9 q26 0 34 -6 q8 -7 14 -25 l7 0 l21 85 l-7 0 q-15 -18 -26 -24 q-11 -6 -37 -6 l-25 0 l66 265 l-52 0 l-279 -287 l1 -2 l198 0 l-11 -43 q-7 -27 -16 -38 q-10 -10 -31 -21 l-2 -7 l124 0 l2 7 q-11 8 -16 14 q-6 7 -6 17 q0 10 5 28 l11 43 l25 0 Z" /><glyph glyph-name="" unicode="&#x2085;" d="M105 -78 q-29 0 -46 14 q-16 14 -16 38 q0 20 7 36 q7 16 23 28 q-5 2 -12 4 q-7 2 -16 2 q-28 0 -46 -18 q-18 -19 -19 -49 q1 -37 35 -60 q34 -22 90 -23 q72 1 121 45 q48 43 50 111 q-1 51 -34 78 q-32 28 -79 28 q-27 0 -49 -7 q-21 -7 -37 -17 l38 110 q17 -6 45 -11 q27 -5 57 -5 q48 0 72 23 q24 23 31 65 l-2 0 q-21 -16 -41 -21 q-21 -4 -51 -4 q-26 0 -58 3 q-32 2 -62 7 l-69 -212 l3 0 q17 15 43 25 q26 10 53 10 q33 0 52 -18 q18 -19 18 -54 q0 -50 -26 -88 q-27 -38 -75 -40 l0 0 Z" /><glyph glyph-name="" unicode="&#x2086;" d="M224 277 q24 0 37 -9 q12 -10 12 -28 q0 -16 -8 -29 q-8 -14 -21 -21 q5 -4 12 -7 q8 -3 18 -3 q23 1 36 16 q14 15 14 38 q0 31 -27 50 q-26 19 -74 20 q-95 -4 -157 -83 q-62 -79 -64 -184 q0 -63 32 -102 q32 -39 94 -40 q70 2 114 45 q45 43 46 104 q-1 50 -32 79 q-31 28 -80 29 q-34 0 -64 -16 q-30 -15 -46 -44 q18 82 61 133 q43 51 97 52 l0 0 ZM125 -78 q-28 0 -44 18 q-17 17 -17 47 q1 49 27 91 q26 41 71 44 q31 0 46 -17 q15 -16 15 -48 q0 -50 -26 -91 q-26 -42 -72 -44 l0 0 Z" /><glyph glyph-name="" unicode="&#x2087;" d="M20 188 l13 0 q19 30 38 42 q20 12 51 12 l126 0 l-25 -28 q-68 -72 -117 -148 q-49 -76 -85 -172 l72 11 q22 86 61 164 q39 77 99 145 l73 82 l1 2 l-279 0 l-28 -110 Z" /><glyph glyph-name="" unicode="&#x2088;" d="M208 115 q41 6 72 33 q32 27 33 69 q-1 41 -34 64 q-33 23 -82 23 q-56 -1 -98 -32 q-42 -32 -43 -87 q1 -30 16 -49 q15 -19 37 -32 q-46 -7 -84 -34 q-37 -27 -39 -73 q2 -52 44 -78 q42 -25 100 -25 q57 0 106 32 q49 32 52 94 q0 32 -20 54 q-20 21 -60 41 l0 0 ZM197 275 q32 0 48 -15 q17 -15 17 -41 q0 -32 -20 -59 q-20 -27 -47 -39 l-32 17 q-21 11 -34 27 q-14 17 -15 39 q1 35 25 53 q25 18 58 18 l0 0 ZM174 69 q24 -12 39 -30 q14 -17 14 -39 q-2 -40 -32 -58 q-29 -18 -65 -18 q-40 0 -63 18 q-24 18 -24 54 q1 37 24 64 q22 27 53 37 l54 -28 Z" /><glyph glyph-name="" unicode="&#x2089;" d="M188 277 q28 0 44 -17 q17 -18 17 -48 q-1 -49 -27 -91 q-26 -41 -71 -44 q-31 0 -46 17 q-15 16 -15 48 q1 50 27 92 q26 41 71 43 l0 0 ZM89 -78 q-24 0 -36 10 q-13 9 -13 27 q0 16 8 30 q8 13 21 20 q-5 4 -12 7 q-8 3 -18 3 q-23 -1 -36 -16 q-14 -15 -14 -38 q0 -31 27 -50 q26 -19 74 -20 q95 4 157 83 q62 79 64 184 q0 63 -32 102 q-32 39 -94 40 q-70 -2 -114 -45 q-45 -43 -46 -104 q1 -50 32 -79 q31 -28 80 -29 q34 0 64 16 q30 15 46 44 q-18 -82 -61 -133 q-43 -51 -97 -52 l0 0 Z" /><glyph glyph-name="" unicode="&#x2153;" d="M135 -10 l614 720 l-48 0 l-615 -720 l49 0 ZM244 302 l3 11 q-31 11 -47 19 q-17 8 -12 28 l85 340 l-135 0 l-3 -10 q34 -14 50 -22 q17 -9 11 -29 l-69 -279 q-5 -20 -25 -28 q-21 -8 -58 -19 l-3 -11 l203 0 ZM609 -6 q64 0 115 33 q50 33 53 98 q-1 38 -28 61 q-28 23 -65 27 l0 2 q50 3 85 29 q34 26 36 74 q-1 40 -33 63 q-32 23 -88 23 q-51 0 -91 -24 q-41 -24 -43 -72 q0 -20 11 -31 q11 -12 31 -12 q6 0 14 1 q7 2 12 4 q-5 6 -9 15 q-4 8 -4 20 q0 33 21 52 q21 18 58 18 q27 0 42 -12 q15 -13 15 -37 q-1 -51 -33 -76 q-31 -26 -77 -27 l-3 -15 q39 -2 60 -20 q20 -18 20 -51 q-1 -53 -28 -84 q-27 -30 -71 -31 q-30 0 -48 15 q-18 14 -18 40 q0 42 31 64 q-9 7 -27 7 q-28 0 -47 -17 q-18 -18 -19 -48 q2 -40 39 -64 q36 -24 89 -25 l0 0 Z" /><glyph glyph-name="" unicode="&#x2154;" d="M197 -10 l614 720 l-48 0 l-615 -720 l49 0 ZM387 612 q-1 43 -32 68 q-32 25 -87 26 q-53 -1 -94 -30 q-41 -29 -43 -75 q0 -21 12 -33 q12 -12 33 -12 q6 0 13 1 q7 2 11 4 q-5 5 -9 15 q-4 9 -4 23 q0 32 21 55 q20 23 60 24 q28 -1 41 -17 q14 -16 14 -38 q-1 -53 -49 -107 q-49 -54 -133 -124 l-103 -87 l0 -3 l281 0 l38 105 l-11 0 q-28 -35 -48 -44 q-21 -9 -61 -8 l-108 -1 q126 83 192 139 q66 55 66 119 l0 0 ZM671 -6 q64 0 115 33 q50 33 53 98 q-1 38 -28 61 q-28 23 -65 27 l0 2 q50 3 85 29 q34 26 36 74 q-1 40 -33 63 q-32 23 -88 23 q-51 0 -91 -24 q-41 -24 -43 -72 q0 -20 11 -31 q11 -12 31 -12 q6 0 14 1 q7 2 12 4 q-5 6 -9 15 q-4 8 -4 20 q0 33 21 52 q21 18 58 18 q27 0 42 -12 q15 -13 15 -37 q-1 -51 -33 -76 q-31 -26 -77 -27 l-3 -15 q39 -2 60 -20 q20 -18 20 -51 q-1 -53 -28 -84 q-27 -30 -71 -31 q-30 0 -48 15 q-18 14 -18 40 q0 42 31 64 q-9 7 -27 7 q-28 0 -47 -17 q-18 -18 -19 -48 q2 -40 39 -64 q36 -24 89 -25 l0 0 Z" /><glyph glyph-name="" unicode="&#x215b;" d="M135 -10 l614 720 l-48 0 l-615 -720 l49 0 ZM244 302 l3 11 q-31 11 -47 19 q-17 8 -12 28 l85 340 l-135 0 l-3 -10 q34 -14 50 -22 q17 -9 11 -29 l-69 -279 q-5 -20 -25 -28 q-21 -8 -58 -19 l-3 -11 l203 0 ZM699 215 q41 6 72 33 q32 27 33 69 q-1 41 -34 64 q-33 23 -82 23 q-56 -1 -98 -32 q-42 -32 -43 -87 q1 -30 16 -49 q15 -19 37 -32 q-46 -7 -84 -34 q-37 -27 -39 -73 q2 -52 44 -78 q42 -25 100 -25 q57 0 106 32 q49 32 52 94 q0 32 -20 54 q-20 21 -60 41 l0 0 ZM688 375 q32 0 48 -15 q17 -15 17 -41 q0 -32 -20 -59 q-20 -27 -47 -39 l-32 17 q-21 11 -34 27 q-14 17 -15 39 q1 35 25 53 q25 18 58 18 l0 0 ZM665 169 q24 -12 39 -30 q14 -17 14 -39 q-2 -40 -32 -58 q-29 -18 -65 -18 q-40 0 -63 18 q-24 18 -24 54 q1 37 24 64 q22 27 53 37 l54 -28 Z" /><glyph glyph-name="" unicode="&#x215c;" d="M207 -10 l614 720 l-48 0 l-615 -720 l49 0 ZM209 296 q64 0 115 33 q50 33 53 98 q-1 38 -28 61 q-28 23 -65 27 l0 2 q50 3 85 29 q34 26 36 74 q-1 40 -33 63 q-32 23 -88 23 q-51 0 -91 -24 q-41 -24 -43 -72 q0 -20 11 -31 q11 -12 31 -12 q6 0 14 1 q7 2 12 4 q-5 6 -9 15 q-4 8 -4 20 q0 33 21 52 q21 18 58 18 q27 0 42 -12 q15 -13 15 -37 q-1 -51 -33 -76 q-31 -26 -77 -27 l-3 -15 q39 -2 60 -20 q20 -18 20 -51 q-1 -53 -28 -84 q-27 -30 -71 -31 q-30 0 -48 15 q-18 14 -18 40 q0 42 31 64 q-9 7 -27 7 q-28 0 -47 -17 q-18 -18 -19 -48 q2 -40 39 -64 q36 -24 89 -25 l0 0 ZM771 215 q41 6 72 33 q32 27 33 69 q-1 41 -34 64 q-33 23 -82 23 q-56 -1 -98 -32 q-42 -32 -43 -87 q1 -30 16 -49 q15 -19 37 -32 q-46 -7 -84 -34 q-37 -27 -39 -73 q2 -52 44 -78 q42 -25 100 -25 q57 0 106 32 q49 32 52 94 q0 32 -20 54 q-20 21 -60 41 l0 0 ZM760 375 q32 0 48 -15 q17 -15 17 -41 q0 -32 -20 -59 q-20 -27 -47 -39 l-32 17 q-21 11 -34 27 q-14 17 -15 39 q1 35 25 53 q25 18 58 18 l0 0 ZM737 169 q24 -12 39 -30 q14 -17 14 -39 q-2 -40 -32 -58 q-29 -18 -65 -18 q-40 0 -63 18 q-24 18 -24 54 q1 37 24 64 q22 27 53 37 l54 -28 Z" /><glyph glyph-name="" unicode="&#x215d;" d="M209 -10 l614 720 l-48 0 l-615 -720 l49 0 ZM205 324 q-29 0 -46 14 q-16 14 -16 38 q0 20 7 36 q7 16 23 28 q-5 2 -12 4 q-7 2 -16 2 q-28 0 -46 -18 q-18 -19 -19 -49 q1 -37 35 -60 q34 -22 90 -23 q72 1 121 45 q48 43 50 111 q-1 51 -34 78 q-32 28 -79 28 q-27 0 -49 -7 q-21 -7 -37 -17 l38 110 q17 -6 45 -11 q27 -5 57 -5 q48 0 72 23 q24 23 31 65 l-2 0 q-21 -16 -41 -21 q-21 -4 -51 -4 q-26 0 -58 3 q-32 2 -62 7 l-69 -212 l3 0 q17 15 43 25 q26 10 53 10 q33 0 52 -18 q18 -19 18 -54 q0 -50 -26 -88 q-27 -38 -75 -40 l0 0 ZM773 215 q41 6 72 33 q32 27 33 69 q-1 41 -34 64 q-33 23 -82 23 q-56 -1 -98 -32 q-42 -32 -43 -87 q1 -30 16 -49 q15 -19 37 -32 q-46 -7 -84 -34 q-37 -27 -39 -73 q2 -52 44 -78 q42 -25 100 -25 q57 0 106 32 q49 32 52 94 q0 32 -20 54 q-20 21 -60 41 l0 0 ZM762 375 q32 0 48 -15 q17 -15 17 -41 q0 -32 -20 -59 q-20 -27 -47 -39 l-32 17 q-21 11 -34 27 q-14 17 -15 39 q1 35 25 53 q25 18 58 18 l0 0 ZM739 169 q24 -12 39 -30 q14 -17 14 -39 q-2 -40 -32 -58 q-29 -18 -65 -18 q-40 0 -63 18 q-24 18 -24 54 q1 37 24 64 q22 27 53 37 l54 -28 Z" /><glyph glyph-name="" unicode="&#x215e;" d="M117 -10 l614 720 l-48 0 l-615 -720 l49 0 ZM120 590 l13 0 q19 30 38 42 q20 12 51 12 l126 0 l-25 -28 q-68 -72 -117 -148 q-49 -76 -85 -172 l72 11 q22 86 61 164 q39 77 99 145 l73 82 l1 2 l-279 0 l-28 -110 ZM681 215 q41 6 72 33 q32 27 33 69 q-1 41 -34 64 q-33 23 -82 23 q-56 -1 -98 -32 q-42 -32 -43 -87 q1 -30 16 -49 q15 -19 37 -32 q-46 -7 -84 -34 q-37 -27 -39 -73 q2 -52 44 -78 q42 -25 100 -25 q57 0 106 32 q49 32 52 94 q0 32 -20 54 q-20 21 -60 41 l0 0 ZM670 375 q32 0 48 -15 q17 -15 17 -41 q0 -32 -20 -59 q-20 -27 -47 -39 l-32 17 q-21 11 -34 27 q-14 17 -15 39 q1 35 25 53 q25 18 58 18 l0 0 ZM647 169 q24 -12 39 -30 q14 -17 14 -39 q-2 -40 -32 -58 q-29 -18 -65 -18 q-40 0 -63 18 q-24 18 -24 54 q1 37 24 64 q22 27 53 37 l54 -28 Z" /><glyph glyph-name="" unicode="&#xfb00;" d="M220 484 l6 28 q19 93 60 143 q42 50 117 51 q36 -1 61 -22 q24 -22 33 -56 q-4 -10 -7 -21 q-4 -11 -7 -22 l-25 -101 l-238 0 ZM74 -80 l135 526 l240 0 l-109 -439 q-18 -72 -38 -126 q-21 -53 -51 -88 l6 0 q54 0 83 38 q28 37 45 107 l130 508 l131 0 l16 38 l-136 0 l26 123 q10 52 37 82 q26 30 69 31 q28 0 40 -12 q13 -12 12 -33 q0 -14 -6 -29 q-7 -14 -16 -26 q9 -2 21 -2 q27 0 46 16 q20 15 21 46 q0 31 -27 51 q-28 20 -81 21 q-41 0 -76 -17 q-35 -17 -61 -49 q-20 23 -52 39 q-32 16 -76 17 q-95 -1 -155 -61 q-61 -59 -87 -160 l-8 -31 l-76 -18 l-7 -26 l73 0 l-114 -458 q-18 -72 -38 -125 q-21 -53 -51 -88 l6 0 q54 0 83 38 q28 37 45 107 l0 0 Z" /><glyph glyph-name="" unicode="&#xfb03;" d="M219 484 l6 28 q19 93 61 143 q42 50 117 51 q41 -1 66 -27 q26 -27 32 -67 q-10 -19 -18 -39 q-8 -21 -14 -43 l-12 -46 l-238 0 ZM74 -80 l135 526 l240 0 l-109 -440 q-18 -72 -38 -125 q-21 -53 -51 -88 l6 0 q54 0 83 38 q28 37 45 107 l130 508 l240 0 l-87 -349 q-2 -9 -4 -19 q-1 -11 -1 -20 q0 -30 16 -49 q16 -18 47 -19 q28 1 55 15 q28 14 51 35 l0 10 q-20 -7 -36 -10 q-16 -3 -28 -3 q-20 0 -30 8 q-11 9 -11 26 q0 5 1 12 q1 7 3 13 l97 388 l-303 0 l8 38 q19 93 66 144 q46 51 122 52 q35 -1 51 -16 q16 -16 16 -39 q0 -18 -7 -36 q-6 -17 -22 -31 q6 -2 13 -4 q7 -1 17 -1 q34 0 58 18 q23 17 24 53 q0 35 -38 62 q-38 27 -112 28 q-55 0 -100 -21 q-45 -21 -79 -59 q-19 27 -54 48 q-36 21 -85 22 q-95 -1 -156 -61 q-61 -60 -86 -161 l-8 -30 l-76 -18 l-7 -26 l73 0 l-114 -458 q-18 -72 -38 -125 q-21 -53 -51 -88 l6 0 q54 0 83 38 q28 37 45 107 l0 0 Z" /><glyph glyph-name="" unicode="&#xfb04;" d="M220 484 l6 28 q19 93 60 143 q42 50 117 51 q38 -1 63 -24 q24 -24 33 -60 q-14 -29 -23 -65 l-18 -73 l-238 0 ZM74 -80 l135 526 l240 0 l-109 -438 q-18 -72 -38 -126 q-21 -54 -51 -89 l6 0 q54 0 83 38 q28 37 45 107 l130 508 l131 0 l16 38 l-136 0 l16 74 q15 74 50 116 q34 42 94 43 q53 -1 79 -31 q25 -29 25 -70 q0 -8 -1 -15 q-1 -8 -3 -16 l-119 -488 q-2 -10 -4 -20 q-2 -10 -2 -19 q0 -31 17 -49 q16 -19 48 -19 q28 1 55 15 q28 14 51 35 l0 10 q-20 -7 -36 -10 q-16 -3 -28 -3 q-41 0 -41 34 q0 5 1 12 q1 7 3 13 l160 653 l-85 -55 q-16 25 -44 41 q-29 16 -75 17 q-45 0 -84 -18 q-39 -18 -68 -54 q-19 26 -52 43 q-33 18 -80 19 q-95 -1 -156 -61 q-61 -60 -86 -161 l-8 -30 l-76 -18 l-7 -26 l73 0 l-114 -458 q-18 -72 -38 -125 q-21 -53 -51 -88 l6 0 q54 0 83 38 q28 37 45 107 l0 0 Z" /></font>
</defs>
</svg>
