<?xml version="1.0" standalone="no"?><!DOCTYPE svg PUBLIC "-//W3C//DTD SVG 1.1//EN" "http://www.w3.org/Graphics/SVG/1.1/DTD/svg11.dtd" ><svg xmlns="http://www.w3.org/2000/svg"><metadata></metadata><defs><font id="1.002;KLIM;DomaineText-Bold" horiz-adv-x="1426"><font-face font-family="Domaine Text" font-weight="700" font-stretch="normal" units-per-em="1000" panose-1="2 10 8 6 8 5 5 6 2 4" ascent="1030" descent="-280" x-height="4" bbox="-155 -278 1386 1006" underline-thickness="36" underline-position="-75" unicode-range="U+0009-fb04" /><missing-glyph horiz-adv-x="500"  /><glyph glyph-name="" unicode=" " d="" /><glyph glyph-name="" unicode="!" d="M53 700 l87 -452 l21 0 l88 452 l-196 0 ZM244 86 q-1 39 -27 66 q-25 27 -66 28 q-41 -1 -66 -28 q-26 -27 -27 -66 q1 -40 27 -66 q25 -27 66 -28 q41 1 66 28 q26 26 27 66 l0 0 Z" /><glyph glyph-name="" unicode="&quot;" d="M370 395 l75 258 q-9 27 -31 42 q-23 15 -51 15 q-28 0 -51 -15 q-22 -15 -32 -42 l76 -258 l14 0 ZM144 395 l76 258 q-10 27 -32 42 q-23 15 -51 15 q-28 0 -51 -15 q-22 -15 -31 -42 l75 -258 l14 0 Z" /><glyph glyph-name="" unicode="#" d="M381 259 l-136 0 l26 182 l136 0 l-26 -182 ZM344 0 l55 0 l30 208 l146 0 l8 51 l-147 0 l26 182 l141 0 l8 51 l-142 0 l30 208 l-55 0 l-30 -208 l-136 0 l30 208 l-55 0 l-30 -208 l-147 0 l-8 -51 l148 0 l-26 -182 l-143 0 l-8 -51 l144 0 l-30 -208 l55 0 l30 208 l136 0 l-30 -208 Z" /><glyph glyph-name="" unicode="$" d="M269 455 q-47 13 -76 36 q-28 23 -29 68 q0 46 33 75 q33 29 96 34 l0 -219 l-24 6 ZM365 268 q55 -14 82 -39 q26 -26 26 -66 q-1 -62 -38 -94 q-37 -31 -95 -37 l0 242 l25 -6 ZM340 -116 l0 107 q106 11 172 73 q66 61 68 153 q-1 95 -56 141 q-55 46 -145 68 l-39 10 l0 232 q51 -6 77 -32 q25 -26 25 -66 q0 -18 -6 -31 q-6 -12 -16 -22 q5 -5 18 -9 q13 -4 34 -4 q35 0 58 20 q23 19 24 54 q0 53 -55 89 q-54 36 -159 42 l0 103 l-47 0 l0 -102 q-111 -7 -174 -64 q-63 -56 -64 -146 q1 -87 54 -134 q53 -48 139 -69 l45 -11 l0 -256 q-69 5 -102 35 q-32 30 -32 76 q0 18 7 31 q6 12 16 22 q-8 8 -21 13 q-14 6 -34 6 q-38 0 -62 -22 q-25 -22 -26 -63 q0 -57 62 -95 q62 -39 192 -43 l0 -106 l47 0 Z" /><glyph glyph-name="" unicode="%" d="M378 637 q22 -5 53 -9 q30 -4 53 -4 q37 0 79 10 q42 10 62 26 l-349 -660 l49 0 l375 710 l-35 9 q-34 -32 -80 -47 q-47 -15 -101 -15 q-78 3 -134 27 q-56 23 -115 26 q-78 -1 -135 -52 q-57 -51 -60 -136 q3 -85 60 -135 q57 -51 135 -52 q78 1 135 52 q57 50 60 135 q-1 33 -15 64 q-15 31 -37 51 l0 0 ZM318 522 q0 -69 -20 -109 q-20 -39 -63 -40 q-44 1 -64 40 q-19 40 -19 109 q0 69 19 109 q20 39 64 40 q43 -1 63 -40 q20 -40 20 -109 l0 0 ZM743 -10 q78 1 135 52 q57 51 60 136 q-3 85 -60 135 q-57 51 -135 52 q-78 -1 -135 -52 q-57 -50 -60 -135 q3 -85 60 -136 q57 -51 135 -52 l0 0 ZM743 29 q-44 1 -64 40 q-19 40 -19 109 q0 69 19 109 q20 39 64 40 q44 -1 64 -40 q19 -40 19 -109 q0 -69 -19 -109 q-20 -39 -64 -40 l0 0 Z" /><glyph glyph-name="" unicode="&amp;" d="M324 463 q-28 28 -49 58 q-22 30 -23 68 q0 37 24 60 q23 22 65 23 q47 -1 71 -31 q24 -30 24 -75 q0 -46 -16 -85 q-17 -39 -52 -64 l-44 46 ZM349 57 q-71 1 -111 39 q-40 38 -41 105 q0 37 12 69 q12 32 38 58 l225 -236 q-29 -17 -60 -26 q-31 -9 -63 -9 l0 0 ZM559 0 l223 0 l0 9 q-30 16 -51 31 q-20 15 -49 44 l-73 77 q38 60 53 132 q7 35 23 52 q17 16 56 39 l0 9 l-213 0 l0 -9 q40 -22 59 -39 q20 -16 19 -52 q-1 -26 -8 -50 q-8 -24 -21 -47 l-191 202 q64 15 113 53 q49 37 52 107 q-2 70 -61 111 q-58 40 -149 41 q-88 0 -152 -42 q-64 -43 -67 -134 q0 -41 17 -75 q16 -34 43 -62 l44 -46 q-77 -18 -128 -61 q-52 -43 -54 -114 q3 -94 75 -140 q72 -46 174 -46 q62 0 116 17 q54 17 98 47 l52 -54 Z" /><glyph glyph-name="" unicode="&#x2019;" d="M167 570 q0 -59 -34 -92 q-35 -33 -95 -38 l0 -33 q92 2 147 51 q56 49 57 135 q-1 56 -30 88 q-30 32 -79 33 q-36 -1 -61 -23 q-24 -23 -25 -60 q1 -34 22 -55 q21 -20 51 -21 q14 0 27 4 q12 4 20 11 l0 0 Z" /><glyph glyph-name="" unicode="(" d="M55 297 q3 -171 78 -279 q74 -108 185 -173 l41 0 q-79 72 -118 193 q-39 121 -39 259 q0 138 39 259 q39 121 118 193 l-41 0 q-111 -65 -185 -173 q-75 -109 -78 -279 l0 0 Z" /><glyph glyph-name="" unicode=")" d="M66 749 l-41 0 q79 -72 118 -193 q39 -121 39 -259 q0 -138 -39 -259 q-39 -121 -118 -193 l41 0 q111 65 186 173 q74 108 77 279 q-3 170 -77 279 q-75 108 -186 173 l0 0 Z" /><glyph glyph-name="" unicode="*" d="M238 491 l100 -99 l26 19 l-64 126 l126 64 l-11 31 l-138 -23 l-22 140 l-34 0 l-22 -140 l-138 23 l-11 -31 l126 -64 l-65 -126 l27 -19 l100 99 Z" /><glyph glyph-name="" unicode="+" d="M526 308 l0 60 l-197 0 l0 199 l-60 0 l0 -199 l-199 0 l0 -60 l199 0 l0 -197 l60 0 l0 197 l197 0 Z" /><glyph glyph-name="" unicode="," d="M166 17 q0 -69 -38 -104 q-38 -35 -99 -41 l0 -37 q107 3 160 58 q54 56 54 140 q-1 63 -30 97 q-30 35 -81 35 q-38 -1 -62 -24 q-25 -23 -26 -62 q1 -34 22 -55 q22 -21 52 -22 q14 0 27 3 q13 4 21 12 l0 0 Z" /><glyph glyph-name="" unicode="-" d="M50 249 l249 0 l0 73 l-249 0 l0 -73 Z" /><glyph glyph-name="" unicode="." d="M232 86 q-1 39 -27 66 q-25 27 -66 28 q-41 -1 -66 -28 q-26 -27 -27 -66 q1 -40 27 -66 q25 -27 66 -28 q41 1 66 28 q26 26 27 66 l0 0 Z" /><glyph glyph-name="" unicode="/" d="M10 -153 l57 0 l300 902 l-57 0 l-300 -902 Z" /><glyph glyph-name="" unicode="0" d="M643 350 q-2 168 -82 263 q-81 95 -217 97 q-136 -2 -216 -97 q-80 -95 -82 -263 q2 -168 82 -263 q80 -95 216 -97 q136 2 217 97 q80 95 82 263 l0 0 ZM471 350 q1 -147 -29 -232 q-30 -84 -98 -86 q-68 2 -97 86 q-30 85 -29 232 q-1 147 29 232 q29 84 97 86 q68 -2 98 -86 q30 -85 29 -232 l0 0 Z" /><glyph glyph-name="" unicode="1" d="M397 0 l0 14 q-56 20 -83 34 q-27 14 -27 50 l0 602 l-261 0 l0 -14 q63 -25 87 -41 q25 -16 24 -55 l0 -492 q0 -36 -26 -50 q-27 -14 -84 -34 l0 -14 l370 0 Z" /><glyph glyph-name="" unicode="2" d="M152 123 q180 97 278 184 q98 87 99 191 q-4 115 -82 164 q-79 49 -181 48 q-103 -1 -165 -49 q-61 -47 -63 -126 q1 -55 33 -86 q32 -31 80 -31 q20 0 39 4 q19 4 29 12 q-23 16 -34 46 q-12 29 -12 68 q0 54 24 88 q24 34 69 35 q52 -1 76 -39 q25 -38 25 -100 q-2 -99 -55 -182 q-52 -82 -127 -159 l-173 -185 l0 -6 l524 0 l22 212 l-11 0 q-35 -57 -71 -71 q-36 -13 -108 -13 l-216 -5 Z" /><glyph glyph-name="" unicode="3" d="M289 -10 q123 0 204 50 q81 50 84 152 q-2 86 -60 133 q-58 47 -150 52 l0 2 q76 6 128 45 q53 38 55 111 q-3 88 -75 131 q-72 44 -178 44 q-99 -1 -159 -44 q-61 -42 -63 -111 q1 -52 32 -81 q30 -30 78 -30 q18 0 34 4 q15 4 26 12 q-22 14 -33 37 q-11 22 -11 58 q0 51 25 82 q24 31 71 32 q51 -1 75 -37 q23 -36 23 -96 q0 -74 -34 -108 q-34 -34 -99 -36 l0 -28 q71 0 109 -44 q39 -45 39 -129 q0 -73 -32 -116 q-31 -43 -89 -44 q-47 0 -76 30 q-28 30 -29 90 q0 36 11 63 q11 27 31 48 q-10 6 -25 11 q-15 4 -35 4 q-51 0 -88 -31 q-36 -31 -38 -87 q4 -85 78 -127 q73 -42 171 -42 l0 0 Z" /><glyph glyph-name="" unicode="4" d="M337 234 l-236 0 l236 355 l0 -355 ZM543 188 q43 1 59 -10 q17 -11 37 -43 l9 0 l0 152 l-9 0 q-20 -32 -37 -43 q-16 -11 -59 -10 l-56 0 l0 466 l-129 1 l-348 -508 l3 -5 l324 0 l0 -75 q1 -47 -10 -66 q-11 -19 -43 -38 l0 -9 l256 0 l0 9 q-32 19 -43 38 q-11 19 -10 66 l0 75 l56 0 Z" /><glyph glyph-name="" unicode="5" d="M272 31 q-51 0 -77 29 q-26 29 -26 86 q1 41 14 68 q13 28 31 43 q-10 7 -27 12 q-16 5 -39 5 q-48 0 -83 -31 q-35 -31 -37 -88 q3 -82 74 -123 q70 -42 170 -42 q112 -1 201 57 q88 57 93 180 q-3 109 -71 162 q-68 53 -166 53 q-55 -1 -97 -14 q-43 -13 -68 -32 l21 178 q34 -14 90 -25 q55 -11 108 -12 q91 1 126 54 q35 52 33 137 l-3 0 q-29 -28 -68 -37 q-40 -8 -96 -7 q-45 0 -104 4 q-59 4 -114 11 l-45 -371 l4 0 q27 24 62 39 q35 15 80 16 q74 -1 106 -47 q32 -46 31 -124 q0 -82 -30 -131 q-30 -49 -93 -50 l0 0 Z" /><glyph glyph-name="" unicode="6" d="M361 669 q42 0 65 -21 q23 -22 23 -58 q-1 -25 -12 -46 q-11 -20 -29 -31 q10 -10 28 -16 q18 -7 37 -7 q38 0 65 22 q28 22 29 66 q-2 65 -59 99 q-57 33 -147 33 q-159 -5 -237 -114 q-78 -109 -78 -267 q1 -150 74 -243 q73 -93 202 -96 q108 1 183 64 q74 62 77 175 q-3 108 -69 161 q-65 53 -154 53 q-62 -1 -103 -28 q-41 -28 -57 -74 q-2 124 33 223 q35 99 129 105 l0 0 ZM212 212 q0 87 26 134 q26 47 81 48 q55 -1 82 -48 q27 -47 27 -134 q0 -86 -27 -134 q-27 -47 -82 -48 q-55 1 -81 48 q-26 48 -26 134 l0 0 Z" /><glyph glyph-name="" unicode="7" d="M42 470 l10 0 q22 54 52 73 q30 20 90 19 l234 0 l-41 -63 q-78 -114 -137 -235 q-59 -122 -86 -274 l156 23 q-2 133 24 257 q26 124 99 246 l108 180 l0 4 l-509 0 l0 -230 Z" /><glyph glyph-name="" unicode="8" d="M411 414 q48 7 89 41 q40 34 43 92 q-2 77 -67 120 q-65 42 -162 43 q-98 -1 -164 -54 q-66 -53 -69 -153 q1 -65 36 -110 q34 -45 87 -68 q-66 -13 -111 -53 q-45 -41 -47 -105 q3 -86 80 -131 q77 -46 197 -46 q113 0 189 56 q76 55 79 160 q0 75 -45 125 q-44 50 -135 83 l0 0 ZM208 566 q0 46 28 73 q28 27 80 28 q58 -1 90 -33 q32 -33 32 -88 q0 -41 -15 -73 q-14 -32 -36 -51 l-64 25 q-55 20 -85 47 q-30 27 -30 72 l0 0 ZM344 270 q50 -18 79 -47 q29 -29 30 -76 q-1 -54 -37 -84 q-37 -30 -94 -30 q-70 1 -113 42 q-44 41 -45 110 q0 42 17 78 q16 36 43 53 l120 -46 Z" /><glyph glyph-name="" unicode="9" d="M416 488 q0 -87 -26 -134 q-26 -47 -81 -48 q-55 1 -82 48 q-27 47 -27 134 q0 86 27 134 q27 47 82 48 q55 -1 81 -48 q26 -48 26 -134 l0 0 ZM267 31 q-42 0 -65 22 q-23 21 -23 57 q1 25 12 46 q11 20 29 31 q-10 10 -28 16 q-18 7 -37 7 q-38 0 -65 -22 q-28 -22 -29 -66 q2 -65 59 -99 q57 -33 147 -33 q159 5 237 114 q78 109 78 267 q-1 150 -74 243 q-73 93 -202 96 q-108 -1 -182 -64 q-75 -62 -78 -175 q3 -108 69 -161 q65 -53 154 -53 q62 1 103 28 q41 28 57 74 q2 -124 -33 -223 q-35 -99 -129 -105 l0 0 Z" /><glyph glyph-name="" unicode=":" d="M232 376 q-1 39 -27 66 q-25 27 -66 28 q-41 -1 -66 -28 q-26 -27 -27 -66 q1 -40 27 -66 q25 -27 66 -28 q41 1 66 28 q26 26 27 66 l0 0 ZM232 86 q-1 39 -27 66 q-25 27 -66 28 q-41 -1 -66 -28 q-26 -27 -27 -66 q1 -40 27 -66 q25 -27 66 -28 q41 1 66 28 q26 26 27 66 l0 0 Z" /><glyph glyph-name="" unicode=";" d="M232 376 q-1 39 -27 66 q-25 27 -66 28 q-41 -1 -66 -28 q-26 -27 -27 -66 q1 -40 27 -66 q25 -27 66 -28 q41 1 66 28 q26 26 27 66 l0 0 ZM166 17 q0 -69 -38 -104 q-38 -35 -99 -41 l0 -37 q107 3 160 58 q54 56 54 140 q-1 63 -30 97 q-30 35 -81 35 q-38 -1 -62 -24 q-25 -23 -26 -62 q1 -34 22 -55 q22 -21 52 -22 q14 0 27 3 q13 4 21 12 l0 0 Z" /><glyph glyph-name="" unicode="&lt;" d="M62 299 l347 -187 l0 72 l-290 153 l290 153 l0 70 l-347 -185 l0 -76 Z" /><glyph glyph-name="" unicode="=" d="M77 380 l457 0 l0 58 l-457 0 l0 -58 ZM77 237 l457 0 l0 58 l-457 0 l0 -58 Z" /><glyph glyph-name="" unicode="&gt;" d="M407 375 l-347 185 l0 -70 l290 -153 l-290 -153 l0 -72 l347 187 l0 76 Z" /><glyph glyph-name="" unicode="?" d="M252 670 q57 -1 83 -35 q26 -33 26 -80 q-1 -57 -34 -92 q-34 -36 -95 -54 l0 -180 l38 0 l0 53 q91 24 156 83 q65 58 68 147 q-1 94 -67 146 q-66 51 -172 52 q-94 -1 -161 -41 q-67 -41 -70 -108 q1 -49 29 -74 q28 -25 72 -25 q23 0 44 8 q21 8 31 17 q-22 13 -35 33 q-13 20 -13 50 q0 45 26 72 q26 27 74 28 l0 0 ZM348 86 q-1 39 -27 66 q-25 27 -66 28 q-41 -1 -66 -28 q-26 -27 -27 -66 q1 -40 27 -66 q25 -27 66 -28 q41 1 66 28 q26 26 27 66 l0 0 Z" /><glyph glyph-name="" unicode="@" d="M743 447 l-10 0 q-25 -3 -61 -22 q-37 -19 -62 -56 q-8 36 -37 58 q-29 21 -78 21 q-107 -4 -170 -83 q-64 -78 -66 -185 q1 -73 39 -113 q38 -40 99 -40 q50 1 85 28 q36 26 58 72 q1 -45 36 -72 q35 -27 95 -28 q89 0 160 71 q70 72 74 218 q-5 166 -116 254 q-112 87 -273 88 q-196 -5 -323 -129 q-127 -125 -131 -316 q5 -193 129 -294 q124 -102 313 -103 q94 0 180 29 q87 30 146 92 l-13 22 q-65 -54 -142 -76 q-78 -23 -171 -22 q-156 1 -256 92 q-101 92 -104 260 q4 172 108 285 q104 112 264 116 q139 0 236 -74 q98 -74 102 -224 q-3 -117 -46 -173 q-43 -56 -93 -56 q-29 0 -41 18 q-11 18 -2 58 l71 284 ZM558 232 q-14 -59 -41 -96 q-28 -38 -66 -39 q-26 0 -40 20 q-14 20 -14 61 q2 80 39 146 q37 67 92 71 q32 -1 43 -31 q11 -29 -1 -79 l-12 -53 Z" /><glyph glyph-name="" unicode="a" d="M333 494 l118 -249 l-235 0 l117 249 ZM203 9 q-33 22 -47 35 q-14 13 -14 27 q0 8 3 18 q2 9 8 21 l42 89 l278 0 l44 -94 q6 -12 9 -21 q2 -10 2 -18 q0 -17 -10 -29 q-11 -13 -36 -28 l0 -9 l281 0 l0 9 q-29 23 -45 44 q-17 22 -37 65 l-289 600 l-5 0 l-288 -600 q-21 -43 -38 -65 q-17 -21 -46 -44 l0 -9 l188 0 l0 9 Z" /><glyph glyph-name="" unicode="b" d="M406 0 q117 -1 189 44 q73 44 75 145 q-4 89 -67 129 q-63 39 -144 42 l0 2 q70 5 125 47 q54 41 57 118 q-2 92 -71 133 q-70 41 -180 40 l-346 0 l0 -9 q35 -22 49 -42 q14 -20 13 -67 l0 -464 q1 -47 -13 -67 q-14 -20 -49 -42 l0 -9 l362 0 ZM263 655 l74 0 q68 0 107 -33 q39 -33 40 -103 q-1 -73 -41 -105 q-41 -33 -107 -32 l-73 0 l0 273 ZM344 339 q77 0 122 -35 q45 -36 46 -112 q-1 -76 -45 -112 q-45 -35 -120 -35 l-84 0 l0 294 l81 0 Z" /><glyph glyph-name="" unicode="c" d="M429 662 q74 -2 125 -54 q51 -53 96 -135 l13 0 l0 237 l-9 0 l-56 -57 q-31 25 -78 41 q-46 16 -110 16 q-154 -3 -258 -101 q-104 -99 -108 -259 q3 -166 101 -262 q98 -96 256 -98 q113 1 187 59 q74 58 101 159 l-15 6 q-43 -79 -99 -109 q-56 -30 -119 -29 q-105 1 -169 76 q-64 75 -66 216 q1 128 56 210 q56 81 152 84 l0 0 Z" /><glyph glyph-name="" unicode="d" d="M43 0 l326 0 q171 0 277 87 q105 87 108 266 q-2 170 -108 258 q-106 89 -295 89 l-308 0 l0 -9 q35 -22 49 -42 q14 -20 14 -67 l0 -464 q0 -47 -14 -67 q-14 -20 -49 -42 l0 -9 ZM586 353 q-1 -162 -63 -235 q-62 -72 -172 -71 l-88 0 l0 606 l77 0 q118 -1 182 -78 q63 -77 64 -222 l0 0 Z" /><glyph glyph-name="" unicode="e" d="M520 479 l-12 0 q-26 -66 -51 -82 q-26 -17 -84 -14 l-110 0 l0 272 l145 0 q82 -1 122 -38 q40 -37 86 -97 l11 0 l-34 186 q-11 -2 -24 -4 q-14 -2 -36 -2 l-490 0 l0 -9 q35 -22 49 -42 q14 -20 14 -67 l0 -464 q0 -47 -14 -67 q-14 -20 -49 -42 l0 -9 l582 0 l32 198 l-11 0 q-47 -76 -90 -115 q-44 -38 -120 -38 l-173 0 l0 294 l110 0 q58 2 84 -14 q25 -17 51 -82 l12 0 l0 236 Z" /><glyph glyph-name="" unicode="f" d="M346 0 l0 9 q-41 21 -62 43 q-21 21 -21 66 l0 202 l109 0 q58 2 84 -14 q26 -17 52 -82 l11 0 l0 236 l-11 0 q-26 -66 -52 -82 q-26 -17 -84 -14 l-109 0 l0 291 l144 0 q82 -1 122 -38 q40 -37 86 -97 l11 0 l-34 186 q-11 -2 -24 -4 q-14 -2 -36 -2 l-489 0 l0 -9 q35 -22 49 -42 q14 -20 14 -67 l0 -464 q0 -47 -14 -67 q-14 -20 -49 -42 l0 -9 l303 0 Z" /><glyph glyph-name="" unicode="g" d="M560 112 q-23 -28 -53 -42 q-30 -14 -70 -14 q-103 3 -159 84 q-56 82 -57 213 q2 138 61 222 q58 85 156 87 q75 -2 126 -54 q51 -52 98 -134 l13 0 l0 236 l-9 0 l-56 -57 q-32 25 -79 41 q-47 16 -111 16 q-160 -2 -266 -101 q-106 -98 -110 -265 q3 -164 101 -258 q98 -94 251 -96 q69 1 122 25 q54 25 87 67 l95 -90 l20 0 l0 229 q0 47 14 67 q14 20 49 42 l0 9 l-286 0 l0 -9 q35 -22 49 -42 q14 -20 14 -67 l0 -109 Z" /><glyph glyph-name="" unicode="h" d="M43 0 l282 0 l0 9 q-35 22 -49 42 q-14 20 -13 67 l0 220 l338 0 l0 -220 q0 -47 -14 -67 q-14 -20 -49 -42 l0 -9 l282 0 l0 9 q-35 22 -49 42 q-14 20 -13 67 l0 464 q-1 47 13 67 q14 20 49 42 l0 9 l-282 0 l0 -9 q35 -22 49 -42 q14 -20 14 -67 l0 -198 l-338 0 l0 198 q-1 47 13 67 q14 20 49 42 l0 9 l-282 0 l0 -9 q35 -22 49 -42 q14 -20 14 -67 l0 -464 q0 -47 -14 -67 q-14 -20 -49 -42 l0 -9 Z" /><glyph glyph-name="" unicode="i" d="M106 582 l0 -464 q0 -47 -14 -67 q-14 -20 -49 -42 l0 -9 l282 0 l0 9 q-35 22 -49 42 q-14 20 -13 67 l0 464 q-1 47 13 67 q14 20 49 42 l0 9 l-282 0 l0 -9 q35 -22 49 -42 q14 -20 14 -67 l0 0 Z" /><glyph glyph-name="" unicode="j" d="M366 197 q0 -78 -26 -121 q-26 -42 -84 -43 q-47 1 -74 32 q-27 32 -28 82 q0 38 13 67 q13 28 36 46 q-11 6 -26 10 q-15 4 -34 4 q-55 0 -91 -30 q-36 -29 -37 -85 q3 -83 74 -126 q70 -43 167 -43 q108 -1 186 51 q77 53 81 173 l0 368 q0 47 14 67 q14 20 49 42 l0 9 l-282 0 l0 -9 q35 -22 49 -42 q14 -20 13 -67 l0 -385 Z" /><glyph glyph-name="" unicode="k" d="M325 0 l0 9 q-35 22 -49 42 q-14 20 -13 67 l0 150 l74 72 l163 -235 q15 -22 21 -35 q6 -13 6 -24 q0 -11 -5 -19 q-5 -7 -18 -18 l0 -9 l287 0 l0 12 q-38 18 -64 41 q-25 24 -50 59 l-228 331 l152 145 q33 32 67 56 q34 24 82 47 l0 9 l-214 0 l0 -9 q19 -15 27 -26 q8 -11 8 -22 q0 -9 -3 -16 q-3 -7 -12 -16 l-293 -281 l0 252 q-1 47 13 67 q14 20 49 42 l0 9 l-282 0 l0 -9 q35 -22 49 -42 q14 -20 14 -67 l0 -464 q0 -47 -14 -67 q-14 -20 -49 -42 l0 -9 l282 0 Z" /><glyph glyph-name="" unicode="l" d="M263 582 q-1 47 13 67 q14 20 49 42 l0 9 l-282 0 l0 -9 q35 -22 49 -42 q14 -20 14 -67 l0 -464 q0 -47 -14 -67 q-14 -20 -49 -42 l0 -9 l567 0 l36 233 l-10 0 q-63 -98 -107 -143 q-44 -46 -116 -45 l-150 0 l0 537 Z" /><glyph glyph-name="" unicode="m" d="M500 252 l-200 448 l-257 0 l0 -9 q35 -22 49 -42 q14 -20 14 -67 l0 -460 q0 -47 -20 -69 q-21 -22 -57 -44 l0 -9 l209 0 l0 9 q-36 22 -56 44 q-20 22 -20 69 l0 492 l271 -624 l4 0 l262 624 l0 -496 q0 -47 -14 -67 q-14 -20 -49 -42 l0 -9 l279 0 l0 9 q-35 22 -49 42 q-14 20 -13 67 l0 464 q-1 47 13 67 q14 20 49 42 l0 9 l-235 0 l-180 -448 Z" /><glyph glyph-name="" unicode="n" d="M630 269 l-359 431 l-228 0 l0 -9 q35 -22 49 -42 q14 -20 14 -67 l0 -460 q0 -47 -20 -69 q-20 -22 -57 -44 l0 -9 l212 0 l0 9 q-36 22 -57 44 q-22 22 -22 69 l0 455 l483 -581 l41 0 l0 582 q0 47 20 69 q19 22 56 44 l0 9 l-212 0 l0 -9 q38 -22 59 -44 q21 -22 21 -69 l0 -309 Z" /><glyph glyph-name="" unicode="o" d="M44 350 q4 -160 106 -259 q102 -98 258 -101 q156 3 259 101 q102 99 106 259 q-4 160 -106 259 q-103 98 -259 101 q-156 -3 -258 -101 q-102 -99 -106 -259 l0 0 ZM596 350 q0 -149 -46 -230 q-46 -80 -142 -81 q-96 1 -141 81 q-46 81 -46 230 q0 149 46 230 q45 80 141 81 q96 -1 142 -81 q46 -81 46 -230 l0 0 Z" /><glyph glyph-name="" unicode="p" d="M395 272 q124 0 200 54 q76 53 78 160 q-2 107 -78 160 q-76 54 -200 54 l-352 0 l0 -9 q35 -22 49 -42 q14 -20 14 -67 l0 -464 q0 -47 -14 -67 q-14 -20 -49 -42 l0 -9 l303 0 l0 9 q-41 21 -62 43 q-21 21 -21 66 l0 154 l132 0 ZM263 317 l0 338 l71 0 q90 0 134 -42 q44 -42 44 -127 q0 -85 -44 -127 q-44 -42 -134 -42 l-71 0 Z" /><glyph glyph-name="" unicode="q" d="M611 -143 q56 0 89 34 q33 35 41 100 l-9 0 q-15 -22 -32 -30 q-16 -8 -35 -8 q-32 1 -55 21 q-23 20 -41 51 q92 43 147 127 q56 85 57 198 q-4 160 -106 259 q-103 98 -259 101 q-156 -3 -258 -101 q-102 -99 -106 -259 q4 -160 106 -259 q102 -98 258 -101 q30 0 59 4 q19 -56 52 -95 q33 -40 92 -42 l0 0 ZM382 238 q-48 -1 -78 -34 q-30 -33 -38 -82 q-23 40 -34 97 q-11 57 -11 131 q0 149 46 230 q45 80 141 81 q96 -1 142 -81 q46 -81 46 -230 q0 -88 -15 -152 q-16 -65 -49 -104 q-25 56 -60 99 q-34 43 -90 45 l0 0 ZM408 39 q-37 0 -67 13 q-30 13 -53 38 q6 45 24 70 q18 24 43 24 q37 -2 58 -43 q21 -40 37 -97 q-19 -5 -42 -5 l0 0 Z" /><glyph glyph-name="" unicode="r" d="M263 657 l98 0 q75 -1 115 -40 q40 -40 40 -110 q-1 -76 -41 -113 q-41 -37 -114 -37 l-98 0 l0 300 ZM263 314 l83 0 q52 0 78 -22 q26 -23 41 -71 l38 -113 q11 -31 21 -56 q10 -24 25 -52 l211 0 l0 12 q-38 18 -59 40 q-20 21 -38 73 l-31 84 q-22 60 -64 91 q-42 30 -108 35 l0 2 q91 1 155 44 q64 43 67 131 q-3 100 -78 145 q-76 44 -187 43 l-374 0 l0 -9 q35 -22 49 -42 q14 -20 14 -67 l0 -464 q0 -47 -14 -67 q-14 -20 -49 -42 l0 -9 l282 0 l0 9 q-35 22 -49 42 q-14 20 -13 67 l0 196 Z" /><glyph glyph-name="" unicode="s" d="M321 665 q71 -1 120 -45 q49 -45 98 -124 l13 0 l-3 214 l-13 0 l-43 -50 q-30 18 -73 34 q-43 15 -99 16 q-118 -1 -187 -57 q-69 -55 -70 -150 q0 -81 47 -128 q46 -47 138 -75 l93 -29 q53 -15 80 -42 q28 -28 28 -75 q0 -54 -34 -83 q-34 -30 -97 -30 q-78 1 -137 51 q-58 51 -111 138 l-19 0 l14 -240 l15 0 l44 62 q29 -21 82 -41 q52 -20 113 -21 q112 1 188 58 q75 57 78 163 q-1 87 -48 134 q-47 46 -130 71 l-95 29 q-57 17 -84 44 q-27 27 -27 73 q1 46 34 74 q32 28 85 29 l0 0 Z" /><glyph glyph-name="" unicode="t" d="M118 700 q-22 0 -36 2 q-13 2 -24 4 l-31 -220 l12 0 q43 70 85 119 q42 49 115 51 l74 0 l0 -536 q0 -47 -16 -69 q-16 -21 -52 -42 l0 -9 l294 0 l0 9 q-36 21 -53 42 q-16 22 -16 69 l0 536 l74 0 q73 -2 115 -51 q42 -49 86 -119 l12 0 l-31 220 q-11 -2 -24 -4 q-14 -2 -36 -2 l-548 0 Z" /><glyph glyph-name="" unicode="u" d="M626 578 l0 -297 q-1 -115 -53 -166 q-51 -51 -135 -50 q-87 0 -135 53 q-48 53 -49 162 l0 302 q0 47 14 67 q14 20 49 42 l0 9 l-282 0 l0 -9 q35 -22 49 -42 q14 -20 13 -67 l0 -312 q2 -138 84 -209 q82 -71 221 -71 q132 0 205 70 q74 70 75 212 l0 306 q0 47 20 69 q19 22 56 44 l0 9 l-212 0 l0 -9 q37 -22 58 -44 q22 -22 22 -69 l0 0 Z" /><glyph glyph-name="" unicode="v" d="M441 213 l-179 382 q-5 12 -8 21 q-2 10 -2 18 q0 17 10 29 q11 13 36 28 l0 9 l-282 0 l0 -9 q30 -23 46 -44 q16 -22 37 -65 l286 -592 l5 0 l286 592 q21 43 39 65 q18 21 47 44 l0 9 l-199 0 l0 -9 q31 -22 47 -37 q16 -15 16 -29 q0 -9 -2 -17 q-3 -9 -8 -21 l-175 -374 Z" /><glyph glyph-name="" unicode="w" d="M723 -10 l7 0 l235 589 q17 41 37 65 q21 24 49 47 l0 9 l-196 0 l0 -9 q25 -17 43 -34 q17 -17 18 -36 q0 -7 -2 -15 q-2 -9 -6 -21 l-134 -348 l-133 357 q-9 24 -9 40 q0 17 10 29 q11 13 33 28 l0 9 l-262 0 l0 -9 q27 -24 43 -48 q16 -24 31 -61 l15 -37 l-113 -305 l-140 355 q-5 12 -7 21 q-3 10 -3 18 q0 17 10 29 q10 13 32 28 l0 9 l-265 0 l0 -9 q27 -23 43 -46 q16 -23 32 -63 l242 -592 l7 0 l188 488 l195 -488 Z" /><glyph glyph-name="" unicode="x" d="M213 9 q-18 18 -28 31 q-11 13 -11 25 q0 11 5 22 q5 11 19 29 l145 188 l147 -199 q11 -13 16 -25 q5 -12 5 -24 q0 -12 -5 -23 q-5 -10 -16 -24 l0 -9 l283 0 l0 9 q-30 20 -52 41 q-22 22 -51 61 l-214 290 l146 188 q28 36 53 58 q25 23 58 44 l0 9 l-192 0 l0 -9 q19 -17 29 -29 q10 -12 10 -24 q0 -12 -5 -23 q-4 -11 -14 -23 l-116 -149 l-112 152 q-11 14 -16 26 q-5 11 -5 23 q0 12 5 23 q5 10 16 24 l0 9 l-283 0 l0 -9 q30 -20 52 -41 q22 -21 51 -61 l180 -244 l-177 -225 q-34 -44 -61 -67 q-26 -24 -61 -44 l0 -9 l199 0 l0 9 Z" /><glyph glyph-name="" unicode="y" d="M435 360 l-152 234 q-7 11 -11 22 q-4 11 -4 20 q0 15 9 27 q8 12 29 28 l0 9 l-292 0 l0 -9 q29 -24 50 -48 q21 -24 45 -61 l187 -286 l0 -178 q1 -47 -14 -67 q-15 -20 -51 -42 l0 -9 l286 0 l0 9 q-36 22 -50 42 q-15 20 -14 67 l0 178 l186 286 q25 39 46 62 q20 24 50 47 l0 9 l-192 0 l0 -9 q23 -17 38 -32 q15 -14 15 -30 q0 -8 -4 -18 q-3 -11 -11 -22 l-146 -229 Z" /><glyph glyph-name="" unicode="z" d="M653 0 l32 220 l-11 0 q-60 -90 -107 -132 q-48 -43 -123 -43 l-190 0 l419 651 l0 4 l-517 0 q-22 0 -36 2 q-13 2 -24 4 l-31 -212 l11 0 q54 78 97 119 q43 42 120 42 l170 0 l-425 -651 l0 -4 l615 0 Z" /><glyph glyph-name="" unicode="[" d="M88 -154 l272 0 l0 19 l-134 30 l0 806 l134 29 l0 19 l-272 0 l0 -903 Z" /><glyph glyph-name="" unicode="\" d="M89 749 l-57 0 l300 -902 l57 0 l-300 902 Z" /><glyph glyph-name="" unicode="]" d="M297 749 l-272 0 l0 -19 l134 -29 l0 -806 l-134 -30 l0 -19 l272 0 l0 903 Z" /><glyph glyph-name="" unicode="^" d="M251 710 l-201 -358 l73 0 l132 238 l132 -238 l73 0 l-201 358 l-8 0 Z" /><glyph glyph-name="" unicode="_" d="M50 -128 l380 0 l0 56 l-380 0 l0 -56 Z" /><glyph glyph-name="" unicode="&#x2018;" d="M117 552 q0 59 35 92 q34 33 94 38 l0 33 q-91 -2 -147 -51 q-55 -49 -57 -135 q1 -56 30 -88 q30 -32 79 -33 q36 1 61 23 q24 23 25 60 q-1 34 -22 55 q-21 20 -51 21 q-14 0 -26 -4 q-13 -3 -21 -11 l0 0 Z" /><glyph glyph-name="" unicode="a" d="M348 256 l0 -59 q-1 -64 -27 -98 q-26 -34 -69 -34 q-33 0 -50 20 q-17 19 -17 55 q0 45 26 69 q27 23 82 35 l55 12 ZM581 25 q-48 9 -67 30 q-20 21 -19 70 q0 54 2 108 q1 53 1 99 q0 87 -56 129 q-56 42 -168 42 q-101 -1 -156 -34 q-56 -34 -57 -88 q0 -33 22 -51 q21 -19 57 -19 q21 0 43 7 q22 7 32 20 q-12 6 -20 19 q-9 12 -9 36 q0 33 20 51 q19 17 56 17 q50 0 69 -29 q18 -28 17 -78 l0 -61 l-78 -14 q-90 -14 -160 -48 q-69 -35 -73 -115 q2 -64 44 -95 q42 -31 103 -31 q64 0 107 28 q44 28 60 77 q7 -57 36 -80 q29 -24 84 -23 q35 1 64 8 q29 7 46 14 l0 11 Z" /><glyph glyph-name="" unicode="b" d="M230 268 q1 70 33 116 q32 45 87 47 q57 -1 87 -47 q30 -46 30 -129 q0 -104 -31 -156 q-30 -52 -86 -52 q-49 1 -84 43 q-34 41 -36 108 l0 70 ZM207 83 q20 -39 65 -66 q46 -26 110 -27 q108 1 175 70 q68 70 70 195 q-2 126 -64 187 q-61 61 -151 61 q-71 -1 -118 -36 q-46 -35 -64 -91 l0 373 l-215 0 l0 -9 q32 -18 49 -38 q16 -20 16 -65 l0 -425 q0 -66 -1 -121 q-2 -55 -9 -101 l9 0 q37 5 70 29 q34 23 58 64 l0 0 Z" /><glyph glyph-name="" unicode="c" d="M307 463 q35 0 54 -21 q18 -20 18 -54 q0 -25 -8 -41 q-7 -15 -18 -26 q5 -10 21 -16 q16 -6 35 -6 q30 0 56 18 q25 18 27 61 q-2 60 -56 93 q-55 32 -132 32 q-119 -2 -193 -72 q-75 -71 -77 -188 q3 -123 73 -188 q70 -65 176 -65 q84 0 140 42 q55 42 77 120 l-22 7 q-25 -52 -60 -74 q-35 -21 -79 -20 q-70 1 -109 53 q-38 53 -39 146 q0 82 30 139 q29 58 86 60 l0 0 Z" /><glyph glyph-name="" unicode="d" d="M431 226 q-1 -70 -33 -116 q-32 -45 -87 -47 q-57 1 -87 48 q-30 47 -30 134 q0 100 31 150 q30 51 87 51 q48 -1 83 -42 q34 -42 36 -109 l0 -69 ZM432 0 l202 0 l0 9 q-32 19 -43 38 q-11 19 -10 66 l0 636 l-215 0 l0 -9 q32 -18 49 -38 q16 -20 16 -65 l0 -228 q-19 40 -59 67 q-41 26 -106 27 q-98 -1 -164 -69 q-65 -69 -68 -190 q3 -130 64 -192 q62 -62 152 -62 q70 1 117 37 q46 35 64 90 l1 -117 Z" /><glyph glyph-name="" unicode="e" d="M292 503 q-110 -1 -183 -70 q-72 -69 -75 -188 q3 -126 75 -190 q73 -65 182 -65 q87 0 145 42 q57 42 79 120 l-21 7 q-26 -52 -63 -74 q-38 -22 -88 -21 q-72 1 -112 53 q-39 52 -40 138 l334 0 q0 117 -59 182 q-60 65 -174 66 l0 0 ZM193 300 q4 70 27 114 q23 45 71 46 q50 -2 67 -50 q17 -47 17 -110 l-182 0 Z" /><glyph glyph-name="" unicode="f" d="M239 434 l140 0 l5 51 l-145 0 l0 115 q0 55 17 86 q18 31 56 31 q30 -1 44 -22 q13 -22 13 -49 q0 -18 -5 -35 q-6 -16 -15 -26 q6 -2 18 -5 q12 -2 26 -2 q36 0 61 17 q25 17 26 55 q-2 55 -48 80 q-47 26 -118 26 q-105 -1 -164 -54 q-59 -54 -60 -148 l0 -63 l-70 -22 l0 -35 l70 0 l0 -321 q1 -47 -11 -66 q-11 -19 -43 -38 l0 -9 l298 0 l0 11 q-48 20 -71 39 q-24 19 -24 65 l0 319 Z" /><glyph glyph-name="" unicode="g" d="M345 341 q0 -66 -17 -95 q-17 -30 -52 -29 q-35 -1 -52 29 q-16 29 -16 95 q0 66 16 96 q17 29 52 29 q35 0 52 -29 q17 -30 17 -96 l0 0 ZM566 -41 q-1 74 -53 112 q-52 39 -141 39 l-182 0 q-29 0 -43 12 q-13 11 -13 29 q0 14 10 26 q10 11 25 19 q45 -18 107 -18 q105 2 160 47 q56 46 56 116 q0 30 -12 57 q-11 27 -33 49 q10 8 21 12 q10 4 23 4 q27 -1 38 -19 q11 -18 11 -44 q27 0 49 16 q22 17 23 51 q0 32 -21 51 q-20 19 -55 19 q-38 -1 -66 -22 q-28 -22 -47 -50 q-27 18 -64 28 q-37 10 -83 10 q-104 -2 -159 -47 q-55 -46 -56 -115 q0 -42 21 -76 q21 -35 61 -57 q-41 -15 -67 -44 q-25 -29 -26 -72 q1 -46 27 -73 q26 -27 70 -37 q-65 -5 -98 -28 q-33 -24 -33 -61 q4 -64 81 -92 q76 -27 180 -26 q114 -1 199 43 q86 44 90 141 l0 0 ZM351 -28 q50 0 74 -16 q24 -16 24 -50 q-2 -42 -50 -66 q-48 -24 -122 -24 q-62 0 -104 21 q-43 21 -45 67 q0 25 13 41 q13 17 42 27 l168 0 Z" /><glyph glyph-name="" unicode="h" d="M566 329 q0 76 -38 124 q-39 48 -123 50 q-60 0 -103 -34 q-44 -35 -68 -101 l0 381 l-214 0 l0 -9 q32 -18 48 -38 q17 -20 17 -65 l0 -524 q1 -47 -11 -66 q-11 -19 -43 -38 l0 -9 l257 0 l0 9 q-32 19 -43 38 q-12 19 -11 66 l0 150 q1 74 30 109 q29 35 73 35 q42 -1 61 -27 q19 -27 19 -69 l0 -198 q1 -47 -11 -66 q-11 -19 -43 -38 l0 -9 l257 0 l0 9 q-32 19 -43 38 q-12 19 -11 66 l0 216 Z" /><glyph glyph-name="" unicode="i" d="M73 655 q1 -38 25 -62 q25 -24 63 -25 q39 1 64 25 q24 24 25 62 q-1 38 -25 62 q-25 24 -64 25 q-38 -1 -63 -25 q-24 -24 -25 -62 l0 0 ZM239 493 l-211 0 l0 -9 q31 -18 46 -38 q16 -20 16 -65 l0 -268 q1 -47 -11 -66 q-11 -19 -43 -38 l0 -9 l257 0 l0 9 q-32 19 -43 38 q-12 19 -11 66 l0 380 Z" /><glyph glyph-name="" unicode="j" d="M68 655 q1 -38 25 -62 q25 -24 63 -25 q38 1 63 25 q25 24 26 62 q-1 38 -26 62 q-25 24 -63 25 q-38 -1 -63 -25 q-24 -24 -25 -62 l0 0 ZM84 -85 q1 -47 -12 -74 q-12 -26 -44 -27 q-28 1 -40 21 q-12 19 -12 45 q0 18 5 34 q6 15 14 24 q-6 3 -17 6 q-11 2 -25 2 q-37 0 -63 -17 q-27 -18 -28 -57 q1 -49 47 -73 q45 -24 117 -24 q98 1 153 51 q54 50 55 143 l0 524 l-212 0 l0 -9 q31 -18 47 -38 q15 -20 15 -65 l0 -466 Z" /><glyph glyph-name="" unicode="k" d="M288 9 q-32 19 -43 38 q-12 19 -11 66 l0 130 l19 0 q13 0 22 -5 q9 -5 16 -16 l98 -152 q14 -22 19 -39 q4 -17 3 -31 l228 0 l0 9 q-35 18 -62 46 q-28 27 -48 58 l-138 208 l70 63 q47 42 83 65 q35 22 76 35 l0 9 l-203 0 l0 -9 q13 -12 20 -21 q7 -9 7 -18 q0 -10 -5 -18 q-5 -8 -16 -17 l-116 -104 q-15 -13 -28 -17 q-14 -5 -30 -5 l-15 0 l0 465 l-214 0 l0 -9 q32 -18 48 -38 q17 -20 17 -65 l0 -524 q1 -47 -11 -66 q-11 -19 -43 -38 l0 -9 l257 0 l0 9 Z" /><glyph glyph-name="" unicode="l" d="M234 749 l-214 0 l0 -9 q32 -18 48 -38 q17 -20 17 -65 l0 -524 q1 -47 -11 -66 q-11 -19 -43 -38 l0 -9 l257 0 l0 9 q-32 19 -43 38 q-12 19 -11 66 l0 636 Z" /><glyph glyph-name="" unicode="m" d="M554 367 q-9 61 -44 98 q-35 37 -101 38 q-63 -1 -106 -36 q-42 -35 -64 -99 l-4 125 l-207 0 l0 -9 q31 -18 46 -38 q16 -20 16 -65 l0 -268 q1 -47 -11 -66 q-11 -19 -43 -38 l0 -9 l257 0 l0 9 q-32 19 -43 38 q-12 19 -11 66 l0 150 q1 74 28 108 q27 34 68 34 q39 -1 55 -27 q16 -27 16 -71 l0 -194 q1 -47 -10 -66 q-11 -19 -43 -38 l0 -9 l256 0 l0 9 q-32 19 -43 38 q-11 19 -10 66 l0 150 q1 74 27 108 q27 34 68 34 q39 -1 55 -27 q17 -27 16 -71 l0 -194 q1 -47 -10 -66 q-11 -19 -43 -38 l0 -9 l256 0 l0 9 q-32 19 -43 38 q-11 19 -10 66 l0 217 q0 75 -36 123 q-36 48 -111 50 q-63 -1 -106 -36 q-44 -36 -65 -100 l0 0 Z" /><glyph glyph-name="" unicode="n" d="M571 329 q0 76 -38 124 q-39 48 -123 50 q-60 0 -103 -34 q-44 -35 -68 -101 l-4 125 l-207 0 l0 -9 q31 -18 46 -38 q16 -20 16 -65 l0 -268 q1 -47 -11 -66 q-11 -19 -43 -38 l0 -9 l257 0 l0 9 q-32 19 -43 38 q-12 19 -11 66 l0 150 q1 74 30 109 q29 35 73 35 q42 -1 61 -27 q19 -27 19 -69 l0 -198 q1 -47 -11 -66 q-11 -19 -43 -38 l0 -9 l257 0 l0 9 q-32 19 -43 38 q-12 19 -11 66 l0 216 Z" /><glyph glyph-name="" unicode="o" d="M564 247 q-3 116 -77 185 q-75 69 -188 71 q-112 -2 -187 -71 q-75 -69 -78 -185 q3 -117 78 -186 q75 -69 187 -71 q113 2 188 71 q74 69 77 186 l0 0 ZM405 247 q1 -109 -24 -161 q-25 -53 -82 -53 q-56 0 -81 53 q-24 52 -24 161 q0 108 24 161 q25 52 81 52 q57 0 82 -52 q25 -53 24 -161 l0 0 Z" /><glyph glyph-name="" unicode="p" d="M232 268 q1 70 33 116 q32 45 87 47 q57 -1 87 -47 q30 -46 30 -129 q0 -104 -31 -156 q-30 -52 -87 -52 q-49 1 -83 43 q-34 41 -36 108 l0 70 ZM232 84 q19 -40 59 -66 q41 -27 106 -28 q98 1 164 70 q65 70 67 195 q-2 126 -64 187 q-61 61 -151 61 q-71 -1 -117 -36 q-46 -35 -64 -91 l-4 117 l-208 0 l0 -9 q31 -18 46 -38 q16 -20 16 -65 l0 -483 q1 -47 -10 -66 q-11 -19 -43 -38 l0 -9 l276 0 l0 10 q-40 19 -57 37 q-16 19 -16 66 l0 186 Z" /><glyph glyph-name="" unicode="q" d="M453 407 q-21 39 -66 67 q-46 28 -112 29 q-105 -1 -172 -69 q-67 -69 -69 -190 q3 -130 64 -192 q62 -62 152 -62 q70 1 117 37 q46 35 64 90 l0 -219 q0 -47 -17 -65 q-17 -19 -56 -38 l0 -10 l276 0 l0 9 q-32 19 -43 38 q-11 19 -10 66 l0 383 q0 66 1 122 q2 55 9 100 l-9 0 q-37 -5 -70 -30 q-34 -24 -59 -66 l0 0 ZM431 226 q-1 -70 -33 -116 q-32 -45 -87 -47 q-57 1 -87 48 q-30 47 -30 134 q0 100 31 150 q30 51 87 51 q48 -1 83 -42 q34 -42 36 -109 l0 -69 Z" /><glyph glyph-name="" unicode="r" d="M239 236 q1 73 31 113 q29 40 72 41 q36 -1 52 -24 q15 -22 15 -57 q33 8 56 33 q22 26 23 69 q0 40 -25 66 q-24 25 -69 26 q-66 -2 -103 -48 q-36 -46 -52 -112 l-4 150 l-207 0 l0 -9 q31 -18 46 -38 q16 -20 16 -65 l0 -268 q1 -47 -11 -66 q-11 -19 -43 -38 l0 -9 l297 0 l0 11 q-48 20 -71 39 q-23 19 -23 65 l0 121 Z" /><glyph glyph-name="" unicode="s" d="M245 457 q50 0 91 -31 q41 -31 82 -93 l13 0 l0 170 l-9 0 l-43 -35 q-28 14 -60 24 q-32 11 -76 11 q-80 -1 -131 -43 q-52 -42 -54 -114 q-2 -64 39 -104 q41 -40 147 -65 q49 -9 77 -24 q27 -16 28 -49 q-1 -34 -27 -50 q-27 -17 -66 -17 q-54 0 -99 36 q-46 36 -94 106 l-14 0 l11 -188 l10 0 l39 40 q24 -14 61 -27 q37 -13 87 -14 q93 1 150 46 q56 45 58 120 q0 71 -45 109 q-45 37 -138 60 q-55 13 -82 29 q-28 16 -28 47 q1 27 21 42 q21 14 52 14 l0 0 Z" /><glyph glyph-name="" unicode="t" d="M11 434 l74 0 l-1 -292 q0 -77 43 -115 q43 -37 114 -37 q88 2 132 51 q44 49 50 124 l-22 6 q-12 -51 -36 -74 q-24 -24 -59 -24 q-37 0 -55 21 q-18 21 -18 67 l0 273 l162 0 l5 51 l-167 0 l0 171 l-28 0 q-20 -76 -74 -125 q-55 -50 -120 -63 l0 -34 Z" /><glyph glyph-name="" unicode="u" d="M229 493 l-211 0 l0 -9 q31 -18 46 -38 q16 -20 16 -65 l0 -219 q0 -76 39 -123 q38 -48 117 -49 q64 0 106 35 q43 35 65 101 l0 -126 l203 0 l0 9 q-32 19 -43 38 q-11 19 -10 66 l0 380 l-212 0 l0 -9 q31 -18 47 -38 q15 -20 15 -65 l0 -151 q-1 -73 -29 -109 q-27 -36 -71 -36 q-42 1 -60 28 q-18 27 -18 69 l0 311 Z" /><glyph glyph-name="" unicode="v" d="M332 187 l-98 198 q-8 18 -13 31 q-4 14 -4 24 q0 11 7 21 q8 9 24 23 l0 9 l-249 0 l0 -9 q25 -20 42 -43 q18 -23 39 -66 l194 -385 l10 0 l193 385 q22 43 39 66 q18 23 42 43 l0 9 l-171 0 l0 -9 q22 -14 36 -28 q14 -14 15 -30 q0 -10 -4 -22 q-3 -12 -11 -29 l-91 -188 Z" /><glyph glyph-name="" unicode="w" d="M532 -10 l10 0 l172 385 q19 44 36 67 q16 22 41 42 l0 9 l-170 0 l0 -9 q26 -18 40 -32 q14 -15 14 -31 q0 -9 -4 -21 q-3 -12 -11 -29 l-73 -173 l-71 187 q-7 17 -11 31 q-5 14 -5 24 q0 11 7 21 q7 9 24 23 l0 9 l-227 0 l0 -9 q26 -19 40 -41 q13 -22 30 -64 l4 -9 l-73 -172 l-79 187 q-8 17 -12 31 q-4 14 -4 24 q0 12 6 22 q7 10 23 22 l0 9 l-240 0 l0 -9 q25 -20 42 -42 q16 -23 35 -67 l170 -385 l10 0 l143 327 l133 -327 Z" /><glyph glyph-name="" unicode="x" d="M188 9 q-16 15 -23 25 q-7 10 -7 20 q0 14 8 29 q7 14 25 39 l57 78 l63 -90 q17 -25 26 -38 q9 -14 9 -26 q0 -10 -5 -19 q-5 -9 -14 -18 l0 -9 l261 0 l0 9 q-37 21 -61 45 q-23 24 -52 66 l-115 165 l68 90 q29 38 60 65 q32 27 71 44 l0 9 l-185 0 l0 -9 q15 -12 24 -22 q9 -10 9 -23 q0 -14 -10 -29 q-10 -16 -27 -39 l-35 -49 l-44 62 q-18 25 -27 41 q-10 16 -10 27 q0 9 6 17 q5 8 15 15 l0 9 l-262 0 l0 -9 q36 -21 60 -44 q24 -23 53 -67 l96 -136 l-91 -119 q-29 -38 -60 -65 q-32 -27 -71 -44 l0 -9 l188 0 l0 9 Z" /><glyph glyph-name="" unicode="y" d="M261 -6 l-24 -56 q-15 -35 -33 -54 q-18 -18 -45 -18 q-21 0 -32 13 q-12 13 -12 34 q0 9 2 18 q1 9 5 16 q-35 -1 -61 -23 q-26 -22 -27 -60 q1 -42 28 -65 q28 -24 72 -24 q52 0 82 33 q30 32 56 94 l205 473 q19 44 36 67 q17 23 42 42 l0 9 l-170 0 l0 -9 q26 -18 39 -30 q13 -13 13 -28 q0 -10 -5 -24 q-4 -14 -11 -32 l-86 -212 l-101 227 q-8 18 -12 31 q-5 14 -5 24 q0 12 7 22 q8 9 24 22 l0 9 l-249 0 l0 -9 q25 -20 43 -43 q18 -23 38 -66 l181 -381 Z" /><glyph glyph-name="" unicode="z" d="M34 7 l0 -7 l450 0 l29 179 l-10 1 q-55 -83 -91 -111 q-36 -27 -98 -25 l-88 0 l277 442 l0 7 l-373 0 q-23 0 -37 2 q-14 2 -26 5 l-14 -176 l9 -1 q45 72 80 100 q34 28 91 27 l80 0 l-279 -443 Z" /><glyph glyph-name="" unicode="{" d="M22 286 q50 0 87 -29 q37 -29 39 -108 q-1 -33 -9 -74 q-8 -40 -9 -80 q0 -72 51 -111 q52 -39 153 -39 q11 0 23 1 q12 1 24 3 l0 13 q-60 0 -89 31 q-30 31 -30 90 q1 44 11 90 q9 46 10 82 q-5 78 -65 109 q-59 31 -107 33 q48 2 107 33 q60 31 65 109 q-1 35 -10 81 q-10 46 -11 90 q0 59 30 90 q29 32 89 32 l0 13 q-12 2 -24 3 q-12 1 -23 1 q-101 -1 -153 -40 q-51 -39 -51 -111 q1 -40 9 -80 q8 -40 9 -73 q-2 -79 -39 -108 q-37 -30 -87 -30 l0 -21 Z" /><glyph glyph-name="" unicode="|" d="M90 -153 l51 0 l0 902 l-51 0 l0 -902 Z" /><glyph glyph-name="" unicode="}" d="M375 307 q-50 0 -87 30 q-37 29 -39 108 q1 33 9 73 q8 40 9 80 q0 72 -51 111 q-52 39 -153 40 q-11 0 -23 -1 q-12 -1 -24 -3 l0 -13 q60 0 90 -32 q29 -31 29 -90 q-1 -44 -10 -90 q-10 -46 -11 -81 q6 -78 65 -109 q60 -31 107 -33 q-47 -2 -107 -33 q-59 -31 -65 -109 q1 -36 11 -82 q9 -46 10 -90 q0 -59 -29 -90 q-30 -31 -90 -31 l0 -13 q12 -2 24 -3 q12 -1 23 -1 q101 0 153 39 q51 39 51 111 q-1 40 -9 80 q-8 41 -9 74 q2 79 39 108 q37 29 87 29 l0 21 Z" /><glyph glyph-name="" unicode="~" d="M62 242 q16 29 40 42 q24 12 53 12 q49 -3 94 -23 q46 -20 98 -23 q50 1 83 44 q32 43 48 110 l-13 0 q-15 -28 -39 -41 q-24 -13 -54 -13 q-49 3 -94 24 q-46 20 -98 23 q-50 -1 -83 -44 q-32 -43 -47 -111 l12 0 Z" /><glyph glyph-name="" unicode="¡" d="M151 560 q-41 -1 -66 -27 q-26 -27 -27 -67 q1 -39 27 -66 q25 -27 66 -28 q41 1 66 28 q26 27 27 66 q-1 40 -27 67 q-25 26 -66 27 l0 0 ZM249 -148 l-88 452 l-21 0 l-87 -452 l196 0 Z" /><glyph glyph-name="" unicode="¢" d="M193 273 q0 83 29 142 q30 59 89 68 l-34 -397 q-41 23 -62 70 q-22 47 -22 117 l0 0 ZM526 164 l-22 8 q-26 -55 -62 -80 q-37 -24 -87 -24 q-11 0 -22 1 q-11 2 -21 4 l35 409 q32 -6 49 -27 q17 -21 17 -52 q0 -22 -6 -37 q-7 -15 -20 -25 q8 -9 22 -15 q14 -7 32 -7 q26 -1 51 17 q24 18 26 61 q-2 54 -49 88 q-48 33 -119 39 l8 92 l-36 0 l-8 -91 q-121 -4 -196 -75 q-75 -72 -77 -196 q2 -119 66 -186 q64 -67 162 -76 l-9 -106 l36 0 l9 104 q84 1 142 46 q57 46 79 128 l0 0 Z" /><glyph glyph-name="" unicode="£" d="M489 -29 q67 0 110 33 q43 33 44 98 q0 35 -15 58 q-15 23 -41 38 q1 -61 -30 -85 q-31 -25 -80 -24 q-54 0 -99 8 q-45 8 -83 19 q22 40 36 92 q14 51 19 115 l140 0 l0 41 l-138 0 q0 7 0 14 l0 158 q-1 62 19 99 q20 37 67 38 q40 -1 59 -23 q18 -23 18 -60 q0 -33 -10 -53 q-10 -19 -25 -31 q10 -5 25 -9 q14 -3 28 -3 q39 0 64 23 q25 24 26 68 q-1 54 -49 89 q-49 35 -136 36 q-115 -1 -185 -62 q-69 -61 -71 -166 q0 -30 3 -59 q4 -30 9 -59 l-88 0 l0 -41 l94 0 q5 -29 8 -59 q3 -31 3 -63 q0 -31 -4 -58 q-25 7 -48 11 q-24 5 -49 5 q-46 -1 -73 -24 q-27 -24 -28 -64 q1 -37 26 -58 q25 -22 68 -23 q44 0 84 19 q39 19 72 56 q48 -33 102 -63 q54 -29 128 -31 l0 0 ZM104 30 q-20 0 -33 11 q-13 11 -13 31 q0 21 14 34 q14 12 39 12 q23 0 44 -5 q21 -5 40 -13 q-13 -33 -35 -51 q-23 -19 -56 -19 l0 0 Z" /><glyph glyph-name="" unicode="&#x2044;" d="M-100 -10 l438 720 l-55 0 l-438 -720 l55 0 Z" /><glyph glyph-name="" unicode="¥" d="M497 9 q-36 22 -50 42 q-15 20 -14 67 l0 92 l190 0 l0 41 l-190 0 l0 45 l21 36 l169 0 l0 41 l-145 0 l123 209 q23 40 45 63 q21 23 51 46 l0 9 l-173 0 l0 -9 q21 -16 29 -28 q8 -12 8 -27 q0 -9 -4 -20 q-3 -11 -10 -22 l-132 -234 l-134 234 q-7 11 -11 22 q-4 11 -4 20 q0 15 8 27 q9 12 30 28 l0 9 l-288 0 l0 -9 q29 -24 51 -47 q21 -24 44 -62 l124 -209 l-146 0 l0 -41 l170 0 l21 -36 l0 -45 l-191 0 l0 -41 l191 0 l0 -92 q1 -47 -14 -67 q-15 -20 -51 -42 l0 -9 l282 0 l0 9 Z" /><glyph glyph-name="" unicode="&#x192;" d="M37 -210 q100 -1 160 61 q61 61 78 190 l38 292 l108 0 l6 38 l-109 0 l27 206 q5 43 21 69 q16 25 45 26 q24 -1 34 -15 q10 -14 10 -36 q0 -28 -8 -48 q-8 -20 -23 -33 q5 -2 15 -5 q10 -3 28 -3 q34 0 64 21 q31 21 33 65 q-1 43 -40 67 q-39 25 -106 25 q-100 -1 -160 -54 q-61 -53 -74 -151 l-17 -134 l-94 0 l-6 -38 l95 0 l-53 -410 q-6 -43 -21 -68 q-15 -25 -44 -26 q-24 1 -34 15 q-10 14 -10 35 q0 29 8 48 q8 20 23 33 q-5 2 -15 5 q-10 3 -28 3 q-34 0 -64 -20 q-31 -21 -33 -65 q1 -44 40 -68 q39 -25 106 -25 l0 0 Z" /><glyph glyph-name="" unicode="¤§" d="M435 56 q-16 24 -35 41 q-19 17 -43 36 l-175 142 q-33 27 -47 50 q-13 23 -13 48 q0 19 6 33 q5 13 16 23 q16 -24 35 -41 q19 -17 43 -36 l175 -142 q34 -27 47 -50 q14 -23 13 -48 q0 -19 -6 -32 q-5 -14 -16 -24 l0 0 ZM452 36 q32 25 55 63 q24 39 25 86 q0 48 -26 91 q-25 42 -77 84 l-127 102 q-49 37 -72 63 q-23 27 -23 62 q0 37 24 59 q23 22 64 23 q42 -1 66 -24 q23 -24 23 -57 q0 -28 -9 -42 q-8 -13 -19 -21 q17 -9 47 -9 q30 0 53 19 q24 18 25 53 q-2 52 -52 87 q-51 34 -131 35 q-89 -2 -141 -51 q-51 -49 -52 -126 q1 -48 22 -84 q-32 -24 -55 -63 q-24 -39 -25 -86 q0 -48 26 -91 q25 -42 77 -84 l127 -102 q49 -37 72 -63 q23 -27 23 -62 q0 -37 -24 -59 q-23 -22 -63 -23 q-43 1 -66 24 q-24 24 -24 57 q0 28 9 42 q8 13 19 21 q-17 9 -47 9 q-30 0 -53 -19 q-24 -18 -25 -53 q2 -52 52 -86 q51 -35 131 -36 q90 2 141 51 q51 49 52 126 q0 48 -22 84 l0 0 Z" /><glyph glyph-name="" unicode="&#39;" d="M144 395 l76 258 q-10 27 -32 42 q-23 15 -51 15 q-28 0 -51 -15 q-22 -15 -31 -42 l75 -258 l14 0 Z" /><glyph glyph-name="" unicode="&#x201c;" d="M380 552 q0 59 35 92 q34 33 94 38 l0 33 q-91 -2 -147 -51 q-55 -49 -57 -135 q1 -56 30 -88 q30 -32 79 -33 q36 1 61 23 q24 23 25 60 q-1 34 -22 55 q-21 20 -51 21 q-14 0 -26 -4 q-13 -3 -21 -11 l0 0 ZM116 552 q0 59 35 92 q34 33 94 38 l0 33 q-91 -2 -147 -51 q-55 -49 -57 -135 q1 -56 30 -88 q30 -32 79 -33 q36 1 61 23 q24 23 25 60 q-1 34 -22 55 q-21 20 -51 21 q-14 0 -26 -4 q-13 -3 -21 -11 l0 0 Z" /><glyph glyph-name="" unicode="«" d="M307 240 q66 -34 135 -89 q70 -55 128 -122 l19 0 q-23 67 -53 122 q-31 55 -59 93 q28 38 59 93 q30 56 53 122 l-19 0 q-58 -67 -128 -122 q-69 -55 -135 -89 l0 -8 ZM39 240 q66 -34 135 -89 q70 -55 128 -122 l19 0 q-23 67 -53 122 q-31 55 -59 93 q28 38 59 93 q30 56 53 122 l-19 0 q-58 -67 -128 -122 q-69 -55 -135 -89 l0 -8 Z" /><glyph glyph-name="" unicode="&#x2039;" d="M39 240 q66 -34 135 -89 q70 -55 128 -122 l19 0 q-23 67 -53 122 q-31 55 -59 93 q28 38 59 93 q30 56 53 122 l-19 0 q-58 -67 -128 -122 q-69 -55 -135 -89 l0 -8 Z" /><glyph glyph-name="" unicode="&#x203a;" d="M317 248 q-66 34 -135 89 q-70 55 -128 122 l-19 0 q23 -66 53 -122 q31 -55 59 -93 q-28 -38 -59 -93 q-30 -55 -53 -122 l19 0 q58 67 128 122 q69 55 135 89 l0 8 Z" /><glyph glyph-name="" unicode="&#xfb01;" d="M239 443 l186 0 l0 -330 q1 -47 -11 -66 q-11 -19 -43 -38 l0 -9 l257 0 l0 9 q-32 19 -43 38 q-11 19 -10 66 l0 380 l-336 0 l0 80 q0 67 25 105 q24 38 72 39 q38 -1 54 -23 q16 -22 15 -49 q0 -25 -7 -43 q-7 -19 -16 -29 q6 -2 19 -5 q13 -3 29 -3 q38 0 65 19 q28 19 29 59 q-1 54 -52 84 q-51 29 -133 29 q-111 0 -179 -54 q-68 -54 -70 -163 l0 -40 l-70 -21 l0 -35 l70 0 l0 -330 q1 -47 -11 -66 q-11 -19 -43 -38 l0 -9 l266 0 l0 10 q-37 19 -50 37 q-14 18 -13 64 l0 332 Z" /><glyph glyph-name="" unicode="&#xfb02;" d="M575 749 l-115 -59 q-23 29 -63 47 q-40 18 -94 19 q-95 -1 -153 -54 q-58 -53 -60 -149 l0 -54 l-70 -21 l0 -35 l70 0 l0 -330 q1 -47 -11 -66 q-11 -19 -43 -38 l0 -9 l266 0 l0 10 q-37 19 -50 37 q-14 18 -13 64 l0 332 l117 0 l5 50 l-122 0 l0 95 q0 58 22 90 q22 32 68 32 q41 0 68 -27 q27 -28 28 -79 l0 -491 q1 -47 -11 -66 q-11 -19 -43 -38 l0 -9 l257 0 l0 9 q-32 19 -43 38 q-11 19 -10 66 l0 636 Z" /><glyph glyph-name="" unicode="&#x2013;" d="M50 254 l420 0 l0 63 l-420 0 l0 -63 Z" /><glyph glyph-name="" unicode="&#x2020;" d="M205 749 l0 -143 l-145 0 l0 -51 l145 0 l0 -270 l51 0 l0 270 l145 0 l0 51 l-145 0 l0 143 l-51 0 Z" /><glyph glyph-name="" unicode="&#x2021;" d="M205 462 l-145 0 l0 -52 l145 0 l0 -125 l51 0 l0 125 l145 0 l0 52 l-145 0 l0 110 l145 0 l0 52 l-145 0 l0 125 l-51 0 l0 -125 l-145 0 l0 -52 l145 0 l0 -110 Z" /><glyph glyph-name="" unicode="·" d="M232 285 q-1 39 -27 66 q-25 27 -66 28 q-41 -1 -66 -28 q-26 -27 -27 -66 q1 -40 27 -66 q25 -27 66 -28 q41 1 66 28 q26 26 27 66 l0 0 Z" /><glyph glyph-name="" unicode="¦¶" d="M363 -214 l52 0 l0 881 l90 0 l0 -881 l53 0 l0 796 q-1 47 13 67 q13 20 48 42 l0 9 l-256 0 q-134 0 -228 -56 q-93 -57 -97 -170 q4 -114 97 -170 q94 -56 228 -56 l0 -462 Z" /><glyph glyph-name="" unicode="&#x2022;" d="M42 281 q2 -69 49 -115 q46 -47 115 -49 q69 2 116 49 q47 46 49 115 q-2 70 -49 117 q-47 46 -116 48 q-69 -2 -115 -48 q-47 -47 -49 -117 l0 0 Z" /><glyph glyph-name="" unicode="&#x201a;" d="M167 15 q0 -59 -34 -92 q-35 -33 -95 -38 l0 -33 q92 2 147 51 q56 49 57 135 q-1 56 -30 88 q-30 32 -79 33 q-36 -1 -61 -23 q-24 -23 -25 -60 q1 -34 22 -55 q21 -20 51 -21 q14 0 27 4 q12 4 20 11 l0 0 Z" /><glyph glyph-name="" unicode="&#x201e;" d="M430 15 q0 -59 -34 -92 q-35 -33 -95 -38 l0 -33 q92 2 147 51 q56 49 57 135 q-1 56 -30 88 q-30 32 -79 33 q-36 -1 -61 -23 q-24 -23 -25 -60 q1 -34 22 -55 q21 -20 51 -21 q14 0 27 4 q12 4 20 11 l0 0 ZM167 15 q0 -59 -34 -92 q-35 -33 -95 -38 l0 -33 q92 2 147 51 q56 49 57 135 q-1 56 -30 88 q-30 32 -79 33 q-36 -1 -61 -23 q-24 -23 -25 -60 q1 -34 22 -55 q21 -20 51 -21 q14 0 27 4 q12 4 20 11 l0 0 Z" /><glyph glyph-name="" unicode="&#x201d;" d="M430 571 q0 -59 -34 -92 q-35 -33 -95 -38 l0 -33 q92 2 147 51 q56 49 57 135 q-1 56 -30 88 q-30 32 -79 33 q-36 -1 -61 -23 q-24 -23 -25 -60 q1 -34 22 -55 q21 -20 51 -21 q14 0 27 4 q12 4 20 11 l0 0 ZM167 571 q0 -59 -34 -92 q-35 -33 -95 -38 l0 -33 q92 2 147 51 q56 49 57 135 q-1 56 -30 88 q-30 32 -79 33 q-36 -1 -61 -23 q-24 -23 -25 -60 q1 -34 22 -55 q21 -20 51 -21 q14 0 27 4 q12 4 20 11 l0 0 Z" /><glyph glyph-name="" unicode="»" d="M585 248 q-66 34 -135 89 q-70 55 -128 122 l-19 0 q23 -66 53 -122 q31 -55 59 -93 q-28 -38 -59 -93 q-30 -55 -53 -122 l19 0 q58 67 128 122 q69 55 135 89 l0 8 ZM317 248 q-66 34 -135 89 q-70 55 -128 122 l-19 0 q23 -66 53 -122 q31 -55 59 -93 q-28 -38 -59 -93 q-30 -55 -53 -122 l19 0 q58 67 128 122 q69 55 135 89 l0 8 Z" /><glyph glyph-name="" unicode="&#x2026;" d="M747 86 q-1 39 -27 66 q-25 27 -66 28 q-41 -1 -66 -28 q-26 -27 -27 -66 q1 -40 27 -66 q25 -27 66 -28 q41 1 66 28 q26 26 27 66 l0 0 ZM489 86 q-1 39 -27 66 q-25 27 -66 28 q-41 -1 -66 -28 q-26 -27 -27 -66 q1 -40 27 -66 q25 -27 66 -28 q41 1 66 28 q26 26 27 66 l0 0 ZM232 86 q-1 39 -27 66 q-25 27 -66 28 q-41 -1 -66 -28 q-26 -27 -27 -66 q1 -40 27 -66 q25 -27 66 -28 q41 1 66 28 q26 26 27 66 l0 0 Z" /><glyph glyph-name="" unicode="&#x2030;" d="M378 637 q22 -5 53 -9 q30 -4 53 -4 q37 0 79 10 q42 10 62 26 l-349 -660 l49 0 l375 710 l-35 9 q-34 -32 -80 -47 q-47 -15 -101 -15 q-78 3 -134 27 q-56 23 -115 26 q-78 -1 -135 -52 q-57 -51 -60 -136 q3 -85 60 -135 q57 -51 135 -52 q78 1 135 52 q57 50 60 135 q-1 33 -15 64 q-15 31 -37 51 l0 0 ZM318 522 q0 -69 -20 -109 q-20 -39 -63 -40 q-44 1 -64 40 q-19 40 -19 109 q0 69 19 109 q20 39 64 40 q43 -1 63 -40 q20 -40 20 -109 l0 0 ZM743 -10 q78 1 135 52 q57 51 60 136 q-3 85 -60 135 q-57 51 -135 52 q-78 -1 -135 -52 q-57 -50 -60 -135 q3 -85 60 -136 q57 -51 135 -52 l0 0 ZM1190 365 q-78 -1 -135 -52 q-57 -50 -60 -135 q3 -85 60 -136 q57 -51 135 -52 q78 1 136 52 q57 51 60 136 q-3 85 -60 135 q-58 51 -136 52 l0 0 ZM743 29 q-44 1 -64 40 q-19 40 -19 109 q0 69 19 109 q20 39 64 40 q44 -1 64 -40 q19 -40 19 -109 q0 -69 -19 -109 q-20 -39 -64 -40 l0 0 ZM1190 327 q44 -1 64 -40 q20 -40 20 -109 q0 -69 -20 -109 q-20 -39 -64 -40 q-44 1 -64 40 q-19 40 -19 109 q0 69 19 109 q20 39 64 40 l0 0 Z" /><glyph glyph-name="" unicode="¿" d="M176 466 q1 -39 27 -66 q25 -27 66 -28 q41 1 66 28 q26 27 27 66 q-1 40 -27 67 q-25 26 -66 27 q-41 -1 -66 -27 q-26 -27 -27 -67 l0 0 ZM272 -118 q-57 1 -83 35 q-26 33 -26 80 q1 57 35 93 q33 35 94 53 l0 180 l-38 0 l0 -53 q-91 -24 -156 -83 q-65 -58 -68 -147 q1 -94 67 -146 q66 -51 172 -52 q95 1 161 42 q67 40 70 107 q-1 50 -29 74 q-28 25 -72 25 q-23 0 -44 -8 q-21 -8 -31 -17 q22 -13 35 -33 q13 -20 13 -50 q0 -45 -26 -72 q-26 -27 -74 -28 l0 0 Z" /><glyph glyph-name="" unicode="`" d="M140 749 l191 -188 l29 0 l-58 188 l-162 0 Z" /><glyph glyph-name="" unicode="´" d="M198 749 l-58 -188 l29 0 l191 188 l-162 0 Z" /><glyph glyph-name="" unicode="&#x2c6;" d="M259 775 l-18 0 q-25 -45 -71 -106 q-46 -62 -97 -117 l38 0 q39 20 73 44 q35 24 66 50 q31 -26 66 -50 q34 -24 73 -44 l38 0 q-51 55 -97 117 q-46 61 -71 106 l0 0 Z" /><glyph glyph-name="" unicode="&#x2dc;" d="M83 571 q14 31 31 48 q18 17 43 17 q38 -4 82 -30 q45 -27 90 -31 q41 0 70 42 q29 41 46 117 l-28 0 q-14 -31 -31 -48 q-18 -17 -43 -17 q-38 4 -82 31 q-45 26 -90 30 q-41 0 -70 -41 q-29 -41 -46 -118 l28 0 Z" /><glyph glyph-name="" unicode="¯" d="M399 583 l0 78 l-298 0 l0 -78 l298 0 Z" /><glyph glyph-name="" unicode="&#x2d8;" d="M127 761 l-27 0 q3 -86 44 -139 q41 -53 106 -54 q65 1 106 54 q41 53 44 139 l-27 0 q-10 -47 -45 -68 q-35 -21 -78 -21 q-43 0 -78 21 q-35 21 -45 68 l0 0 Z" /><glyph glyph-name="" unicode="&#x2d9;" d="M249 568 q38 1 63 25 q25 24 26 62 q-1 38 -26 62 q-25 24 -63 25 q-38 -1 -63 -25 q-24 -24 -25 -62 q1 -38 25 -62 q25 -24 63 -25 l0 0 Z" /><glyph glyph-name="" unicode="¨¬" d="M145 564 q34 1 56 23 q21 22 22 54 q-1 33 -22 56 q-22 23 -56 24 q-33 -1 -55 -24 q-21 -23 -22 -56 q1 -32 22 -54 q22 -22 55 -23 l0 0 ZM354 564 q34 1 56 23 q21 22 22 54 q-1 33 -22 56 q-22 23 -56 24 q-33 -1 -55 -24 q-22 -23 -23 -56 q1 -32 23 -54 q22 -22 55 -23 l0 0 Z" /><glyph glyph-name="" unicode="&#x2da;" d="M137 670 q1 -48 34 -79 q32 -32 79 -33 q47 1 79 33 q33 31 34 79 q-1 47 -34 79 q-32 32 -79 33 q-47 -1 -79 -33 q-33 -32 -34 -79 l0 0 ZM307 670 q0 -24 -16 -40 q-16 -15 -41 -16 q-25 1 -41 16 q-16 16 -16 40 q0 25 16 41 q16 16 41 16 q25 0 41 -16 q16 -16 16 -41 l0 0 Z" /><glyph glyph-name="" unicode="¸" d="M126 -160 q12 -26 45 -44 q32 -19 81 -20 q52 0 86 24 q35 24 36 66 q-1 43 -38 62 q-37 18 -94 19 l41 73 l-40 0 l-57 -98 q42 -1 65 -15 q24 -13 24 -41 q0 -21 -14 -33 q-15 -12 -41 -12 q-22 0 -43 10 q-21 10 -36 28 l-15 -19 Z" /><glyph glyph-name="" unicode="&#x2dd;" d="M112 749 l-56 -188 l29 0 l176 188 l-149 0 ZM296 749 l-57 -188 l29 0 l176 188 l-148 0 Z" /><glyph glyph-name="" unicode="&#x2db;" d="M138 -154 q2 -42 32 -64 q30 -23 70 -23 q64 1 102 33 q37 31 59 77 l-16 13 q-21 -27 -43 -41 q-22 -15 -51 -15 q-25 0 -40 15 q-16 14 -17 41 q0 31 26 60 q25 29 71 61 l-15 21 q-68 -35 -122 -77 q-53 -42 -56 -101 l0 0 Z" /><glyph glyph-name="" unicode="&#x2c7;" d="M427 778 l-38 0 q-39 -20 -73 -44 q-35 -24 -66 -50 q-31 26 -66 50 q-34 24 -73 44 l-38 0 q51 -55 97 -117 q46 -61 71 -106 l18 0 q25 45 71 106 q46 62 97 117 l0 0 Z" /><glyph glyph-name="" unicode="&#x2014;" d="M50 254 l720 0 l0 63 l-720 0 l0 -63 Z" /><glyph glyph-name="" unicode="æ" d="M298 311 l219 334 l0 -334 l-219 0 ZM207 9 q-32 25 -43 38 q-12 12 -11 27 q0 8 5 19 q4 11 12 22 l99 151 l248 0 l0 -148 q1 -47 -13 -67 q-14 -20 -49 -42 l0 -9 l581 0 l32 198 l-11 0 q-47 -76 -90 -115 q-44 -38 -120 -38 l-173 0 l0 294 l110 0 q58 2 84 -14 q26 -17 52 -82 l11 0 l0 236 l-11 0 q-26 -66 -52 -82 q-26 -17 -84 -14 l-110 0 l0 272 l145 0 q82 -1 122 -38 q41 -37 86 -97 l11 0 l-34 186 q-11 -2 -24 -4 q-14 -2 -36 -2 l-569 0 l0 -9 q26 -17 42 -31 q17 -15 17 -33 q0 -16 -13 -39 l-309 -470 q-26 -40 -46 -63 q-20 -23 -50 -46 l0 -9 l191 0 l0 9 Z" /><glyph glyph-name="" unicode="ª" d="M278 464 l0 -43 q0 -42 -16 -65 q-16 -23 -45 -23 q-22 0 -33 14 q-12 14 -12 38 q0 30 17 46 q17 16 52 24 l37 9 ZM279 349 q6 -40 28 -56 q21 -16 63 -15 q26 0 50 6 q24 5 36 9 l0 9 q-34 7 -49 22 q-15 16 -15 50 q0 41 1 78 q1 36 1 65 q0 62 -41 91 q-41 29 -123 29 q-73 -1 -113 -23 q-40 -23 -41 -62 q0 -24 16 -37 q16 -14 44 -14 q16 0 33 6 q16 5 24 14 q-9 4 -16 13 q-7 9 -7 28 q0 23 13 34 q13 12 38 12 q33 0 45 -21 q13 -20 12 -54 l0 -43 l-56 -10 q-63 -9 -112 -33 q-49 -25 -52 -82 q1 -44 31 -66 q30 -22 73 -22 q46 0 76 19 q30 19 41 53 l0 0 ZM90 153 l312 0 l0 46 l-312 0 l0 -46 Z" /><glyph glyph-name="" unicode="&#x141;" d="M49 0 l567 0 l36 233 l-10 0 q-63 -98 -107 -143 q-44 -46 -116 -45 l-150 0 l0 286 l169 73 l0 52 l-169 -73 l0 199 q-1 47 13 67 q14 20 49 42 l0 9 l-282 0 l0 -9 q35 -22 49 -42 q14 -20 14 -67 l0 -260 l-71 -31 l0 -52 l71 31 l0 -152 q0 -47 -14 -67 q-14 -20 -49 -42 l0 -9 Z" /><glyph glyph-name="" unicode="ø" d="M408 661 q58 0 97 -31 q39 -31 60 -93 l-324 -343 q-20 66 -20 156 q0 149 46 230 q45 80 141 81 l0 0 ZM408 39 q-53 0 -91 27 q-37 26 -59 77 l321 340 q8 -29 13 -62 q4 -33 4 -71 q0 -149 -46 -230 q-46 -80 -142 -81 l0 0 ZM773 350 q0 72 -24 133 q-24 61 -66 108 l86 89 l-34 34 l-86 -90 q-48 41 -110 64 q-61 22 -131 22 q-156 -3 -258 -101 q-102 -99 -106 -259 q0 -77 27 -142 q27 -65 75 -113 l-100 -104 l34 -33 l102 106 q47 -35 104 -55 q58 -19 122 -19 q156 3 259 101 q102 99 106 259 l0 0 Z" /><glyph glyph-name="" unicode="&#x152;" d="M212 353 q1 145 69 222 q67 77 185 78 l64 0 l0 -606 l-76 0 q-110 -1 -175 71 q-65 73 -67 235 l0 0 ZM436 0 l613 0 l32 198 l-11 0 q-46 -76 -90 -115 q-44 -38 -120 -38 l-172 0 l0 294 l110 0 q58 2 84 -14 q25 -17 51 -82 l11 0 l0 236 l-11 0 q-26 -66 -51 -82 q-26 -17 -84 -14 l-110 0 l0 272 l144 0 q82 -1 122 -38 q41 -37 86 -97 l11 0 l-34 186 q-11 -2 -24 -4 q-14 -2 -36 -2 l-502 0 q-184 0 -296 -89 q-112 -88 -115 -258 q4 -179 115 -266 q111 -87 277 -87 l0 0 Z" /><glyph glyph-name="" unicode="º" d="M433 457 q-2 83 -56 131 q-54 48 -135 49 q-81 -1 -135 -49 q-54 -48 -56 -131 q2 -82 56 -130 q54 -49 135 -50 q81 1 135 50 q54 48 56 130 l0 0 ZM309 457 q1 -77 -15 -113 q-15 -36 -52 -36 q-37 0 -52 36 q-15 36 -15 113 q0 78 15 114 q15 36 52 36 q37 0 52 -36 q16 -36 15 -114 l0 0 ZM87 153 l311 0 l0 46 l-311 0 l0 -46 Z" /><glyph glyph-name="" unicode="æ" d="M820 152 l-22 7 q-25 -52 -63 -74 q-37 -22 -88 -21 q-72 1 -111 53 q-39 52 -40 138 l334 0 q0 117 -59 182 q-60 65 -174 66 q-48 0 -90 -19 q-42 -20 -72 -56 q-24 36 -66 55 q-43 20 -100 20 q-97 -1 -152 -34 q-55 -34 -56 -88 q0 -33 22 -51 q21 -19 57 -19 q21 0 43 7 q22 7 32 20 q-12 6 -20 19 q-9 12 -9 36 q0 33 20 51 q19 17 56 17 q50 0 69 -30 q18 -29 17 -81 l0 -54 l-78 -13 q-89 -13 -159 -50 q-70 -36 -74 -117 q2 -64 45 -95 q44 -31 111 -31 q73 1 124 31 q51 30 76 73 q30 -52 82 -78 q51 -26 120 -26 q88 0 146 42 q57 42 79 120 l0 0 ZM498 300 q4 70 27 114 q23 45 71 46 q50 -2 67 -50 q17 -47 17 -110 l-182 0 ZM348 255 l0 -58 q0 -64 -26 -98 q-26 -34 -72 -34 q-32 0 -48 20 q-17 20 -17 55 q0 45 27 69 q27 24 81 35 l55 11 Z" /><glyph glyph-name="" unicode="&#x131;" d="M239 493 l-211 0 l0 -9 q31 -18 46 -38 q16 -20 16 -65 l0 -268 q1 -47 -11 -66 q-11 -19 -43 -38 l0 -9 l257 0 l0 9 q-32 19 -43 38 q-12 19 -11 66 l0 380 Z" /><glyph glyph-name="" unicode="&#x142;" d="M309 0 l0 9 q-32 19 -43 38 q-12 19 -11 66 l0 305 l87 41 l0 48 l-87 -40 l0 282 l-214 0 l0 -9 q32 -18 48 -38 q17 -20 17 -65 l0 -235 l-85 -40 l0 -48 l85 39 l0 -240 q1 -47 -11 -66 q-11 -19 -43 -38 l0 -9 l257 0 Z" /><glyph glyph-name="" unicode="ø" d="M301 460 q35 0 57 -21 q22 -22 32 -67 l-187 -201 q-4 16 -5 35 q-2 19 -2 41 q-1 108 24 161 q25 52 81 52 l0 0 ZM301 33 q-34 0 -56 20 q-21 20 -32 63 l187 201 q6 -30 6 -70 q1 -109 -24 -161 q-25 -53 -81 -53 l0 0 ZM566 247 q0 53 -18 97 q-17 44 -48 77 l66 70 l-33 31 l-67 -71 q-34 25 -76 38 q-42 14 -89 14 q-113 -2 -188 -71 q-74 -69 -77 -185 q0 -54 18 -100 q18 -45 51 -79 l-68 -72 l32 -31 l71 75 q33 -24 74 -37 q41 -13 87 -13 q112 2 187 71 q75 69 78 186 l0 0 Z" /><glyph glyph-name="" unicode="&#x153;" d="M874 152 l-21 7 q-25 -52 -63 -74 q-38 -22 -88 -21 q-72 1 -111 53 q-39 52 -40 138 l334 0 q0 117 -60 182 q-60 65 -174 66 q-51 0 -95 -22 q-44 -21 -78 -58 q-35 37 -80 58 q-46 22 -99 22 q-112 -2 -187 -71 q-75 -69 -78 -185 q3 -117 78 -186 q75 -69 187 -71 q51 1 96 22 q44 21 79 56 q34 -36 79 -57 q46 -21 97 -21 q87 0 145 42 q57 42 79 120 l0 0 ZM405 247 q1 -109 -24 -161 q-25 -53 -82 -53 q-56 0 -81 53 q-24 52 -24 161 q0 108 24 161 q25 52 81 52 q57 0 82 -52 q25 -53 24 -161 l0 0 ZM552 300 q5 70 28 114 q23 45 70 46 q50 -2 68 -50 q17 -47 16 -110 l-182 0 Z" /><glyph glyph-name="" unicode="ß" d="M503 -10 q78 2 129 48 q50 47 52 119 q1 64 -35 103 q-37 38 -117 72 q-51 22 -80 38 q-29 16 -29 42 q0 24 17 40 q18 16 56 36 q41 23 62 51 q20 28 20 68 q-2 66 -61 105 q-60 39 -146 40 q-121 0 -200 -61 q-78 -62 -81 -179 l0 -21 l-70 -22 l0 -35 l70 0 l0 -321 q1 -47 -11 -66 q-11 -19 -43 -38 l0 -9 l203 0 l0 547 q1 81 39 123 q37 41 94 41 q53 -1 81 -29 q28 -28 28 -73 q0 -36 -14 -63 q-14 -26 -45 -52 q-36 -28 -63 -65 q-28 -37 -29 -87 q-1 -54 29 -89 q30 -34 101 -61 q64 -23 89 -43 q26 -21 25 -53 q0 -28 -19 -43 q-19 -16 -50 -16 q-45 0 -83 36 q-39 35 -86 105 l-15 0 l11 -188 l10 0 l39 40 q22 -16 53 -28 q31 -11 69 -12 l0 0 Z" /><glyph glyph-name="" unicode="¹" d="M275 302 l0 13 q-45 20 -59 30 q-13 9 -12 28 l0 327 l-181 0 l0 -13 q46 -20 60 -30 q13 -10 12 -29 l0 -255 q1 -19 -12 -28 q-14 -10 -59 -30 l0 -13 l251 0 Z" /><glyph glyph-name="" unicode="&#x2122;" d="M72 700 q-10 0 -16 1 q-6 1 -11 2 l-13 -124 l10 0 q17 32 35 58 q17 26 50 28 l30 0 l0 -215 q0 -21 -10 -31 q-9 -9 -26 -19 l0 -7 l160 0 l0 7 q-16 10 -25 19 q-10 10 -10 31 l0 215 l31 0 q32 -2 49 -28 q17 -26 34 -58 l11 0 l-13 124 q-4 -1 -10 -2 q-6 -1 -16 -1 l-260 0 ZM614 535 l-72 165 l-146 0 l0 -6 q16 -10 24 -19 q8 -8 8 -29 l0 -198 q0 -21 -8 -29 q-8 -9 -24 -19 l0 -7 l105 0 l0 7 q-16 10 -24 19 q-9 8 -9 29 l0 209 l118 -268 l1 0 l118 268 l0 -209 q0 -21 -8 -29 q-9 -9 -24 -19 l0 -7 l153 0 l0 7 q-16 10 -24 19 q-9 8 -9 29 l0 198 q0 21 9 29 q8 9 24 19 l0 6 l-139 0 l-73 -165 Z" /><glyph glyph-name="" unicode="ð" d="M380 0 q171 0 277 87 q105 87 108 266 q-2 170 -108 258 q-106 89 -295 89 l-308 0 l0 -9 q35 -22 49 -42 q14 -20 14 -67 l0 -198 l-73 0 l0 -46 l73 0 l0 -220 q0 -47 -14 -67 q-14 -20 -49 -42 l0 -9 l326 0 ZM274 47 l0 291 l148 0 l0 46 l-148 0 l0 269 l77 0 q118 -1 182 -78 q63 -77 64 -222 q-1 -162 -63 -235 q-62 -72 -172 -71 l-88 0 Z" /><glyph glyph-name="" unicode="½" d="M197 -10 l438 720 l-55 0 l-438 -720 l55 0 ZM275 302 l0 13 q-45 20 -59 30 q-13 9 -12 28 l0 327 l-181 0 l0 -13 q46 -20 60 -30 q13 -10 12 -29 l0 -255 q1 -19 -12 -28 q-14 -10 -59 -30 l0 -13 l251 0 ZM578 88 q98 41 154 86 q55 44 56 104 q-3 75 -54 101 q-52 27 -109 25 q-61 -1 -98 -28 q-38 -27 -39 -75 q1 -35 22 -54 q22 -19 52 -19 q15 0 27 4 q11 3 19 10 q-16 9 -24 29 q-8 19 -8 43 q1 29 15 45 q14 16 34 16 q26 0 39 -18 q13 -18 13 -50 q-1 -57 -25 -99 q-24 -42 -62 -82 l-114 -123 l0 -3 l321 0 l13 135 l-8 0 q-18 -30 -39 -36 q-20 -7 -61 -7 l-124 -4 Z" /><glyph glyph-name="" unicode="±" d="M528 375 l0 60 l-198 0 l0 166 l-59 0 l0 -166 l-200 0 l0 -60 l200 0 l0 -169 l59 0 l0 169 l198 0 ZM71 98 l457 0 l0 60 l-457 0 l0 -60 Z" /><glyph glyph-name="" unicode="þ" d="M263 582 q-1 47 13 67 q14 20 49 42 l0 9 l-282 0 l0 -9 q35 -22 49 -42 q14 -20 14 -67 l0 -464 q0 -47 -14 -67 q-14 -20 -49 -42 l0 -9 l303 0 l0 9 q-41 21 -62 43 q-21 21 -21 66 l0 24 l132 0 q124 0 200 54 q76 53 78 160 q-2 107 -78 161 q-76 53 -200 53 l-132 0 l0 12 ZM263 187 l0 339 l71 0 q90 0 134 -42 q44 -43 44 -128 q0 -85 -44 -127 q-44 -42 -134 -42 l-71 0 Z" /><glyph glyph-name="" unicode="¼" d="M197 -10 l438 720 l-55 0 l-438 -720 l55 0 ZM275 302 l0 13 q-45 20 -59 30 q-13 9 -12 28 l0 327 l-181 0 l0 -13 q46 -20 60 -30 q13 -10 12 -29 l0 -255 q1 -19 -12 -28 q-14 -10 -59 -30 l0 -13 l251 0 ZM613 134 l-134 0 l134 189 l0 -189 ZM756 105 q23 0 32 -5 q10 -6 22 -24 l7 0 l0 88 l-7 0 q-12 -18 -22 -24 q-9 -6 -32 -6 l-34 0 l0 264 l-94 0 l-207 -290 l2 -3 l190 0 l0 -38 q0 -26 -5 -37 q-6 -12 -24 -23 l0 -7 l167 0 l0 7 q-18 11 -24 23 q-6 11 -5 37 l0 38 l34 0 Z" /><glyph glyph-name="" unicode="÷" d="M248 520 q1 -22 15 -36 q14 -14 36 -15 q22 1 37 15 q14 14 15 36 q-1 22 -15 37 q-15 14 -37 15 q-22 -1 -36 -15 q-14 -15 -15 -37 l0 0 ZM70 308 l456 0 l0 60 l-456 0 l0 -60 ZM248 155 q1 -22 15 -37 q14 -14 36 -15 q22 1 37 15 q14 15 15 37 q-1 23 -15 37 q-15 15 -37 15 q-22 0 -36 -15 q-14 -14 -15 -37 l0 0 Z" /><glyph glyph-name="" unicode="°" d="M313 576 q-1 57 -39 95 q-38 38 -94 39 q-57 -1 -95 -39 q-38 -38 -39 -95 q1 -56 39 -94 q38 -38 95 -39 q56 1 94 39 q38 38 39 94 l0 0 ZM99 576 q1 35 23 59 q23 23 58 24 q35 -1 57 -24 q22 -24 23 -59 q-1 -35 -23 -58 q-22 -23 -57 -24 q-35 1 -58 24 q-22 23 -23 58 l0 0 Z" /><glyph glyph-name="" unicode="þ" d="M230 268 q1 70 33 116 q32 45 87 47 q57 -1 87 -47 q30 -46 30 -129 q0 -104 -31 -156 q-30 -52 -86 -52 q-49 1 -84 43 q-34 41 -36 108 l0 70 ZM230 84 q19 -40 60 -66 q40 -27 106 -28 q98 1 163 70 q65 70 68 195 q-2 126 -64 187 q-61 61 -151 61 q-71 -1 -118 -36 q-46 -35 -64 -91 l0 373 l-215 0 l0 -9 q32 -18 49 -38 q16 -20 16 -65 l0 -739 q1 -47 -10 -66 q-11 -19 -43 -38 l0 -9 l256 0 l0 9 q-32 19 -43 38 q-11 19 -10 66 l0 186 Z" /><glyph glyph-name="" unicode="¾" d="M264 -10 l438 720 l-55 0 l-438 -720 l55 0 ZM186 296 q74 0 124 29 q49 28 51 86 q-2 53 -37 78 q-36 25 -86 27 l0 2 q45 3 76 25 q31 21 32 63 q-2 50 -47 75 q-46 25 -110 25 q-55 0 -92 -25 q-38 -24 -39 -67 q1 -29 19 -46 q19 -18 48 -18 q14 0 25 3 q12 4 20 9 q-16 8 -23 22 q-7 13 -7 35 q0 26 14 40 q14 14 35 14 q52 0 52 -66 q-1 -45 -20 -63 q-19 -18 -50 -19 l0 -21 q36 0 57 -22 q20 -22 20 -72 q0 -37 -17 -59 q-17 -22 -45 -22 q-22 0 -38 15 q-16 16 -17 48 q0 23 8 40 q8 16 21 30 q-7 4 -18 7 q-11 4 -26 4 q-32 0 -55 -20 q-23 -19 -24 -54 q3 -52 48 -78 q46 -25 101 -25 l0 0 ZM680 134 l-134 0 l134 189 l0 -189 ZM823 105 q23 0 32 -5 q10 -6 22 -24 l7 0 l0 88 l-7 0 q-12 -18 -22 -24 q-9 -6 -32 -6 l-34 0 l0 264 l-94 0 l-207 -290 l2 -3 l190 0 l0 -38 q0 -26 -5 -37 q-6 -12 -24 -23 l0 -7 l167 0 l0 7 q-18 11 -24 23 q-6 11 -5 37 l0 38 l34 0 Z" /><glyph glyph-name="" unicode="²" d="M124 390 q98 41 153 86 q55 44 56 104 q-3 75 -54 101 q-51 27 -108 25 q-61 -1 -98 -28 q-38 -27 -39 -75 q1 -35 22 -54 q21 -19 52 -19 q15 0 27 4 q11 3 19 10 q-16 9 -24 29 q-8 19 -8 43 q1 29 15 45 q14 16 34 16 q26 0 39 -18 q13 -18 13 -50 q-1 -57 -25 -99 q-24 -42 -62 -82 l-114 -123 l0 -3 l321 0 l13 135 l-8 0 q-18 -30 -39 -36 q-20 -7 -61 -7 l-124 -4 Z" /><glyph glyph-name="" unicode="®" d="M487 494 q-2 96 -63 155 q-61 59 -153 61 q-92 -2 -153 -61 q-61 -59 -63 -155 q2 -96 63 -155 q61 -59 153 -61 q92 2 153 61 q61 59 63 155 l0 0 ZM460 494 q-2 -84 -55 -136 q-54 -52 -134 -54 q-80 2 -133 54 q-54 52 -56 136 q2 84 56 136 q53 52 133 54 q80 -2 134 -54 q53 -52 55 -136 l0 0 ZM238 592 l14 0 q27 1 43 -9 q17 -9 17 -34 q-1 -29 -18 -38 q-17 -9 -42 -8 l-14 0 l0 89 ZM238 481 l15 0 q20 0 29 -7 q8 -8 13 -26 l8 -31 q4 -12 6 -21 q3 -10 8 -19 l73 0 l0 8 q-14 5 -20 13 q-6 7 -10 24 l-8 26 q-6 19 -22 29 q-17 10 -41 12 l0 1 q29 0 54 13 q25 13 27 46 q-1 35 -25 50 q-25 15 -63 15 l-122 0 l0 -8 q13 -6 18 -11 q5 -6 5 -22 l0 -155 q0 -16 -5 -22 q-5 -5 -18 -11 l0 -8 l99 0 l0 8 q-12 6 -17 11 q-4 6 -4 22 l0 63 Z" /><glyph glyph-name="" unicode="&#x2212;" d="M70 310 l456 0 l0 61 l-456 0 l0 -61 Z" /><glyph glyph-name="" unicode="ð" d="M299 -10 q113 2 188 82 q75 80 78 221 q-1 118 -44 207 q-44 90 -119 149 l89 35 l-16 39 l-114 -45 q-51 33 -110 53 q-59 21 -123 28 l-4 -30 q43 -11 83 -32 q40 -21 75 -50 l-132 -52 l16 -40 l149 59 q29 -32 48 -69 q19 -37 25 -78 q-14 18 -41 27 q-27 9 -56 9 q-107 -2 -180 -71 q-74 -69 -77 -185 q3 -117 78 -186 q75 -69 187 -71 l0 0 ZM405 247 q1 -109 -24 -161 q-25 -53 -82 -53 q-56 0 -81 53 q-24 52 -24 161 q0 108 24 161 q25 52 81 52 q57 0 82 -52 q25 -53 24 -161 l0 0 Z" /><glyph glyph-name="" unicode="×" d="M217 335 l-144 -143 l41 -43 l142 145 l143 -145 l42 43 l-144 143 l144 143 l-42 43 l-143 -145 l-142 145 l-41 -43 l144 -143 Z" /><glyph glyph-name="" unicode="³" d="M186 296 q74 0 124 29 q49 28 51 86 q-2 53 -37 78 q-36 25 -86 27 l0 2 q45 3 76 25 q31 21 32 63 q-2 50 -47 75 q-46 25 -110 25 q-55 0 -92 -25 q-38 -24 -39 -67 q1 -29 19 -46 q19 -18 48 -18 q14 0 25 3 q12 4 20 9 q-16 8 -23 22 q-7 13 -7 35 q0 26 14 40 q14 14 35 14 q52 0 52 -66 q-1 -45 -20 -63 q-19 -18 -50 -19 l0 -21 q36 0 57 -22 q20 -22 20 -72 q0 -37 -17 -59 q-17 -22 -45 -22 q-22 0 -38 15 q-16 16 -17 48 q0 23 8 40 q8 16 21 30 q-7 4 -18 7 q-11 4 -26 4 q-32 0 -55 -20 q-23 -19 -24 -54 q3 -52 48 -78 q46 -25 101 -25 l0 0 Z" /><glyph glyph-name="" unicode="©" d="M765 350 q-4 160 -105 258 q-102 99 -255 102 q-153 -3 -255 -102 q-101 -98 -105 -258 q4 -160 105 -258 q102 -99 255 -102 q153 3 255 102 q101 98 105 258 l0 0 ZM730 350 q-4 -144 -95 -234 q-92 -89 -230 -92 q-138 3 -230 92 q-91 90 -95 234 q4 144 95 234 q92 89 230 92 q138 -3 230 -92 q91 -90 95 -234 l0 0 ZM315 360 q0 73 30 120 q30 47 86 49 q45 0 74 -29 q30 -28 55 -79 l14 0 l0 146 l-6 0 l-34 -35 q-19 15 -48 25 q-28 10 -67 10 q-93 -2 -157 -61 q-63 -60 -66 -158 q2 -100 62 -158 q59 -59 152 -60 q72 1 118 38 q46 37 62 102 l-14 4 q-24 -44 -56 -61 q-33 -17 -70 -16 q-62 0 -98 42 q-36 41 -37 121 l0 0 Z" /><glyph glyph-name="" unicode="á" d="M418 944 l-55 -181 l29 0 l191 181 l-165 0 ZM333 494 l118 -249 l-235 0 l117 249 ZM203 9 q-33 22 -47 35 q-14 13 -14 27 q0 8 3 18 q2 9 8 21 l42 89 l278 0 l44 -94 q6 -12 9 -21 q2 -10 2 -18 q0 -17 -10 -29 q-11 -13 -36 -28 l0 -9 l281 0 l0 9 q-29 23 -45 44 q-17 22 -37 65 l-289 600 l-5 0 l-288 -600 q-21 -43 -38 -65 q-17 -21 -46 -44 l0 -9 l188 0 l0 9 Z" /><glyph glyph-name="" unicode="â" d="M400 959 l-24 0 q-27 -46 -80 -105 q-52 -59 -100 -99 l51 0 q39 18 75 39 q36 21 66 47 q30 -26 66 -47 q36 -21 75 -39 l51 0 q-48 40 -100 99 q-53 59 -80 105 l0 0 ZM333 494 l118 -249 l-235 0 l117 249 ZM203 9 q-33 22 -47 35 q-14 13 -14 27 q0 8 3 18 q2 9 8 21 l42 89 l278 0 l44 -94 q6 -12 9 -21 q2 -10 2 -18 q0 -17 -10 -29 q-11 -13 -36 -28 l0 -9 l281 0 l0 9 q-29 23 -45 44 q-17 22 -37 65 l-289 600 l-5 0 l-288 -600 q-21 -43 -38 -65 q-17 -21 -46 -44 l0 -9 l188 0 l0 9 Z" /><glyph glyph-name="" unicode="ä" d="M283 762 q34 1 56 23 q21 22 22 54 q-1 33 -22 56 q-22 23 -56 24 q-33 -1 -55 -24 q-21 -23 -22 -56 q1 -32 22 -54 q22 -22 55 -23 l0 0 ZM492 762 q34 1 56 23 q21 22 22 54 q-1 33 -22 56 q-22 23 -56 24 q-33 -1 -55 -24 q-22 -23 -23 -56 q1 -32 23 -54 q22 -22 55 -23 l0 0 ZM333 494 l118 -249 l-235 0 l117 249 ZM203 9 q-33 22 -47 35 q-14 13 -14 27 q0 8 3 18 q2 9 8 21 l42 89 l278 0 l44 -94 q6 -12 9 -21 q2 -10 2 -18 q0 -17 -10 -29 q-11 -13 -36 -28 l0 -9 l281 0 l0 9 q-29 23 -45 44 q-17 22 -37 65 l-289 600 l-5 0 l-288 -600 q-21 -43 -38 -65 q-17 -21 -46 -44 l0 -9 l188 0 l0 9 Z" /><glyph glyph-name="" unicode="à" d="M193 944 l191 -181 l29 0 l-55 181 l-165 0 ZM333 494 l118 -249 l-235 0 l117 249 ZM203 9 q-33 22 -47 35 q-14 13 -14 27 q0 8 3 18 q2 9 8 21 l42 89 l278 0 l44 -94 q6 -12 9 -21 q2 -10 2 -18 q0 -17 -10 -29 q-11 -13 -36 -28 l0 -9 l281 0 l0 9 q-29 23 -45 44 q-17 22 -37 65 l-289 600 l-5 0 l-288 -600 q-21 -43 -38 -65 q-17 -21 -46 -44 l0 -9 l188 0 l0 9 Z" /><glyph glyph-name="" unicode="å" d="M275 865 q1 -48 34 -79 q32 -32 79 -33 q47 1 79 33 q33 31 34 79 q-1 47 -34 79 q-32 32 -79 33 q-47 -1 -79 -33 q-33 -32 -34 -79 l0 0 ZM445 865 q0 -24 -16 -40 q-16 -15 -41 -16 q-25 1 -41 16 q-16 16 -16 40 q0 25 16 41 q16 16 41 16 q25 0 41 -16 q16 -16 16 -41 l0 0 ZM333 494 l118 -249 l-235 0 l117 249 ZM203 9 q-33 22 -47 35 q-14 13 -14 27 q0 8 3 18 q2 9 8 21 l42 89 l278 0 l44 -94 q6 -12 9 -21 q2 -10 2 -18 q0 -17 -10 -29 q-11 -13 -36 -28 l0 -9 l281 0 l0 9 q-29 23 -45 44 q-17 22 -37 65 l-289 600 l-5 0 l-288 -600 q-21 -43 -38 -65 q-17 -21 -46 -44 l0 -9 l188 0 l0 9 Z" /><glyph glyph-name="" unicode="ã" d="M222 770 q14 31 32 48 q17 17 43 17 q38 -4 82 -30 q45 -26 91 -30 q40 0 69 42 q30 41 47 117 l-28 0 q-14 -31 -31 -48 q-18 -17 -44 -17 q-38 4 -82 31 q-45 26 -91 30 q-40 0 -69 -42 q-30 -41 -47 -118 l28 0 ZM333 494 l118 -249 l-235 0 l117 249 ZM203 9 q-33 22 -47 35 q-14 13 -14 27 q0 8 3 18 q2 9 8 21 l42 89 l278 0 l44 -94 q6 -12 9 -21 q2 -10 2 -18 q0 -17 -10 -29 q-11 -13 -36 -28 l0 -9 l281 0 l0 9 q-29 23 -45 44 q-17 22 -37 65 l-289 600 l-5 0 l-288 -600 q-21 -43 -38 -65 q-17 -21 -46 -44 l0 -9 l188 0 l0 9 Z" /><glyph glyph-name="" unicode="ç" d="M398 -224 q52 0 86 24 q35 24 36 66 q-1 43 -38 62 q-37 18 -94 19 l24 43 q109 4 180 62 q71 57 97 156 l-15 6 q-43 -79 -99 -109 q-56 -30 -119 -29 q-105 1 -169 76 q-64 75 -66 216 q1 128 56 210 q56 81 152 84 q74 -2 125 -54 q51 -53 96 -135 l13 0 l0 237 l-9 0 l-56 -57 q-31 25 -78 41 q-46 16 -110 16 q-154 -3 -258 -101 q-104 -99 -108 -259 q3 -158 92 -253 q90 -95 236 -106 l-40 -69 q42 -1 65 -15 q24 -13 24 -41 q0 -21 -14 -33 q-15 -12 -41 -12 q-22 0 -43 10 q-21 10 -36 28 l-15 -19 q12 -26 45 -44 q32 -19 81 -20 l0 0 Z" /><glyph glyph-name="" unicode="é" d="M381 944 l-55 -181 l29 0 l191 181 l-165 0 ZM520 479 l-12 0 q-26 -66 -51 -82 q-26 -17 -84 -14 l-110 0 l0 272 l145 0 q82 -1 122 -38 q40 -37 86 -97 l11 0 l-34 186 q-11 -2 -24 -4 q-14 -2 -36 -2 l-490 0 l0 -9 q35 -22 49 -42 q14 -20 14 -67 l0 -464 q0 -47 -14 -67 q-14 -20 -49 -42 l0 -9 l582 0 l32 198 l-11 0 q-47 -76 -90 -115 q-44 -38 -120 -38 l-173 0 l0 294 l110 0 q58 2 84 -14 q25 -17 51 -82 l12 0 l0 236 Z" /><glyph glyph-name="" unicode="ê" d="M363 961 l-24 0 q-27 -46 -80 -105 q-52 -59 -100 -99 l51 0 q39 18 75 39 q36 21 66 47 q30 -26 66 -47 q36 -21 75 -39 l51 0 q-48 40 -100 99 q-53 59 -80 105 l0 0 ZM520 479 l-12 0 q-26 -66 -51 -82 q-26 -17 -84 -14 l-110 0 l0 272 l145 0 q82 -1 122 -38 q40 -37 86 -97 l11 0 l-34 186 q-11 -2 -24 -4 q-14 -2 -36 -2 l-490 0 l0 -9 q35 -22 49 -42 q14 -20 14 -67 l0 -464 q0 -47 -14 -67 q-14 -20 -49 -42 l0 -9 l582 0 l32 198 l-11 0 q-47 -76 -90 -115 q-44 -38 -120 -38 l-173 0 l0 294 l110 0 q58 2 84 -14 q25 -17 51 -82 l12 0 l0 236 Z" /><glyph glyph-name="" unicode="ë" d="M246 764 q34 1 56 23 q21 22 22 54 q-1 33 -22 56 q-22 23 -56 24 q-33 -1 -55 -24 q-21 -23 -22 -56 q1 -32 22 -54 q22 -22 55 -23 l0 0 ZM455 764 q34 1 56 23 q21 22 22 54 q-1 33 -22 56 q-22 23 -56 24 q-33 -1 -55 -24 q-22 -23 -23 -56 q1 -32 23 -54 q22 -22 55 -23 l0 0 ZM520 479 l-12 0 q-26 -66 -51 -82 q-26 -17 -84 -14 l-110 0 l0 272 l145 0 q82 -1 122 -38 q40 -37 86 -97 l11 0 l-34 186 q-11 -2 -24 -4 q-14 -2 -36 -2 l-490 0 l0 -9 q35 -22 49 -42 q14 -20 14 -67 l0 -464 q0 -47 -14 -67 q-14 -20 -49 -42 l0 -9 l582 0 l32 198 l-11 0 q-47 -76 -90 -115 q-44 -38 -120 -38 l-173 0 l0 294 l110 0 q58 2 84 -14 q25 -17 51 -82 l12 0 l0 236 Z" /><glyph glyph-name="" unicode="è" d="M156 944 l191 -181 l29 0 l-55 181 l-165 0 ZM520 479 l-12 0 q-26 -66 -51 -82 q-26 -17 -84 -14 l-110 0 l0 272 l145 0 q82 -1 122 -38 q40 -37 86 -97 l11 0 l-34 186 q-11 -2 -24 -4 q-14 -2 -36 -2 l-490 0 l0 -9 q35 -22 49 -42 q14 -20 14 -67 l0 -464 q0 -47 -14 -67 q-14 -20 -49 -42 l0 -9 l582 0 l32 198 l-11 0 q-47 -76 -90 -115 q-44 -38 -120 -38 l-173 0 l0 294 l110 0 q58 2 84 -14 q25 -17 51 -82 l12 0 l0 236 Z" /><glyph glyph-name="" unicode="í" d="M215 944 l-55 -181 l29 0 l191 181 l-165 0 ZM106 582 l0 -464 q0 -47 -14 -67 q-14 -20 -49 -42 l0 -9 l282 0 l0 9 q-35 22 -49 42 q-14 20 -13 67 l0 464 q-1 47 13 67 q14 20 49 42 l0 9 l-282 0 l0 -9 q35 -22 49 -42 q14 -20 14 -67 l0 0 Z" /><glyph glyph-name="" unicode="î" d="M196 961 l-24 0 q-27 -46 -80 -105 q-52 -59 -100 -99 l51 0 q39 18 75 39 q36 21 66 47 q30 -26 66 -47 q36 -21 75 -39 l51 0 q-48 40 -100 99 q-53 59 -80 105 l0 0 ZM106 582 l0 -464 q0 -47 -14 -67 q-14 -20 -49 -42 l0 -9 l282 0 l0 9 q-35 22 -49 42 q-14 20 -13 67 l0 464 q-1 47 13 67 q14 20 49 42 l0 9 l-282 0 l0 -9 q35 -22 49 -42 q14 -20 14 -67 l0 0 Z" /><glyph glyph-name="" unicode="ï" d="M79 764 q34 1 56 23 q21 22 22 54 q-1 33 -22 56 q-22 23 -56 24 q-33 -1 -55 -24 q-21 -23 -22 -56 q1 -32 22 -54 q22 -22 55 -23 l0 0 ZM288 764 q34 1 56 23 q21 22 22 54 q-1 33 -22 56 q-22 23 -56 24 q-33 -1 -55 -24 q-22 -23 -23 -56 q1 -32 23 -54 q22 -22 55 -23 l0 0 ZM106 582 l0 -464 q0 -47 -14 -67 q-14 -20 -49 -42 l0 -9 l282 0 l0 9 q-35 22 -49 42 q-14 20 -13 67 l0 464 q-1 47 13 67 q14 20 49 42 l0 9 l-282 0 l0 -9 q35 -22 49 -42 q14 -20 14 -67 l0 0 Z" /><glyph glyph-name="" unicode="ì" d="M-11 944 l191 -181 l29 0 l-55 181 l-165 0 ZM106 582 l0 -464 q0 -47 -14 -67 q-14 -20 -49 -42 l0 -9 l282 0 l0 9 q-35 22 -49 42 q-14 20 -13 67 l0 464 q-1 47 13 67 q14 20 49 42 l0 9 l-282 0 l0 -9 q35 -22 49 -42 q14 -20 14 -67 l0 0 Z" /><glyph glyph-name="" unicode="ñ" d="M237 773 q14 31 32 48 q17 17 43 17 q38 -4 82 -30 q45 -26 91 -30 q40 0 69 42 q30 41 47 117 l-28 0 q-14 -31 -31 -48 q-18 -17 -44 -17 q-38 4 -82 31 q-45 26 -91 30 q-40 0 -69 -42 q-30 -41 -47 -118 l28 0 ZM630 269 l-359 431 l-228 0 l0 -9 q35 -22 49 -42 q14 -20 14 -67 l0 -460 q0 -47 -20 -69 q-20 -22 -57 -44 l0 -9 l212 0 l0 9 q-36 22 -57 44 q-22 22 -22 69 l0 455 l483 -581 l41 0 l0 582 q0 47 20 69 q19 22 56 44 l0 9 l-212 0 l0 -9 q38 -22 59 -44 q21 -22 21 -69 l0 -309 Z" /><glyph glyph-name="" unicode="ó" d="M439 944 l-55 -181 l29 0 l191 181 l-165 0 ZM44 350 q4 -160 106 -259 q102 -98 258 -101 q156 3 259 101 q102 99 106 259 q-4 160 -106 259 q-103 98 -259 101 q-156 -3 -258 -101 q-102 -99 -106 -259 l0 0 ZM596 350 q0 -149 -46 -230 q-46 -80 -142 -81 q-96 1 -141 81 q-46 81 -46 230 q0 149 46 230 q45 80 141 81 q96 -1 142 -81 q46 -81 46 -230 l0 0 Z" /><glyph glyph-name="" unicode="ô" d="M420 961 l-24 0 q-27 -46 -80 -105 q-52 -59 -100 -99 l51 0 q39 18 75 39 q36 21 66 47 q30 -26 66 -47 q36 -21 75 -39 l51 0 q-48 40 -100 99 q-53 59 -80 105 l0 0 ZM44 350 q4 -160 106 -259 q102 -98 258 -101 q156 3 259 101 q102 99 106 259 q-4 160 -106 259 q-103 98 -259 101 q-156 -3 -258 -101 q-102 -99 -106 -259 l0 0 ZM596 350 q0 -149 -46 -230 q-46 -80 -142 -81 q-96 1 -141 81 q-46 81 -46 230 q0 149 46 230 q45 80 141 81 q96 -1 142 -81 q46 -81 46 -230 l0 0 Z" /><glyph glyph-name="" unicode="ö" d="M303 764 q34 1 56 23 q21 22 22 54 q-1 33 -22 56 q-22 23 -56 24 q-33 -1 -55 -24 q-21 -23 -22 -56 q1 -32 22 -54 q22 -22 55 -23 l0 0 ZM512 764 q34 1 56 23 q21 22 22 54 q-1 33 -22 56 q-22 23 -56 24 q-33 -1 -55 -24 q-22 -23 -23 -56 q1 -32 23 -54 q22 -22 55 -23 l0 0 ZM44 350 q4 -160 106 -259 q102 -98 258 -101 q156 3 259 101 q102 99 106 259 q-4 160 -106 259 q-103 98 -259 101 q-156 -3 -258 -101 q-102 -99 -106 -259 l0 0 ZM596 350 q0 -149 -46 -230 q-46 -80 -142 -81 q-96 1 -141 81 q-46 81 -46 230 q0 149 46 230 q45 80 141 81 q96 -1 142 -81 q46 -81 46 -230 l0 0 Z" /><glyph glyph-name="" unicode="ò" d="M214 944 l191 -181 l29 0 l-55 181 l-165 0 ZM44 350 q4 -160 106 -259 q102 -98 258 -101 q156 3 259 101 q102 99 106 259 q-4 160 -106 259 q-103 98 -259 101 q-156 -3 -258 -101 q-102 -99 -106 -259 l0 0 ZM596 350 q0 -149 -46 -230 q-46 -80 -142 -81 q-96 1 -141 81 q-46 81 -46 230 q0 149 46 230 q45 80 141 81 q96 -1 142 -81 q46 -81 46 -230 l0 0 Z" /><glyph glyph-name="" unicode="õ" d="M240 773 q14 31 32 48 q17 17 43 17 q38 -4 82 -30 q45 -26 91 -30 q40 0 69 42 q30 41 47 117 l-28 0 q-14 -31 -31 -48 q-18 -17 -44 -17 q-38 4 -82 31 q-45 26 -91 30 q-40 0 -69 -42 q-30 -41 -47 -118 l28 0 ZM44 350 q4 -160 106 -259 q102 -98 258 -101 q156 3 259 101 q102 99 106 259 q-4 160 -106 259 q-103 98 -259 101 q-156 -3 -258 -101 q-102 -99 -106 -259 l0 0 ZM596 350 q0 -149 -46 -230 q-46 -80 -142 -81 q-96 1 -141 81 q-46 81 -46 230 q0 149 46 230 q45 80 141 81 q96 -1 142 -81 q46 -81 46 -230 l0 0 Z" /><glyph glyph-name="" unicode="&#x160;" d="M511 960 l-51 0 q-39 -17 -75 -38 q-36 -21 -66 -47 q-30 26 -66 47 q-36 21 -75 38 l-51 0 q48 -40 100 -99 q53 -59 80 -105 l24 0 q27 46 80 105 q52 59 100 99 l0 0 ZM321 665 q71 -1 120 -45 q49 -45 98 -124 l13 0 l-3 214 l-13 0 l-43 -50 q-30 18 -73 34 q-43 15 -99 16 q-118 -1 -187 -57 q-69 -55 -70 -150 q0 -81 47 -128 q46 -47 138 -75 l93 -29 q53 -15 80 -42 q28 -28 28 -75 q0 -54 -34 -83 q-34 -30 -97 -30 q-78 1 -137 51 q-58 51 -111 138 l-19 0 l14 -240 l15 0 l44 62 q29 -21 82 -41 q52 -20 113 -21 q112 1 188 58 q75 57 78 163 q-1 87 -48 134 q-47 46 -130 71 l-95 29 q-57 17 -84 44 q-27 27 -27 73 q1 46 34 74 q32 28 85 29 l0 0 Z" /><glyph glyph-name="" unicode="ú" d="M459 944 l-55 -181 l29 0 l191 181 l-165 0 ZM626 578 l0 -297 q-1 -115 -53 -166 q-51 -51 -135 -50 q-87 0 -135 53 q-48 53 -49 162 l0 302 q0 47 14 67 q14 20 49 42 l0 9 l-282 0 l0 -9 q35 -22 49 -42 q14 -20 13 -67 l0 -312 q2 -138 84 -209 q82 -71 221 -71 q132 0 205 70 q74 70 75 212 l0 306 q0 47 20 69 q19 22 56 44 l0 9 l-212 0 l0 -9 q37 -22 58 -44 q22 -22 22 -69 l0 0 Z" /><glyph glyph-name="" unicode="û" d="M440 961 l-24 0 q-27 -46 -80 -105 q-52 -59 -100 -99 l51 0 q39 18 75 39 q36 21 66 47 q30 -26 66 -47 q36 -21 75 -39 l51 0 q-48 40 -100 99 q-53 59 -80 105 l0 0 ZM626 578 l0 -297 q-1 -115 -53 -166 q-51 -51 -135 -50 q-87 0 -135 53 q-48 53 -49 162 l0 302 q0 47 14 67 q14 20 49 42 l0 9 l-282 0 l0 -9 q35 -22 49 -42 q14 -20 13 -67 l0 -312 q2 -138 84 -209 q82 -71 221 -71 q132 0 205 70 q74 70 75 212 l0 306 q0 47 20 69 q19 22 56 44 l0 9 l-212 0 l0 -9 q37 -22 58 -44 q22 -22 22 -69 l0 0 Z" /><glyph glyph-name="" unicode="ü" d="M323 764 q34 1 56 23 q21 22 22 54 q-1 33 -22 56 q-22 23 -56 24 q-33 -1 -55 -24 q-21 -23 -22 -56 q1 -32 22 -54 q22 -22 55 -23 l0 0 ZM532 764 q34 1 56 23 q21 22 22 54 q-1 33 -22 56 q-22 23 -56 24 q-33 -1 -55 -24 q-22 -23 -23 -56 q1 -32 23 -54 q22 -22 55 -23 l0 0 ZM626 578 l0 -297 q-1 -115 -53 -166 q-51 -51 -135 -50 q-87 0 -135 53 q-48 53 -49 162 l0 302 q0 47 14 67 q14 20 49 42 l0 9 l-282 0 l0 -9 q35 -22 49 -42 q14 -20 13 -67 l0 -312 q2 -138 84 -209 q82 -71 221 -71 q132 0 205 70 q74 70 75 212 l0 306 q0 47 20 69 q19 22 56 44 l0 9 l-212 0 l0 -9 q37 -22 58 -44 q22 -22 22 -69 l0 0 Z" /><glyph glyph-name="" unicode="ù" d="M233 944 l191 -181 l29 0 l-55 181 l-165 0 ZM626 578 l0 -297 q-1 -115 -53 -166 q-51 -51 -135 -50 q-87 0 -135 53 q-48 53 -49 162 l0 302 q0 47 14 67 q14 20 49 42 l0 9 l-282 0 l0 -9 q35 -22 49 -42 q14 -20 13 -67 l0 -312 q2 -138 84 -209 q82 -71 221 -71 q132 0 205 70 q74 70 75 212 l0 306 q0 47 20 69 q19 22 56 44 l0 9 l-212 0 l0 -9 q37 -22 58 -44 q22 -22 22 -69 l0 0 Z" /><glyph glyph-name="" unicode="ý" d="M437 944 l-55 -181 l29 0 l191 181 l-165 0 ZM435 360 l-152 234 q-7 11 -11 22 q-4 11 -4 20 q0 15 9 27 q8 12 29 28 l0 9 l-292 0 l0 -9 q29 -24 50 -48 q21 -24 45 -61 l187 -286 l0 -178 q1 -47 -14 -67 q-15 -20 -51 -42 l0 -9 l286 0 l0 9 q-36 22 -50 42 q-15 20 -14 67 l0 178 l186 286 q25 39 46 62 q20 24 50 47 l0 9 l-192 0 l0 -9 q23 -17 38 -32 q15 -14 15 -30 q0 -8 -4 -18 q-3 -11 -11 -22 l-146 -229 Z" /><glyph glyph-name="" unicode="&#x178;" d="M301 764 q34 1 56 23 q21 22 22 54 q-1 33 -22 56 q-22 23 -56 24 q-33 -1 -55 -24 q-21 -23 -22 -56 q1 -32 22 -54 q22 -22 55 -23 l0 0 ZM510 764 q34 1 56 23 q21 22 22 54 q-1 33 -22 56 q-22 23 -56 24 q-33 -1 -55 -24 q-22 -23 -23 -56 q1 -32 23 -54 q22 -22 55 -23 l0 0 ZM435 360 l-152 234 q-7 11 -11 22 q-4 11 -4 20 q0 15 9 27 q8 12 29 28 l0 9 l-292 0 l0 -9 q29 -24 50 -48 q21 -24 45 -61 l187 -286 l0 -178 q1 -47 -14 -67 q-15 -20 -51 -42 l0 -9 l286 0 l0 9 q-36 22 -50 42 q-15 20 -14 67 l0 178 l186 286 q25 39 46 62 q20 24 50 47 l0 9 l-192 0 l0 -9 q23 -17 38 -32 q15 -14 15 -30 q0 -8 -4 -18 q-3 -11 -11 -22 l-146 -229 Z" /><glyph glyph-name="" unicode="&#x17d;" d="M565 960 l-51 0 q-39 -17 -75 -38 q-36 -21 -66 -47 q-30 26 -66 47 q-36 21 -75 38 l-51 0 q48 -40 100 -99 q53 -59 80 -105 l24 0 q27 46 80 105 q52 59 100 99 l0 0 ZM653 0 l32 220 l-11 0 q-60 -90 -107 -132 q-48 -43 -123 -43 l-190 0 l419 651 l0 4 l-517 0 q-22 0 -36 2 q-13 2 -24 4 l-31 -212 l11 0 q54 78 97 119 q43 42 120 42 l170 0 l-425 -651 l0 -4 l615 0 Z" /><glyph glyph-name="" unicode="á" d="M312 749 l-58 -188 l29 0 l191 188 l-162 0 ZM348 256 l0 -59 q-1 -64 -27 -98 q-26 -34 -69 -34 q-33 0 -50 20 q-17 19 -17 55 q0 45 26 69 q27 23 82 35 l55 12 ZM581 25 q-48 9 -67 30 q-20 21 -19 70 q0 54 2 108 q1 53 1 99 q0 87 -56 129 q-56 42 -168 42 q-101 -1 -156 -34 q-56 -34 -57 -88 q0 -33 22 -51 q21 -19 57 -19 q21 0 43 7 q22 7 32 20 q-12 6 -20 19 q-9 12 -9 36 q0 33 20 51 q19 17 56 17 q50 0 69 -29 q18 -28 17 -78 l0 -61 l-78 -14 q-90 -14 -160 -48 q-69 -35 -73 -115 q2 -64 44 -95 q42 -31 103 -31 q64 0 107 28 q44 28 60 77 q7 -57 36 -80 q29 -24 84 -23 q35 1 64 8 q29 7 46 14 l0 11 Z" /><glyph glyph-name="" unicode="â" d="M288 775 l-18 0 q-25 -45 -71 -106 q-46 -62 -97 -117 l38 0 q39 20 73 44 q35 24 66 50 q31 -26 66 -50 q34 -24 73 -44 l38 0 q-51 55 -97 117 q-46 61 -71 106 l0 0 ZM348 256 l0 -59 q-1 -64 -27 -98 q-26 -34 -69 -34 q-33 0 -50 20 q-17 19 -17 55 q0 45 26 69 q27 23 82 35 l55 12 ZM581 25 q-48 9 -67 30 q-20 21 -19 70 q0 54 2 108 q1 53 1 99 q0 87 -56 129 q-56 42 -168 42 q-101 -1 -156 -34 q-56 -34 -57 -88 q0 -33 22 -51 q21 -19 57 -19 q21 0 43 7 q22 7 32 20 q-12 6 -20 19 q-9 12 -9 36 q0 33 20 51 q19 17 56 17 q50 0 69 -29 q18 -28 17 -78 l0 -61 l-78 -14 q-90 -14 -160 -48 q-69 -35 -73 -115 q2 -64 44 -95 q42 -31 103 -31 q64 0 107 28 q44 28 60 77 q7 -57 36 -80 q29 -24 84 -23 q35 1 64 8 q29 7 46 14 l0 11 Z" /><glyph glyph-name="" unicode="ä" d="M174 564 q34 1 56 23 q21 22 22 54 q-1 33 -22 56 q-22 23 -56 24 q-33 -1 -55 -24 q-21 -23 -22 -56 q1 -32 22 -54 q22 -22 55 -23 l0 0 ZM383 564 q34 1 56 23 q21 22 22 54 q-1 33 -22 56 q-22 23 -56 24 q-33 -1 -55 -24 q-22 -23 -23 -56 q1 -32 23 -54 q22 -22 55 -23 l0 0 ZM348 256 l0 -59 q-1 -64 -27 -98 q-26 -34 -69 -34 q-33 0 -50 20 q-17 19 -17 55 q0 45 26 69 q27 23 82 35 l55 12 ZM581 25 q-48 9 -67 30 q-20 21 -19 70 q0 54 2 108 q1 53 1 99 q0 87 -56 129 q-56 42 -168 42 q-101 -1 -156 -34 q-56 -34 -57 -88 q0 -33 22 -51 q21 -19 57 -19 q21 0 43 7 q22 7 32 20 q-12 6 -20 19 q-9 12 -9 36 q0 33 20 51 q19 17 56 17 q50 0 69 -29 q18 -28 17 -78 l0 -61 l-78 -14 q-90 -14 -160 -48 q-69 -35 -73 -115 q2 -64 44 -95 q42 -31 103 -31 q64 0 107 28 q44 28 60 77 q7 -57 36 -80 q29 -24 84 -23 q35 1 64 8 q29 7 46 14 l0 11 Z" /><glyph glyph-name="" unicode="à" d="M82 749 l191 -188 l29 0 l-58 188 l-162 0 ZM348 256 l0 -59 q-1 -64 -27 -98 q-26 -34 -69 -34 q-33 0 -50 20 q-17 19 -17 55 q0 45 26 69 q27 23 82 35 l55 12 ZM581 25 q-48 9 -67 30 q-20 21 -19 70 q0 54 2 108 q1 53 1 99 q0 87 -56 129 q-56 42 -168 42 q-101 -1 -156 -34 q-56 -34 -57 -88 q0 -33 22 -51 q21 -19 57 -19 q21 0 43 7 q22 7 32 20 q-12 6 -20 19 q-9 12 -9 36 q0 33 20 51 q19 17 56 17 q50 0 69 -29 q18 -28 17 -78 l0 -61 l-78 -14 q-90 -14 -160 -48 q-69 -35 -73 -115 q2 -64 44 -95 q42 -31 103 -31 q64 0 107 28 q44 28 60 77 q7 -57 36 -80 q29 -24 84 -23 q35 1 64 8 q29 7 46 14 l0 11 Z" /><glyph glyph-name="" unicode="å" d="M166 670 q1 -48 34 -79 q32 -32 79 -33 q47 1 79 33 q33 31 34 79 q-1 47 -34 79 q-32 32 -79 33 q-47 -1 -79 -33 q-33 -32 -34 -79 l0 0 ZM336 670 q0 -24 -16 -40 q-16 -15 -41 -16 q-25 1 -41 16 q-16 16 -16 40 q0 25 16 41 q16 16 41 16 q25 0 41 -16 q16 -16 16 -41 l0 0 ZM348 256 l0 -59 q-1 -64 -27 -98 q-26 -34 -69 -34 q-33 0 -50 20 q-17 19 -17 55 q0 45 26 69 q27 23 82 35 l55 12 ZM581 25 q-48 9 -67 30 q-20 21 -19 70 q0 54 2 108 q1 53 1 99 q0 87 -56 129 q-56 42 -168 42 q-101 -1 -156 -34 q-56 -34 -57 -88 q0 -33 22 -51 q21 -19 57 -19 q21 0 43 7 q22 7 32 20 q-12 6 -20 19 q-9 12 -9 36 q0 33 20 51 q19 17 56 17 q50 0 69 -29 q18 -28 17 -78 l0 -61 l-78 -14 q-90 -14 -160 -48 q-69 -35 -73 -115 q2 -64 44 -95 q42 -31 103 -31 q64 0 107 28 q44 28 60 77 q7 -57 36 -80 q29 -24 84 -23 q35 1 64 8 q29 7 46 14 l0 11 Z" /><glyph glyph-name="" unicode="ã" d="M120 571 q14 31 31 48 q18 17 43 17 q38 -4 82 -30 q45 -27 90 -31 q41 0 70 42 q29 41 46 117 l-28 0 q-14 -31 -31 -48 q-18 -17 -43 -17 q-38 4 -82 31 q-45 26 -90 30 q-41 0 -70 -41 q-29 -41 -46 -118 l28 0 ZM348 256 l0 -59 q-1 -64 -27 -98 q-26 -34 -69 -34 q-33 0 -50 20 q-17 19 -17 55 q0 45 26 69 q27 23 82 35 l55 12 ZM581 25 q-48 9 -67 30 q-20 21 -19 70 q0 54 2 108 q1 53 1 99 q0 87 -56 129 q-56 42 -168 42 q-101 -1 -156 -34 q-56 -34 -57 -88 q0 -33 22 -51 q21 -19 57 -19 q21 0 43 7 q22 7 32 20 q-12 6 -20 19 q-9 12 -9 36 q0 33 20 51 q19 17 56 17 q50 0 69 -29 q18 -28 17 -78 l0 -61 l-78 -14 q-90 -14 -160 -48 q-69 -35 -73 -115 q2 -64 44 -95 q42 -31 103 -31 q64 0 107 28 q44 28 60 77 q7 -57 36 -80 q29 -24 84 -23 q35 1 64 8 q29 7 46 14 l0 11 Z" /><glyph glyph-name="" unicode="ç" d="M274 -224 q52 0 86 24 q35 24 36 66 q-1 43 -38 62 q-37 18 -94 19 l24 43 q80 0 135 42 q55 42 77 120 l-22 7 q-25 -52 -60 -74 q-35 -21 -79 -20 q-70 1 -109 53 q-38 53 -39 146 q0 82 30 139 q29 58 86 60 q35 0 54 -21 q18 -20 18 -54 q0 -25 -8 -41 q-7 -15 -18 -26 q5 -10 21 -16 q16 -6 35 -6 q30 0 56 18 q25 18 27 61 q-2 60 -56 93 q-55 32 -132 32 q-119 -2 -193 -72 q-75 -71 -77 -188 q2 -113 62 -176 q60 -64 153 -75 l-41 -70 q42 -1 65 -15 q24 -13 24 -41 q0 -21 -14 -33 q-15 -12 -41 -12 q-22 0 -43 10 q-21 10 -36 28 l-15 -19 q12 -26 45 -44 q32 -19 81 -20 l0 0 Z" /><glyph glyph-name="" unicode="é" d="M327 749 l-58 -188 l29 0 l191 188 l-162 0 ZM292 503 q-110 -1 -183 -70 q-72 -69 -75 -188 q3 -126 75 -190 q73 -65 182 -65 q87 0 145 42 q57 42 79 120 l-21 7 q-26 -52 -63 -74 q-38 -22 -88 -21 q-72 1 -112 53 q-39 52 -40 138 l334 0 q0 117 -59 182 q-60 65 -174 66 l0 0 ZM193 300 q4 70 27 114 q23 45 71 46 q50 -2 67 -50 q17 -47 17 -110 l-182 0 Z" /><glyph glyph-name="" unicode="ê" d="M303 775 l-18 0 q-25 -45 -71 -106 q-46 -62 -97 -117 l38 0 q39 20 73 44 q35 24 66 50 q31 -26 66 -50 q34 -24 73 -44 l38 0 q-51 55 -97 117 q-46 61 -71 106 l0 0 ZM292 503 q-110 -1 -183 -70 q-72 -69 -75 -188 q3 -126 75 -190 q73 -65 182 -65 q87 0 145 42 q57 42 79 120 l-21 7 q-26 -52 -63 -74 q-38 -22 -88 -21 q-72 1 -112 53 q-39 52 -40 138 l334 0 q0 117 -59 182 q-60 65 -174 66 l0 0 ZM193 300 q4 70 27 114 q23 45 71 46 q50 -2 67 -50 q17 -47 17 -110 l-182 0 Z" /><glyph glyph-name="" unicode="ë" d="M189 564 q34 1 56 23 q21 22 22 54 q-1 33 -22 56 q-22 23 -56 24 q-33 -1 -55 -24 q-21 -23 -22 -56 q1 -32 22 -54 q22 -22 55 -23 l0 0 ZM398 564 q34 1 56 23 q21 22 22 54 q-1 33 -22 56 q-22 23 -56 24 q-33 -1 -55 -24 q-22 -23 -23 -56 q1 -32 23 -54 q22 -22 55 -23 l0 0 ZM292 503 q-110 -1 -183 -70 q-72 -69 -75 -188 q3 -126 75 -190 q73 -65 182 -65 q87 0 145 42 q57 42 79 120 l-21 7 q-26 -52 -63 -74 q-38 -22 -88 -21 q-72 1 -112 53 q-39 52 -40 138 l334 0 q0 117 -59 182 q-60 65 -174 66 l0 0 ZM193 300 q4 70 27 114 q23 45 71 46 q50 -2 67 -50 q17 -47 17 -110 l-182 0 Z" /><glyph glyph-name="" unicode="è" d="M98 749 l191 -188 l29 0 l-58 188 l-162 0 ZM292 503 q-110 -1 -183 -70 q-72 -69 -75 -188 q3 -126 75 -190 q73 -65 182 -65 q87 0 145 42 q57 42 79 120 l-21 7 q-26 -52 -63 -74 q-38 -22 -88 -21 q-72 1 -112 53 q-39 52 -40 138 l334 0 q0 117 -59 182 q-60 65 -174 66 l0 0 ZM193 300 q4 70 27 114 q23 45 71 46 q50 -2 67 -50 q17 -47 17 -110 l-182 0 Z" /><glyph glyph-name="" unicode="í" d="M193 749 l-58 -188 l29 0 l191 188 l-162 0 ZM239 493 l-211 0 l0 -9 q31 -18 46 -38 q16 -20 16 -65 l0 -268 q1 -47 -11 -66 q-11 -19 -43 -38 l0 -9 l257 0 l0 9 q-32 19 -43 38 q-12 19 -11 66 l0 380 Z" /><glyph glyph-name="" unicode="î" d="M169 775 l-18 0 q-25 -45 -71 -106 q-46 -62 -97 -117 l38 0 q39 20 73 44 q35 24 66 50 q31 -26 66 -50 q34 -24 73 -44 l38 0 q-51 55 -97 117 q-46 61 -71 106 l0 0 ZM239 493 l-211 0 l0 -9 q31 -18 46 -38 q16 -20 16 -65 l0 -268 q1 -47 -11 -66 q-11 -19 -43 -38 l0 -9 l257 0 l0 9 q-32 19 -43 38 q-12 19 -11 66 l0 380 Z" /><glyph glyph-name="" unicode="ï" d="M55 564 q34 1 56 23 q21 22 22 54 q-1 33 -22 56 q-22 23 -56 24 q-33 -1 -55 -24 q-21 -23 -22 -56 q1 -32 22 -54 q22 -22 55 -23 l0 0 ZM264 564 q34 1 56 23 q21 22 22 54 q-1 33 -22 56 q-22 23 -56 24 q-33 -1 -55 -24 q-22 -23 -23 -56 q1 -32 23 -54 q22 -22 55 -23 l0 0 ZM239 493 l-211 0 l0 -9 q31 -18 46 -38 q16 -20 16 -65 l0 -268 q1 -47 -11 -66 q-11 -19 -43 -38 l0 -9 l257 0 l0 9 q-32 19 -43 38 q-12 19 -11 66 l0 380 Z" /><glyph glyph-name="" unicode="ì" d="M-36 749 l191 -188 l29 0 l-58 188 l-162 0 ZM239 493 l-211 0 l0 -9 q31 -18 46 -38 q16 -20 16 -65 l0 -268 q1 -47 -11 -66 q-11 -19 -43 -38 l0 -9 l257 0 l0 9 q-32 19 -43 38 q-12 19 -11 66 l0 380 Z" /><glyph glyph-name="" unicode="ñ" d="M160 571 q14 31 31 48 q18 17 43 17 q38 -4 82 -30 q45 -27 90 -31 q41 0 70 42 q29 41 46 117 l-28 0 q-14 -31 -31 -48 q-18 -17 -43 -17 q-38 4 -82 31 q-45 26 -90 30 q-41 0 -70 -41 q-29 -41 -46 -118 l28 0 ZM571 329 q0 76 -38 124 q-39 48 -123 50 q-60 0 -103 -34 q-44 -35 -68 -101 l-4 125 l-207 0 l0 -9 q31 -18 46 -38 q16 -20 16 -65 l0 -268 q1 -47 -11 -66 q-11 -19 -43 -38 l0 -9 l257 0 l0 9 q-32 19 -43 38 q-12 19 -11 66 l0 150 q1 74 30 109 q29 35 73 35 q42 -1 61 -27 q19 -27 19 -69 l0 -198 q1 -47 -11 -66 q-11 -19 -43 -38 l0 -9 l257 0 l0 9 q-32 19 -43 38 q-12 19 -11 66 l0 216 Z" /><glyph glyph-name="" unicode="ó" d="M332 749 l-58 -188 l29 0 l191 188 l-162 0 ZM564 247 q-3 116 -77 185 q-75 69 -188 71 q-112 -2 -187 -71 q-75 -69 -78 -185 q3 -117 78 -186 q75 -69 187 -71 q113 2 188 71 q74 69 77 186 l0 0 ZM405 247 q1 -109 -24 -161 q-25 -53 -82 -53 q-56 0 -81 53 q-24 52 -24 161 q0 108 24 161 q25 52 81 52 q57 0 82 -52 q25 -53 24 -161 l0 0 Z" /><glyph glyph-name="" unicode="ô" d="M308 775 l-18 0 q-25 -45 -71 -106 q-46 -62 -97 -117 l38 0 q39 20 73 44 q35 24 66 50 q31 -26 66 -50 q34 -24 73 -44 l38 0 q-51 55 -97 117 q-46 61 -71 106 l0 0 ZM564 247 q-3 116 -77 185 q-75 69 -188 71 q-112 -2 -187 -71 q-75 -69 -78 -185 q3 -117 78 -186 q75 -69 187 -71 q113 2 188 71 q74 69 77 186 l0 0 ZM405 247 q1 -109 -24 -161 q-25 -53 -82 -53 q-56 0 -81 53 q-24 52 -24 161 q0 108 24 161 q25 52 81 52 q57 0 82 -52 q25 -53 24 -161 l0 0 Z" /><glyph glyph-name="" unicode="ö" d="M194 564 q34 1 56 23 q21 22 22 54 q-1 33 -22 56 q-22 23 -56 24 q-33 -1 -55 -24 q-21 -23 -22 -56 q1 -32 22 -54 q22 -22 55 -23 l0 0 ZM403 564 q34 1 56 23 q21 22 22 54 q-1 33 -22 56 q-22 23 -56 24 q-33 -1 -55 -24 q-22 -23 -23 -56 q1 -32 23 -54 q22 -22 55 -23 l0 0 ZM564 247 q-3 116 -77 185 q-75 69 -188 71 q-112 -2 -187 -71 q-75 -69 -78 -185 q3 -117 78 -186 q75 -69 187 -71 q113 2 188 71 q74 69 77 186 l0 0 ZM405 247 q1 -109 -24 -161 q-25 -53 -82 -53 q-56 0 -81 53 q-24 52 -24 161 q0 108 24 161 q25 52 81 52 q57 0 82 -52 q25 -53 24 -161 l0 0 Z" /><glyph glyph-name="" unicode="ò" d="M103 749 l191 -188 l29 0 l-58 188 l-162 0 ZM564 247 q-3 116 -77 185 q-75 69 -188 71 q-112 -2 -187 -71 q-75 -69 -78 -185 q3 -117 78 -186 q75 -69 187 -71 q113 2 188 71 q74 69 77 186 l0 0 ZM405 247 q1 -109 -24 -161 q-25 -53 -82 -53 q-56 0 -81 53 q-24 52 -24 161 q0 108 24 161 q25 52 81 52 q57 0 82 -52 q25 -53 24 -161 l0 0 Z" /><glyph glyph-name="" unicode="õ" d="M132 571 q14 31 31 48 q18 17 43 17 q38 -4 82 -30 q45 -27 90 -31 q41 0 70 42 q29 41 46 117 l-28 0 q-14 -31 -31 -48 q-18 -17 -43 -17 q-38 4 -82 31 q-45 26 -90 30 q-41 0 -70 -41 q-29 -41 -46 -118 l28 0 ZM564 247 q-3 116 -77 185 q-75 69 -188 71 q-112 -2 -187 -71 q-75 -69 -78 -185 q3 -117 78 -186 q75 -69 187 -71 q113 2 188 71 q74 69 77 186 l0 0 ZM405 247 q1 -109 -24 -161 q-25 -53 -82 -53 q-56 0 -81 53 q-24 52 -24 161 q0 108 24 161 q25 52 81 52 q57 0 82 -52 q25 -53 24 -161 l0 0 Z" /><glyph glyph-name="" unicode="&#x161;" d="M434 778 l-38 0 q-39 -20 -73 -44 q-35 -24 -66 -50 q-31 26 -66 50 q-34 24 -73 44 l-38 0 q51 -55 97 -117 q46 -61 71 -106 l18 0 q25 45 71 106 q46 62 97 117 l0 0 ZM245 457 q50 0 91 -31 q41 -31 82 -93 l13 0 l0 170 l-9 0 l-43 -35 q-28 14 -60 24 q-32 11 -76 11 q-80 -1 -131 -43 q-52 -42 -54 -114 q-2 -64 39 -104 q41 -40 147 -65 q49 -9 77 -24 q27 -16 28 -49 q-1 -34 -27 -50 q-27 -17 -66 -17 q-54 0 -99 36 q-46 36 -94 106 l-14 0 l11 -188 l10 0 l39 40 q24 -14 61 -27 q37 -13 87 -14 q93 1 150 46 q56 45 58 120 q0 71 -45 109 q-45 37 -138 60 q-55 13 -82 29 q-28 16 -28 47 q1 27 21 42 q21 14 52 14 l0 0 Z" /><glyph glyph-name="" unicode="ú" d="M346 749 l-58 -188 l29 0 l191 188 l-162 0 ZM229 493 l-211 0 l0 -9 q31 -18 46 -38 q16 -20 16 -65 l0 -219 q0 -76 39 -123 q38 -48 117 -49 q64 0 106 35 q43 35 65 101 l0 -126 l203 0 l0 9 q-32 19 -43 38 q-11 19 -10 66 l0 380 l-212 0 l0 -9 q31 -18 47 -38 q15 -20 15 -65 l0 -151 q-1 -73 -29 -109 q-27 -36 -71 -36 q-42 1 -60 28 q-18 27 -18 69 l0 311 Z" /><glyph glyph-name="" unicode="û" d="M322 775 l-18 0 q-25 -45 -71 -106 q-46 -62 -97 -117 l38 0 q39 20 73 44 q35 24 66 50 q31 -26 66 -50 q34 -24 73 -44 l38 0 q-51 55 -97 117 q-46 61 -71 106 l0 0 ZM229 493 l-211 0 l0 -9 q31 -18 46 -38 q16 -20 16 -65 l0 -219 q0 -76 39 -123 q38 -48 117 -49 q64 0 106 35 q43 35 65 101 l0 -126 l203 0 l0 9 q-32 19 -43 38 q-11 19 -10 66 l0 380 l-212 0 l0 -9 q31 -18 47 -38 q15 -20 15 -65 l0 -151 q-1 -73 -29 -109 q-27 -36 -71 -36 q-42 1 -60 28 q-18 27 -18 69 l0 311 Z" /><glyph glyph-name="" unicode="ü" d="M208 564 q34 1 56 23 q21 22 22 54 q-1 33 -22 56 q-22 23 -56 24 q-33 -1 -55 -24 q-21 -23 -22 -56 q1 -32 22 -54 q22 -22 55 -23 l0 0 ZM417 564 q34 1 56 23 q21 22 22 54 q-1 33 -22 56 q-22 23 -56 24 q-33 -1 -55 -24 q-22 -23 -23 -56 q1 -32 23 -54 q22 -22 55 -23 l0 0 ZM229 493 l-211 0 l0 -9 q31 -18 46 -38 q16 -20 16 -65 l0 -219 q0 -76 39 -123 q38 -48 117 -49 q64 0 106 35 q43 35 65 101 l0 -126 l203 0 l0 9 q-32 19 -43 38 q-11 19 -10 66 l0 380 l-212 0 l0 -9 q31 -18 47 -38 q15 -20 15 -65 l0 -151 q-1 -73 -29 -109 q-27 -36 -71 -36 q-42 1 -60 28 q-18 27 -18 69 l0 311 Z" /><glyph glyph-name="" unicode="ù" d="M117 749 l191 -188 l29 0 l-58 188 l-162 0 ZM229 493 l-211 0 l0 -9 q31 -18 46 -38 q16 -20 16 -65 l0 -219 q0 -76 39 -123 q38 -48 117 -49 q64 0 106 35 q43 35 65 101 l0 -126 l203 0 l0 9 q-32 19 -43 38 q-11 19 -10 66 l0 380 l-212 0 l0 -9 q31 -18 47 -38 q15 -20 15 -65 l0 -151 q-1 -73 -29 -109 q-27 -36 -71 -36 q-42 1 -60 28 q-18 27 -18 69 l0 311 Z" /><glyph glyph-name="" unicode="ý" d="M346 749 l-58 -188 l29 0 l191 188 l-162 0 ZM261 -6 l-24 -56 q-15 -35 -33 -54 q-18 -18 -45 -18 q-21 0 -32 13 q-12 13 -12 34 q0 9 2 18 q1 9 5 16 q-35 -1 -61 -23 q-26 -22 -27 -60 q1 -42 28 -65 q28 -24 72 -24 q52 0 82 33 q30 32 56 94 l205 473 q19 44 36 67 q17 23 42 42 l0 9 l-170 0 l0 -9 q26 -18 39 -30 q13 -13 13 -28 q0 -10 -5 -24 q-4 -14 -11 -32 l-86 -212 l-101 227 q-8 18 -12 31 q-5 14 -5 24 q0 12 7 22 q8 9 24 22 l0 9 l-249 0 l0 -9 q25 -20 43 -43 q18 -23 38 -66 l181 -381 Z" /><glyph glyph-name="" unicode="ÿ" d="M208 564 q34 1 56 23 q21 22 22 54 q-1 33 -22 56 q-22 23 -56 24 q-33 -1 -55 -24 q-21 -23 -22 -56 q1 -32 22 -54 q22 -22 55 -23 l0 0 ZM417 564 q34 1 56 23 q21 22 22 54 q-1 33 -22 56 q-22 23 -56 24 q-33 -1 -55 -24 q-22 -23 -23 -56 q1 -32 23 -54 q22 -22 55 -23 l0 0 ZM261 -6 l-24 -56 q-15 -35 -33 -54 q-18 -18 -45 -18 q-21 0 -32 13 q-12 13 -12 34 q0 9 2 18 q1 9 5 16 q-35 -1 -61 -23 q-26 -22 -27 -60 q1 -42 28 -65 q28 -24 72 -24 q52 0 82 33 q30 32 56 94 l205 473 q19 44 36 67 q17 23 42 42 l0 9 l-170 0 l0 -9 q26 -18 39 -30 q13 -13 13 -28 q0 -10 -5 -24 q-4 -14 -11 -32 l-86 -212 l-101 227 q-8 18 -12 31 q-5 14 -5 24 q0 12 7 22 q8 9 24 22 l0 9 l-249 0 l0 -9 q25 -20 43 -43 q18 -23 38 -66 l181 -381 Z" /><glyph glyph-name="" unicode="&#x17e;" d="M471 778 l-38 0 q-39 -20 -73 -44 q-35 -24 -66 -50 q-31 26 -66 50 q-34 24 -73 44 l-38 0 q51 -55 97 -117 q46 -61 71 -106 l18 0 q25 45 71 106 q46 62 97 117 l0 0 ZM34 7 l0 -7 l450 0 l29 179 l-10 1 q-55 -83 -91 -111 q-36 -27 -98 -25 l-88 0 l277 442 l0 7 l-373 0 q-23 0 -37 2 q-14 2 -26 5 l-14 -176 l9 -1 q45 72 80 100 q34 28 91 27 l80 0 l-279 -443 Z" /><glyph glyph-name="" unicode="&#x20ac;" d="M643 210 l-20 7 q-35 -82 -78 -112 q-43 -31 -100 -29 q-72 0 -119 50 q-47 49 -61 148 l149 0 l10 41 l-162 0 q-1 15 -1 30 q0 21 1 41 l180 0 l10 41 l-187 0 q10 112 52 177 q41 65 114 66 q47 -1 70 -26 q23 -25 23 -67 q0 -34 -11 -53 q-10 -19 -25 -26 q11 -10 27 -14 q16 -5 34 -5 q36 0 60 23 q23 22 24 64 q-3 68 -63 106 q-60 37 -146 38 q-128 -2 -211 -77 q-84 -76 -106 -206 l-77 0 l0 -41 l72 0 q-2 -20 -2 -41 q0 -15 1 -30 l-71 0 l0 -41 l74 0 q18 -133 92 -208 q74 -75 191 -76 q100 1 167 58 q68 56 89 162 l0 0 Z" /><glyph glyph-name="" unicode="&#x2248;" d="M77 355 q34 22 65 31 q30 10 58 10 q57 -2 104 -20 q48 -17 104 -20 q29 0 60 9 q32 10 66 32 l0 60 q-34 -22 -66 -32 q-31 -9 -60 -9 q-56 3 -104 20 q-47 18 -104 20 q-55 1 -123 -41 l0 -60 ZM77 221 q68 42 123 41 q57 -2 104 -20 q48 -17 104 -20 q29 0 60 9 q32 10 66 32 l0 59 q-34 -22 -66 -32 q-31 -9 -60 -9 q-56 3 -104 20 q-47 18 -104 20 q-28 0 -58 -10 q-31 -9 -65 -31 l0 -59 Z" /><glyph glyph-name="" unicode="­&#x2260;" d="M534 237 l0 54 l-233 0 l69 92 l164 0 l0 55 l-122 0 l84 112 l-61 0 l-85 -112 l-273 0 l0 -55 l232 0 l-69 -92 l-163 0 l0 -54 l122 0 l-84 -111 l62 0 l84 111 l273 0 Z" /><glyph glyph-name="" unicode="&#x2264;" d="M75 363 l349 -158 l0 65 l-282 128 l282 126 l0 66 l-349 -158 l0 -69 ZM75 98 l349 0 l0 60 l-349 0 l0 -60 Z" /><glyph glyph-name="" unicode="&#x2265;" d="M422 432 l-349 158 l0 -66 l281 -126 l-281 -128 l0 -65 l349 158 l0 69 ZM422 158 l-349 0 l0 -60 l349 0 l0 60 Z" /><glyph glyph-name="" unicode=" " d="" /><glyph glyph-name="" unicode="&#x100;" d="M537 781 l0 78 l-298 0 l0 -78 l298 0 ZM333 494 l118 -249 l-235 0 l117 249 ZM203 9 q-33 22 -47 35 q-14 13 -14 27 q0 8 3 18 q2 9 8 21 l42 89 l278 0 l44 -94 q6 -12 9 -21 q2 -10 2 -18 q0 -17 -10 -29 q-11 -13 -36 -28 l0 -9 l281 0 l0 9 q-29 23 -45 44 q-17 22 -37 65 l-289 600 l-5 0 l-288 -600 q-21 -43 -38 -65 q-17 -21 -46 -44 l0 -9 l188 0 l0 9 Z" /><glyph glyph-name="" unicode="&#x102;" d="M265 959 l-27 0 q3 -85 44 -137 q41 -52 106 -54 q65 2 106 54 q41 52 44 137 l-27 0 q-10 -46 -45 -66 q-35 -20 -78 -20 q-43 0 -78 20 q-35 20 -45 66 l0 0 ZM333 494 l118 -249 l-235 0 l117 249 ZM203 9 q-33 22 -47 35 q-14 13 -14 27 q0 8 3 18 q2 9 8 21 l42 89 l278 0 l44 -94 q6 -12 9 -21 q2 -10 2 -18 q0 -17 -10 -29 q-11 -13 -36 -28 l0 -9 l281 0 l0 9 q-29 23 -45 44 q-17 22 -37 65 l-289 600 l-5 0 l-288 -600 q-21 -43 -38 -65 q-17 -21 -46 -44 l0 -9 l188 0 l0 9 Z" /><glyph glyph-name="" unicode="&#x104;" d="M588 -131 l-16 13 q-21 -27 -43 -41 q-22 -15 -51 -15 q-25 0 -40 15 q-16 14 -17 41 q0 30 24 58 q24 28 69 60 l249 0 l0 9 q-29 23 -45 44 q-17 22 -37 65 l-289 600 l-5 0 l-288 -600 q-21 -43 -38 -65 q-17 -21 -46 -44 l0 -9 l188 0 l0 9 q-33 22 -47 35 q-14 13 -14 27 q0 8 3 18 q2 9 8 21 l41 89 l279 0 l44 -94 q6 -12 9 -21 q2 -10 2 -18 q0 -14 -9 -26 q-8 -12 -27 -22 q-63 -34 -113 -74 q-51 -41 -54 -98 q2 -42 32 -64 q30 -23 70 -23 q64 1 102 33 q37 31 59 77 l0 0 ZM333 494 l118 -249 l-235 0 l117 249 Z" /><glyph glyph-name="" unicode="&#x106;" d="M449 944 l-55 -181 l29 0 l191 181 l-165 0 ZM429 662 q74 -2 125 -54 q51 -53 96 -135 l13 0 l0 237 l-9 0 l-56 -57 q-31 25 -78 41 q-46 16 -110 16 q-154 -3 -258 -101 q-104 -99 -108 -259 q3 -166 101 -262 q98 -96 256 -98 q113 1 187 59 q74 58 101 159 l-15 6 q-43 -79 -99 -109 q-56 -30 -119 -29 q-105 1 -169 76 q-64 75 -66 216 q1 128 56 210 q56 81 152 84 l0 0 Z" /><glyph glyph-name="" unicode="&#x108;" d="M431 961 l-24 0 q-27 -46 -80 -105 q-52 -59 -100 -99 l51 0 q39 18 75 39 q36 21 66 47 q30 -26 66 -47 q36 -21 75 -39 l51 0 q-48 40 -100 99 q-53 59 -80 105 l0 0 ZM429 662 q74 -2 125 -54 q51 -53 96 -135 l13 0 l0 237 l-9 0 l-56 -57 q-31 25 -78 41 q-46 16 -110 16 q-154 -3 -258 -101 q-104 -99 -108 -259 q3 -166 101 -262 q98 -96 256 -98 q113 1 187 59 q74 58 101 159 l-15 6 q-43 -79 -99 -109 q-56 -30 -119 -29 q-105 1 -169 76 q-64 75 -66 216 q1 128 56 210 q56 81 152 84 l0 0 Z" /><glyph glyph-name="" unicode="&#x10a;" d="M419 766 q38 1 63 25 q25 24 26 61 q-1 38 -26 63 q-25 24 -63 25 q-38 -1 -63 -25 q-24 -25 -25 -63 q1 -37 25 -61 q25 -24 63 -25 l0 0 ZM429 662 q74 -2 125 -54 q51 -53 96 -135 l13 0 l0 237 l-9 0 l-56 -57 q-31 25 -78 41 q-46 16 -110 16 q-154 -3 -258 -101 q-104 -99 -108 -259 q3 -166 101 -262 q98 -96 256 -98 q113 1 187 59 q74 58 101 159 l-15 6 q-43 -79 -99 -109 q-56 -30 -119 -29 q-105 1 -169 76 q-64 75 -66 216 q1 128 56 210 q56 81 152 84 l0 0 Z" /><glyph glyph-name="" unicode="&#x10c;" d="M611 960 l-51 0 q-39 -17 -75 -38 q-36 -21 -66 -47 q-30 26 -66 47 q-36 21 -75 38 l-51 0 q48 -40 100 -99 q53 -59 80 -105 l24 0 q27 46 80 105 q52 59 100 99 l0 0 ZM429 662 q74 -2 125 -54 q51 -53 96 -135 l13 0 l0 237 l-9 0 l-56 -57 q-31 25 -78 41 q-46 16 -110 16 q-154 -3 -258 -101 q-104 -99 -108 -259 q3 -166 101 -262 q98 -96 256 -98 q113 1 187 59 q74 58 101 159 l-15 6 q-43 -79 -99 -109 q-56 -30 -119 -29 q-105 1 -169 76 q-64 75 -66 216 q1 128 56 210 q56 81 152 84 l0 0 Z" /><glyph glyph-name="" unicode="&#x10e;" d="M566 960 l-51 0 q-39 -17 -75 -38 q-36 -21 -66 -47 q-30 26 -66 47 q-36 21 -75 38 l-51 0 q48 -40 100 -99 q53 -59 80 -105 l24 0 q27 46 80 105 q52 59 100 99 l0 0 ZM43 0 l326 0 q171 0 277 87 q105 87 108 266 q-2 170 -108 258 q-106 89 -295 89 l-308 0 l0 -9 q35 -22 49 -42 q14 -20 14 -67 l0 -464 q0 -47 -14 -67 q-14 -20 -49 -42 l0 -9 ZM586 353 q-1 -162 -63 -235 q-62 -72 -172 -71 l-88 0 l0 606 l77 0 q118 -1 182 -78 q63 -77 64 -222 l0 0 Z" /><glyph glyph-name="" unicode="&#x112;" d="M500 783 l0 78 l-298 0 l0 -78 l298 0 ZM520 479 l-12 0 q-26 -66 -51 -82 q-26 -17 -84 -14 l-110 0 l0 272 l145 0 q82 -1 122 -38 q40 -37 86 -97 l11 0 l-34 186 q-11 -2 -24 -4 q-14 -2 -36 -2 l-490 0 l0 -9 q35 -22 49 -42 q14 -20 14 -67 l0 -464 q0 -47 -14 -67 q-14 -20 -49 -42 l0 -9 l582 0 l32 198 l-11 0 q-47 -76 -90 -115 q-44 -38 -120 -38 l-173 0 l0 294 l110 0 q58 2 84 -14 q25 -17 51 -82 l12 0 l0 236 Z" /><glyph glyph-name="" unicode="&#x114;" d="M228 961 l-27 0 q3 -85 44 -137 q41 -52 106 -54 q65 2 106 54 q41 52 44 137 l-27 0 q-10 -46 -45 -66 q-35 -20 -78 -20 q-43 0 -78 20 q-35 20 -45 66 l0 0 ZM520 479 l-12 0 q-26 -66 -51 -82 q-26 -17 -84 -14 l-110 0 l0 272 l145 0 q82 -1 122 -38 q40 -37 86 -97 l11 0 l-34 186 q-11 -2 -24 -4 q-14 -2 -36 -2 l-490 0 l0 -9 q35 -22 49 -42 q14 -20 14 -67 l0 -464 q0 -47 -14 -67 q-14 -20 -49 -42 l0 -9 l582 0 l32 198 l-11 0 q-47 -76 -90 -115 q-44 -38 -120 -38 l-173 0 l0 294 l110 0 q58 2 84 -14 q25 -17 51 -82 l12 0 l0 236 Z" /><glyph glyph-name="" unicode="&#x116;" d="M350 766 q38 1 63 25 q25 24 26 61 q-1 38 -26 63 q-25 24 -63 25 q-38 -1 -63 -25 q-24 -25 -25 -63 q1 -37 25 -61 q25 -24 63 -25 l0 0 ZM520 479 l-12 0 q-26 -66 -51 -82 q-26 -17 -84 -14 l-110 0 l0 272 l145 0 q82 -1 122 -38 q40 -37 86 -97 l11 0 l-34 186 q-11 -2 -24 -4 q-14 -2 -36 -2 l-490 0 l0 -9 q35 -22 49 -42 q14 -20 14 -67 l0 -464 q0 -47 -14 -67 q-14 -20 -49 -42 l0 -9 l582 0 l32 198 l-11 0 q-47 -76 -90 -115 q-44 -38 -120 -38 l-173 0 l0 294 l110 0 q58 2 84 -14 q25 -17 51 -82 l12 0 l0 236 Z" /><glyph glyph-name="" unicode="&#x118;" d="M608 -131 l-16 13 q-21 -27 -43 -41 q-22 -15 -51 -15 q-25 0 -40 15 q-16 14 -17 41 q0 30 24 58 q24 28 69 60 l91 0 l32 198 l-11 0 q-47 -76 -90 -115 q-44 -38 -120 -38 l-173 0 l0 294 l110 0 q58 2 84 -14 q25 -17 51 -82 l12 0 l0 236 l-12 0 q-26 -66 -51 -82 q-26 -17 -84 -14 l-110 0 l0 272 l145 0 q82 -1 122 -38 q40 -37 86 -97 l11 0 l-34 186 q-11 -2 -24 -4 q-14 -2 -36 -2 l-490 0 l0 -9 q35 -22 49 -42 q14 -20 14 -67 l0 -464 q0 -47 -14 -67 q-14 -20 -49 -42 l0 -9 l437 0 q-56 -30 -94 -68 q-39 -37 -41 -86 q2 -42 32 -64 q30 -23 70 -23 q64 1 102 33 q37 31 59 77 l0 0 Z" /><glyph glyph-name="" unicode="&#x11a;" d="M543 960 l-51 0 q-39 -17 -75 -38 q-36 -21 -66 -47 q-30 26 -66 47 q-36 21 -75 38 l-51 0 q48 -40 100 -99 q53 -59 80 -105 l24 0 q27 46 80 105 q52 59 100 99 l0 0 ZM520 479 l-12 0 q-26 -66 -51 -82 q-26 -17 -84 -14 l-110 0 l0 272 l145 0 q82 -1 122 -38 q40 -37 86 -97 l11 0 l-34 186 q-11 -2 -24 -4 q-14 -2 -36 -2 l-490 0 l0 -9 q35 -22 49 -42 q14 -20 14 -67 l0 -464 q0 -47 -14 -67 q-14 -20 -49 -42 l0 -9 l582 0 l32 198 l-11 0 q-47 -76 -90 -115 q-44 -38 -120 -38 l-173 0 l0 294 l110 0 q58 2 84 -14 q25 -17 51 -82 l12 0 l0 236 Z" /><glyph glyph-name="" unicode="&#x11c;" d="M432 961 l-24 0 q-27 -46 -80 -105 q-52 -59 -100 -99 l51 0 q39 18 75 39 q36 21 66 47 q30 -26 66 -47 q36 -21 75 -39 l51 0 q-48 40 -100 99 q-53 59 -80 105 l0 0 ZM560 112 q-23 -28 -53 -42 q-30 -14 -70 -14 q-103 3 -159 84 q-56 82 -57 213 q2 138 61 222 q58 85 156 87 q75 -2 126 -54 q51 -52 98 -134 l13 0 l0 236 l-9 0 l-56 -57 q-32 25 -79 41 q-47 16 -111 16 q-160 -2 -266 -101 q-106 -98 -110 -265 q3 -164 101 -258 q98 -94 251 -96 q69 1 122 25 q54 25 87 67 l95 -90 l20 0 l0 229 q0 47 14 67 q14 20 49 42 l0 9 l-286 0 l0 -9 q35 -22 49 -42 q14 -20 14 -67 l0 -109 Z" /><glyph glyph-name="" unicode="&#x11e;" d="M297 961 l-27 0 q3 -85 44 -137 q41 -52 106 -54 q65 2 106 54 q41 52 44 137 l-27 0 q-10 -46 -45 -66 q-35 -20 -78 -20 q-43 0 -78 20 q-35 20 -45 66 l0 0 ZM560 112 q-23 -28 -53 -42 q-30 -14 -70 -14 q-103 3 -159 84 q-56 82 -57 213 q2 138 61 222 q58 85 156 87 q75 -2 126 -54 q51 -52 98 -134 l13 0 l0 236 l-9 0 l-56 -57 q-32 25 -79 41 q-47 16 -111 16 q-160 -2 -266 -101 q-106 -98 -110 -265 q3 -164 101 -258 q98 -94 251 -96 q69 1 122 25 q54 25 87 67 l95 -90 l20 0 l0 229 q0 47 14 67 q14 20 49 42 l0 9 l-286 0 l0 -9 q35 -22 49 -42 q14 -20 14 -67 l0 -109 Z" /><glyph glyph-name="" unicode="&#x120;" d="M420 766 q38 1 63 25 q25 24 26 61 q-1 38 -26 63 q-25 24 -63 25 q-38 -1 -63 -25 q-24 -25 -25 -63 q1 -37 25 -61 q25 -24 63 -25 l0 0 ZM560 112 q-23 -28 -53 -42 q-30 -14 -70 -14 q-103 3 -159 84 q-56 82 -57 213 q2 138 61 222 q58 85 156 87 q75 -2 126 -54 q51 -52 98 -134 l13 0 l0 236 l-9 0 l-56 -57 q-32 25 -79 41 q-47 16 -111 16 q-160 -2 -266 -101 q-106 -98 -110 -265 q3 -164 101 -258 q98 -94 251 -96 q69 1 122 25 q54 25 87 67 l95 -90 l20 0 l0 229 q0 47 14 67 q14 20 49 42 l0 9 l-286 0 l0 -9 q35 -22 49 -42 q14 -20 14 -67 l0 -109 Z" /><glyph glyph-name="" unicode="&#x122;" d="M560 112 q-23 -28 -53 -42 q-30 -14 -70 -14 q-103 3 -159 84 q-56 82 -57 213 q2 138 61 222 q58 85 156 87 q75 -2 126 -54 q51 -52 98 -134 l13 0 l0 236 l-9 0 l-56 -57 q-32 25 -79 41 q-47 16 -111 16 q-160 -2 -266 -101 q-106 -98 -110 -265 q3 -164 101 -258 q98 -94 251 -96 q69 1 122 25 q54 25 87 67 l95 -90 l20 0 l0 229 q0 47 14 67 q14 20 49 42 l0 9 l-286 0 l0 -9 q35 -22 49 -42 q14 -20 14 -67 l0 -109 ZM441 -170 q-1 -38 -29 -58 q-29 -20 -78 -22 l0 -28 q90 1 132 37 q42 36 41 89 q-1 44 -27 69 q-26 25 -67 25 q-33 0 -54 -18 q-20 -18 -21 -47 q1 -26 18 -42 q18 -16 45 -16 q12 0 23 3 q10 2 17 8 l0 0 Z" /><glyph glyph-name="" unicode="&#x124;" d="M444 961 l-24 0 q-27 -46 -80 -105 q-52 -59 -100 -99 l51 0 q39 18 75 39 q36 21 66 47 q30 -26 66 -47 q36 -21 75 -39 l51 0 q-48 40 -100 99 q-53 59 -80 105 l0 0 ZM43 0 l282 0 l0 9 q-35 22 -49 42 q-14 20 -13 67 l0 220 l338 0 l0 -220 q0 -47 -14 -67 q-14 -20 -49 -42 l0 -9 l282 0 l0 9 q-35 22 -49 42 q-14 20 -13 67 l0 464 q-1 47 13 67 q14 20 49 42 l0 9 l-282 0 l0 -9 q35 -22 49 -42 q14 -20 14 -67 l0 -198 l-338 0 l0 198 q-1 47 13 67 q14 20 49 42 l0 9 l-282 0 l0 -9 q35 -22 49 -42 q14 -20 14 -67 l0 -464 q0 -47 -14 -67 q-14 -20 -49 -42 l0 -9 Z" /><glyph glyph-name="" unicode="&#x128;" d="M16 773 q14 31 32 48 q17 17 43 17 q38 -4 82 -30 q45 -26 91 -30 q40 0 69 42 q30 41 47 117 l-28 0 q-14 -31 -31 -48 q-18 -17 -44 -17 q-38 4 -82 31 q-45 26 -91 30 q-40 0 -69 -42 q-30 -41 -47 -118 l28 0 ZM106 582 l0 -464 q0 -47 -14 -67 q-14 -20 -49 -42 l0 -9 l282 0 l0 9 q-35 22 -49 42 q-14 20 -13 67 l0 464 q-1 47 13 67 q14 20 49 42 l0 9 l-282 0 l0 -9 q35 -22 49 -42 q14 -20 14 -67 l0 0 Z" /><glyph glyph-name="" unicode="&#x12a;" d="M333 783 l0 78 l-298 0 l0 -78 l298 0 ZM106 582 l0 -464 q0 -47 -14 -67 q-14 -20 -49 -42 l0 -9 l282 0 l0 9 q-35 22 -49 42 q-14 20 -13 67 l0 464 q-1 47 13 67 q14 20 49 42 l0 9 l-282 0 l0 -9 q35 -22 49 -42 q14 -20 14 -67 l0 0 Z" /><glyph glyph-name="" unicode="&#x12c;" d="M61 961 l-27 0 q3 -85 44 -137 q41 -52 106 -54 q65 2 106 54 q41 52 44 137 l-27 0 q-10 -46 -45 -66 q-35 -20 -78 -20 q-43 0 -78 20 q-35 20 -45 66 l0 0 ZM106 582 l0 -464 q0 -47 -14 -67 q-14 -20 -49 -42 l0 -9 l282 0 l0 9 q-35 22 -49 42 q-14 20 -13 67 l0 464 q-1 47 13 67 q14 20 49 42 l0 9 l-282 0 l0 -9 q35 -22 49 -42 q14 -20 14 -67 l0 0 Z" /><glyph glyph-name="" unicode="&#x12e;" d="M316 -131 l-16 13 q-21 -27 -43 -41 q-22 -15 -51 -15 q-25 0 -40 15 q-16 14 -17 41 q0 30 24 58 q24 28 69 60 l83 0 l0 9 q-35 22 -49 42 q-14 20 -13 67 l0 464 q-1 47 13 67 q14 20 49 42 l0 9 l-282 0 l0 -9 q35 -22 49 -42 q14 -20 14 -67 l0 -464 q0 -47 -14 -67 q-14 -20 -49 -42 l0 -9 l145 0 q-56 -30 -94 -68 q-39 -37 -41 -86 q2 -42 32 -64 q30 -23 70 -23 q64 1 102 33 q37 31 59 77 l0 0 Z" /><glyph glyph-name="" unicode="&#x130;" d="M184 766 q38 1 63 25 q25 24 26 61 q-1 38 -26 63 q-25 24 -63 25 q-38 -1 -63 -25 q-24 -25 -25 -63 q1 -37 25 -61 q25 -24 63 -25 l0 0 ZM106 582 l0 -464 q0 -47 -14 -67 q-14 -20 -49 -42 l0 -9 l282 0 l0 9 q-35 22 -49 42 q-14 20 -13 67 l0 464 q-1 47 13 67 q14 20 49 42 l0 9 l-282 0 l0 -9 q35 -22 49 -42 q14 -20 14 -67 l0 0 Z" /><glyph glyph-name="" unicode="&#x134;" d="M452 961 l-24 0 q-27 -46 -80 -105 q-52 -59 -100 -99 l51 0 q39 18 75 39 q36 21 66 47 q30 -26 66 -47 q36 -21 75 -39 l51 0 q-48 40 -100 99 q-53 59 -80 105 l0 0 ZM366 197 q0 -78 -26 -121 q-26 -42 -84 -43 q-47 1 -74 32 q-27 32 -28 82 q0 38 13 67 q13 28 36 46 q-11 6 -26 10 q-15 4 -34 4 q-55 0 -91 -30 q-36 -29 -37 -85 q3 -83 74 -126 q70 -43 167 -43 q108 -1 186 51 q77 53 81 173 l0 368 q0 47 14 67 q14 20 49 42 l0 9 l-282 0 l0 -9 q35 -22 49 -42 q14 -20 13 -67 l0 -385 Z" /><glyph glyph-name="" unicode="&#x136;" d="M325 0 l0 9 q-35 22 -49 42 q-14 20 -13 67 l0 150 l74 72 l163 -235 q15 -22 21 -35 q6 -13 6 -24 q0 -11 -5 -19 q-5 -7 -18 -18 l0 -9 l287 0 l0 12 q-38 18 -64 41 q-25 24 -50 59 l-228 331 l152 145 q33 32 67 56 q34 24 82 47 l0 9 l-214 0 l0 -9 q19 -15 27 -26 q8 -11 8 -22 q0 -9 -3 -16 q-3 -7 -12 -16 l-293 -281 l0 252 q-1 47 13 67 q14 20 49 42 l0 9 l-282 0 l0 -9 q35 -22 49 -42 q14 -20 14 -67 l0 -464 q0 -47 -14 -67 q-14 -20 -49 -42 l0 -9 l282 0 ZM416 -170 q-1 -38 -29 -58 q-29 -20 -78 -22 l0 -28 q90 1 132 37 q42 36 41 89 q-1 44 -27 69 q-26 25 -67 25 q-33 0 -54 -18 q-20 -18 -21 -47 q1 -26 18 -42 q18 -16 45 -16 q12 0 23 3 q10 2 17 8 l0 0 Z" /><glyph glyph-name="" unicode="&#x139;" d="M223 944 l-55 -181 l29 0 l191 181 l-165 0 ZM263 582 q-1 47 13 67 q14 20 49 42 l0 9 l-282 0 l0 -9 q35 -22 49 -42 q14 -20 14 -67 l0 -464 q0 -47 -14 -67 q-14 -20 -49 -42 l0 -9 l567 0 l36 233 l-10 0 q-63 -98 -107 -143 q-44 -46 -116 -45 l-150 0 l0 537 Z" /><glyph glyph-name="" unicode="&#x13b;" d="M263 582 q-1 47 13 67 q14 20 49 42 l0 9 l-282 0 l0 -9 q35 -22 49 -42 q14 -20 14 -67 l0 -464 q0 -47 -14 -67 q-14 -20 -49 -42 l0 -9 l567 0 l36 233 l-10 0 q-63 -98 -107 -143 q-44 -46 -116 -45 l-150 0 l0 537 ZM375 -170 q-1 -38 -29 -58 q-29 -20 -78 -22 l0 -28 q90 1 132 37 q42 36 41 89 q-1 44 -27 69 q-26 25 -67 25 q-33 0 -54 -18 q-20 -18 -21 -47 q1 -26 18 -42 q18 -16 45 -16 q12 0 23 3 q10 2 17 8 l0 0 Z" /><glyph glyph-name="" unicode="&#x13d;" d="M263 582 q-1 47 13 67 q14 20 49 42 l0 9 l-282 0 l0 -9 q35 -22 49 -42 q14 -20 14 -67 l0 -464 q0 -47 -14 -67 q-14 -20 -49 -42 l0 -9 l567 0 l36 233 l-10 0 q-63 -98 -107 -143 q-44 -46 -116 -45 l-150 0 l0 537 ZM619 700 l-143 0 l-14 -205 l27 0 l130 205 Z" /><glyph glyph-name="" unicode="&#x143;" d="M436 944 l-55 -181 l29 0 l191 181 l-165 0 ZM630 269 l-359 431 l-228 0 l0 -9 q35 -22 49 -42 q14 -20 14 -67 l0 -460 q0 -47 -20 -69 q-20 -22 -57 -44 l0 -9 l212 0 l0 9 q-36 22 -57 44 q-22 22 -22 69 l0 455 l483 -581 l41 0 l0 582 q0 47 20 69 q19 22 56 44 l0 9 l-212 0 l0 -9 q38 -22 59 -44 q21 -22 21 -69 l0 -309 Z" /><glyph glyph-name="" unicode="&#x145;" d="M630 269 l-359 431 l-228 0 l0 -9 q35 -22 49 -42 q14 -20 14 -67 l0 -460 q0 -47 -20 -69 q-20 -22 -57 -44 l0 -9 l212 0 l0 9 q-36 22 -57 44 q-22 22 -22 69 l0 455 l483 -581 l41 0 l0 582 q0 47 20 69 q19 22 56 44 l0 9 l-212 0 l0 -9 q38 -22 59 -44 q21 -22 21 -69 l0 -309 ZM426 -170 q-1 -38 -29 -58 q-29 -20 -78 -22 l0 -28 q90 1 132 37 q42 36 41 89 q-1 44 -27 69 q-26 25 -67 25 q-33 0 -54 -18 q-20 -18 -21 -47 q1 -26 18 -42 q18 -16 45 -16 q12 0 23 3 q10 2 17 8 l0 0 Z" /><glyph glyph-name="" unicode="&#x147;" d="M597 960 l-51 0 q-39 -17 -75 -38 q-36 -21 -66 -47 q-30 26 -66 47 q-36 21 -75 38 l-51 0 q48 -40 100 -99 q53 -59 80 -105 l24 0 q27 46 80 105 q52 59 100 99 l0 0 ZM630 269 l-359 431 l-228 0 l0 -9 q35 -22 49 -42 q14 -20 14 -67 l0 -460 q0 -47 -20 -69 q-20 -22 -57 -44 l0 -9 l212 0 l0 9 q-36 22 -57 44 q-22 22 -22 69 l0 455 l483 -581 l41 0 l0 582 q0 47 20 69 q19 22 56 44 l0 9 l-212 0 l0 -9 q38 -22 59 -44 q21 -22 21 -69 l0 -309 Z" /><glyph glyph-name="" unicode="&#x14c;" d="M557 783 l0 78 l-298 0 l0 -78 l298 0 ZM44 350 q4 -160 106 -259 q102 -98 258 -101 q156 3 259 101 q102 99 106 259 q-4 160 -106 259 q-103 98 -259 101 q-156 -3 -258 -101 q-102 -99 -106 -259 l0 0 ZM596 350 q0 -149 -46 -230 q-46 -80 -142 -81 q-96 1 -141 81 q-46 81 -46 230 q0 149 46 230 q45 80 141 81 q96 -1 142 -81 q46 -81 46 -230 l0 0 Z" /><glyph glyph-name="" unicode="&#x14e;" d="M285 961 l-27 0 q3 -85 44 -137 q41 -52 106 -54 q65 2 106 54 q41 52 44 137 l-27 0 q-10 -46 -45 -66 q-35 -20 -78 -20 q-43 0 -78 20 q-35 20 -45 66 l0 0 ZM44 350 q4 -160 106 -259 q102 -98 258 -101 q156 3 259 101 q102 99 106 259 q-4 160 -106 259 q-103 98 -259 101 q-156 -3 -258 -101 q-102 -99 -106 -259 l0 0 ZM596 350 q0 -149 -46 -230 q-46 -80 -142 -81 q-96 1 -141 81 q-46 81 -46 230 q0 149 46 230 q45 80 141 81 q96 -1 142 -81 q46 -81 46 -230 l0 0 Z" /><glyph glyph-name="" unicode="&#x150;" d="M346 944 l-61 -181 l29 0 l176 181 l-144 0 ZM529 944 l-61 -181 l29 0 l176 181 l-144 0 ZM44 350 q4 -160 106 -259 q102 -98 258 -101 q156 3 259 101 q102 99 106 259 q-4 160 -106 259 q-103 98 -259 101 q-156 -3 -258 -101 q-102 -99 -106 -259 l0 0 ZM596 350 q0 -149 -46 -230 q-46 -80 -142 -81 q-96 1 -141 81 q-46 81 -46 230 q0 149 46 230 q45 80 141 81 q96 -1 142 -81 q46 -81 46 -230 l0 0 Z" /><glyph glyph-name="" unicode="&#x154;" d="M401 944 l-55 -181 l29 0 l191 181 l-165 0 ZM263 657 l98 0 q75 -1 115 -40 q40 -40 40 -110 q-1 -76 -41 -113 q-41 -37 -114 -37 l-98 0 l0 300 ZM263 314 l83 0 q52 0 78 -22 q26 -23 41 -71 l38 -113 q11 -31 21 -56 q10 -24 25 -52 l211 0 l0 12 q-38 18 -59 40 q-20 21 -38 73 l-31 84 q-22 60 -64 91 q-42 30 -108 35 l0 2 q91 1 155 44 q64 43 67 131 q-3 100 -78 145 q-76 44 -187 43 l-374 0 l0 -9 q35 -22 49 -42 q14 -20 14 -67 l0 -464 q0 -47 -14 -67 q-14 -20 -49 -42 l0 -9 l282 0 l0 9 q-35 22 -49 42 q-14 20 -13 67 l0 196 Z" /><glyph glyph-name="" unicode="&#x156;" d="M263 657 l98 0 q75 -1 115 -40 q40 -40 40 -110 q-1 -76 -41 -113 q-41 -37 -114 -37 l-98 0 l0 300 ZM263 314 l83 0 q52 0 78 -22 q26 -23 41 -71 l38 -113 q11 -31 21 -56 q10 -24 25 -52 l211 0 l0 12 q-38 18 -59 40 q-20 21 -38 73 l-31 84 q-22 60 -64 91 q-42 30 -108 35 l0 2 q91 1 155 44 q64 43 67 131 q-3 100 -78 145 q-76 44 -187 43 l-374 0 l0 -9 q35 -22 49 -42 q14 -20 14 -67 l0 -464 q0 -47 -14 -67 q-14 -20 -49 -42 l0 -9 l282 0 l0 9 q-35 22 -49 42 q-14 20 -13 67 l0 196 ZM392 -170 q-1 -38 -29 -58 q-29 -20 -78 -22 l0 -28 q90 1 132 37 q42 36 41 89 q-1 44 -27 69 q-26 25 -67 25 q-33 0 -54 -18 q-20 -18 -21 -47 q1 -26 18 -42 q18 -16 45 -16 q12 0 23 3 q10 2 17 8 l0 0 Z" /><glyph glyph-name="" unicode="&#x158;" d="M563 960 l-51 0 q-39 -17 -75 -38 q-36 -21 -66 -47 q-30 26 -66 47 q-36 21 -75 38 l-51 0 q48 -40 100 -99 q53 -59 80 -105 l24 0 q27 46 80 105 q52 59 100 99 l0 0 ZM263 657 l98 0 q75 -1 115 -40 q40 -40 40 -110 q-1 -76 -41 -113 q-41 -37 -114 -37 l-98 0 l0 300 ZM263 314 l83 0 q52 0 78 -22 q26 -23 41 -71 l38 -113 q11 -31 21 -56 q10 -24 25 -52 l211 0 l0 12 q-38 18 -59 40 q-20 21 -38 73 l-31 84 q-22 60 -64 91 q-42 30 -108 35 l0 2 q91 1 155 44 q64 43 67 131 q-3 100 -78 145 q-76 44 -187 43 l-374 0 l0 -9 q35 -22 49 -42 q14 -20 14 -67 l0 -464 q0 -47 -14 -67 q-14 -20 -49 -42 l0 -9 l282 0 l0 9 q-35 22 -49 42 q-14 20 -13 67 l0 196 Z" /><glyph glyph-name="" unicode="&#x15a;" d="M350 944 l-55 -181 l29 0 l191 181 l-165 0 ZM321 665 q71 -1 120 -45 q49 -45 98 -124 l13 0 l-3 214 l-13 0 l-43 -50 q-30 18 -73 34 q-43 15 -99 16 q-118 -1 -187 -57 q-69 -55 -70 -150 q0 -81 47 -128 q46 -47 138 -75 l93 -29 q53 -15 80 -42 q28 -28 28 -75 q0 -54 -34 -83 q-34 -30 -97 -30 q-78 1 -137 51 q-58 51 -111 138 l-19 0 l14 -240 l15 0 l44 62 q29 -21 82 -41 q52 -20 113 -21 q112 1 188 58 q75 57 78 163 q-1 87 -48 134 q-47 46 -130 71 l-95 29 q-57 17 -84 44 q-27 27 -27 73 q1 46 34 74 q32 28 85 29 l0 0 Z" /><glyph glyph-name="" unicode="&#x15c;" d="M331 961 l-24 0 q-27 -46 -80 -105 q-52 -59 -100 -99 l51 0 q39 18 75 39 q36 21 66 47 q30 -26 66 -47 q36 -21 75 -39 l51 0 q-48 40 -100 99 q-53 59 -80 105 l0 0 ZM321 665 q71 -1 120 -45 q49 -45 98 -124 l13 0 l-3 214 l-13 0 l-43 -50 q-30 18 -73 34 q-43 15 -99 16 q-118 -1 -187 -57 q-69 -55 -70 -150 q0 -81 47 -128 q46 -47 138 -75 l93 -29 q53 -15 80 -42 q28 -28 28 -75 q0 -54 -34 -83 q-34 -30 -97 -30 q-78 1 -137 51 q-58 51 -111 138 l-19 0 l14 -240 l15 0 l44 62 q29 -21 82 -41 q52 -20 113 -21 q112 1 188 58 q75 57 78 163 q-1 87 -48 134 q-47 46 -130 71 l-95 29 q-57 17 -84 44 q-27 27 -27 73 q1 46 34 74 q32 28 85 29 l0 0 Z" /><glyph glyph-name="" unicode="&#x15e;" d="M299 -224 q52 0 86 24 q35 24 36 66 q-1 43 -38 62 q-37 18 -94 19 l24 43 q4 0 7 0 q112 1 188 58 q75 57 78 163 q-1 87 -48 134 q-47 46 -130 71 l-95 29 q-57 17 -84 44 q-27 27 -27 73 q1 46 34 74 q32 28 85 29 q71 -1 120 -45 q49 -45 98 -124 l13 0 l-3 214 l-13 0 l-43 -50 q-30 18 -73 34 q-43 15 -99 16 q-118 -1 -187 -57 q-69 -55 -70 -150 q0 -81 47 -128 q46 -47 138 -75 l93 -29 q53 -15 80 -42 q28 -28 28 -75 q0 -54 -34 -83 q-34 -30 -97 -30 q-78 1 -137 51 q-58 51 -111 138 l-19 0 l14 -240 l15 0 l44 62 q23 -17 63 -33 q39 -17 87 -25 l-42 -72 q42 -1 65 -15 q24 -13 24 -41 q0 -21 -14 -33 q-15 -12 -41 -12 q-22 0 -43 10 q-21 10 -36 28 l-15 -19 q12 -26 45 -44 q32 -19 81 -20 l0 0 Z" /><glyph glyph-name="" unicode="&#x218;" d="M321 665 q71 -1 120 -45 q49 -45 98 -124 l13 0 l-3 214 l-13 0 l-43 -50 q-30 18 -73 34 q-43 15 -99 16 q-118 -1 -187 -57 q-69 -55 -70 -150 q0 -81 47 -128 q46 -47 138 -75 l93 -29 q53 -15 80 -42 q28 -28 28 -75 q0 -54 -34 -83 q-34 -30 -97 -30 q-78 1 -137 51 q-58 51 -111 138 l-19 0 l14 -240 l15 0 l44 62 q29 -21 82 -41 q52 -20 113 -21 q112 1 188 58 q75 57 78 163 q-1 87 -48 134 q-47 46 -130 71 l-95 29 q-57 17 -84 44 q-27 27 -27 73 q1 46 34 74 q32 28 85 29 l0 0 ZM340 -170 q-1 -38 -29 -58 q-29 -20 -78 -22 l0 -28 q90 1 132 37 q42 36 41 89 q-1 44 -27 69 q-26 25 -67 25 q-33 0 -54 -18 q-20 -18 -21 -47 q1 -26 18 -42 q18 -16 45 -16 q12 0 23 3 q10 2 17 8 l0 0 Z" /><glyph glyph-name="" unicode="&#x162;" d="M389 -224 q52 0 86 24 q35 24 36 66 q-1 43 -38 62 q-37 18 -94 19 l30 53 l130 0 l0 9 q-36 21 -53 42 q-16 22 -16 69 l0 536 l74 0 q73 -2 115 -51 q42 -49 86 -119 l12 0 l-31 220 q-11 -2 -24 -4 q-14 -2 -36 -2 l-548 0 q-22 0 -36 2 q-13 2 -24 4 l-31 -220 l12 0 q43 70 85 119 q42 49 115 51 l74 0 l0 -536 q0 -47 -16 -69 q-16 -21 -52 -42 l0 -9 l123 0 l-45 -78 q42 -1 65 -15 q24 -13 24 -41 q0 -21 -14 -33 q-15 -12 -41 -12 q-22 0 -43 10 q-21 10 -36 28 l-15 -19 q12 -26 45 -44 q32 -19 81 -20 l0 0 Z" /><glyph glyph-name="" unicode="&#x164;" d="M583 960 l-51 0 q-39 -17 -75 -38 q-36 -21 -66 -47 q-30 26 -66 47 q-36 21 -75 38 l-51 0 q48 -40 100 -99 q53 -59 80 -105 l24 0 q27 46 80 105 q52 59 100 99 l0 0 ZM118 700 q-22 0 -36 2 q-13 2 -24 4 l-31 -220 l12 0 q43 70 85 119 q42 49 115 51 l74 0 l0 -536 q0 -47 -16 -69 q-16 -21 -52 -42 l0 -9 l294 0 l0 9 q-36 21 -53 42 q-16 22 -16 69 l0 536 l74 0 q73 -2 115 -51 q42 -49 86 -119 l12 0 l-31 220 q-11 -2 -24 -4 q-14 -2 -36 -2 l-548 0 Z" /><glyph glyph-name="" unicode="&#x21a;" d="M118 700 q-22 0 -36 2 q-13 2 -24 4 l-31 -220 l12 0 q43 70 85 119 q42 49 115 51 l74 0 l0 -536 q0 -47 -16 -69 q-16 -21 -52 -42 l0 -9 l294 0 l0 9 q-36 21 -53 42 q-16 22 -16 69 l0 536 l74 0 q73 -2 115 -51 q42 -49 86 -119 l12 0 l-31 220 q-11 -2 -24 -4 q-14 -2 -36 -2 l-548 0 ZM412 -170 q-1 -38 -29 -58 q-29 -20 -78 -22 l0 -28 q90 1 132 37 q42 36 41 89 q-1 44 -27 69 q-26 25 -67 25 q-33 0 -54 -18 q-20 -18 -21 -47 q1 -26 18 -42 q18 -16 45 -16 q12 0 23 3 q10 2 17 8 l0 0 Z" /><glyph glyph-name="" unicode="&#x168;" d="M260 773 q14 31 32 48 q17 17 43 17 q38 -4 82 -30 q45 -26 91 -30 q40 0 69 42 q30 41 47 117 l-28 0 q-14 -31 -31 -48 q-18 -17 -44 -17 q-38 4 -82 31 q-45 26 -91 30 q-40 0 -69 -42 q-30 -41 -47 -118 l28 0 ZM626 578 l0 -297 q-1 -115 -53 -166 q-51 -51 -135 -50 q-87 0 -135 53 q-48 53 -49 162 l0 302 q0 47 14 67 q14 20 49 42 l0 9 l-282 0 l0 -9 q35 -22 49 -42 q14 -20 13 -67 l0 -312 q2 -138 84 -209 q82 -71 221 -71 q132 0 205 70 q74 70 75 212 l0 306 q0 47 20 69 q19 22 56 44 l0 9 l-212 0 l0 -9 q37 -22 58 -44 q22 -22 22 -69 l0 0 Z" /><glyph glyph-name="" unicode="&#x16a;" d="M577 783 l0 78 l-298 0 l0 -78 l298 0 ZM626 578 l0 -297 q-1 -115 -53 -166 q-51 -51 -135 -50 q-87 0 -135 53 q-48 53 -49 162 l0 302 q0 47 14 67 q14 20 49 42 l0 9 l-282 0 l0 -9 q35 -22 49 -42 q14 -20 13 -67 l0 -312 q2 -138 84 -209 q82 -71 221 -71 q132 0 205 70 q74 70 75 212 l0 306 q0 47 20 69 q19 22 56 44 l0 9 l-212 0 l0 -9 q37 -22 58 -44 q22 -22 22 -69 l0 0 Z" /><glyph glyph-name="" unicode="&#x16c;" d="M305 961 l-27 0 q3 -85 44 -137 q41 -52 106 -54 q65 2 106 54 q41 52 44 137 l-27 0 q-10 -46 -45 -66 q-35 -20 -78 -20 q-43 0 -78 20 q-35 20 -45 66 l0 0 ZM626 578 l0 -297 q-1 -115 -53 -166 q-51 -51 -135 -50 q-87 0 -135 53 q-48 53 -49 162 l0 302 q0 47 14 67 q14 20 49 42 l0 9 l-282 0 l0 -9 q35 -22 49 -42 q14 -20 13 -67 l0 -312 q2 -138 84 -209 q82 -71 221 -71 q132 0 205 70 q74 70 75 212 l0 306 q0 47 20 69 q19 22 56 44 l0 9 l-212 0 l0 -9 q37 -22 58 -44 q22 -22 22 -69 l0 0 Z" /><glyph glyph-name="" unicode="&#x16e;" d="M315 867 q1 -48 34 -79 q32 -32 79 -33 q47 1 79 33 q33 31 34 79 q-1 47 -34 79 q-32 32 -79 33 q-47 -1 -79 -33 q-33 -32 -34 -79 l0 0 ZM485 867 q0 -24 -16 -40 q-16 -15 -41 -16 q-25 1 -41 16 q-16 16 -16 40 q0 25 16 41 q16 16 41 16 q25 0 41 -16 q16 -16 16 -41 l0 0 ZM626 578 l0 -297 q-1 -115 -53 -166 q-51 -51 -135 -50 q-87 0 -135 53 q-48 53 -49 162 l0 302 q0 47 14 67 q14 20 49 42 l0 9 l-282 0 l0 -9 q35 -22 49 -42 q14 -20 13 -67 l0 -312 q2 -138 84 -209 q82 -71 221 -71 q132 0 205 70 q74 70 75 212 l0 306 q0 47 20 69 q19 22 56 44 l0 9 l-212 0 l0 -9 q37 -22 58 -44 q22 -22 22 -69 l0 0 Z" /><glyph glyph-name="" unicode="&#x170;" d="M366 944 l-61 -181 l29 0 l176 181 l-144 0 ZM549 944 l-61 -181 l29 0 l176 181 l-144 0 ZM626 578 l0 -297 q-1 -115 -53 -166 q-51 -51 -135 -50 q-87 0 -135 53 q-48 53 -49 162 l0 302 q0 47 14 67 q14 20 49 42 l0 9 l-282 0 l0 -9 q35 -22 49 -42 q14 -20 13 -67 l0 -312 q2 -138 84 -209 q82 -71 221 -71 q132 0 205 70 q74 70 75 212 l0 306 q0 47 20 69 q19 22 56 44 l0 9 l-212 0 l0 -9 q37 -22 58 -44 q22 -22 22 -69 l0 0 Z" /><glyph glyph-name="" unicode="&#x172;" d="M409 -241 q64 1 102 33 q38 31 60 77 l-16 13 q-21 -27 -43 -41 q-22 -15 -51 -15 q-25 0 -40 15 q-16 14 -17 41 q0 32 25 63 q26 30 73 52 q85 35 132 99 q47 64 48 176 l0 306 q0 47 20 69 q19 22 56 44 l0 9 l-212 0 l0 -9 q37 -22 58 -44 q22 -22 22 -69 l0 -297 q-1 -115 -53 -166 q-51 -51 -135 -50 q-87 0 -135 53 q-48 53 -49 162 l0 302 q0 47 14 67 q14 20 49 42 l0 9 l-282 0 l0 -9 q35 -22 49 -42 q14 -20 13 -67 l0 -312 q2 -138 84 -209 q82 -71 221 -71 q7 0 13 0 q6 0 13 1 q-50 -29 -84 -64 q-35 -36 -36 -81 q2 -42 31 -64 q30 -23 70 -23 l0 0 Z" /><glyph glyph-name="" unicode="&#x174;" d="M560 961 l-24 0 q-27 -46 -80 -105 q-52 -59 -100 -99 l51 0 q39 18 75 39 q36 21 66 47 q30 -26 66 -47 q36 -21 75 -39 l51 0 q-48 40 -100 99 q-53 59 -80 105 l0 0 ZM723 -10 l7 0 l235 589 q17 41 37 65 q21 24 49 47 l0 9 l-196 0 l0 -9 q25 -17 43 -34 q17 -17 18 -36 q0 -7 -2 -15 q-2 -9 -6 -21 l-134 -348 l-133 357 q-9 24 -9 40 q0 17 10 29 q11 13 33 28 l0 9 l-262 0 l0 -9 q27 -24 43 -48 q16 -24 31 -61 l15 -37 l-113 -305 l-140 355 q-5 12 -7 21 q-3 10 -3 18 q0 17 10 29 q10 13 32 28 l0 9 l-265 0 l0 -9 q27 -23 43 -46 q16 -23 32 -63 l242 -592 l7 0 l188 488 l195 -488 Z" /><glyph glyph-name="" unicode="&#x1e80;" d="M353 944 l191 -181 l29 0 l-55 181 l-165 0 ZM723 -10 l7 0 l235 589 q17 41 37 65 q21 24 49 47 l0 9 l-196 0 l0 -9 q25 -17 43 -34 q17 -17 18 -36 q0 -7 -2 -15 q-2 -9 -6 -21 l-134 -348 l-133 357 q-9 24 -9 40 q0 17 10 29 q11 13 33 28 l0 9 l-262 0 l0 -9 q27 -24 43 -48 q16 -24 31 -61 l15 -37 l-113 -305 l-140 355 q-5 12 -7 21 q-3 10 -3 18 q0 17 10 29 q10 13 32 28 l0 9 l-265 0 l0 -9 q27 -23 43 -46 q16 -23 32 -63 l242 -592 l7 0 l188 488 l195 -488 Z" /><glyph glyph-name="" unicode="&#x1e82;" d="M579 944 l-55 -181 l29 0 l191 181 l-165 0 ZM723 -10 l7 0 l235 589 q17 41 37 65 q21 24 49 47 l0 9 l-196 0 l0 -9 q25 -17 43 -34 q17 -17 18 -36 q0 -7 -2 -15 q-2 -9 -6 -21 l-134 -348 l-133 357 q-9 24 -9 40 q0 17 10 29 q11 13 33 28 l0 9 l-262 0 l0 -9 q27 -24 43 -48 q16 -24 31 -61 l15 -37 l-113 -305 l-140 355 q-5 12 -7 21 q-3 10 -3 18 q0 17 10 29 q10 13 32 28 l0 9 l-265 0 l0 -9 q27 -23 43 -46 q16 -23 32 -63 l242 -592 l7 0 l188 488 l195 -488 Z" /><glyph glyph-name="" unicode="&#x1e84;" d="M443 764 q34 1 56 23 q21 22 22 54 q-1 33 -22 56 q-22 23 -56 24 q-33 -1 -55 -24 q-21 -23 -22 -56 q1 -32 22 -54 q22 -22 55 -23 l0 0 ZM652 764 q34 1 56 23 q21 22 22 54 q-1 33 -22 56 q-22 23 -56 24 q-33 -1 -55 -24 q-22 -23 -23 -56 q1 -32 23 -54 q22 -22 55 -23 l0 0 ZM723 -10 l7 0 l235 589 q17 41 37 65 q21 24 49 47 l0 9 l-196 0 l0 -9 q25 -17 43 -34 q17 -17 18 -36 q0 -7 -2 -15 q-2 -9 -6 -21 l-134 -348 l-133 357 q-9 24 -9 40 q0 17 10 29 q11 13 33 28 l0 9 l-262 0 l0 -9 q27 -24 43 -48 q16 -24 31 -61 l15 -37 l-113 -305 l-140 355 q-5 12 -7 21 q-3 10 -3 18 q0 17 10 29 q10 13 32 28 l0 9 l-265 0 l0 -9 q27 -23 43 -46 q16 -23 32 -63 l242 -592 l7 0 l188 488 l195 -488 Z" /><glyph glyph-name="" unicode="&#x176;" d="M418 961 l-24 0 q-27 -46 -80 -105 q-52 -59 -100 -99 l51 0 q39 18 75 39 q36 21 66 47 q30 -26 66 -47 q36 -21 75 -39 l51 0 q-48 40 -100 99 q-53 59 -80 105 l0 0 ZM435 360 l-152 234 q-7 11 -11 22 q-4 11 -4 20 q0 15 9 27 q8 12 29 28 l0 9 l-292 0 l0 -9 q29 -24 50 -48 q21 -24 45 -61 l187 -286 l0 -178 q1 -47 -14 -67 q-15 -20 -51 -42 l0 -9 l286 0 l0 9 q-36 22 -50 42 q-15 20 -14 67 l0 178 l186 286 q25 39 46 62 q20 24 50 47 l0 9 l-192 0 l0 -9 q23 -17 38 -32 q15 -14 15 -30 q0 -8 -4 -18 q-3 -11 -11 -22 l-146 -229 Z" /><glyph glyph-name="" unicode="&#x1ef2;" d="M212 944 l191 -181 l29 0 l-55 181 l-165 0 ZM435 360 l-152 234 q-7 11 -11 22 q-4 11 -4 20 q0 15 9 27 q8 12 29 28 l0 9 l-292 0 l0 -9 q29 -24 50 -48 q21 -24 45 -61 l187 -286 l0 -178 q1 -47 -14 -67 q-15 -20 -51 -42 l0 -9 l286 0 l0 9 q-36 22 -50 42 q-15 20 -14 67 l0 178 l186 286 q25 39 46 62 q20 24 50 47 l0 9 l-192 0 l0 -9 q23 -17 38 -32 q15 -14 15 -30 q0 -8 -4 -18 q-3 -11 -11 -22 l-146 -229 Z" /><glyph glyph-name="" unicode="&#x179;" d="M403 944 l-55 -181 l29 0 l191 181 l-165 0 ZM653 0 l32 220 l-11 0 q-60 -90 -107 -132 q-48 -43 -123 -43 l-190 0 l419 651 l0 4 l-517 0 q-22 0 -36 2 q-13 2 -24 4 l-31 -212 l11 0 q54 78 97 119 q43 42 120 42 l170 0 l-425 -651 l0 -4 l615 0 Z" /><glyph glyph-name="" unicode="&#x17b;" d="M372 766 q38 1 63 25 q25 24 26 61 q-1 38 -26 63 q-25 24 -63 25 q-38 -1 -63 -25 q-24 -25 -25 -63 q1 -37 25 -61 q25 -24 63 -25 l0 0 ZM653 0 l32 220 l-11 0 q-60 -90 -107 -132 q-48 -43 -123 -43 l-190 0 l419 651 l0 4 l-517 0 q-22 0 -36 2 q-13 2 -24 4 l-31 -212 l11 0 q54 78 97 119 q43 42 120 42 l170 0 l-425 -651 l0 -4 l615 0 Z" /><glyph glyph-name="" unicode="&#x1fc;" d="M701 944 l-55 -181 l29 0 l191 181 l-165 0 ZM298 311 l219 334 l0 -334 l-219 0 ZM207 9 q-32 25 -43 38 q-12 12 -11 27 q0 8 5 19 q4 11 12 22 l99 151 l248 0 l0 -148 q1 -47 -13 -67 q-14 -20 -49 -42 l0 -9 l581 0 l32 198 l-11 0 q-47 -76 -90 -115 q-44 -38 -120 -38 l-173 0 l0 294 l110 0 q58 2 84 -14 q26 -17 52 -82 l11 0 l0 236 l-11 0 q-26 -66 -52 -82 q-26 -17 -84 -14 l-110 0 l0 272 l145 0 q82 -1 122 -38 q41 -37 86 -97 l11 0 l-34 186 q-11 -2 -24 -4 q-14 -2 -36 -2 l-569 0 l0 -9 q26 -17 42 -31 q17 -15 17 -33 q0 -16 -13 -39 l-309 -470 q-26 -40 -46 -63 q-20 -23 -50 -46 l0 -9 l191 0 l0 9 Z" /><glyph glyph-name="" unicode="&#x1fe;" d="M439 944 l-55 -181 l29 0 l191 181 l-165 0 ZM408 661 q58 0 97 -31 q39 -31 60 -93 l-324 -343 q-20 66 -20 156 q0 149 46 230 q45 80 141 81 l0 0 ZM408 39 q-53 0 -91 27 q-37 26 -59 77 l321 340 q8 -29 13 -62 q4 -33 4 -71 q0 -149 -46 -230 q-46 -80 -142 -81 l0 0 ZM773 350 q0 72 -24 133 q-24 61 -66 108 l86 89 l-34 34 l-86 -90 q-48 41 -110 64 q-61 22 -131 22 q-156 -3 -258 -101 q-102 -99 -106 -259 q0 -77 27 -142 q27 -65 75 -113 l-100 -104 l34 -33 l102 106 q47 -35 104 -55 q58 -19 122 -19 q156 3 259 101 q102 99 106 259 l0 0 Z" /><glyph glyph-name="" unicode="&#x110;" d="M380 0 q171 0 277 87 q105 87 108 266 q-2 170 -108 258 q-106 89 -295 89 l-308 0 l0 -9 q35 -22 49 -42 q14 -20 14 -67 l0 -198 l-73 0 l0 -46 l73 0 l0 -220 q0 -47 -14 -67 q-14 -20 -49 -42 l0 -9 l326 0 ZM274 47 l0 291 l148 0 l0 46 l-148 0 l0 269 l77 0 q118 -1 182 -78 q63 -77 64 -222 q-1 -162 -63 -235 q-62 -72 -172 -71 l-88 0 Z" /><glyph glyph-name="" unicode="&#x126;" d="M611 459 l0 -125 l-337 0 l0 125 l337 0 ZM54 0 l282 0 l0 9 q-35 22 -49 42 q-14 20 -13 67 l0 169 l337 0 l0 -169 q1 -47 -13 -67 q-14 -20 -49 -42 l0 -9 l282 0 l0 9 q-35 22 -49 42 q-14 20 -14 67 l0 341 l73 0 l0 47 l-73 0 l0 76 q0 47 14 67 q14 20 49 42 l0 9 l-282 0 l0 -9 q35 -22 49 -42 q14 -20 13 -67 l0 -76 l-337 0 l0 76 q-1 47 13 67 q14 20 49 42 l0 9 l-282 0 l0 -9 q35 -22 49 -42 q14 -20 13 -67 l0 -76 l-72 0 l0 -47 l72 0 l0 -341 q1 -47 -13 -67 q-14 -20 -49 -42 l0 -9 Z" /><glyph glyph-name="" unicode="&#x13f;" d="M263 582 q-1 47 13 67 q14 20 49 42 l0 9 l-282 0 l0 -9 q35 -22 49 -42 q14 -20 14 -67 l0 -464 q0 -47 -14 -67 q-14 -20 -49 -42 l0 -9 l567 0 l36 233 l-10 0 q-63 -98 -107 -143 q-44 -46 -116 -45 l-150 0 l0 537 ZM560 333 q38 1 63 25 q25 24 26 62 q-1 38 -26 62 q-25 24 -63 25 q-38 -1 -63 -25 q-24 -24 -25 -62 q1 -38 25 -62 q25 -24 63 -25 l0 0 Z" /><glyph glyph-name="" unicode="&#x14a;" d="M630 -41 q0 -70 -22 -104 q-22 -34 -63 -34 q-34 1 -47 22 q-13 21 -12 47 q0 19 5 35 q6 16 14 25 q-6 3 -17 6 q-11 2 -25 2 q-37 0 -63 -18 q-27 -18 -28 -57 q2 -50 46 -79 q44 -28 110 -29 q82 1 120 51 q38 49 38 134 l0 622 q0 47 14 67 q15 20 50 42 l0 9 l-188 0 l0 -9 q35 -22 52 -42 q16 -20 16 -67 l0 -315 l-359 433 l-228 0 l0 -9 q35 -22 49 -42 q14 -20 14 -67 l0 -464 q0 -47 -15 -67 q-15 -20 -50 -42 l0 -9 l189 0 l0 9 q-35 22 -52 42 q-16 20 -16 67 l0 459 l468 -566 l0 -52 Z" /><glyph glyph-name="" unicode="&#x166;" d="M245 0 l294 0 l0 9 q-36 21 -53 42 q-16 22 -16 69 l0 219 l133 0 l0 47 l-133 0 l0 270 l74 0 q73 -2 115 -51 q42 -49 86 -119 l12 0 l-31 220 q-11 -2 -24 -4 q-14 -2 -36 -2 l-548 0 q-22 0 -36 2 q-13 2 -24 4 l-31 -220 l12 0 q43 70 85 119 q42 49 115 51 l74 0 l0 -270 l-132 0 l0 -47 l132 0 l0 -219 q0 -47 -16 -69 q-16 -21 -52 -42 l0 -9 Z" /><glyph glyph-name="" unicode="&#x101;" d="M428 583 l0 78 l-298 0 l0 -78 l298 0 ZM348 256 l0 -59 q-1 -64 -27 -98 q-26 -34 -69 -34 q-33 0 -50 20 q-17 19 -17 55 q0 45 26 69 q27 23 82 35 l55 12 ZM581 25 q-48 9 -67 30 q-20 21 -19 70 q0 54 2 108 q1 53 1 99 q0 87 -56 129 q-56 42 -168 42 q-101 -1 -156 -34 q-56 -34 -57 -88 q0 -33 22 -51 q21 -19 57 -19 q21 0 43 7 q22 7 32 20 q-12 6 -20 19 q-9 12 -9 36 q0 33 20 51 q19 17 56 17 q50 0 69 -29 q18 -28 17 -78 l0 -61 l-78 -14 q-90 -14 -160 -48 q-69 -35 -73 -115 q2 -64 44 -95 q42 -31 103 -31 q64 0 107 28 q44 28 60 77 q7 -57 36 -80 q29 -24 84 -23 q35 1 64 8 q29 7 46 14 l0 11 Z" /><glyph glyph-name="" unicode="&#x103;" d="M156 761 l-27 0 q3 -86 44 -139 q41 -53 106 -54 q65 1 106 54 q41 53 44 139 l-27 0 q-10 -47 -45 -68 q-35 -21 -78 -21 q-43 0 -78 21 q-35 21 -45 68 l0 0 ZM348 256 l0 -59 q-1 -64 -27 -98 q-26 -34 -69 -34 q-33 0 -50 20 q-17 19 -17 55 q0 45 26 69 q27 23 82 35 l55 12 ZM581 25 q-48 9 -67 30 q-20 21 -19 70 q0 54 2 108 q1 53 1 99 q0 87 -56 129 q-56 42 -168 42 q-101 -1 -156 -34 q-56 -34 -57 -88 q0 -33 22 -51 q21 -19 57 -19 q21 0 43 7 q22 7 32 20 q-12 6 -20 19 q-9 12 -9 36 q0 33 20 51 q19 17 56 17 q50 0 69 -29 q18 -28 17 -78 l0 -61 l-78 -14 q-90 -14 -160 -48 q-69 -35 -73 -115 q2 -64 44 -95 q42 -31 103 -31 q64 0 107 28 q44 28 60 77 q7 -57 36 -80 q29 -24 84 -23 q35 1 64 8 q29 7 46 14 l0 11 Z" /><glyph glyph-name="" unicode="&#x105;" d="M448 -241 q64 1 102 33 q38 31 59 77 l-15 13 q-21 -27 -44 -41 q-22 -15 -51 -15 q-24 0 -40 15 q-15 14 -16 41 q2 40 43 76 q41 36 95 56 l0 11 q-48 9 -67 30 q-20 21 -19 70 q0 54 2 108 q1 53 1 99 q0 87 -56 129 q-56 42 -168 42 q-101 -1 -156 -34 q-56 -34 -57 -88 q0 -33 22 -51 q21 -19 57 -19 q21 0 43 7 q22 7 32 20 q-12 6 -20 19 q-9 12 -9 36 q0 33 20 51 q19 17 56 17 q50 0 69 -29 q18 -28 17 -78 l0 -61 l-78 -14 q-90 -14 -160 -48 q-69 -35 -73 -115 q2 -64 44 -95 q42 -31 103 -31 q64 0 107 28 q44 28 60 77 q7 -56 35 -80 q28 -23 82 -23 q-51 -29 -86 -64 q-35 -36 -36 -82 q2 -42 32 -64 q30 -23 70 -23 l0 0 ZM348 256 l0 -59 q-1 -64 -27 -98 q-26 -34 -69 -34 q-33 0 -50 20 q-17 19 -17 55 q0 45 26 69 q27 23 82 35 l55 12 Z" /><glyph glyph-name="" unicode="&#x107;" d="M338 749 l-58 -188 l29 0 l191 188 l-162 0 ZM307 463 q35 0 54 -21 q18 -20 18 -54 q0 -25 -8 -41 q-7 -15 -18 -26 q5 -10 21 -16 q16 -6 35 -6 q30 0 56 18 q25 18 27 61 q-2 60 -56 93 q-55 32 -132 32 q-119 -2 -193 -72 q-75 -71 -77 -188 q3 -123 73 -188 q70 -65 176 -65 q84 0 140 42 q55 42 77 120 l-22 7 q-25 -52 -60 -74 q-35 -21 -79 -20 q-70 1 -109 53 q-38 53 -39 146 q0 82 30 139 q29 58 86 60 l0 0 Z" /><glyph glyph-name="" unicode="&#x109;" d="M314 775 l-18 0 q-25 -45 -71 -106 q-46 -62 -97 -117 l38 0 q39 20 73 44 q35 24 66 50 q31 -26 66 -50 q34 -24 73 -44 l38 0 q-51 55 -97 117 q-46 61 -71 106 l0 0 ZM307 463 q35 0 54 -21 q18 -20 18 -54 q0 -25 -8 -41 q-7 -15 -18 -26 q5 -10 21 -16 q16 -6 35 -6 q30 0 56 18 q25 18 27 61 q-2 60 -56 93 q-55 32 -132 32 q-119 -2 -193 -72 q-75 -71 -77 -188 q3 -123 73 -188 q70 -65 176 -65 q84 0 140 42 q55 42 77 120 l-22 7 q-25 -52 -60 -74 q-35 -21 -79 -20 q-70 1 -109 53 q-38 53 -39 146 q0 82 30 139 q29 58 86 60 l0 0 Z" /><glyph glyph-name="" unicode="&#x10b;" d="M305 568 q38 1 63 25 q25 24 26 62 q-1 38 -26 62 q-25 24 -63 25 q-38 -1 -63 -25 q-24 -24 -25 -62 q1 -38 25 -62 q25 -24 63 -25 l0 0 ZM307 463 q35 0 54 -21 q18 -20 18 -54 q0 -25 -8 -41 q-7 -15 -18 -26 q5 -10 21 -16 q16 -6 35 -6 q30 0 56 18 q25 18 27 61 q-2 60 -56 93 q-55 32 -132 32 q-119 -2 -193 -72 q-75 -71 -77 -188 q3 -123 73 -188 q70 -65 176 -65 q84 0 140 42 q55 42 77 120 l-22 7 q-25 -52 -60 -74 q-35 -21 -79 -20 q-70 1 -109 53 q-38 53 -39 146 q0 82 30 139 q29 58 86 60 l0 0 Z" /><glyph glyph-name="" unicode="&#x10d;" d="M482 778 l-38 0 q-39 -20 -73 -44 q-35 -24 -66 -50 q-31 26 -66 50 q-34 24 -73 44 l-38 0 q51 -55 97 -117 q46 -61 71 -106 l18 0 q25 45 71 106 q46 62 97 117 l0 0 ZM307 463 q35 0 54 -21 q18 -20 18 -54 q0 -25 -8 -41 q-7 -15 -18 -26 q5 -10 21 -16 q16 -6 35 -6 q30 0 56 18 q25 18 27 61 q-2 60 -56 93 q-55 32 -132 32 q-119 -2 -193 -72 q-75 -71 -77 -188 q3 -123 73 -188 q70 -65 176 -65 q84 0 140 42 q55 42 77 120 l-22 7 q-25 -52 -60 -74 q-35 -21 -79 -20 q-70 1 -109 53 q-38 53 -39 146 q0 82 30 139 q29 58 86 60 l0 0 Z" /><glyph glyph-name="" unicode="&#x10f;" d="M825 749 l-143 0 l-14 -205 l27 0 l130 205 ZM431 226 q-1 -70 -33 -116 q-32 -45 -87 -47 q-57 1 -87 48 q-30 47 -30 134 q0 100 31 150 q30 51 87 51 q48 -1 83 -42 q34 -42 36 -109 l0 -69 ZM432 0 l202 0 l0 9 q-32 19 -43 38 q-11 19 -10 66 l0 636 l-215 0 l0 -9 q32 -18 49 -38 q16 -20 16 -65 l0 -228 q-19 40 -59 67 q-41 26 -106 27 q-98 -1 -164 -69 q-65 -69 -68 -190 q3 -130 64 -192 q62 -62 152 -62 q70 1 117 37 q46 35 64 90 l1 -117 Z" /><glyph glyph-name="" unicode="&#x113;" d="M443 583 l0 78 l-298 0 l0 -78 l298 0 ZM292 503 q-110 -1 -183 -70 q-72 -69 -75 -188 q3 -126 75 -190 q73 -65 182 -65 q87 0 145 42 q57 42 79 120 l-21 7 q-26 -52 -63 -74 q-38 -22 -88 -21 q-72 1 -112 53 q-39 52 -40 138 l334 0 q0 117 -59 182 q-60 65 -174 66 l0 0 ZM193 300 q4 70 27 114 q23 45 71 46 q50 -2 67 -50 q17 -47 17 -110 l-182 0 Z" /><glyph glyph-name="" unicode="&#x115;" d="M171 761 l-27 0 q3 -86 44 -139 q41 -53 106 -54 q65 1 106 54 q41 53 44 139 l-27 0 q-10 -47 -45 -68 q-35 -21 -78 -21 q-43 0 -78 21 q-35 21 -45 68 l0 0 ZM292 503 q-110 -1 -183 -70 q-72 -69 -75 -188 q3 -126 75 -190 q73 -65 182 -65 q87 0 145 42 q57 42 79 120 l-21 7 q-26 -52 -63 -74 q-38 -22 -88 -21 q-72 1 -112 53 q-39 52 -40 138 l334 0 q0 117 -59 182 q-60 65 -174 66 l0 0 ZM193 300 q4 70 27 114 q23 45 71 46 q50 -2 67 -50 q17 -47 17 -110 l-182 0 Z" /><glyph glyph-name="" unicode="&#x117;" d="M294 568 q38 1 63 25 q25 24 26 62 q-1 38 -26 62 q-25 24 -63 25 q-38 -1 -63 -25 q-24 -24 -25 -62 q1 -38 25 -62 q25 -24 63 -25 l0 0 ZM292 503 q-110 -1 -183 -70 q-72 -69 -75 -188 q3 -126 75 -190 q73 -65 182 -65 q87 0 145 42 q57 42 79 120 l-21 7 q-26 -52 -63 -74 q-38 -22 -88 -21 q-72 1 -112 53 q-39 52 -40 138 l334 0 q0 117 -59 182 q-60 65 -174 66 l0 0 ZM193 300 q4 70 27 114 q23 45 71 46 q50 -2 67 -50 q17 -47 17 -110 l-182 0 Z" /><glyph glyph-name="" unicode="&#x119;" d="M299 -241 q64 1 102 33 q38 31 59 77 l-15 13 q-21 -27 -43 -41 q-23 -15 -52 -15 q-24 0 -40 15 q-15 14 -16 41 q1 32 28 64 q26 31 67 57 q43 28 77 62 q34 35 49 87 l-21 7 q-26 -52 -63 -74 q-38 -22 -88 -21 q-72 1 -112 53 q-39 52 -40 138 l334 0 q0 117 -59 182 q-60 65 -174 66 q-110 -1 -183 -70 q-72 -69 -75 -188 q3 -126 75 -190 q73 -65 182 -65 q13 0 25 1 q-49 -29 -83 -64 q-35 -36 -36 -81 q2 -42 32 -64 q30 -23 70 -23 l0 0 ZM193 300 q4 70 27 114 q23 45 71 46 q50 -2 67 -50 q17 -47 17 -110 l-182 0 Z" /><glyph glyph-name="" unicode="&#x11b;" d="M471 778 l-38 0 q-39 -20 -73 -44 q-35 -24 -66 -50 q-31 26 -66 50 q-34 24 -73 44 l-38 0 q51 -55 97 -117 q46 -61 71 -106 l18 0 q25 45 71 106 q46 62 97 117 l0 0 ZM292 503 q-110 -1 -183 -70 q-72 -69 -75 -188 q3 -126 75 -190 q73 -65 182 -65 q87 0 145 42 q57 42 79 120 l-21 7 q-26 -52 -63 -74 q-38 -22 -88 -21 q-72 1 -112 53 q-39 52 -40 138 l334 0 q0 117 -59 182 q-60 65 -174 66 l0 0 ZM193 300 q4 70 27 114 q23 45 71 46 q50 -2 67 -50 q17 -47 17 -110 l-182 0 Z" /><glyph glyph-name="" unicode="&#x11d;" d="M307 775 l-18 0 q-25 -45 -71 -106 q-46 -62 -97 -117 l38 0 q39 20 73 44 q35 24 66 50 q31 -26 66 -50 q34 -24 73 -44 l38 0 q-51 55 -97 117 q-46 61 -71 106 l0 0 ZM345 341 q0 -66 -17 -95 q-17 -30 -52 -29 q-35 -1 -52 29 q-16 29 -16 95 q0 66 16 96 q17 29 52 29 q35 0 52 -29 q17 -30 17 -96 l0 0 ZM566 -41 q-1 74 -53 112 q-52 39 -141 39 l-182 0 q-29 0 -43 12 q-13 11 -13 29 q0 14 10 26 q10 11 25 19 q45 -18 107 -18 q105 2 160 47 q56 46 56 116 q0 30 -12 57 q-11 27 -33 49 q10 8 21 12 q10 4 23 4 q27 -1 38 -19 q11 -18 11 -44 q27 0 49 16 q22 17 23 51 q0 32 -21 51 q-20 19 -55 19 q-38 -1 -66 -22 q-28 -22 -47 -50 q-27 18 -64 28 q-37 10 -83 10 q-104 -2 -159 -47 q-55 -46 -56 -115 q0 -42 21 -76 q21 -35 61 -57 q-41 -15 -67 -44 q-25 -29 -26 -72 q1 -46 27 -73 q26 -27 70 -37 q-65 -5 -98 -28 q-33 -24 -33 -61 q4 -64 81 -92 q76 -27 180 -26 q114 -1 199 43 q86 44 90 141 l0 0 ZM351 -28 q50 0 74 -16 q24 -16 24 -50 q-2 -42 -50 -66 q-48 -24 -122 -24 q-62 0 -104 21 q-43 21 -45 67 q0 25 13 41 q13 17 42 27 l168 0 Z" /><glyph glyph-name="" unicode="&#x11f;" d="M175 761 l-27 0 q3 -86 44 -139 q41 -53 106 -54 q65 1 106 54 q41 53 44 139 l-27 0 q-10 -47 -45 -68 q-35 -21 -78 -21 q-43 0 -78 21 q-35 21 -45 68 l0 0 ZM345 341 q0 -66 -17 -95 q-17 -30 -52 -29 q-35 -1 -52 29 q-16 29 -16 95 q0 66 16 96 q17 29 52 29 q35 0 52 -29 q17 -30 17 -96 l0 0 ZM566 -41 q-1 74 -53 112 q-52 39 -141 39 l-182 0 q-29 0 -43 12 q-13 11 -13 29 q0 14 10 26 q10 11 25 19 q45 -18 107 -18 q105 2 160 47 q56 46 56 116 q0 30 -12 57 q-11 27 -33 49 q10 8 21 12 q10 4 23 4 q27 -1 38 -19 q11 -18 11 -44 q27 0 49 16 q22 17 23 51 q0 32 -21 51 q-20 19 -55 19 q-38 -1 -66 -22 q-28 -22 -47 -50 q-27 18 -64 28 q-37 10 -83 10 q-104 -2 -159 -47 q-55 -46 -56 -115 q0 -42 21 -76 q21 -35 61 -57 q-41 -15 -67 -44 q-25 -29 -26 -72 q1 -46 27 -73 q26 -27 70 -37 q-65 -5 -98 -28 q-33 -24 -33 -61 q4 -64 81 -92 q76 -27 180 -26 q114 -1 199 43 q86 44 90 141 l0 0 ZM351 -28 q50 0 74 -16 q24 -16 24 -50 q-2 -42 -50 -66 q-48 -24 -122 -24 q-62 0 -104 21 q-43 21 -45 67 q0 25 13 41 q13 17 42 27 l168 0 Z" /><glyph glyph-name="" unicode="&#x121;" d="M298 568 q38 1 63 25 q25 24 26 62 q-1 38 -26 62 q-25 24 -63 25 q-38 -1 -63 -25 q-24 -24 -25 -62 q1 -38 25 -62 q25 -24 63 -25 l0 0 ZM345 341 q0 -66 -17 -95 q-17 -30 -52 -29 q-35 -1 -52 29 q-16 29 -16 95 q0 66 16 96 q17 29 52 29 q35 0 52 -29 q17 -30 17 -96 l0 0 ZM566 -41 q-1 74 -53 112 q-52 39 -141 39 l-182 0 q-29 0 -43 12 q-13 11 -13 29 q0 14 10 26 q10 11 25 19 q45 -18 107 -18 q105 2 160 47 q56 46 56 116 q0 30 -12 57 q-11 27 -33 49 q10 8 21 12 q10 4 23 4 q27 -1 38 -19 q11 -18 11 -44 q27 0 49 16 q22 17 23 51 q0 32 -21 51 q-20 19 -55 19 q-38 -1 -66 -22 q-28 -22 -47 -50 q-27 18 -64 28 q-37 10 -83 10 q-104 -2 -159 -47 q-55 -46 -56 -115 q0 -42 21 -76 q21 -35 61 -57 q-41 -15 -67 -44 q-25 -29 -26 -72 q1 -46 27 -73 q26 -27 70 -37 q-65 -5 -98 -28 q-33 -24 -33 -61 q4 -64 81 -92 q76 -27 180 -26 q114 -1 199 43 q86 44 90 141 l0 0 ZM351 -28 q50 0 74 -16 q24 -16 24 -50 q-2 -42 -50 -66 q-48 -24 -122 -24 q-62 0 -104 21 q-43 21 -45 67 q0 25 13 41 q13 17 42 27 l168 0 Z" /><glyph glyph-name="" unicode="&#x123;" d="M277 669 q1 38 30 59 q29 20 78 22 l0 28 q-91 -1 -132 -38 q-42 -36 -41 -89 q1 -44 27 -69 q26 -25 67 -25 q32 1 53 18 q21 18 22 47 q-1 26 -19 42 q-18 16 -44 16 q-13 0 -23 -2 q-11 -3 -18 -9 l0 0 ZM345 341 q0 -66 -17 -95 q-17 -30 -52 -29 q-35 -1 -52 29 q-16 29 -16 95 q0 66 16 96 q17 29 52 29 q35 0 52 -29 q17 -30 17 -96 l0 0 ZM566 -41 q-1 74 -53 112 q-52 39 -141 39 l-182 0 q-29 0 -43 12 q-13 11 -13 29 q0 14 10 26 q10 11 25 19 q45 -18 107 -18 q105 2 160 47 q56 46 56 116 q0 30 -12 57 q-11 27 -33 49 q10 8 21 12 q10 4 23 4 q27 -1 38 -19 q11 -18 11 -44 q27 0 49 16 q22 17 23 51 q0 32 -21 51 q-20 19 -55 19 q-38 -1 -66 -22 q-28 -22 -47 -50 q-27 18 -64 28 q-37 10 -83 10 q-104 -2 -159 -47 q-55 -46 -56 -115 q0 -42 21 -76 q21 -35 61 -57 q-41 -15 -67 -44 q-25 -29 -26 -72 q1 -46 27 -73 q26 -27 70 -37 q-65 -5 -98 -28 q-33 -24 -33 -61 q4 -64 81 -92 q76 -27 180 -26 q114 -1 199 43 q86 44 90 141 l0 0 ZM351 -28 q50 0 74 -16 q24 -16 24 -50 q-2 -42 -50 -66 q-48 -24 -122 -24 q-62 0 -104 21 q-43 21 -45 67 q0 25 13 41 q13 17 42 27 l168 0 Z" /><glyph glyph-name="" unicode="&#x125;" d="M332 1006 l-24 0 q-27 -46 -80 -105 q-52 -59 -100 -99 l51 0 q39 18 75 39 q36 21 66 47 q30 -26 66 -47 q36 -21 75 -39 l51 0 q-48 40 -100 99 q-53 59 -80 105 l0 0 ZM566 329 q0 76 -38 124 q-39 48 -123 50 q-60 0 -103 -34 q-44 -35 -68 -101 l0 381 l-214 0 l0 -9 q32 -18 48 -38 q17 -20 17 -65 l0 -524 q1 -47 -11 -66 q-11 -19 -43 -38 l0 -9 l257 0 l0 9 q-32 19 -43 38 q-12 19 -11 66 l0 150 q1 74 30 109 q29 35 73 35 q42 -1 61 -27 q19 -27 19 -69 l0 -198 q1 -47 -11 -66 q-11 -19 -43 -38 l0 -9 l257 0 l0 9 q-32 19 -43 38 q-12 19 -11 66 l0 216 Z" /><glyph glyph-name="" unicode="&#x129;" d="M14 571 q14 31 31 47 q16 16 40 16 q36 -4 64 -29 q29 -26 73 -30 q40 0 68 42 q28 41 46 117 l-29 0 q-14 -31 -31 -47 q-17 -16 -41 -16 q-36 4 -64 30 q-29 25 -72 29 q-40 0 -68 -41 q-28 -41 -46 -118 l29 0 ZM239 493 l-211 0 l0 -9 q31 -18 46 -38 q16 -20 16 -65 l0 -268 q1 -47 -11 -66 q-11 -19 -43 -38 l0 -9 l257 0 l0 9 q-32 19 -43 38 q-12 19 -11 66 l0 380 Z" /><glyph glyph-name="" unicode="&#x12b;" d="M305 583 l0 78 l-290 0 l0 -78 l290 0 ZM239 493 l-211 0 l0 -9 q31 -18 46 -38 q16 -20 16 -65 l0 -268 q1 -47 -11 -66 q-11 -19 -43 -38 l0 -9 l257 0 l0 9 q-32 19 -43 38 q-12 19 -11 66 l0 380 Z" /><glyph glyph-name="" unicode="&#x12d;" d="M37 761 l-27 0 q3 -86 44 -139 q41 -53 106 -54 q65 1 106 54 q41 53 44 139 l-27 0 q-10 -47 -45 -68 q-35 -21 -78 -21 q-43 0 -78 21 q-35 21 -45 68 l0 0 ZM239 493 l-211 0 l0 -9 q31 -18 46 -38 q16 -20 16 -65 l0 -268 q1 -47 -11 -66 q-11 -19 -43 -38 l0 -9 l257 0 l0 9 q-32 19 -43 38 q-12 19 -11 66 l0 380 Z" /><glyph glyph-name="" unicode="&#x12f;" d="M73 655 q1 -38 25 -62 q25 -24 63 -25 q39 1 64 25 q24 24 25 62 q-1 38 -25 62 q-25 24 -64 25 q-38 -1 -63 -25 q-24 -24 -25 -62 l0 0 ZM292 -131 l-16 13 q-21 -27 -43 -41 q-22 -15 -51 -15 q-25 0 -40 15 q-16 14 -17 41 q0 30 24 58 q24 28 69 60 l75 0 l0 9 q-32 19 -43 38 q-12 19 -11 66 l0 380 l-211 0 l0 -9 q31 -18 46 -38 q16 -20 16 -65 l0 -268 q1 -47 -11 -66 q-11 -19 -43 -38 l0 -9 l128 0 q-56 -30 -94 -68 q-39 -37 -41 -86 q2 -42 32 -64 q30 -23 70 -23 q64 1 102 33 q37 31 59 77 l0 0 Z" /><glyph glyph-name="" unicode="&#x135;" d="M167 775 l-18 0 q-25 -45 -71 -106 q-46 -62 -97 -117 l38 0 q39 20 73 44 q35 24 66 50 q31 -26 66 -50 q34 -24 73 -44 l38 0 q-51 55 -97 117 q-46 61 -71 106 l0 0 ZM84 -85 q1 -47 -12 -74 q-12 -26 -44 -27 q-28 1 -40 21 q-12 19 -12 45 q0 18 5 34 q6 15 14 24 q-6 3 -17 6 q-11 2 -25 2 q-37 0 -63 -17 q-27 -18 -28 -57 q1 -49 47 -73 q45 -24 117 -24 q98 1 153 51 q54 50 55 143 l0 524 l-212 0 l0 -9 q31 -18 47 -38 q15 -20 15 -65 l0 -466 Z" /><glyph glyph-name="" unicode="&#x137;" d="M288 9 q-32 19 -43 38 q-12 19 -11 66 l0 130 l19 0 q13 0 22 -5 q9 -5 16 -16 l98 -152 q14 -22 19 -39 q4 -17 3 -31 l228 0 l0 9 q-35 18 -62 46 q-28 27 -48 58 l-138 208 l70 63 q47 42 83 65 q35 22 76 35 l0 9 l-203 0 l0 -9 q13 -12 20 -21 q7 -9 7 -18 q0 -10 -5 -18 q-5 -8 -16 -17 l-116 -104 q-15 -13 -28 -17 q-14 -5 -30 -5 l-15 0 l0 465 l-214 0 l0 -9 q32 -18 48 -38 q17 -20 17 -65 l0 -524 q1 -47 -11 -66 q-11 -19 -43 -38 l0 -9 l257 0 l0 9 ZM350 -170 q-1 -38 -29 -58 q-29 -20 -78 -22 l0 -28 q90 1 132 37 q42 36 41 89 q-1 44 -27 69 q-26 25 -67 25 q-33 0 -54 -18 q-20 -18 -21 -47 q1 -26 18 -42 q18 -16 45 -16 q12 0 23 3 q10 2 17 8 l0 0 Z" /><glyph glyph-name="" unicode="&#x13a;" d="M184 989 l-55 -181 l29 0 l191 181 l-165 0 ZM234 749 l-214 0 l0 -9 q32 -18 48 -38 q17 -20 17 -65 l0 -524 q1 -47 -11 -66 q-11 -19 -43 -38 l0 -9 l257 0 l0 9 q-32 19 -43 38 q-12 19 -11 66 l0 636 Z" /><glyph glyph-name="" unicode="&#x13c;" d="M234 749 l-214 0 l0 -9 q32 -18 48 -38 q17 -20 17 -65 l0 -524 q1 -47 -11 -66 q-11 -19 -43 -38 l0 -9 l257 0 l0 9 q-32 19 -43 38 q-12 19 -11 66 l0 636 ZM174 -170 q-1 -38 -29 -58 q-29 -20 -78 -22 l0 -28 q90 1 132 37 q42 36 41 89 q-1 44 -27 69 q-26 25 -67 25 q-33 0 -54 -18 q-20 -18 -21 -47 q1 -26 18 -42 q18 -16 45 -16 q12 0 23 3 q10 2 17 8 l0 0 Z" /><glyph glyph-name="" unicode="&#x13e;" d="M234 749 l-214 0 l0 -9 q32 -18 48 -38 q17 -20 17 -65 l0 -524 q1 -47 -11 -66 q-11 -19 -43 -38 l0 -9 l257 0 l0 9 q-32 19 -43 38 q-12 19 -11 66 l0 636 ZM477 749 l-143 0 l-14 -205 l27 0 l130 205 Z" /><glyph glyph-name="" unicode="&#x144;" d="M360 749 l-58 -188 l29 0 l191 188 l-162 0 ZM571 329 q0 76 -38 124 q-39 48 -123 50 q-60 0 -103 -34 q-44 -35 -68 -101 l-4 125 l-207 0 l0 -9 q31 -18 46 -38 q16 -20 16 -65 l0 -268 q1 -47 -11 -66 q-11 -19 -43 -38 l0 -9 l257 0 l0 9 q-32 19 -43 38 q-12 19 -11 66 l0 150 q1 74 30 109 q29 35 73 35 q42 -1 61 -27 q19 -27 19 -69 l0 -198 q1 -47 -11 -66 q-11 -19 -43 -38 l0 -9 l257 0 l0 9 q-32 19 -43 38 q-12 19 -11 66 l0 216 Z" /><glyph glyph-name="" unicode="&#x146;" d="M571 329 q0 76 -38 124 q-39 48 -123 50 q-60 0 -103 -34 q-44 -35 -68 -101 l-4 125 l-207 0 l0 -9 q31 -18 46 -38 q16 -20 16 -65 l0 -268 q1 -47 -11 -66 q-11 -19 -43 -38 l0 -9 l257 0 l0 9 q-32 19 -43 38 q-12 19 -11 66 l0 150 q1 74 30 109 q29 35 73 35 q42 -1 61 -27 q19 -27 19 -69 l0 -198 q1 -47 -11 -66 q-11 -19 -43 -38 l0 -9 l257 0 l0 9 q-32 19 -43 38 q-12 19 -11 66 l0 216 ZM348 -170 q-1 -38 -29 -58 q-29 -20 -78 -22 l0 -28 q90 1 132 37 q42 36 41 89 q-1 44 -27 69 q-26 25 -67 25 q-33 0 -54 -18 q-20 -18 -21 -47 q1 -26 18 -42 q18 -16 45 -16 q12 0 23 3 q10 2 17 8 l0 0 Z" /><glyph glyph-name="" unicode="&#x148;" d="M504 778 l-38 0 q-39 -20 -73 -44 q-35 -24 -66 -50 q-31 26 -66 50 q-34 24 -73 44 l-38 0 q51 -55 97 -117 q46 -61 71 -106 l18 0 q25 45 71 106 q46 62 97 117 l0 0 ZM571 329 q0 76 -38 124 q-39 48 -123 50 q-60 0 -103 -34 q-44 -35 -68 -101 l-4 125 l-207 0 l0 -9 q31 -18 46 -38 q16 -20 16 -65 l0 -268 q1 -47 -11 -66 q-11 -19 -43 -38 l0 -9 l257 0 l0 9 q-32 19 -43 38 q-12 19 -11 66 l0 150 q1 74 30 109 q29 35 73 35 q42 -1 61 -27 q19 -27 19 -69 l0 -198 q1 -47 -11 -66 q-11 -19 -43 -38 l0 -9 l257 0 l0 9 q-32 19 -43 38 q-12 19 -11 66 l0 216 Z" /><glyph glyph-name="" unicode="&#x14d;" d="M448 583 l0 78 l-298 0 l0 -78 l298 0 ZM564 247 q-3 116 -77 185 q-75 69 -188 71 q-112 -2 -187 -71 q-75 -69 -78 -185 q3 -117 78 -186 q75 -69 187 -71 q113 2 188 71 q74 69 77 186 l0 0 ZM405 247 q1 -109 -24 -161 q-25 -53 -82 -53 q-56 0 -81 53 q-24 52 -24 161 q0 108 24 161 q25 52 81 52 q57 0 82 -52 q25 -53 24 -161 l0 0 Z" /><glyph glyph-name="" unicode="&#x14f;" d="M176 761 l-27 0 q3 -86 44 -139 q41 -53 106 -54 q65 1 106 54 q41 53 44 139 l-27 0 q-10 -47 -45 -68 q-35 -21 -78 -21 q-43 0 -78 21 q-35 21 -45 68 l0 0 ZM564 247 q-3 116 -77 185 q-75 69 -188 71 q-112 -2 -187 -71 q-75 -69 -78 -185 q3 -117 78 -186 q75 -69 187 -71 q113 2 188 71 q74 69 77 186 l0 0 ZM405 247 q1 -109 -24 -161 q-25 -53 -82 -53 q-56 0 -81 53 q-24 52 -24 161 q0 108 24 161 q25 52 81 52 q57 0 82 -52 q25 -53 24 -161 l0 0 Z" /><glyph glyph-name="" unicode="&#x151;" d="M228 749 l-56 -188 l29 0 l176 188 l-149 0 ZM412 749 l-57 -188 l29 0 l176 188 l-148 0 ZM564 247 q-3 116 -77 185 q-75 69 -188 71 q-112 -2 -187 -71 q-75 -69 -78 -185 q3 -117 78 -186 q75 -69 187 -71 q113 2 188 71 q74 69 77 186 l0 0 ZM405 247 q1 -109 -24 -161 q-25 -53 -82 -53 q-56 0 -81 53 q-24 52 -24 161 q0 108 24 161 q25 52 81 52 q57 0 82 -52 q25 -53 24 -161 l0 0 Z" /><glyph glyph-name="" unicode="&#x155;" d="M290 749 l-58 -188 l29 0 l191 188 l-162 0 ZM239 236 q1 73 31 113 q29 40 72 41 q36 -1 52 -24 q15 -22 15 -57 q33 8 56 33 q22 26 23 69 q0 40 -25 66 q-24 25 -69 26 q-66 -2 -103 -48 q-36 -46 -52 -112 l-4 150 l-207 0 l0 -9 q31 -18 46 -38 q16 -20 16 -65 l0 -268 q1 -47 -11 -66 q-11 -19 -43 -38 l0 -9 l297 0 l0 11 q-48 20 -71 39 q-23 19 -23 65 l0 121 Z" /><glyph glyph-name="" unicode="&#x157;" d="M239 236 q1 73 31 113 q29 40 72 41 q36 -1 52 -24 q15 -22 15 -57 q33 8 56 33 q22 26 23 69 q0 40 -25 66 q-24 25 -69 26 q-66 -2 -103 -48 q-36 -46 -52 -112 l-4 150 l-207 0 l0 -9 q31 -18 46 -38 q16 -20 16 -65 l0 -268 q1 -47 -11 -66 q-11 -19 -43 -38 l0 -9 l297 0 l0 11 q-48 20 -71 39 q-23 19 -23 65 l0 121 ZM199 -170 q-1 -38 -29 -58 q-29 -20 -78 -22 l0 -28 q90 1 132 37 q42 36 41 89 q-1 44 -27 69 q-26 25 -67 25 q-33 0 -54 -18 q-20 -18 -21 -47 q1 -26 18 -42 q18 -16 45 -16 q12 0 23 3 q10 2 17 8 l0 0 Z" /><glyph glyph-name="" unicode="&#x159;" d="M435 778 l-38 0 q-39 -20 -73 -44 q-35 -24 -66 -50 q-31 26 -66 50 q-34 24 -73 44 l-38 0 q51 -55 97 -117 q46 -61 71 -106 l18 0 q25 45 71 106 q46 62 97 117 l0 0 ZM239 236 q1 73 31 113 q29 40 72 41 q36 -1 52 -24 q15 -22 15 -57 q33 8 56 33 q22 26 23 69 q0 40 -25 66 q-24 25 -69 26 q-66 -2 -103 -48 q-36 -46 -52 -112 l-4 150 l-207 0 l0 -9 q31 -18 46 -38 q16 -20 16 -65 l0 -268 q1 -47 -11 -66 q-11 -19 -43 -38 l0 -9 l297 0 l0 11 q-48 20 -71 39 q-23 19 -23 65 l0 121 Z" /><glyph glyph-name="" unicode="&#x15b;" d="M290 749 l-58 -188 l29 0 l191 188 l-162 0 ZM245 457 q50 0 91 -31 q41 -31 82 -93 l13 0 l0 170 l-9 0 l-43 -35 q-28 14 -60 24 q-32 11 -76 11 q-80 -1 -131 -43 q-52 -42 -54 -114 q-2 -64 39 -104 q41 -40 147 -65 q49 -9 77 -24 q27 -16 28 -49 q-1 -34 -27 -50 q-27 -17 -66 -17 q-54 0 -99 36 q-46 36 -94 106 l-14 0 l11 -188 l10 0 l39 40 q24 -14 61 -27 q37 -13 87 -14 q93 1 150 46 q56 45 58 120 q0 71 -45 109 q-45 37 -138 60 q-55 13 -82 29 q-28 16 -28 47 q1 27 21 42 q21 14 52 14 l0 0 Z" /><glyph glyph-name="" unicode="&#x15d;" d="M266 775 l-18 0 q-25 -45 -71 -106 q-46 -62 -97 -117 l38 0 q39 20 73 44 q35 24 66 50 q31 -26 66 -50 q34 -24 73 -44 l38 0 q-51 55 -97 117 q-46 61 -71 106 l0 0 ZM245 457 q50 0 91 -31 q41 -31 82 -93 l13 0 l0 170 l-9 0 l-43 -35 q-28 14 -60 24 q-32 11 -76 11 q-80 -1 -131 -43 q-52 -42 -54 -114 q-2 -64 39 -104 q41 -40 147 -65 q49 -9 77 -24 q27 -16 28 -49 q-1 -34 -27 -50 q-27 -17 -66 -17 q-54 0 -99 36 q-46 36 -94 106 l-14 0 l11 -188 l10 0 l39 40 q24 -14 61 -27 q37 -13 87 -14 q93 1 150 46 q56 45 58 120 q0 71 -45 109 q-45 37 -138 60 q-55 13 -82 29 q-28 16 -28 47 q1 27 21 42 q21 14 52 14 l0 0 Z" /><glyph glyph-name="" unicode="&#x15f;" d="M233 -224 q52 0 86 24 q35 24 36 66 q-1 43 -38 62 q-37 18 -94 19 l24 43 q5 0 10 0 q93 1 150 46 q56 45 58 120 q0 71 -45 109 q-45 37 -138 60 q-55 13 -82 29 q-28 16 -28 47 q1 27 21 42 q21 14 52 14 q50 0 91 -31 q41 -31 82 -93 l13 0 l0 170 l-9 0 l-43 -35 q-28 14 -60 24 q-32 11 -76 11 q-80 -1 -131 -43 q-52 -42 -54 -114 q-2 -64 39 -104 q41 -40 147 -65 q49 -9 77 -24 q27 -16 28 -49 q-1 -34 -27 -50 q-27 -17 -66 -17 q-54 0 -99 36 q-46 36 -94 106 l-14 0 l11 -188 l10 0 l39 40 q18 -10 43 -20 q25 -11 57 -17 l-42 -72 q42 -1 65 -15 q24 -13 24 -41 q0 -21 -14 -33 q-15 -12 -41 -12 q-22 0 -43 10 q-21 10 -36 28 l-15 -19 q12 -26 45 -44 q32 -19 81 -20 l0 0 Z" /><glyph glyph-name="" unicode="&#x219;" d="M245 457 q50 0 91 -31 q41 -31 82 -93 l13 0 l0 170 l-9 0 l-43 -35 q-28 14 -60 24 q-32 11 -76 11 q-80 -1 -131 -43 q-52 -42 -54 -114 q-2 -64 39 -104 q41 -40 147 -65 q49 -9 77 -24 q27 -16 28 -49 q-1 -34 -27 -50 q-27 -17 -66 -17 q-54 0 -99 36 q-46 36 -94 106 l-14 0 l11 -188 l10 0 l39 40 q24 -14 61 -27 q37 -13 87 -14 q93 1 150 46 q56 45 58 120 q0 71 -45 109 q-45 37 -138 60 q-55 13 -82 29 q-28 16 -28 47 q1 27 21 42 q21 14 52 14 l0 0 ZM278 -170 q-1 -38 -29 -58 q-29 -20 -78 -22 l0 -28 q90 1 132 37 q42 36 41 89 q-1 44 -27 69 q-26 25 -67 25 q-33 0 -54 -18 q-20 -18 -21 -47 q1 -26 18 -42 q18 -16 45 -16 q12 0 23 3 q10 2 17 8 l0 0 Z" /><glyph glyph-name="" unicode="&#x163;" d="M242 -224 q52 0 86 24 q35 24 36 66 q-1 43 -38 62 q-37 18 -94 19 l24 43 q80 7 121 55 q40 48 46 120 l-22 6 q-12 -51 -36 -74 q-24 -24 -59 -24 q-37 0 -55 21 q-18 21 -18 67 l0 273 l162 0 l5 51 l-167 0 l0 171 l-28 0 q-20 -76 -74 -125 q-55 -50 -120 -63 l0 -34 l74 0 l-1 -292 q0 -70 36 -108 q36 -37 96 -43 l-40 -69 q42 -1 65 -15 q24 -13 24 -41 q0 -21 -14 -33 q-15 -12 -41 -12 q-22 0 -43 10 q-21 10 -36 28 l-15 -19 q12 -26 45 -44 q32 -19 81 -20 l0 0 Z" /><glyph glyph-name="" unicode="&#x165;" d="M464 771 l-143 0 l-14 -205 l27 0 l130 205 ZM11 434 l74 0 l-1 -292 q0 -77 43 -115 q43 -37 114 -37 q88 2 132 51 q44 49 50 124 l-22 6 q-12 -51 -36 -74 q-24 -24 -59 -24 q-37 0 -55 21 q-18 21 -18 67 l0 273 l162 0 l5 51 l-167 0 l0 171 l-28 0 q-20 -76 -74 -125 q-55 -50 -120 -63 l0 -34 Z" /><glyph glyph-name="" unicode="&#x21b;" d="M11 434 l74 0 l-1 -292 q0 -77 43 -115 q43 -37 114 -37 q88 2 132 51 q44 49 50 124 l-22 6 q-12 -51 -36 -74 q-24 -24 -59 -24 q-37 0 -55 21 q-18 21 -18 67 l0 273 l162 0 l5 51 l-167 0 l0 171 l-28 0 q-20 -76 -74 -125 q-55 -50 -120 -63 l0 -34 ZM235 -170 q-1 -38 -29 -58 q-29 -20 -78 -22 l0 -28 q90 1 132 37 q42 36 41 89 q-1 44 -27 69 q-26 25 -67 25 q-33 0 -54 -18 q-20 -18 -21 -47 q1 -26 18 -42 q18 -16 45 -16 q12 0 23 3 q10 2 17 8 l0 0 Z" /><glyph glyph-name="" unicode="&#x169;" d="M146 571 q14 31 31 48 q18 17 43 17 q38 -4 82 -30 q45 -27 90 -31 q41 0 70 42 q29 41 46 117 l-28 0 q-14 -31 -31 -48 q-18 -17 -43 -17 q-38 4 -82 31 q-45 26 -90 30 q-41 0 -70 -41 q-29 -41 -46 -118 l28 0 ZM229 493 l-211 0 l0 -9 q31 -18 46 -38 q16 -20 16 -65 l0 -219 q0 -76 39 -123 q38 -48 117 -49 q64 0 106 35 q43 35 65 101 l0 -126 l203 0 l0 9 q-32 19 -43 38 q-11 19 -10 66 l0 380 l-212 0 l0 -9 q31 -18 47 -38 q15 -20 15 -65 l0 -151 q-1 -73 -29 -109 q-27 -36 -71 -36 q-42 1 -60 28 q-18 27 -18 69 l0 311 Z" /><glyph glyph-name="" unicode="&#x16b;" d="M462 583 l0 78 l-298 0 l0 -78 l298 0 ZM229 493 l-211 0 l0 -9 q31 -18 46 -38 q16 -20 16 -65 l0 -219 q0 -76 39 -123 q38 -48 117 -49 q64 0 106 35 q43 35 65 101 l0 -126 l203 0 l0 9 q-32 19 -43 38 q-11 19 -10 66 l0 380 l-212 0 l0 -9 q31 -18 47 -38 q15 -20 15 -65 l0 -151 q-1 -73 -29 -109 q-27 -36 -71 -36 q-42 1 -60 28 q-18 27 -18 69 l0 311 Z" /><glyph glyph-name="" unicode="&#x16d;" d="M190 761 l-27 0 q3 -86 44 -139 q41 -53 106 -54 q65 1 106 54 q41 53 44 139 l-27 0 q-10 -47 -45 -68 q-35 -21 -78 -21 q-43 0 -78 21 q-35 21 -45 68 l0 0 ZM229 493 l-211 0 l0 -9 q31 -18 46 -38 q16 -20 16 -65 l0 -219 q0 -76 39 -123 q38 -48 117 -49 q64 0 106 35 q43 35 65 101 l0 -126 l203 0 l0 9 q-32 19 -43 38 q-11 19 -10 66 l0 380 l-212 0 l0 -9 q31 -18 47 -38 q15 -20 15 -65 l0 -151 q-1 -73 -29 -109 q-27 -36 -71 -36 q-42 1 -60 28 q-18 27 -18 69 l0 311 Z" /><glyph glyph-name="" unicode="&#x16f;" d="M200 670 q1 -48 34 -79 q32 -32 79 -33 q47 1 79 33 q33 31 34 79 q-1 47 -34 79 q-32 32 -79 33 q-47 -1 -79 -33 q-33 -32 -34 -79 l0 0 ZM370 670 q0 -24 -16 -40 q-16 -15 -41 -16 q-25 1 -41 16 q-16 16 -16 40 q0 25 16 41 q16 16 41 16 q25 0 41 -16 q16 -16 16 -41 l0 0 ZM229 493 l-211 0 l0 -9 q31 -18 46 -38 q16 -20 16 -65 l0 -219 q0 -76 39 -123 q38 -48 117 -49 q64 0 106 35 q43 35 65 101 l0 -126 l203 0 l0 9 q-32 19 -43 38 q-11 19 -10 66 l0 380 l-212 0 l0 -9 q31 -18 47 -38 q15 -20 15 -65 l0 -151 q-1 -73 -29 -109 q-27 -36 -71 -36 q-42 1 -60 28 q-18 27 -18 69 l0 311 Z" /><glyph glyph-name="" unicode="&#x171;" d="M242 749 l-56 -188 l29 0 l176 188 l-149 0 ZM426 749 l-57 -188 l29 0 l176 188 l-148 0 ZM229 493 l-211 0 l0 -9 q31 -18 46 -38 q16 -20 16 -65 l0 -219 q0 -76 39 -123 q38 -48 117 -49 q64 0 106 35 q43 35 65 101 l0 -126 l203 0 l0 9 q-32 19 -43 38 q-11 19 -10 66 l0 380 l-212 0 l0 -9 q31 -18 47 -38 q15 -20 15 -65 l0 -151 q-1 -73 -29 -109 q-27 -36 -71 -36 q-42 1 -60 28 q-18 27 -18 69 l0 311 Z" /><glyph glyph-name="" unicode="&#x173;" d="M533 -131 l-15 13 q-21 -27 -43 -41 q-22 -15 -52 -15 q-24 0 -40 15 q-15 14 -16 41 q0 30 24 58 q24 28 69 60 l150 0 l0 9 q-32 19 -43 38 q-11 19 -10 66 l0 380 l-212 0 l0 -9 q31 -18 47 -38 q15 -20 15 -65 l0 -151 q-1 -73 -29 -109 q-27 -36 -71 -36 q-42 1 -60 28 q-18 27 -18 69 l0 311 l-211 0 l0 -9 q31 -18 46 -38 q16 -20 16 -65 l0 -219 q0 -76 39 -123 q38 -48 117 -49 q64 0 106 35 q43 35 65 101 l0 -125 q-56 -31 -95 -68 q-39 -37 -41 -87 q2 -42 31 -64 q30 -23 70 -23 q64 1 102 33 q38 31 59 77 l0 0 Z" /><glyph glyph-name="" unicode="&#x175;" d="M422 775 l-18 0 q-25 -45 -71 -106 q-46 -62 -97 -117 l38 0 q39 20 73 44 q35 24 66 50 q31 -26 66 -50 q34 -24 73 -44 l38 0 q-51 55 -97 117 q-46 61 -71 106 l0 0 ZM532 -10 l10 0 l172 385 q19 44 36 67 q16 22 41 42 l0 9 l-170 0 l0 -9 q26 -18 40 -32 q14 -15 14 -31 q0 -9 -4 -21 q-3 -12 -11 -29 l-73 -173 l-71 187 q-7 17 -11 31 q-5 14 -5 24 q0 11 7 21 q7 9 24 23 l0 9 l-227 0 l0 -9 q26 -19 40 -41 q13 -22 30 -64 l4 -9 l-73 -172 l-79 187 q-8 17 -12 31 q-4 14 -4 24 q0 12 6 22 q7 10 23 22 l0 9 l-240 0 l0 -9 q25 -20 42 -42 q16 -23 35 -67 l170 -385 l10 0 l143 327 l133 -327 Z" /><glyph glyph-name="" unicode="&#x1e81;" d="M217 749 l191 -188 l29 0 l-58 188 l-162 0 ZM532 -10 l10 0 l172 385 q19 44 36 67 q16 22 41 42 l0 9 l-170 0 l0 -9 q26 -18 40 -32 q14 -15 14 -31 q0 -9 -4 -21 q-3 -12 -11 -29 l-73 -173 l-71 187 q-7 17 -11 31 q-5 14 -5 24 q0 11 7 21 q7 9 24 23 l0 9 l-227 0 l0 -9 q26 -19 40 -41 q13 -22 30 -64 l4 -9 l-73 -172 l-79 187 q-8 17 -12 31 q-4 14 -4 24 q0 12 6 22 q7 10 23 22 l0 9 l-240 0 l0 -9 q25 -20 42 -42 q16 -23 35 -67 l170 -385 l10 0 l143 327 l133 -327 Z" /><glyph glyph-name="" unicode="&#x1e83;" d="M446 749 l-58 -188 l29 0 l191 188 l-162 0 ZM532 -10 l10 0 l172 385 q19 44 36 67 q16 22 41 42 l0 9 l-170 0 l0 -9 q26 -18 40 -32 q14 -15 14 -31 q0 -9 -4 -21 q-3 -12 -11 -29 l-73 -173 l-71 187 q-7 17 -11 31 q-5 14 -5 24 q0 11 7 21 q7 9 24 23 l0 9 l-227 0 l0 -9 q26 -19 40 -41 q13 -22 30 -64 l4 -9 l-73 -172 l-79 187 q-8 17 -12 31 q-4 14 -4 24 q0 12 6 22 q7 10 23 22 l0 9 l-240 0 l0 -9 q25 -20 42 -42 q16 -23 35 -67 l170 -385 l10 0 l143 327 l133 -327 Z" /><glyph glyph-name="" unicode="&#x1e85;" d="M308 564 q34 1 56 23 q21 22 22 54 q-1 33 -22 56 q-22 23 -56 24 q-33 -1 -55 -24 q-21 -23 -22 -56 q1 -32 22 -54 q22 -22 55 -23 l0 0 ZM517 564 q34 1 56 23 q21 22 22 54 q-1 33 -22 56 q-22 23 -56 24 q-33 -1 -55 -24 q-22 -23 -23 -56 q1 -32 23 -54 q22 -22 55 -23 l0 0 ZM532 -10 l10 0 l172 385 q19 44 36 67 q16 22 41 42 l0 9 l-170 0 l0 -9 q26 -18 40 -32 q14 -15 14 -31 q0 -9 -4 -21 q-3 -12 -11 -29 l-73 -173 l-71 187 q-7 17 -11 31 q-5 14 -5 24 q0 11 7 21 q7 9 24 23 l0 9 l-227 0 l0 -9 q26 -19 40 -41 q13 -22 30 -64 l4 -9 l-73 -172 l-79 187 q-8 17 -12 31 q-4 14 -4 24 q0 12 6 22 q7 10 23 22 l0 9 l-240 0 l0 -9 q25 -20 42 -42 q16 -23 35 -67 l170 -385 l10 0 l143 327 l133 -327 Z" /><glyph glyph-name="" unicode="&#x177;" d="M322 775 l-18 0 q-25 -45 -71 -106 q-46 -62 -97 -117 l38 0 q39 20 73 44 q35 24 66 50 q31 -26 66 -50 q34 -24 73 -44 l38 0 q-51 55 -97 117 q-46 61 -71 106 l0 0 ZM261 -6 l-24 -56 q-15 -35 -33 -54 q-18 -18 -45 -18 q-21 0 -32 13 q-12 13 -12 34 q0 9 2 18 q1 9 5 16 q-35 -1 -61 -23 q-26 -22 -27 -60 q1 -42 28 -65 q28 -24 72 -24 q52 0 82 33 q30 32 56 94 l205 473 q19 44 36 67 q17 23 42 42 l0 9 l-170 0 l0 -9 q26 -18 39 -30 q13 -13 13 -28 q0 -10 -5 -24 q-4 -14 -11 -32 l-86 -212 l-101 227 q-8 18 -12 31 q-5 14 -5 24 q0 12 7 22 q8 9 24 22 l0 9 l-249 0 l0 -9 q25 -20 43 -43 q18 -23 38 -66 l181 -381 Z" /><glyph glyph-name="" unicode="&#x1ef3;" d="M116 749 l191 -188 l29 0 l-58 188 l-162 0 ZM261 -6 l-24 -56 q-15 -35 -33 -54 q-18 -18 -45 -18 q-21 0 -32 13 q-12 13 -12 34 q0 9 2 18 q1 9 5 16 q-35 -1 -61 -23 q-26 -22 -27 -60 q1 -42 28 -65 q28 -24 72 -24 q52 0 82 33 q30 32 56 94 l205 473 q19 44 36 67 q17 23 42 42 l0 9 l-170 0 l0 -9 q26 -18 39 -30 q13 -13 13 -28 q0 -10 -5 -24 q-4 -14 -11 -32 l-86 -212 l-101 227 q-8 18 -12 31 q-5 14 -5 24 q0 12 7 22 q8 9 24 22 l0 9 l-249 0 l0 -9 q25 -20 43 -43 q18 -23 38 -66 l181 -381 Z" /><glyph glyph-name="" unicode="&#x17a;" d="M327 749 l-58 -188 l29 0 l191 188 l-162 0 ZM34 7 l0 -7 l450 0 l29 179 l-10 1 q-55 -83 -91 -111 q-36 -27 -98 -25 l-88 0 l277 442 l0 7 l-373 0 q-23 0 -37 2 q-14 2 -26 5 l-14 -176 l9 -1 q45 72 80 100 q34 28 91 27 l80 0 l-279 -443 Z" /><glyph glyph-name="" unicode="&#x17c;" d="M294 568 q38 1 63 25 q25 24 26 62 q-1 38 -26 62 q-25 24 -63 25 q-38 -1 -63 -25 q-24 -24 -25 -62 q1 -38 25 -62 q25 -24 63 -25 l0 0 ZM34 7 l0 -7 l450 0 l29 179 l-10 1 q-55 -83 -91 -111 q-36 -27 -98 -25 l-88 0 l277 442 l0 7 l-373 0 q-23 0 -37 2 q-14 2 -26 5 l-14 -176 l9 -1 q45 72 80 100 q34 28 91 27 l80 0 l-279 -443 Z" /><glyph glyph-name="" unicode="&#x1fd;" d="M464 749 l-58 -188 l29 0 l191 188 l-162 0 ZM820 152 l-22 7 q-25 -52 -63 -74 q-37 -22 -88 -21 q-72 1 -111 53 q-39 52 -40 138 l334 0 q0 117 -59 182 q-60 65 -174 66 q-48 0 -90 -19 q-42 -20 -72 -56 q-24 36 -66 55 q-43 20 -100 20 q-97 -1 -152 -34 q-55 -34 -56 -88 q0 -33 22 -51 q21 -19 57 -19 q21 0 43 7 q22 7 32 20 q-12 6 -20 19 q-9 12 -9 36 q0 33 20 51 q19 17 56 17 q50 0 69 -30 q18 -29 17 -81 l0 -54 l-78 -13 q-89 -13 -159 -50 q-70 -36 -74 -117 q2 -64 45 -95 q44 -31 111 -31 q73 1 124 31 q51 30 76 73 q30 -52 82 -78 q51 -26 120 -26 q88 0 146 42 q57 42 79 120 l0 0 ZM498 300 q4 70 27 114 q23 45 71 46 q50 -2 67 -50 q17 -47 17 -110 l-182 0 ZM348 255 l0 -58 q0 -64 -26 -98 q-26 -34 -72 -34 q-32 0 -48 20 q-17 20 -17 55 q0 45 27 69 q27 24 81 35 l55 11 Z" /><glyph glyph-name="" unicode="&#x1ff;" d="M334 749 l-58 -188 l29 0 l191 188 l-162 0 ZM301 460 q35 0 57 -21 q22 -22 32 -67 l-187 -201 q-4 16 -5 35 q-2 19 -2 41 q-1 108 24 161 q25 52 81 52 l0 0 ZM301 33 q-34 0 -56 20 q-21 20 -32 63 l187 201 q6 -30 6 -70 q1 -109 -24 -161 q-25 -53 -81 -53 l0 0 ZM566 247 q0 53 -18 97 q-17 44 -48 77 l66 70 l-33 31 l-67 -71 q-34 25 -76 38 q-42 14 -89 14 q-113 -2 -188 -71 q-74 -69 -77 -185 q0 -54 18 -100 q18 -45 51 -79 l-68 -72 l32 -31 l71 75 q33 -24 74 -37 q41 -13 87 -13 q112 2 187 71 q75 69 78 186 l0 0 Z" /><glyph glyph-name="" unicode="&#x111;" d="M433 226 q-1 -70 -33 -116 q-32 -45 -87 -47 q-57 1 -87 48 q-30 47 -30 134 q0 100 31 150 q30 51 87 51 q48 -1 83 -42 q34 -42 36 -109 l0 -69 ZM433 117 l1 -117 l202 0 l0 9 q-32 19 -43 38 q-11 19 -10 66 l0 452 l70 0 l0 44 l-70 0 l0 140 l-215 0 l0 -9 q32 -18 49 -38 q16 -20 16 -65 l0 -28 l-130 0 l0 -44 l130 0 l0 -156 q-19 40 -59 67 q-41 26 -106 27 q-98 -1 -164 -69 q-65 -69 -68 -190 q3 -130 64 -192 q62 -62 152 -62 q70 1 117 37 q46 35 64 90 l0 0 Z" /><glyph glyph-name="" unicode="&#x127;" d="M296 9 q-32 19 -43 38 q-12 19 -11 66 l0 150 q1 74 30 109 q29 35 73 35 q42 -1 61 -27 q19 -27 19 -69 l0 -198 q1 -47 -11 -66 q-11 -19 -43 -38 l0 -9 l257 0 l0 9 q-32 19 -43 38 q-12 19 -11 66 l0 216 q0 76 -38 124 q-39 48 -123 50 q-60 0 -103 -34 q-44 -35 -68 -101 l0 197 l130 0 l0 44 l-130 0 l0 140 l-214 0 l0 -9 q32 -18 48 -38 q17 -20 17 -65 l0 -28 l-71 0 l0 -44 l71 0 l0 -452 q1 -47 -11 -66 q-11 -19 -43 -38 l0 -9 l257 0 l0 9 Z" /><glyph glyph-name="" unicode="&#x138;" d="M288 9 q-32 19 -43 38 q-12 19 -11 66 l0 130 l19 0 q13 0 22 -5 q9 -5 16 -16 l98 -152 q14 -22 19 -39 q4 -17 3 -31 l228 0 l0 9 q-35 18 -62 46 q-28 27 -48 58 l-138 208 l70 63 q47 42 83 65 q35 22 76 35 l0 9 l-203 0 l0 -9 q13 -12 20 -21 q7 -9 7 -18 q0 -10 -5 -18 q-5 -8 -16 -17 l-116 -104 q-15 -13 -28 -17 q-14 -5 -30 -5 l-15 0 l0 209 l-214 0 l0 -9 q32 -18 48 -38 q17 -20 17 -65 l0 -268 q1 -47 -11 -66 q-11 -19 -43 -38 l0 -9 l257 0 l0 9 Z" /><glyph glyph-name="" unicode="&#x140;" d="M234 749 l-214 0 l0 -9 q32 -18 48 -38 q17 -20 17 -65 l0 -524 q1 -47 -11 -66 q-11 -19 -43 -38 l0 -9 l257 0 l0 9 q-32 19 -43 38 q-12 19 -11 66 l0 636 ZM408 287 q38 1 63 25 q25 24 26 62 q-1 38 -26 62 q-25 24 -63 25 q-38 -1 -63 -25 q-24 -24 -25 -62 q1 -38 25 -62 q25 -24 63 -25 l0 0 Z" /><glyph glyph-name="" unicode="&#x14b;" d="M364 -223 q98 1 152 51 q54 50 55 143 l0 358 q0 76 -38 124 q-39 48 -123 50 q-60 0 -103 -34 q-44 -35 -68 -101 l-4 125 l-207 0 l0 -9 q31 -18 46 -38 q16 -20 16 -65 l0 -268 q1 -47 -11 -66 q-11 -19 -43 -38 l0 -9 l257 0 l0 9 q-32 19 -43 38 q-12 19 -11 66 l0 150 q1 74 30 109 q29 35 73 35 q42 -1 61 -27 q19 -27 19 -69 l0 -394 q1 -47 -12 -74 q-12 -26 -44 -27 q-28 1 -40 21 q-12 19 -12 45 q0 18 5 34 q6 15 14 24 q-6 3 -17 6 q-12 2 -25 2 q-37 0 -64 -17 q-27 -17 -28 -56 q2 -49 47 -74 q46 -24 118 -24 l0 0 Z" /><glyph glyph-name="" unicode="&#x167;" d="M434 165 l-22 6 q-12 -51 -36 -74 q-24 -24 -59 -24 q-37 0 -55 21 q-18 21 -18 67 l0 114 l148 0 l0 49 l-148 0 l0 110 l162 0 l5 51 l-167 0 l0 171 l-28 0 q-20 -76 -74 -125 q-55 -50 -120 -63 l0 -34 l74 0 l0 -110 l-76 0 l0 -49 l75 0 l0 -133 q0 -77 43 -115 q43 -37 114 -37 q88 2 132 51 q44 49 50 124 l0 0 Z" /><glyph glyph-name="" unicode="&#x2bb;" d="M225 669 q1 38 30 59 q29 20 78 22 l0 28 q-91 -1 -132 -38 q-42 -36 -41 -89 q1 -44 27 -69 q26 -25 67 -25 q32 1 53 18 q21 18 22 47 q-1 26 -19 42 q-18 16 -44 16 q-13 0 -23 -2 q-11 -3 -18 -9 l0 0 Z" /><glyph glyph-name="" unicode="&#x2117;" d="M765 350 q-4 160 -105 258 q-102 99 -255 102 q-153 -3 -255 -102 q-101 -98 -105 -258 q4 -160 105 -258 q102 -99 255 -102 q153 3 255 102 q101 98 105 258 l0 0 ZM405 24 q-138 3 -230 92 q-91 90 -95 234 q4 144 95 234 q92 89 230 92 q138 -3 230 -92 q91 -90 95 -234 q-4 -144 -95 -234 q-92 -89 -230 -92 l0 0 ZM450 311 q67 0 111 32 q43 32 45 91 q-2 60 -45 91 q-44 32 -111 32 l-223 0 l0 -9 q20 -13 28 -24 q8 -12 8 -39 l0 -265 q0 -27 -8 -39 q-8 -11 -28 -24 l0 -9 l183 0 l0 9 q-22 13 -31 24 q-9 12 -9 39 l0 91 l80 0 ZM370 340 l0 189 l33 0 q46 0 69 -24 q23 -24 23 -71 q0 -47 -23 -70 q-23 -24 -69 -24 l-33 0 Z" /><glyph glyph-name="" unicode="&#x2009;" d="" /><glyph glyph-name="" unicode="&#x237;" d="M84 -85 q1 -47 -12 -74 q-12 -26 -44 -27 q-28 1 -40 21 q-12 19 -12 45 q0 18 5 34 q6 15 14 24 q-6 3 -17 6 q-11 2 -25 2 q-37 0 -63 -17 q-27 -18 -28 -57 q1 -49 47 -73 q45 -24 117 -24 q98 1 153 51 q54 50 55 143 l0 524 l-212 0 l0 -9 q31 -18 47 -38 q15 -20 15 -65 l0 -466 Z" /><glyph glyph-name="" unicode="&#x2070;" d="M399 501 q-1 99 -50 152 q-48 52 -129 53 q-80 -1 -129 -53 q-49 -53 -50 -152 q1 -98 50 -151 q49 -53 129 -54 q81 1 129 54 q49 53 50 151 l0 0 ZM276 501 q0 -85 -12 -128 q-13 -44 -44 -44 q-31 0 -44 44 q-12 43 -12 128 q0 86 12 129 q13 44 44 44 q31 0 44 -44 q12 -43 12 -129 l0 0 Z" /><glyph glyph-name="" unicode="&#x2074;" d="M213 436 l-134 0 l134 189 l0 -189 ZM356 407 q23 0 32 -5 q10 -6 22 -24 l7 0 l0 88 l-7 0 q-12 -18 -22 -24 q-9 -6 -32 -6 l-34 0 l0 264 l-94 0 l-207 -290 l2 -3 l190 0 l0 -38 q0 -26 -5 -37 q-6 -12 -24 -23 l0 -7 l167 0 l0 7 q-18 11 -24 23 q-6 11 -5 37 l0 38 l34 0 Z" /><glyph glyph-name="" unicode="&#x2075;" d="M177 328 q-22 0 -36 15 q-15 14 -15 41 q1 25 10 40 q10 16 21 24 q-6 5 -18 8 q-13 3 -30 3 q-30 0 -53 -17 q-24 -17 -25 -50 q3 -47 47 -71 q44 -25 100 -25 q66 -1 122 31 q55 31 58 105 q-2 61 -41 92 q-40 31 -99 31 q-34 0 -60 -7 q-26 -7 -43 -19 l12 90 q21 -9 53 -17 q33 -8 63 -8 q57 1 78 34 q21 33 20 88 l-2 0 q-16 -16 -40 -20 q-24 -5 -58 -4 q-25 0 -62 2 q-37 2 -69 5 l-27 -211 l3 0 q15 12 33 20 q18 7 42 7 q40 -1 59 -27 q19 -26 19 -68 q-1 -44 -18 -68 q-17 -24 -44 -24 l0 0 Z" /><glyph glyph-name="" unicode="&#x2076;" d="M232 676 q19 0 30 -9 q11 -10 11 -27 q0 -15 -9 -25 q-8 -10 -21 -15 q8 -8 22 -13 q14 -6 30 -6 q23 0 41 13 q18 13 19 38 q-1 37 -36 56 q-35 18 -87 18 q-96 -3 -143 -65 q-48 -62 -48 -150 q1 -88 47 -141 q45 -53 119 -54 q64 0 110 36 q46 36 48 105 q-2 61 -41 90 q-40 29 -87 29 q-33 -1 -55 -15 q-23 -14 -32 -36 q-1 58 16 113 q18 54 66 58 l0 0 ZM155 422 q0 48 13 72 q13 23 37 23 q24 0 38 -23 q13 -24 13 -72 q-1 -47 -14 -71 q-13 -23 -37 -23 q-24 0 -37 23 q-13 24 -13 71 l0 0 Z" /><glyph glyph-name="" unicode="&#x2077;" d="M41 549 l8 0 q14 33 30 42 q17 10 54 9 l121 1 l-27 -44 q-39 -59 -67 -121 q-28 -62 -46 -140 l109 16 q-4 65 6 129 q10 64 48 135 l69 122 l0 2 l-305 0 l0 -151 Z" /><glyph glyph-name="" unicode="&#x2078;" d="M268 548 q31 3 51 21 q20 17 21 44 q-1 45 -39 69 q-38 24 -96 24 q-58 0 -101 -32 q-42 -32 -44 -95 q1 -37 20 -63 q18 -26 49 -39 q-36 -5 -61 -26 q-26 -22 -27 -57 q1 -47 47 -73 q45 -25 117 -25 q65 0 114 32 q49 33 51 100 q0 43 -25 72 q-25 30 -77 48 l0 0 ZM149 627 q0 18 14 31 q14 13 40 14 q33 0 51 -17 q19 -16 19 -45 q0 -16 -5 -31 q-6 -16 -14 -25 l-37 13 q-34 11 -51 24 q-17 13 -17 36 l0 0 ZM215 444 q27 -9 42 -23 q16 -14 16 -39 q-1 -24 -19 -37 q-18 -14 -47 -14 q-40 1 -63 23 q-24 21 -25 58 q0 19 7 36 q6 16 15 23 l74 -27 Z" /><glyph glyph-name="" unicode="&#x2079;" d="M251 580 q0 -48 -13 -71 q-13 -24 -38 -24 q-24 0 -37 24 q-14 23 -14 71 q1 47 14 71 q14 23 37 23 q50 0 51 -94 l0 0 ZM173 326 q-19 0 -30 9 q-11 10 -11 27 q0 15 9 25 q8 10 21 15 q-8 8 -21 13 q-14 6 -30 6 q-24 0 -42 -13 q-18 -13 -19 -38 q1 -37 36 -56 q35 -18 87 -18 q97 3 144 65 q47 62 47 150 q-1 88 -46 141 q-45 53 -119 54 q-64 0 -110 -36 q-46 -36 -48 -105 q2 -61 42 -90 q39 -29 86 -29 q32 1 55 15 q22 14 31 36 q1 -58 -16 -112 q-18 -55 -66 -59 l0 0 Z" /><glyph glyph-name="" unicode="&#x2080;" d="M399 99 q-1 98 -50 151 q-48 53 -129 54 q-80 -1 -129 -54 q-49 -53 -50 -151 q1 -98 50 -151 q49 -53 129 -54 q81 1 129 54 q49 53 50 151 l0 0 ZM276 99 q0 -85 -12 -128 q-13 -44 -44 -44 q-31 0 -44 44 q-12 43 -12 128 q0 86 12 129 q13 44 44 44 q31 0 44 -44 q12 -43 12 -129 l0 0 Z" /><glyph glyph-name="" unicode="&#x2081;" d="M275 -100 l0 13 q-45 20 -59 30 q-13 9 -12 28 l0 327 l-181 0 l0 -13 q46 -20 60 -30 q13 -10 12 -29 l0 -255 q1 -19 -12 -28 q-14 -10 -59 -30 l0 -13 l251 0 Z" /><glyph glyph-name="" unicode="&#x2082;" d="M124 -12 q98 41 154 86 q55 44 56 104 q-3 75 -54 101 q-52 27 -109 25 q-61 -1 -98 -28 q-38 -27 -39 -75 q1 -35 22 -54 q22 -19 52 -19 q15 0 27 4 q11 3 19 10 q-16 9 -24 29 q-8 19 -8 43 q1 29 15 45 q14 16 34 16 q26 0 39 -18 q13 -18 13 -50 q-1 -57 -25 -99 q-24 -42 -62 -82 l-114 -123 l0 -3 l321 0 l13 135 l-8 0 q-18 -30 -39 -36 q-20 -7 -61 -7 l-124 -4 Z" /><glyph glyph-name="" unicode="&#x2083;" d="M186 -106 q74 0 124 29 q49 28 51 86 q-2 53 -37 78 q-36 25 -86 27 l0 1 q46 4 77 25 q30 22 31 64 q-2 50 -47 75 q-46 25 -110 25 q-55 0 -92 -25 q-38 -24 -39 -67 q1 -29 19 -46 q19 -18 48 -18 q14 0 25 3 q12 4 20 9 q-16 8 -23 22 q-7 13 -7 35 q0 26 14 40 q14 14 35 14 q52 0 52 -66 q-1 -45 -20 -63 q-19 -18 -50 -19 l0 -21 q36 0 57 -22 q20 -22 20 -72 q0 -37 -17 -59 q-17 -22 -45 -22 q-22 0 -38 16 q-16 15 -17 48 q0 22 8 39 q8 16 21 30 q-7 4 -18 7 q-11 4 -26 4 q-32 0 -55 -20 q-23 -19 -24 -54 q3 -52 48 -78 q46 -25 101 -25 l0 0 Z" /><glyph glyph-name="" unicode="&#x2084;" d="M213 34 l-134 0 l134 189 l0 -189 ZM356 5 q23 0 32 -5 q10 -6 22 -24 l7 0 l0 88 l-7 0 q-12 -18 -22 -24 q-9 -6 -32 -6 l-34 0 l0 264 l-94 0 l-207 -290 l2 -3 l190 0 l0 -38 q0 -26 -5 -37 q-6 -12 -24 -23 l0 -7 l167 0 l0 7 q-18 11 -24 23 q-6 11 -5 37 l0 38 l34 0 Z" /><glyph glyph-name="" unicode="&#x2085;" d="M177 -74 q-22 0 -36 15 q-15 14 -15 41 q1 25 10 40 q10 16 21 24 q-6 5 -18 8 q-13 3 -30 3 q-30 0 -53 -17 q-24 -17 -25 -50 q3 -47 47 -71 q44 -25 99 -25 q67 -1 122 30 q56 31 59 106 q-2 61 -41 91 q-40 31 -99 31 q-34 0 -60 -6 q-26 -7 -43 -19 l12 90 q21 -9 53 -17 q33 -8 63 -8 q57 1 78 34 q21 33 20 88 l-1 0 q-17 -16 -40 -20 q-24 -5 -59 -4 q-25 0 -62 2 q-37 2 -69 5 l-26 -212 l3 0 q14 13 32 20 q18 8 42 8 q40 -1 59 -27 q19 -26 19 -68 q-1 -44 -18 -68 q-17 -24 -44 -24 l0 0 Z" /><glyph glyph-name="" unicode="&#x2086;" d="M232 274 q19 0 30 -9 q11 -10 11 -27 q0 -15 -9 -25 q-8 -10 -21 -15 q8 -8 22 -13 q14 -6 30 -6 q23 0 41 13 q18 13 19 39 q-1 37 -36 55 q-35 18 -87 18 q-96 -3 -143 -65 q-48 -62 -48 -150 q1 -88 47 -141 q45 -53 119 -54 q64 0 109 36 q46 36 48 105 q-2 61 -41 90 q-39 29 -86 29 q-33 -1 -55 -15 q-23 -14 -32 -36 q-1 58 16 113 q18 54 66 58 l0 0 ZM155 20 q0 48 13 72 q13 23 37 23 q24 0 38 -23 q13 -24 13 -72 q-1 -47 -14 -71 q-13 -23 -37 -23 q-24 0 -37 23 q-13 24 -13 71 l0 0 Z" /><glyph glyph-name="" unicode="&#x2087;" d="M41 147 l8 0 q13 33 30 43 q17 10 54 9 l121 0 l-27 -44 q-39 -59 -67 -121 q-28 -62 -46 -140 l109 16 q-4 65 6 129 q10 64 48 135 l69 122 l0 2 l-305 0 l0 -151 Z" /><glyph glyph-name="" unicode="&#x2088;" d="M268 146 q31 3 51 21 q20 17 21 44 q-1 45 -39 69 q-38 24 -96 24 q-58 0 -101 -32 q-42 -32 -44 -95 q1 -37 20 -63 q18 -26 49 -40 q-36 -5 -62 -26 q-25 -21 -26 -56 q1 -47 47 -73 q45 -25 117 -25 q65 0 114 32 q49 33 51 100 q0 43 -25 72 q-25 30 -77 48 l0 0 ZM149 225 q0 18 14 31 q14 13 40 14 q33 0 51 -17 q19 -16 19 -45 q0 -16 -5 -31 q-6 -16 -15 -26 l-36 14 q-34 11 -51 24 q-17 13 -17 36 l0 0 ZM215 42 q27 -9 42 -23 q16 -14 16 -39 q-1 -24 -19 -37 q-18 -14 -47 -14 q-40 1 -63 23 q-24 21 -25 58 q0 19 7 36 q6 16 15 23 l74 -27 Z" /><glyph glyph-name="" unicode="&#x2089;" d="M251 178 q0 -48 -13 -71 q-13 -24 -38 -24 q-24 0 -37 24 q-14 23 -14 71 q1 47 14 71 q14 23 37 23 q50 0 51 -94 l0 0 ZM173 -76 q-19 0 -30 9 q-11 10 -11 27 q0 15 9 25 q8 10 21 15 q-8 8 -21 13 q-14 6 -30 6 q-24 0 -42 -13 q-18 -13 -19 -38 q1 -37 36 -56 q35 -18 87 -18 q97 3 144 65 q47 62 47 150 q-1 88 -46 141 q-45 53 -119 54 q-64 0 -110 -36 q-46 -36 -48 -105 q2 -61 42 -90 q39 -29 86 -29 q32 1 55 15 q22 14 31 36 q1 -58 -16 -112 q-18 -55 -66 -59 l0 0 Z" /><glyph glyph-name="" unicode="&#x2153;" d="M197 -10 l438 720 l-55 0 l-438 -720 l55 0 ZM275 302 l0 13 q-45 20 -59 30 q-13 9 -12 28 l0 327 l-181 0 l0 -13 q46 -20 60 -30 q13 -10 12 -29 l0 -255 q1 -19 -12 -28 q-14 -10 -59 -30 l0 -13 l251 0 ZM629 -6 q74 0 124 29 q49 28 51 86 q-2 53 -37 78 q-36 25 -86 27 l0 1 q46 4 77 25 q30 22 31 64 q-2 50 -47 75 q-46 25 -110 25 q-55 0 -92 -25 q-38 -24 -39 -67 q1 -29 19 -46 q19 -18 48 -18 q14 0 25 3 q12 4 20 9 q-16 8 -23 22 q-7 13 -7 35 q0 26 14 40 q14 14 35 14 q52 0 52 -66 q-1 -45 -20 -63 q-19 -18 -50 -19 l0 -21 q36 0 57 -22 q20 -22 20 -72 q0 -37 -17 -59 q-17 -22 -45 -22 q-22 0 -38 16 q-16 15 -17 48 q0 22 8 39 q8 16 21 30 q-7 4 -18 7 q-11 4 -26 4 q-32 0 -55 -20 q-23 -19 -24 -54 q3 -52 48 -78 q46 -25 101 -25 l0 0 Z" /><glyph glyph-name="" unicode="&#x2154;" d="M285 -10 l438 720 l-55 0 l-438 -720 l55 0 ZM124 390 q98 41 153 86 q55 44 56 104 q-3 75 -54 101 q-51 27 -108 25 q-61 -1 -98 -28 q-38 -27 -39 -75 q1 -35 22 -54 q21 -19 52 -19 q15 0 27 4 q11 3 19 10 q-16 9 -24 29 q-8 19 -8 43 q1 29 15 45 q14 16 34 16 q26 0 39 -18 q13 -18 13 -50 q-1 -57 -25 -99 q-24 -42 -62 -82 l-114 -123 l0 -3 l321 0 l13 135 l-8 0 q-18 -30 -39 -36 q-20 -7 -61 -7 l-124 -4 ZM717 -6 q74 0 124 29 q49 28 51 86 q-2 53 -37 78 q-36 25 -86 27 l0 1 q46 4 77 25 q30 22 31 64 q-2 50 -47 75 q-46 25 -110 25 q-55 0 -92 -25 q-38 -24 -39 -67 q1 -29 19 -46 q19 -18 48 -18 q14 0 25 3 q12 4 20 9 q-16 8 -23 22 q-7 13 -7 35 q0 26 14 40 q14 14 35 14 q52 0 52 -66 q-1 -45 -20 -63 q-19 -18 -50 -19 l0 -21 q36 0 57 -22 q20 -22 20 -72 q0 -37 -17 -59 q-17 -22 -45 -22 q-22 0 -38 16 q-16 15 -17 48 q0 22 8 39 q8 16 21 30 q-7 4 -18 7 q-11 4 -26 4 q-32 0 -55 -20 q-23 -19 -24 -54 q3 -52 48 -78 q46 -25 101 -25 l0 0 Z" /><glyph glyph-name="" unicode="&#x215b;" d="M197 -10 l438 720 l-55 0 l-438 -720 l55 0 ZM275 302 l0 13 q-45 20 -59 30 q-13 9 -12 28 l0 327 l-181 0 l0 -13 q46 -20 60 -30 q13 -10 12 -29 l0 -255 q1 -19 -12 -28 q-14 -10 -59 -30 l0 -13 l251 0 ZM711 246 q31 3 51 21 q20 17 21 44 q-1 45 -39 69 q-38 24 -96 24 q-58 0 -101 -32 q-42 -32 -44 -95 q1 -37 20 -63 q18 -26 49 -40 q-36 -5 -62 -26 q-25 -21 -26 -56 q1 -47 47 -73 q45 -25 117 -25 q65 0 114 32 q49 33 51 100 q0 43 -25 72 q-25 30 -77 48 l0 0 ZM592 325 q0 18 14 31 q14 13 40 14 q33 0 51 -17 q19 -16 19 -45 q0 -16 -5 -31 q-6 -16 -15 -26 l-36 14 q-34 11 -51 24 q-17 13 -17 36 l0 0 ZM658 142 q27 -9 42 -23 q16 -14 16 -39 q-1 -24 -19 -37 q-18 -14 -47 -14 q-40 1 -63 23 q-24 21 -25 58 q0 19 7 36 q6 16 15 23 l74 -27 Z" /><glyph glyph-name="" unicode="&#x215c;" d="M264 -10 l438 720 l-55 0 l-438 -720 l55 0 ZM186 296 q74 0 124 29 q49 28 51 86 q-2 53 -37 78 q-36 25 -86 27 l0 2 q45 3 76 25 q31 21 32 63 q-2 50 -47 75 q-46 25 -110 25 q-55 0 -92 -25 q-38 -24 -39 -67 q1 -29 19 -46 q19 -18 48 -18 q14 0 25 3 q12 4 20 9 q-16 8 -23 22 q-7 13 -7 35 q0 26 14 40 q14 14 35 14 q52 0 52 -66 q-1 -45 -20 -63 q-19 -18 -50 -19 l0 -21 q36 0 57 -22 q20 -22 20 -72 q0 -37 -17 -59 q-17 -22 -45 -22 q-22 0 -38 15 q-16 16 -17 48 q0 23 8 40 q8 16 21 30 q-7 4 -18 7 q-11 4 -26 4 q-32 0 -55 -20 q-23 -19 -24 -54 q3 -52 48 -78 q46 -25 101 -25 l0 0 ZM780 243 q31 3 51 21 q20 17 21 44 q-1 45 -39 69 q-38 24 -96 24 q-58 0 -101 -32 q-42 -32 -44 -95 q1 -37 20 -63 q18 -26 49 -40 q-36 -5 -62 -26 q-25 -21 -26 -56 q1 -47 47 -73 q45 -25 117 -25 q65 0 114 32 q49 33 51 100 q0 43 -25 72 q-25 30 -77 48 l0 0 ZM661 322 q0 18 14 31 q14 13 40 14 q33 0 51 -17 q19 -16 19 -45 q0 -16 -5 -31 q-6 -16 -15 -26 l-36 14 q-34 11 -51 24 q-17 13 -17 36 l0 0 ZM727 139 q27 -9 42 -23 q16 -14 16 -39 q-1 -24 -19 -37 q-18 -14 -47 -14 q-40 1 -63 23 q-24 21 -25 58 q0 19 7 36 q6 16 15 23 l74 -27 Z" /><glyph glyph-name="" unicode="&#x215d;" d="M262 -10 l438 720 l-55 0 l-438 -720 l55 0 ZM177 328 q-22 0 -36 15 q-15 14 -15 41 q1 25 10 40 q10 16 21 24 q-6 5 -18 8 q-13 3 -30 3 q-30 0 -53 -17 q-24 -17 -25 -50 q3 -47 47 -71 q44 -25 100 -25 q66 -1 122 31 q55 31 58 105 q-2 61 -41 92 q-40 31 -99 31 q-34 0 -60 -7 q-26 -7 -43 -19 l12 90 q21 -9 53 -17 q33 -8 63 -8 q57 1 78 34 q21 33 20 88 l-2 0 q-16 -16 -40 -20 q-24 -5 -58 -4 q-25 0 -62 2 q-37 2 -69 5 l-27 -211 l3 0 q15 12 33 20 q18 7 42 7 q40 -1 59 -27 q19 -26 19 -68 q-1 -44 -18 -68 q-17 -24 -44 -24 l0 0 ZM778 243 q31 3 51 21 q20 17 21 44 q-1 45 -39 69 q-38 24 -96 24 q-58 0 -101 -32 q-42 -32 -44 -95 q1 -37 20 -63 q18 -26 49 -40 q-36 -5 -62 -26 q-25 -21 -26 -56 q1 -47 47 -73 q45 -25 117 -25 q65 0 114 32 q49 33 51 100 q0 43 -25 72 q-25 30 -77 48 l0 0 ZM659 322 q0 18 14 31 q14 13 40 14 q33 0 51 -17 q19 -16 19 -45 q0 -16 -5 -31 q-6 -16 -15 -26 l-36 14 q-34 11 -51 24 q-17 13 -17 36 l0 0 ZM725 139 q27 -9 42 -23 q16 -14 16 -39 q-1 -24 -19 -37 q-18 -14 -47 -14 q-40 1 -63 23 q-24 21 -25 58 q0 19 7 36 q6 16 15 23 l74 -27 Z" /><glyph glyph-name="" unicode="&#x215e;" d="M191 -10 l438 720 l-55 0 l-438 -720 l55 0 ZM41 549 l8 0 q14 33 30 42 q17 10 54 9 l121 1 l-27 -44 q-39 -59 -67 -121 q-28 -62 -46 -140 l109 16 q-4 65 6 129 q10 64 48 135 l69 122 l0 2 l-305 0 l0 -151 ZM706 243 q31 3 51 21 q20 17 21 44 q-1 45 -39 69 q-38 24 -96 24 q-58 0 -101 -32 q-42 -32 -44 -95 q1 -37 20 -63 q18 -26 49 -40 q-36 -5 -62 -26 q-25 -21 -26 -56 q1 -47 47 -73 q45 -25 117 -25 q65 0 114 32 q49 33 51 100 q0 43 -25 72 q-25 30 -77 48 l0 0 ZM587 322 q0 18 14 31 q14 13 40 14 q33 0 51 -17 q19 -16 19 -45 q0 -16 -5 -31 q-6 -16 -15 -26 l-36 14 q-34 11 -51 24 q-17 13 -17 36 l0 0 ZM653 139 q27 -9 42 -23 q16 -14 16 -39 q-1 -24 -19 -37 q-18 -14 -47 -14 q-40 1 -63 23 q-24 21 -25 58 q0 19 7 36 q6 16 15 23 l74 -27 Z" /><glyph glyph-name="" unicode="&#xfb00;" d="M239 493 l0 84 q0 58 25 89 q24 32 67 32 q42 -1 66 -30 q23 -29 32 -71 q-2 -10 -3 -21 q-1 -11 -1 -22 l0 -61 l-186 0 ZM302 10 q-37 19 -50 37 q-14 18 -13 64 l0 332 l186 0 l0 -330 q1 -47 -11 -66 q-11 -19 -43 -38 l0 -9 l298 0 l0 11 q-48 20 -71 39 q-23 19 -23 65 l0 328 l139 0 l5 50 l-144 0 l0 107 q0 55 17 86 q17 31 55 31 q31 -1 44 -22 q13 -22 13 -49 q0 -18 -5 -35 q-6 -16 -15 -26 q6 -2 18 -5 q12 -2 27 -2 q35 0 60 17 q25 17 26 55 q-2 55 -48 80 q-47 26 -118 26 q-57 0 -101 -17 q-45 -17 -74 -48 q-27 24 -65 38 q-38 13 -82 13 q-109 -1 -172 -58 q-64 -57 -65 -152 l0 -33 l-70 -21 l0 -35 l70 0 l0 -330 q1 -47 -11 -66 q-11 -19 -43 -38 l0 -9 l266 0 l0 10 Z" /><glyph glyph-name="" unicode="&#xfb03;" d="M239 493 l0 84 q0 58 25 89 q24 32 67 32 q43 -1 68 -32 q24 -31 31 -75 q-5 -24 -5 -52 l0 -46 l-186 0 ZM302 10 q-37 19 -50 37 q-14 18 -13 64 l0 332 l186 0 l0 -330 q1 -47 -11 -66 q-11 -19 -43 -38 l0 -9 l267 0 l0 10 q-37 19 -51 37 q-13 18 -12 64 l0 332 l185 0 l0 -330 q1 -47 -10 -66 q-11 -19 -43 -38 l0 -9 l256 0 l0 9 q-32 19 -43 38 q-11 19 -10 66 l0 380 l-335 0 l0 80 q0 67 24 105 q24 38 72 39 q38 -1 54 -23 q16 -22 15 -49 q0 -25 -7 -43 q-7 -19 -16 -29 q6 -2 19 -5 q13 -3 30 -3 q37 0 65 19 q27 19 28 59 q-1 54 -52 84 q-51 29 -133 29 q-62 0 -112 -17 q-50 -17 -84 -52 q-26 26 -66 41 q-39 14 -85 14 q-109 -1 -172 -58 q-63 -57 -65 -152 l0 -33 l-70 -21 l0 -35 l70 0 l0 -330 q1 -47 -11 -66 q-11 -19 -43 -38 l0 -9 l266 0 l0 10 Z" /><glyph glyph-name="" unicode="&#xfb04;" d="M239 493 l0 84 q0 58 25 89 q24 32 67 32 q42 -1 66 -30 q23 -29 32 -71 q-2 -10 -3 -21 q-1 -11 -1 -23 l0 -60 l-186 0 ZM302 10 q-37 19 -50 37 q-14 18 -13 64 l0 332 l186 0 l0 -330 q1 -47 -11 -66 q-11 -19 -43 -38 l0 -9 l267 0 l0 10 q-37 19 -51 37 q-13 18 -12 64 l0 332 l116 0 l5 50 l-121 0 l0 95 q0 58 22 90 q21 32 67 32 q41 0 68 -27 q27 -28 28 -79 l0 -491 q1 -47 -10 -66 q-11 -19 -43 -38 l0 -9 l256 0 l0 9 q-32 19 -43 38 q-11 19 -10 66 l0 636 l-115 -59 q-23 29 -63 47 q-40 18 -94 19 q-52 0 -94 -17 q-41 -16 -70 -48 q-27 25 -65 38 q-38 13 -82 13 q-109 -1 -172 -58 q-64 -57 -65 -152 l0 -33 l-70 -21 l0 -35 l70 0 l0 -330 q1 -47 -11 -66 q-11 -19 -43 -38 l0 -9 l266 0 l0 10 Z" /></font>
</defs>
</svg>
